<svg id="Layer_1" data-name="Layer 1" xmlns="http://www.w3.org/2000/svg" viewBox="0 0 400 400"><defs><style>.cls-1{fill:#009682;}.cls-2{fill:#fff;}</style></defs><title>svobodni</title><rect class="cls-1" width="400" height="400"/><g id="g3408"><path id="path3410" class="cls-2" d="M239.22,166.07c-23.89,0-34.3,23.07-39.22,31.59-4.92-8.52-15.33-31.59-39.22-31.59a34.08,34.08,0,0,0-34.09,34.08c0,18.83,15.3,30.66,34.09,30.66,10,0,14.78-3.42,14.78-3.42l-5.87-7.49s-6.92.38-12.32-2.66c-8.07-4.53-10.16-11.72-8.91-17.91s6-10.54,12.32-10.54a11.31,11.31,0,0,1,8.91,4.34c3.13,3.37,17,28.65,20.41,35h0a11.33,11.33,0,0,0,19.78,0h0c3.45-6.36,17.28-31.64,20.41-35a11.3,11.3,0,0,1,8.91-4.34c6.28,0,11.09,4.38,12.32,10.54s-.84,13.38-8.91,17.91c-5.4,3-12.32,2.66-12.32,2.66l-5.87,7.49s4.77,3.42,14.78,3.42c18.79,0,34.09-11.83,34.09-30.66a34.08,34.08,0,0,0-34.09-34.08"/></g><g id="g3412"><path id="path3414" class="cls-2" d="M200,293.58A93.58,93.58,0,1,1,293.58,200,93.69,93.69,0,0,1,200,293.58M200,85A115,115,0,1,0,315,200,115.13,115.13,0,0,0,200,85"/></g></svg>