<svg viewBox="-9944 -9915 10110 10146" xmlns="http://www.w3.org/2000/svg"><mask id="mm"><rect x="-10000" y="-10000" width="30000" height="30000" fill="#fff" /><path d="M57.443 94.095c-.657 4.718.028 9.412 1.527 10.462.696.487 1.416 1.359 1.421 2.039.08.459.999 1.337 2.048 1.956 1.433.846 2.209 1.581 2.209 3.039 0 .946.271 1.856.523 2.112.395.401.71 1.903.806 3.113.159 2.006.366 2.333 1.579 2.496.867.117 2.233.818 3.045 1.563 1.355 1.242 1.464 1.754 1.159 5.478-.172 2.111-.091 3.985.245 4.524a.693.693 0 01.207.538c-.024.422-.413.923-1.187 1.531-.828.652-1.421 1.419-1.505 1.842.016 1.299 1.721 2.279 3.965 2.279 1.652 0 2.831.416 3.604 1.271.716.793 1.832 1.148 2.619 1.148.986 0 1.063-.511 1.063-.668 0-.521.7-1.388 1.594-1.973.786-.515 1.45-1.478 1.45-2.103 0-.997.351-1.27 1.631-1.27.347 0 .775.018 1.43.06 1.528.098 2.279.198 2.687.531l.098.092c.322.341.478.958.686 2.129.24 1.348.605 3.284.816 4.317.044.214.076.412.097.594l.053.154c.197.321.429.556.692.728.176.114.363.205.573.256l.097.023.096-.028c.418-.121.76-.064 1.175.195.554.344 1.719.634 2.543.634.896 0 2.567.718 3.725 1.601 1.06.809 2.321 1.352 3.14 1.352.073 0 .139-.004.204-.013 1.009-.144 1.324-.497 1.62-2.703.221-1.653.77-3.854 2.979-3.881.981-.014 1.843-2.06 1.843-4.377 0-1.527.227-2.052.361-2.229l.081-.107.001-.001-.006-.136c-.01-.243-.027-.47-.049-.681l-.013-.118-.078-.089a1.097 1.097 0 01-.297-.749c0-.524-.526-1.249-1.148-1.583-.612-.328-.897-.525-.969-.832-.079-.328.115-.676.609-1.383 1.559-2.226.672-5.069-.345-7.062-1.075-2.106-1.107-2.57-1.069-2.675a.172.172 0 01.074-.092l.262-.164-.111-.289-.005-.014c-.382-.022-.708-.188-.988-.518l-.062-.103a27.27 27.27 0 00-.328-.783c-.679-1.527-.855-10.305-.25-12.358.336-1.144.29-1.966-.146-2.586-.724-1.028-2.528-1.535-6.226-1.749-1.845-.107-3.23-.22-3.994-.42-.506-.133-.819-.301-.819-.726 0-1.603-1.276-2.638-3.251-2.638-.841 0-1.884-.398-2.277-.871-.469-.567-1.337-.845-2.071-.618-.113.04-.305.063-.543.065-1.232 0-3.079-.584-3.939-1.006l-.087-.06a2.438 2.438 0 01-.327-.36c-.298-.415-.385-.878-.263-1.316a18.12 18.12 0 00-.908-.776 59.534 59.534 0 00-3.158-2.357c-3.216-2.259-4.394-2.989-6.034-2.989-.502 0-1.012.074-1.486.153-3.438.572-7 2.457-8.107 4.29-.588.975-1.836 1.04-3.132.229-1.363-.85-2.542-.69-2.936.203a1.377 1.377 0 00-.108.637c.018.355.156.805.547 1.368.835.766 1.165 1.544 1.038 2.452z" fill="#000" /></mask><rect x="-10000" y="-10000" width="30000" height="30000" fill="#fff" opacity=".3" mask="url(#mm)" /></svg>