<svg viewBox="146 238 248 340" xmlns="http://www.w3.org/2000/svg"><defs><filter id="f1" x="0" y="0" width="130%" height="130%"><feOffset result="offOut" in="SourceAlpha" dx="1" dy="1" /><feGaussianBlur result="blurOut" in="offOut" stdDeviation="2" /><feBlend in="SourceGraphic" in2="blurOut" mode="normal" /></filter></defs><path d="M247.158 311.076l-.051-.107.019-.116c.06-.356-.031-1.063-.195-2.348-.19-1.476-.596-3.216-.948-3.602-.26-.283-.488-1.158-.488-1.871 0-1.433-.594-1.561-2.291-1.561-1.271 0-2.512-.447-3.236-1.171-.498-.498-.84-.829-1.06-.896l-.123-.038-.007-.011-.11.062c-.188.104-.188.624-.188.874 0 1.21-1.053 2.398-2.125 2.398l-.038-.002c-.411-.042-1.722-.819-3.021-1.908-1.696-1.423-2.525-1.866-4.403-1.866-.284 0-.6.008-.993.028-.362.018-.739.034-1.068.034-1.835 0-2.434-.435-5.761-3.453-2.146-1.945-4.495-4.59-5.13-5.771-.824-1.53-1.132-2.103-2.423-2.103-.438 0-.995.063-1.678.146-2.67.323-2.621.373-4.052-1.994-.713-1.179-2.048-2.707-2.961-3.121-1.126-.515-1.451-1.514-1.388-2.213.071-.775.583-1.356 1.368-1.556 2.104-.526 4.821-4.858 4.407-7.022-.24-1.254.208-2.191 2.178-4.563 1.424-1.714 2.845-3.028 3.28-3.181.909-.211.994-1.479.864-4.43-.15-3.389-.309-4.203-1.527-4.43-.62-.113-1.352-.57-1.596-.996-.298-.518-.956-.924-1.496-.924-.247 0-.47-.137-.663-.407-.547-.769-.761-2.567-.175-4.247.107-.311.192-.585.25-.834l.044-.191.183-.073c.085-.034.174-.043.263-.057l-.404-.442-.016-.113c-.064-.469-.341-.879-1.022-1.514-.746-.692-2.01-1.256-2.818-1.256-1.016 0-1.249-.261-1.249-1.395 0-1.78-1.573-5.303-2.588-5.303-.434 0-1.026.67-1.364 1.301-.363.679-1.058 1.135-1.479 1.135-.121 0-.443 0-.659.238-.351.39-.324 1.321-.138 3.133.184 1.776.536 3.878.785 4.688.087.282.138.473.164.6l.106.514-.521-.065a7.54 7.54 0 01-.577-.105c-.793-.171-1.984-.534-2.603-.792-.506-.213-.818-.262-1.007-.051-.284.317-.228 1.125.004 3.355l.013.121-.062.106a1.686 1.686 0 01-.213.289c-.017.019-.037.029-.054.046.102.066.206.133.292.209l.111.098.014.147c.25 2.604.09 2.894-1.14 3.698-.933.609-1.583 1.658-1.583 2.549 0 .747-.685 2.387-1.495 3.579-.869 1.28-1.55 2.798-1.55 3.451 0 1.515-2.106 2.7-4.796 2.7a7.85 7.85 0 01-.593-.021l-2.842-.183.212 3.281c.181 2.795.057 3.139-1.665 4.588-1.255 1.056-2.208 1.506-3.187 1.506-.838 0-1.75-.332-2.957-1.077-1.252-.774-2.333-1.037-4.282-1.037-.547 0-1.174.019-1.97.062-2.365.125-5.28.242-6.5.262-2.234.037-2.404.199-2.591 2.469-.08.971-.149 1.582-.448 1.879-.297.299-.908.368-1.879.448-1.451.118-2.047.183-2.249.573-.203.393.071.895.895 2.289.979 1.658.973 1.804-.151 3.902-.843 1.576-2.091 2.652-4.309 3.717-2.039.978-3.267 1.983-3.285 2.69-.006.219-.049.44-.127.662l-.077.127c-.36.394-.839.771-1.335 1.078-.033.594.114 1.261.271 1.812.308 1.082 1.774 5.085 3.487 5.587.238.392.849 1.8 1.535 4.911.453 2.054 3.193 3.662 6.195 3.662h.009c.293.064 1.799 1.07 3.614 3.058 1.002 1.096 3.492 3.642 4.925 3.642h.002c.232.052 1.562.891 3.792 3.133 1.96 1.973 2.839 3.244 3.056 3.676-.167.156-.56.443-1.158.652-1.667.581-2.44 1.185-2.434 1.899.011 1.562 4.475 5.281 6.227 6.01 1.136.474 4.006 1.059 6.397 1.303 5.521.562 9.032 1.434 12.521 3.106 2.164 1.04 3.121 1.463 3.881 1.463.987 0 1.445-.722 1.691-1.107.498-.776 3.759-3.007 4.192-3.082.784-.015 2.063-1.094 2.755-1.734 1.334-1.236 1.903-2.528 1.903-4.32 0-.647.07-1.034.133-1.189.232.06.894.352 2.46 1.755 2.977 2.665 6.587 3.381 9.246 1.84.337-.197.72-.42.907-.42.413 0 1.503.933 3.013 2.223 3.589 3.065 3.978 3.065 4.261 3.065.341 0 .905-.185 2.241-1.621 1.349-1.45 1.486-2.745 1.486-7.654v-5.306l3.362-3.111c3.008-2.786 3.945-3.978 3.945-5.994 0-1.006.329-1.891.465-2.032.217-.219.996-.439 2.063-.439 1.274 0 2.562.303 3.205.753.643.451 1.03.723 1.499.723.289 0 .545-.119.742-.313a2.84 2.84 0 01-.361-.566z" stroke="#c00" stroke-width=".2" fill="transparent" filter="url(#f1)" /></svg>