<svg viewBox="46 194 144 287" xmlns="http://www.w3.org/2000/svg"><path d="M128.529 282.23l-.051-.133c-.138-.354-.208-.793-.208-1.299-.003-2.857 1.812-6.085 4.221-7.508l2.015-1.188-.344-4.1c-.301-3.604-.024-5.812.847-6.761.346-.377.793-.568 1.328-.568.855 0 2.301-.622 3.683-1.586 1.346-.937 2.25-1.938 2.25-2.493 0-.703.485-1.546 1.083-1.88.683-.385.795-.884.481-2.136-.246-.982-.397-2.475-.339-3.327.058-.834.148-2.471.2-3.651.025-.548.088-1.245.361-1.771l.042-.232-.036-.139c-.007-.028-.015-.049-.021-.076a1.826 1.826 0 01-.913-.51l-.079-.121c-.399-.987-.952-1.345-2.462-1.596-1.145-.192-2.717-.696-3.505-1.124-.871-.472-2.548-.688-4.054-.506-.54.067-1.305.104-2.153.104-1.166 0-2.354-.067-3.258-.185-2.688-.353-2.969-.551-4.29-3.024-.809-1.515-2.301-3.402-3.327-4.206-1.365-1.067-1.807-2.23-1.77-2.901.023-.408.202-.718.531-.924.445-.275.685-1.445.685-2.407 0-.994.437-2.315.954-2.886.458-.507.735-.833.667-1.156-.069-.331-.491-.536-1.174-.843a39.357 39.357 0 01-2.962-1.522c-.918-.53-3.229-.903-5.618-.908-3.207-.008-4.142-.228-5-1.175-.763-.843-1.949-1.27-3.525-1.27-1.172 0-2.179-.235-2.475-.463l-.083-.089c-.249-.374-1.018-.666-1.75-.666-.388 0-.532-.036-.614-.068l-.162-.062-.058-.164c-.068-.191-.07-.523.127-1.582.357-1.906.159-2.37-1.515-3.562-1.125-.801-1.595-1.331-1.675-1.891-.082-.579.244-1.259 1.162-2.427 1.226-1.559 1.274-1.956.518-4.247-.506-1.531-1.379-2.728-2.225-3.049-.679-.256-1.412-.884-1.599-1.37-.25-.651-.933-1.025-1.874-1.025-1.043 0-2.242.454-3.207 1.213-1.014.797-1.763 1.185-2.29 1.185-.941 0-.941-1.485-.941-1.973 0-.763-.034-1.308-.202-1.669l-.072-.155.07-.156c.013-.028.036-.045.049-.072l-.211.014-.113.006-.098-.058c-.361-.214-.981-.314-1.953-.314-.692 0-1.561.037-2.808.091-2.059.092-3.542.546-4.411 1.348-.794.735-1.468.979-3.887.979-.771 0-1.743-.025-3.249-.083a80.453 80.453 0 00-3.001-.075c-3.297 0-4.543.451-7.746 2.241l-.24.135c-1.688.944-2.528 1.414-3.298 1.414-.782 0-1.552-.493-3.086-1.475l-.217-.139c-1.218-.778-1.835-1.125-2.273-1.128a.551.551 0 00-.351.104l-.18.138-.206-.095a3.595 3.595 0 01-.4-.226c-.314.565-.319 1.383-.319 2.127 0 3.441 1.22 6.001 3.729 7.827 1.656 1.207 1.722 1.35 1.744 3.84.044 5.151 1.353 7.888 5.002 10.456 2.108 1.485 3.332 2.978 4.848 5.917 2.345 4.545 4.304 5.931 8.384 5.931.725 0 1.567-.044 2.575-.135.542-.05 1.159-.077 1.784-.077 1.378 0 2.656.133 3.179.332 2.328.884 7.116 6.275 7.116 7.339 0 1.148.959 2.667 1.861 3.514.814.762 2.686 3.187 4.087 5.295 1.547 2.325 3.317 4.624 4.118 5.346.623.564 1.559 2.035 2.004 3.146 1.428 3.566 4.188 5.639 8.688 6.523 3.002.591 3.566.941 6.699 4.183 3.269 3.381 3.465 3.737 4.192 7.636.791 4.243 1.158 4.918 3.932 7.215 1.733 1.433 2.691 2.387 2.766 2.482.291.648.875 1.035 1.562 1.035 1.013 0 2.097-.895 2.097-2.225 0-.349.212-.629.538-.715.564-.146.983-.422 1.288-.812.145-.187.272-.39.361-.634l.05-.123z" /></svg>