<svg viewBox="128 211 196 296" xmlns="http://www.w3.org/2000/svg"><path d="M147.043 294.49c.078-.221.121-.443.127-.662.019-.707 1.247-1.714 3.285-2.691 2.217-1.062 3.466-2.14 4.309-3.716 1.124-2.101 1.129-2.245.151-3.903-.823-1.395-1.097-1.896-.895-2.289.202-.391.798-.453 2.249-.572.971-.08 1.582-.149 1.879-.448.299-.297.369-.908.448-1.879.188-2.271.357-2.431 2.591-2.47 1.22-.02 4.135-.135 6.5-.26a34.552 34.552 0 011.97-.062c1.949 0 3.029.262 4.282 1.037 1.207.744 2.119 1.076 2.957 1.076.979 0 1.932-.449 3.187-1.506 1.721-1.449 1.846-1.793 1.665-4.588l-.212-3.281 2.842.184c.198.016.397.021.593.021 2.689 0 4.796-1.188 4.796-2.701 0-.653.681-2.17 1.55-3.451.811-1.193 1.495-2.832 1.495-3.579 0-.892.651-1.938 1.583-2.549 1.23-.806 1.39-1.093 1.14-3.698l-.014-.146-.111-.099a2.328 2.328 0 00-.292-.209c-.172.17-.371.302-.614.388l-.13.045-.129-.049c-.487-.187-1.113-.281-1.863-.281-1.62 0-2.645-.422-3.781-1.558-1.249-1.25-1.909-3.127-1.471-4.187.175-.421.502-.635.972-.635 1.214 0 1.376-.615 1.376-3.057 0-3.283-1.186-4.589-4.7-5.176-1.662-.277-1.741-.549-2.09-3.403-.351-2.874-.57-3.429-.67-3.505-.101-.07-.721-.312-2.395-.77-1.675-.459-2.112-1.149-2.184-1.647-.272-1.899-1.427-5.934-2.132-7.442-.324-.692-.44-1.877-.255-2.587.428-1.633-.455-2.56-3.936-4.129-1.17-.528-2.619-1.222-3.229-1.547-.035-.019-.073-.035-.111-.052l-.196-.085-.026-.212c-.012-.095.004-.188.014-.28a5.864 5.864 0 01-.596.33l-.094.043-.104-.012a10.054 10.054 0 00-1.048-.053c-.582 0-1.186.044-1.745.127-1.515.228-2.944.138-3.355-.205-.335-.278-1.473-.745-5.326-.745-1.456 0-3.083.066-4.834.197-.142.01-.278.032-.408.065l-.188.048-.148-.125a1.574 1.574 0 01-.217-.229l-.113.488-.028.124-.098.082a1.973 1.973 0 00-.504.648c-.483.976-.274 2.36.546 3.612.799 1.221.982 2.156.658 6-.231 2.739-.104 5.543.324 7.142.889 3.323.408 5.066-2.144 7.771-1.49 1.582-2.118 2.81-2.035 3.984.087 1.249-.314 1.619-.989 1.812a1.753 1.753 0 00-.681.353l-.133.113-.172-.028c-.034-.006-.063-.025-.096-.033l.021.076.036.139-.042.232c-.273.526-.336 1.223-.361 1.771a177.97 177.97 0 01-.2 3.651c-.059.852.093 2.345.339 3.327.313 1.252.201 1.751-.481 2.136-.598.334-1.083 1.177-1.083 1.88 0 .555-.904 1.557-2.25 2.493-1.382.964-2.828 1.586-3.683 1.586-.535 0-.981.191-1.328.568-.871.946-1.148 3.157-.847 6.761l.344 4.1-2.015 1.188c-2.409 1.423-4.224 4.65-4.221 7.508 0 .506.07.943.208 1.299l.051.133-.049.133a2.321 2.321 0 01-.361.634c.787 1.093 2.206 1.276 3.529 1.287.182.03 1.108.544 2.482 1.927 1.375 1.382 1.883 2.309 1.911 2.473 0 1.234 1.538 3.353 2.2 4.205 1.014 1.307 2.447 2.906 3.519 3.111.708.135 1.207.252 1.26.26.199.115.429.174.683.174.492 0 1.229-.301 1.929-.738a6.509 6.509 0 001.335-1.077l.077-.136z" /></svg>