<svg viewBox="168 200 251 265" xmlns="http://www.w3.org/2000/svg"><path d="M249.946 208.441l-.156.078-.16-.069a5.974 5.974 0 00-1.133-.336c-1.161-.231-1.885-.883-2.421-2.177-.568-1.373-1.633-2.333-3.452-3.112-1.353-.58-2.416-1.235-2.661-1.534l-.092-.112-.065-.264c.005-.097.038-.174.063-.257-.115.004-.223.011-.347.011l-.483-.03c-.766-.297-1.717-.456-1.9-.484-1.074-.171-1.906-.268-2.423.042l-.173.125c-.401.335-.697.937-1.071 1.699-.596 1.211-1.081 3.294-1.081 4.645 0 1.017-.036 1.626-.223 1.929-.168.273-.509.324-1.119.324-.963 0-2.664.969-3.688 1.866-1.301 1.144-2.537 1.723-3.672 1.723-1.039 0-2.006-.462-2.956-1.412-.771-.771-2.005-1.569-2.734-1.569-.517 0-1.805-.254-2.983-.666-1.499-.522-2.414-.519-3.725.024-1.403.581-1.883.53-3.57-.312-1.338-.666-2.327-.808-2.62-.36-.697 1.069-2.7 1.876-4.657 1.876-1.148 0-2.052-.293-2.479-.806-.444-.536-1.329-.971-1.973-.971-.549 0-1.541-.726-2.167-1.585-1.128-1.551-1.494-1.659-2.993-.973-.91.414-1.975 1.462-2.374 2.337-.656 1.438-.889 1.438-6.85 1.438-3.02 0-4.683 0-5.462-.184-.675-.157-.675-.445-.675-1.143 0-1.298-.296-1.902-.931-1.902-.688 0-1.787.784-3.675 2.623-.841.82-1.487 1.466-1.904 1.956-.538.433-.995.756-1.393 1.001-.009.093-.025.185-.014.28l.026.212.196.085c.039.017.077.034.111.052.61.325 2.059 1.019 3.229 1.547 3.481 1.57 4.363 2.496 3.936 4.129-.186.71-.069 1.895.255 2.587.705 1.509 1.86 5.543 2.132 7.442.072.498.509 1.188 2.184 1.647 1.674.458 2.293.7 2.395.77.1.076.32.631.67 3.505.349 2.854.428 3.126 2.09 3.403 3.514.586 4.7 1.893 4.7 5.176 0 2.442-.162 3.057-1.376 3.057-.469 0-.796.213-.972.635-.438 1.059.222 2.937 1.471 4.187 1.136 1.137 2.161 1.559 3.781 1.559.75 0 1.376.095 1.863.281l.129.049.13-.047a1.64 1.64 0 00.614-.387c.017-.017.038-.027.054-.046.08-.086.151-.183.213-.289l.062-.106-.013-.121c-.232-2.229-.289-3.038-.004-3.355.188-.211.501-.162 1.007.051.618.258 1.809.621 2.603.792.187.039.405.084.577.105l.521.065-.106-.514a6.893 6.893 0 00-.164-.6c-.25-.808-.602-2.911-.785-4.687-.187-1.812-.213-2.743.138-3.133.216-.238.538-.238.659-.238.421 0 1.115-.456 1.479-1.135.337-.63.93-1.301 1.364-1.301 1.015 0 2.588 3.523 2.588 5.303 0 1.134.233 1.395 1.249 1.395.809 0 2.073.563 2.818 1.256.681.634.958 1.044 1.022 1.514l.016.116.404.442.496.543c.139.152.288.297.506.48.1.059.206.121.325.197.708.441 2.317.983 3.586 1.206 1.847.325 2.655.894 3.461 2.435 1.454 2.779 7.287 8.283 9.178 8.661.963.191 2.466 1.155 3.35 2.146.803.901 1.561 1.537 1.866 1.676l.12.031a.54.54 0 01.217.076l.091.053.105-.002c.263-.008.499-.1.721-.229.123-.071.248-.142.357-.251.026-.023.087-.077.206-.146l.108-.094c.278-.353.783-.465 1.192-.521.662-.094.863-.206.975-.36.125-.177.165-.475-.022-1.407-.181-.9-.133-2.008.311-2.281.334-.207.542-.9.528-1.768-.013-.822-.237-1.584-.532-1.809l-.099-.076-.125-.001c-1.158-.008-1.398-.521-1.921-2.708-.197-.828-.252-1.271-.032-1.553.213-.27.639-.318 1.401-.318 3.467 0 6.301-1.343 7.777-3.684 1.08-1.71 1.576-3.226 1.361-4.158-.073-.315-.228-.549-.464-.694-.296-.184-.685-.476-.643-.877.049-.481.698-.914 2.169-1.445l1.484-.537.149-.099c.123-.134.221-.277.301-.438l.042-.085-.13-3.312c-.08-2.063-.496-4.229-.909-4.729-1.098-1.323-.425-6.773 1.181-9.559 1.303-2.262 1.033-6.861-.507-8.633-.473-.545-.736-.865-.626-1.104.094-.208.398-.224.816-.224.932 0 1.274-1.405 1.502-3.516l.023-.213-.172-.128c-.024-.018-.055-.035-.081-.052a2.062 2.062 0 01-.516.385z" /></svg>