<svg viewBox="203 248 247 303" xmlns="http://www.w3.org/2000/svg"><mask id="mm"><rect x="-10000" y="-10000" width="30000" height="30000" fill="#fff" /><path d="M234.12 265.062l-.105.002-.091-.053a.534.534 0 00-.217-.076l-.12-.031c-.306-.139-1.063-.773-1.866-1.676-.884-.992-2.387-1.955-3.35-2.146-1.892-.378-7.724-5.882-9.178-8.661-.806-1.541-1.615-2.11-3.461-2.435-1.269-.223-2.877-.765-3.586-1.206-.12-.076-.226-.139-.325-.197a5.056 5.056 0 01-.506-.48l-.496-.543c-.089.013-.178.023-.263.057l-.183.073-.044.191a8.369 8.369 0 01-.25.834c-.586 1.68-.372 3.479.175 4.247.193.271.416.407.663.407.54 0 1.197.406 1.496.924.245.426.976.882 1.596.996 1.218.227 1.377 1.041 1.527 4.429.13 2.952.044 4.22-.864 4.431-.435.151-1.856 1.467-3.28 3.181-1.97 2.372-2.418 3.312-2.178 4.563.415 2.164-2.303 6.496-4.407 7.022-.785.198-1.296.778-1.368 1.555-.063.7.262 1.699 1.388 2.214.913.414 2.248 1.942 2.961 3.121 1.431 2.367 1.382 2.317 4.052 1.994.683-.083 1.24-.146 1.678-.146 1.291 0 1.599.572 2.423 2.103.635 1.183 2.984 3.825 5.13 5.771 3.327 3.02 3.926 3.452 5.761 3.452.329 0 .706-.017 1.068-.033.393-.021.709-.028.993-.028 1.878 0 2.707.443 4.403 1.866 1.299 1.089 2.61 1.865 3.021 1.907l.038.003c1.072 0 2.125-1.188 2.125-2.398 0-.25 0-.771.188-.874l.11-.062.058-.031.022-.191c.033-.285.058-.579.07-.876l.004-.092-.039-.083a4.248 4.248 0 01-.414-1.812c0-.972-.244-1.812-.48-2.066l-.075-.062c-.556-.349-.554-.701-.504-.878.153-.534 1.105-.721 1.898-.3.724.391 1.794.611 2.936.611 1.705 0 3.223-.461 3.868-1.174 1.023-1.131.933-1.34-.578-4.822-1.443-3.323-1.606-4.323-1.251-7.645.352-3.283.353-3.656-.768-4.012-.67-.212-1.386-.676-1.394-1.119l-.002-.132-.084-.103a.564.564 0 00-.428-.182c-1.712 0-5.427-3.718-5.761-5.765-.159-.981-.365-2.243-.486-2.978l-.046-.127a4.37 4.37 0 00-.485-.688 1.467 1.467 0 01-.719.229z" fill="#000" /></mask><rect x="-10000" y="-10000" width="30000" height="30000" fill="#fff" opacity="1" mask="url(#mm)" /></svg>