<svg viewBox="-9765 -9802 10293 10313" xmlns="http://www.w3.org/2000/svg"><mask id="mm"><rect x="-10000" y="-10000" width="30000" height="30000" fill="#fff" /><path d="M269.959 281.695l.145-.144.199.044c.237.053.503.079.789.079.935 0 1.773-.282 2.245-.755.62-.618.837-1.857.732-2.766-.075-.65-.296-1.106-.639-1.319-.442-.269-.574-1.106-.507-1.817.065-.69.341-1.467.81-1.645l.088-.023c.582-.125 2.057.149 3.299.601 1.424.521 4.027 1.063 5.804 1.212.583.049 1.054.072 1.438.072.397 0 .904-.02 1.298-.168l.081-.029.091.008v-.038l.147-.112a.835.835 0 00.216-.237c.363-.599-.032-1.609-.837-3.155-.492-.943-.893-2.368-.893-3.177 0-.29.006-.611.055-.798l.035-.133.113-.08a1.47 1.47 0 01.126-.078l.117-.039c.23-.036.813.021 1.805.188l2.621.443v-2.29c0-1.497-.573-2.813-1.857-4.269-1.604-1.82-1.735-2.271-1.407-4.815.359-2.776.257-3.052-1.367-3.67-.917-.349-2.479-.632-3.482-.632-.818 0-1.228 0-1.416-.363-.205-.407-.213-1.217-.213-3.01 0-4.135.751-4.834 3.008-4.834 1.202 0 1.864-.376 1.864-1.059.017-.509.828-2.388 1.808-4.201 1.018-1.883 1.846-4.099 1.846-4.94 0-.819.483-1.649 1.174-2.019.361-.193.852-.5.939-.933.045-.229-.027-.465-.217-.698-.3-.369-.713-1.917-.9-3.379a294.383 294.383 0 00-.738-5.317c-.334-2.223-.167-2.768 1.486-4.856.229-.287.561-.729.853-1.203l.083-.094a4.21 4.21 0 011.088-.647 5.573 5.573 0 01-.447-.474c-.039-.05-.066-.084-.091-.121l-.06-.151c-.023-.163-.072-.248-.147-.307l-.079-.062-.038-.093a3.288 3.288 0 01-.092-.259c-.132-.608-.181-1.93.054-3.91.251-2.117.705-3.867 1.127-4.354.504-.583.87-1.174.87-1.408 0-.099-.226-.594-3.13-2.81-2.095-1.598-3.538-2.22-5.144-2.22-1.019 0-2.132.257-3.609.833-1.031.403-1.905.417-2.61.039-.438-.234-1.406-.374-2.591-.374-.522 0-1.063.03-1.562.085-2.237.252-3.12.572-3.612 1.87-.43 1.132-.922 1.277-1.303 1.277-.48 0-1.124-.287-1.967-.878-.688-.483-1.204-.68-1.781-.68-.433 0-.921.106-1.633.355-1.126.393-2.503.618-3.78.618-1.17 0-2.105-.184-2.633-.517a1.845 1.845 0 00-.988-.285c-1.182 0-2.254 1.017-2.442 2.315-.115.788-.696 1.359-1.596 1.567-1.409.327-1.688 1.035-1.81 2.603l-.035.441-.059.084c-.071.101-.156.183-.24.268.026.018.057.034.081.052l.172.128-.023.213c-.228 2.11-.57 3.516-1.502 3.516-.418 0-.722.016-.816.224-.109.24.153.56.626 1.104 1.54 1.772 1.81 6.371.507 8.633-1.606 2.786-2.279 8.236-1.181 9.559.413.5.829 2.666.909 4.729l.13 3.312-.042.085c-.08.161-.178.305-.301.438l-.149.099-1.484.537c-1.471.532-2.12.964-2.169 1.445-.042.401.347.693.643.877.236.146.391.379.464.694.215.933-.281 2.448-1.361 4.158-1.476 2.341-4.31 3.684-7.777 3.684-.762 0-1.188.05-1.401.318-.22.279-.165.725.032 1.553.523 2.188.763 2.699 1.921 2.708l.125.001.099.076c.295.225.52.984.532 1.809.013.866-.194 1.561-.528 1.768-.444.273-.492 1.381-.311 2.281.187.934.146 1.23.022 1.407-.112.153-.313.267-.975.36-.409.058-.914.17-1.192.521l-.108.094a1.04 1.04 0 00-.206.146c-.109.109-.234.179-.357.251.166.188.328.417.485.688l.046.127c.121.732.327 1.994.486 2.977.334 2.047 4.049 5.766 5.761 5.766.173 0 .333.067.428.182l.084.102.002.132c.008.443.724.907 1.394 1.119 1.121.354 1.119.729.768 4.013-.355 3.319-.191 4.319 1.251 7.644 1.51 3.483 1.601 3.69.578 4.823-.646.713-2.164 1.174-3.868 1.174-1.142 0-2.212-.223-2.936-.612-.793-.421-1.745-.233-1.898.3-.05.178-.052.529.504.879l.075.062c.236.254.48 1.096.48 2.067 0 .614.139 1.226.414 1.812l.039.083-.004.092c-.012.297-.037.591-.07.876l-.022.191-.058.032.007.011.123.038c.22.066.562.397 1.06.896.724.724 1.964 1.171 3.236 1.171 1.697 0 2.291.128 2.291 1.561 0 .713.228 1.588.488 1.871.353.386.758 2.126.948 3.602.165 1.283.255 1.99.195 2.348l-.019.116.051.107c.104.216.227.397.364.562.354.423.827.686 1.478.812 1.054.205 1.771.323 2.31.323 1.081 0 1.551-.515 1.899-1.07.51-.815.69-2.455.904-11.743.021-.927.413-2.309.837-2.958.955-1.457 1.02-2.548.429-7.303-.508-4.098-.348-5.456-.125-5.873.418-.78.733-2.111.733-3.098 0-1.348 2.264-1.387 2.522-1.387 1.269 0 2.661.405 3.821 1.113 1.565.954 2.986 1.238 4.653.966.325-.053.633-.08.917-.08.44 0 .669.063.728.078.232.333.582.592 1.029.763.049-.125.099-.252.188-.363a.969.969 0 01.112-.129z" fill="#000" /></mask><rect x="-10000" y="-10000" width="30000" height="30000" fill="#fff" opacity=".3" mask="url(#mm)" /></svg>