<svg viewBox="0 0 600 500" xmlns="http://www.w3.org/2000/svg"><path d="M215.892 165.503l.122-.079.037-.141c.136-.511.392-.816.685-.816.42 0 .622-.272.718-.502.214-.517.1-1.409-.534-2.043-.885-.885-.999-1.736-.644-4.797l.338-2.916-.087-.119a1.532 1.532 0 00-.084-.104l-.214-.206-.934.178c-.359.068-.627.1-.844.1-.106 0-.355 0-.564-.127l-.013-.006a.684.684 0 01-.16-.142c-.178-.222-.201-.549-.201-.81 0-.712.481-1.292 1.073-1.292.542 0 .754-.621.754-2.213 0-.273 0-.521.006-.748l.004-.16-.081-.082-.022.021a2.112 2.112 0 01-.42.306l-.177.098-.179-.093c-.688-.363-1.81.095-2.916 1.13-1.454 1.359-4.201 2.797-5.344 2.797l-.284-.06c-.404-.237-.918.204-1.125.994-.202.771-.456.995-1.744.995-.339 0-.759-.017-1.358-.056l-2.788-.176.048-2.657c.026-1.458-.019-2.257-.337-2.581-.18-.185-.443-.222-.816-.122a1.04 1.04 0 01-.243.029c-.489 0-1.094-.302-1.438-.719-.632-.762-.641-1.106-.055-2.046.445-.712.668-1.23.611-1.421a.203.203 0 00-.104-.126c-1.766-.843-2.592-1.585-2.763-2.48-.131-.686-.633-1.454-1.143-1.748-.501-.288-.769-.718-.734-1.182.046-.566.508-1.071 1.237-1.353.744-.286 1.069-.438 1.071-.689.001-.22-.224-.347-.763-.565-.524-.212-.967-.739-.967-1.151 0-.548-.445-1.148-1.014-1.366-.671-.256-.841-.725-.782-1.048.08-.421.507-.692 1.089-.692.812 0 2.436-.532 3.474-1.025.559-.265 1.01-.484 1.311-.685l.094-.063h.114c.055 0 .103.013.155.017-.006-.049-.018-.096-.021-.146l-.005-.095.04-.086a.336.336 0 00.032-.145c.006-.284-.303-.47-.708-.685-.609-.323-1.839-1.266-2.742-2.104-.845-.784-1.368-1.182-1.882-1.182-.362 0-.654.201-.915.418-.488.406-.993 1.17-.993 1.748 0 2.129-1.561 5.558-2.783 6.116-.835.38-1.471.995-1.479 1.43-.067.41-.68 1.508-1.562 2.665-1.489 1.953-1.692 2.029-5.436 2.029-3.169 0-5.755.744-7.28 2.095l-.112.069a2.71 2.71 0 01-1.004.204h-.008l-.034-.003c.104.224.182.448.227.672l.027.134-.066.12a3.829 3.829 0 00-.356.906c-.237.939-.412 1.212-1.114 1.212-.255 0-.585-.036-1.139-.125-.572-.092-.917-.13-1.194-.13-.95 0-1.179.497-1.443 1.552-.218.871-.885 2.405-1.458 3.35-.282.464-.468.826-.586 1.14l-.085.133c-.242.243-.51.42-.814.562 0 .011.002.022.001.034-.004.262.027.518.106.775l.036.116.096.073c.172.13.297.28.383.46.368.773-.27 1.809-.942 2.72-.811 1.099-1.496 2.647-1.496 3.38 0 1.081-.424 1.563-1.376 1.563-.413 0-.689.11-.842.334-.282.408-.424 1.353.989 5.077.579 1.523 1.085 3.827 1.203 5.479l.011.16.124.102c.173.143.387.246.637.306h.001l.134.032.123-.062c.472-.239 1.257-.366 2.315-.519 1.706-.248 3.259-.74 3.64-1.044.815-.648 1.546-.026 2.658 1.332 1.133 1.386 3.784 2.573 5.16 2.573.212 0 .386-.029.516-.087l.219-.098.003-.24c.005-.366 1.172-1.945 3.393-4.256 1.827-1.901 3.047-3.377 3.268-3.8l.04-.13c.042-.351.516-.605 1.127-.605.445 0 1.555-.446 2.496-1.109.901-.635 2.324-1.366 3.171-1.63.819-.255 2.211-.999 3.104-1.659 1.317-.974 2.1-1.148 3.497-.755.884.247 2.647.389 4.838.389 3.601 0 7.915-.389 8.605-.975.528-.476 1.798-.954 2.833-1.065.9-.098 1.397-.114 1.654.163.306.331.254.991.152 2.311-.131 1.68.112 2.73.818 3.435l.379.392.075-.016.129-.027c.179-.039.358-.117.55-.241z" /></svg>