<svg viewBox="-9938 -9564 10151 10487" xmlns="http://www.w3.org/2000/svg"><mask id="mm"><rect x="-10000" y="-10000" width="30000" height="30000" fill="#fff" /><path d="M143.968 450.634l-.085-.127c-.184-.271-.277-.659-.277-1.147.008-.76-.387-1.708-.881-2.116-.658-.547-.941-1.619-.818-3.104.079-.939.192-1.595.509-1.947l.09-.091c.283-.245.748-.382 1.556-.453 3.024-.27 6.169-1.272 6.756-1.926l.114-.127-.021-.169c-.181-1.499-3.901-2.965-6.546-2.965-1.088 0-1.893.248-2.264.696-.414.497-1.183 1.012-1.818 1.018-.23.04-.616.35-.616 1.967 0 1.584-.325 2.29-1.059 2.29-.475.005-2.465.732-4.346 1.59-3.155 1.437-6.422 2.26-8.962 2.26-1.279 0-2.298-.203-3.026-.604-.792-.435-1.194-1.069-1.194-1.889 0-1.539-1.457-2.573-3.625-2.573-.545 0-.985-.147-1.344-.454l-.088-.075-.805-.064-.076.113-.049.073c-.115.174-.336.195-.516.195-.246 0-.586-.049-1.211-.172-1.001-.204-1.843.019-2.161.596-.29.521-.174 1.249.327 2.053.402.646.729 1.685.729 2.317 0 .564.313 1.354.687 1.727.222.224.415.461.323.684-.109.266-.552.316-1.33.316-1.043 0-1.983-.495-2.393-1.263-.358-.671-.649-1.942-.649-2.836 0-1.129-.463-1.803-1.238-1.803-.522 0-1.117.296-1.723.855-1.506 1.397-5.603 2.205-6.875 1.706-.425-.171-.515-.438-.518-.682-.054-.438-.828-1.101-1.725-1.473-1.043-.434-1.813-.98-1.916-1.363l-.043-.161-.148-.076c-.193-.099-.618-.214-1.182-.214-.466 0-.939-.025-1.244-.215l-.104-.063-.123.01c-.127.011-.273.027-.408.042-.171.018-.333.03-.517.054l-.76.088-.135.042c-.957.513-2.429.742-4.771.743l-.832-.006c-1.481 0-2.814.337-3.316.838-.565.564-1.818.889-2.953.785-1.811-.178-2.037-.455-1.861-2.287.075-.788-.081-1.422-.45-1.831-.57-.629-1.656-.724-3.027-.264-.754.252-1.973.403-2.762.312-.809-.077-1.3.235-1.526.95-.216.68-1.091 2.263-1.951 3.528-1.26 1.854-1.398 2.423-.873 3.573.736 1.618-.1 4.036-2.082 6.018-.483.48-1.045 1.935-1.252 3.239-.202 1.255-.261 1.757-.076 2.048.18.279.598.381 1.758.6.907.17 1.72.513 2.122.896l.988.278 1.455.411-.164 2.745c-.147 2.497-.437 3.396-1.41 4.367-1.421 1.421-1.946 2.515-1.603 3.341.101.245.438.813 1.364.813.306 0 .651-.062 1.053-.187 1.179-.367 2.299-.715 2.888-.794.002.312-.041.834-.064 1.122-.032.391-.108 1.308-.189 1.445-.149.082-.861.082-1.129.082-1.681 0-2.92.562-3.902 1.772-2.163 2.662-1.452 3.758 1.308 6.452l2.695 2.632 6.224-.438c1.979-.141 3.109-.197 3.9-.197.499 0 .789.027.949.051.017.308.065.554.15.764.202.487.621.779 1.122.779.547 0 1.066-.314 1.914-1.163.335-.336.75-.521 1.169-.521.151 0 .909.04 1.022.834.197 1.389.712 2.093 1.529 2.093.241 0 .598-.074.93-.429.598-.64.908-2.028.809-3.625-.179-2.862 1.338-7.734 2.003-8.659.387.129 1.191.479 2.096 1.03 2.665 1.625 5.311 1.7 7.241.234.582-.438 1.34-.709 1.56-.709.937 0 2.176-1.019 2.931-1.965.755-.947.885-.992 1.183-.992.388 0 1.038.157 1.846.362.906.231 1.637.386 2.261.386 2.099 0 2.507-1.875 2.866-3.527.139-.639.347-.961.618-.961 1.084 0 1.975-.748 2.046-1.691.116-.091.52-.337 1.656-.52 1.425-.229 2.317-.405 2.687-1.154.291-.591.06-1.171-.203-1.659-.417-.781-.444-1.104-.393-1.234.192-.496 1.934-1.108 2.506-1.312 2.25-.792 3.502-1.13 4.187-1.13.354 0 .367 0 .432.461.073.516.294 2.087 1.559 2.087.646 0 1.23-.443 2.016-1.531.369-.514.987-.84 1.149-.84.832 0 1.875-.529 2.48-1.26 1.189-1.432.445-2.443-.571-3.525-.979-1.039-.983-1.356-.974-1.411.002-.012.062-.294 1.219-.89 1.07-.554 1.667-.76 2.204-.76.643 0 1.344.284 2.778 1.131 1.314.775 1.922 1.119 2.564 1.119.851 0 1.308-.625 1.71-1.178.317-.433.561-.925.725-1.441.065-.205.121-.414.16-.626l.03-.144z" fill="#000" /></mask><rect x="-10000" y="-10000" width="30000" height="30000" fill="#fff" opacity=".3" mask="url(#mm)" /></svg>