<svg viewBox="0 0 600 500" xmlns="http://www.w3.org/2000/svg"><path d="M168.959 210.876c.417-.49 1.063-1.136 1.904-1.956 1.888-1.838 2.987-2.623 3.675-2.623.635 0 .931.604.931 1.902 0 .697 0 .986.675 1.143.779.184 2.442.184 5.462.184 5.961 0 6.193 0 6.85-1.438.399-.875 1.464-1.924 2.374-2.337 1.499-.686 1.865-.578 2.993.973.625.859 1.618 1.585 2.167 1.585.644 0 1.528.435 1.973.971.427.512 1.331.806 2.479.806 1.958 0 3.96-.807 4.657-1.876.293-.448 1.281-.306 2.62.36 1.687.842 2.167.893 3.57.312 1.311-.542 2.226-.546 3.725-.024 1.179.412 2.466.666 2.983.666.729 0 1.962.798 2.734 1.569.95.95 1.917 1.412 2.956 1.412 1.135 0 2.371-.58 3.672-1.723 1.024-.897 2.725-1.866 3.688-1.866.61 0 .951-.05 1.119-.324.188-.303.223-.912.223-1.929 0-1.35.485-3.434 1.081-4.645.375-.762.67-1.363 1.071-1.699l.173-.125c.518-.311 1.35-.213 2.423-.042.183.028 1.135.187 1.9.484l.483.03c.125 0 .232-.007.347-.011.326-.011.629-.032.892-.075l.136-.05c.167-.103.364-.193.566-.285 1.125-.522 1.468-2.324 1.15-3.764-.198-.9-.73-1.862-1.627-1.862-.705 0-1.415-.577-1.851-1.505-.271-.579-.396-1.226-.343-1.776l.012-.126-.067-.107a1.957 1.957 0 00-.286-.356c-.279.083-.574.16-.908.229l-.086.018-.085-.022c-.527-.138-1.275-.081-2.6.028-1.55.13-3.395.506-3.8.912-.305.305-1.197.562-1.949.562-.322 0-.549-.013-.692-.041l-.169-.032-.085-.149a2.085 2.085 0 01-.112-.227l-.029-.137c-.009-.364.092-1.015.202-1.665.23-1.373.212-2.128-.059-2.449-.378-.452-1.258.086-1.548.843-.188.486-.668.812-1 .812-.511 0-1.033.363-1.188.827-.077.228-.188.363-.338.414l-.119.019c-.533 0-1.463-.932-1.769-2.45l-.392-1.952a.612.612 0 00-.31-.127l-.782 1.528c-.527 1.029-.86 1.308-2.199 1.308-.29 0-.65-.014-1.132-.045-1.797-.116-2.918-.541-3.528-1.338-.63-.823-1.431-1.158-2.142-.886-.375.155-1.282.074-3.624-1.844-2.626-2.153-2.702-2.308-2.702-5.519 0-2.884.562-3.938.896-4.309.607-.67 1.23-2.716 1.482-4.307.283-1.792.872-3.304 1.246-3.592a3.373 3.373 0 011.761-.519c.382 0 .707.083.868.224l.126.109.003.167a.495.495 0 00.249.428c.293.179.836.166 1.623-.031 1.292-.324 1.869-.505 1.975-.886.034-.125.038-.313-.237-.668l-.09-.117.009-.096-.075.016-.379-.392c-.706-.705-.95-1.755-.818-3.435.103-1.32.154-1.98-.152-2.311-.256-.277-.754-.261-1.654-.163-1.034.112-2.305.59-2.833 1.065-.69.586-5.004.975-8.605.975-2.19 0-3.954-.142-4.838-.389-1.396-.394-2.18-.219-3.497.755-.893.66-2.285 1.403-3.104 1.659-.847.264-2.27.995-3.171 1.63-.941.664-2.051 1.109-2.496 1.109-.612 0-1.086.254-1.127.605l-.04.13c-.221.423-1.441 1.898-3.268 3.8-2.221 2.312-3.388 3.891-3.393 4.256l-.003.24-.219.098c-.13.058-.303.087-.516.087-1.375 0-4.026-1.187-5.16-2.573-1.112-1.358-1.842-1.979-2.658-1.332-.38.304-1.934.797-3.64 1.044-1.058.153-1.843.279-2.315.519l-.123.062-.134-.032h-.001l.001.128-.099.109c-.252.278-.359.745-.359 1.562 0 2.108-2.634 4.7-4.777 4.7-1.903 0-4.966 2.194-4.966 3.557l-.027.201-.055.071c-.149.192-.581.417-2.488.339a13.63 13.63 0 00-.448-.008c-2.705 0-3.86.965-4.353 1.775-.498.817-.825 2.304.441 4.751a5.844 5.844 0 01.574 3.786l-.039.207-.201.094a2.273 2.273 0 01-.589.132c-.016.094-.038.208-.049.294l-.019.147.087.121c.123.169.18.357.18.593 0 .669.515.98 1.835 1.107l2.129.205-.21 4.613c-.171 3.731.06 4.684.796 5.498.748.827.953 1.688.684 2.882l-.018.077.015.078c.092.47.245.835.461 1.108.066.084.138.162.217.229l.148.125.188-.048c.13-.033.267-.055.408-.065a65.511 65.511 0 014.834-.197c3.853 0 4.991.467 5.326.745.412.343 1.841.433 3.355.205.56-.083 1.163-.127 1.745-.127.277 0 .659.01 1.048.053l.104.012.094-.043c.178-.082.381-.198.596-.33.4-.245.856-.569 1.394-1.002z" /></svg>