<svg viewBox="-9886 -9582 10183 10461" xmlns="http://www.w3.org/2000/svg"><mask id="mm"><rect x="-10000" y="-10000" width="30000" height="30000" fill="#fff" /><path d="M172.638 427.132l-.256.129c-1.438.727-2.335 1.118-2.96 1.118-.779-.001-1.105-.592-1.549-1.564-.318-.699-.703-1.195-.926-1.361l-.082-.062-.101-.011a.462.462 0 01-.196-.071l-.05-.03-.067-.042-.137.021a1.094 1.094 0 00-.232.064l-.228.09-.009.245c-.046 1.207-.497 1.556-2.413 1.861-1.246.199-2.721.614-3.289.925-.606.328-1.528.596-2.056.596-.478 0-.763.51-.763 1.363 0 1.807-1.247 2.177-4.134 1.074-1.416-.537-1.665-1.061-1.665-3.497 0-1.894-.203-2.597-.747-2.597-.653 0-1.29-1.042-1.747-2.859-.574-2.277-.848-2.62-2.091-2.62-.812 0-1.917.353-2.413.771-.859.724-5.269 2.273-6.463 2.273-.311 0-.545-.411-.545-.957 0-.354-.473-1.242-1.176-1.997-.567-.609-1.201-1.528-1.257-2.03l-.023-.21-.192-.089c-.155-.07-.522-.153-.978-.088-.937.134-1.223.407-1.184 1.859.029 1.106-.155 2.06-.437 2.264-1.033.749-2.351 4.416-2.351 6.539 0 2.307-.199 2.626-1.639 2.626-.992 0-1.389.323-1.517 1.232-.056.391-.227.74-.566 1.101-.629.626-1.724.894-2.461.607l-.107-.042-.112.026-.444.102c-.474.107-.967.221-1.484.337l-.099.036c-.562.311-1.301.576-2.197.793l-.258.063c-2.504.605-3.884.94-4.482 1.256-.506.267-.447.54-.302 1.204.153.705.485 1.779.724 2.344.1.238.204.512.177.717l-.013.095.076-.113.805.065.088.074c.359.307.799.454 1.344.454 2.168 0 3.625 1.034 3.625 2.573 0 .818.402 1.454 1.194 1.889.728.4 1.747.604 3.026.604 2.54 0 5.807-.823 8.962-2.26 1.88-.856 3.871-1.585 4.346-1.589.733 0 1.059-.706 1.059-2.29 0-1.618.386-1.928.616-1.968.635-.006 1.404-.521 1.818-1.018.372-.448 1.176-.696 2.264-.696 2.645 0 6.365 1.466 6.546 2.965l.021.169-.114.127c-.587.652-3.732 1.656-6.756 1.926-.808.071-1.273.208-1.556.454l-.09.09c-.317.354-.43 1.008-.509 1.947-.123 1.483.16 2.557.818 3.104.494.408.889 1.356.881 2.116 0 .488.093.877.277 1.147l.085.127-.027.15a4.994 4.994 0 01-.16.626c.379.242.781.311 1.036.313.315.008 1.141.296 1.717.73.823.622 1.469 1.008 2.142 1.008 1.215 0 1.781-1.241 2.12-1.982.269-.593.812-.93 1.198-.979.024 1.024 1.068 1.805 2.873 2.145.732.138 1.238.335 1.461.451.233.642 1.011 1.046 2.044 1.046.123 0 .497 0 .706.834.267 1.062 1.019 2.207 2.013 2.207h.003a.631.631 0 01.313.334c.382.991 1.57 1.494 3.532 1.494 1.241 0 2.162.24 2.282.306.511.492 1.68.91 2.57 1.068.846.152 1.908.316 2.358.364.068.009.136.013.204.013.783 0 1.482-.513 1.826-1.338.332-.801.318-1.957-.458-2.734-.149-.148-.423-.793-.423-1.398 0-.467.885-1.009 2.026-1.009.543 0 1.056.121 1.483.349.626.336 1.204.506 1.718.506.347 0 2.079-.125 2.079-2.603 0-.324.395-1.124.94-1.564l1.869-1.511-2.558-4.651c-2.077-3.776-2.207-6-2.011-6.495.854-.015 1.542-.415 1.893-1.105.492-.964.219-2.356-.711-3.635-.945-1.296-1.763-1.874-2.654-1.874-.95 0-1.613.666-2.03 1.168-.287.346-.702.552-1.108.552-.185 0-.513-.045-.628-.347-.126-.33-.309-1.719-.309-3.146 0-.828-.008-1.613-.232-2.17a1.391 1.391 0 00-.235-.411l-.191-.213z" fill="#000" /></mask><rect x="-10000" y="-10000" width="30000" height="30000" fill="#fff" opacity=".3" mask="url(#mm)" /></svg>