<svg viewBox="33.80093765258789 89.57803344726562 92.00499725341797 155.81602478027344" xmlns="http://www.w3.org/2000/svg"><path d="M35.218 107.168a87.486 87.486 0 003.315 2.138c2.594 1.571 4.417 5.589 3.982 8.772-.192 1.401-.076 2.718.27 3.063.67.67.097 1.608-.622 2.521-1.168 1.487-1.559 4.018-1.059 5.048.143.292.344.44.599.44.672 0 3.224 2.22 5.284 4.31 2.95 2.985 4.529 4.148 5.633 4.148.456 0 .865-.197 1.289-.622.195-.195.461-.418.795-.418.395 0 .777.305 1.228.763.484.493.78.812.761 1.167-.02.38-.404.713-1.082 1.269-.679.557-1.085 1.115-1.209 1.639a1.414 1.414 0 00-.028.315c0 .047-.017.097-.013.144.05.508.421.961 1.072 1.31 1.094.585 1.304 1.361 1.322 4.879.015 2.938.303 4.369 1.063 5.279 1.05 1.256 2.497 1.828 3.397 1.828.265 0 .64-.048.923-.275.477-.379 2.276-.827 3.741-1.04.782-.113 1.388-.166 1.907-.166 1.06 0 1.836.226 2.68.778 1.042.683 2.075.868 3.434.614 1.111-.209 2.807-.042 3.683.356.604.275.978.388 1.288.388.381 0 .715-.174 1.23-.642.295-.267.523-.452.748-.554l.092-.042.059-.079a5.36 5.36 0 00.355-.584c.152-.28.293-.578.414-.904l.034-.093-.016-.097c-.068-.418-.054-.905.043-1.53.271-1.734.82-2.349 2.939-3.285 1.357-.601 3.74-2.252 5.205-3.605.766-.707 1.276-1.145 1.706-1.464l.117-.145c.104-.227.171-.462.208-.715a2.238 2.238 0 01-.692-.728l-.053-.154a6.812 6.812 0 00-.097-.594c-.21-1.033-.576-2.969-.816-4.317-.208-1.171-.364-1.788-.686-2.129l-.098-.092c-.408-.333-1.158-.433-2.687-.531a22.892 22.892 0 00-1.43-.06c-1.28 0-1.631.273-1.631 1.27 0 .625-.664 1.588-1.45 2.103-.894.585-1.594 1.452-1.594 1.973 0 .157-.077.668-1.063.668-.788 0-1.903-.355-2.619-1.148-.773-.855-1.952-1.271-3.604-1.271-2.244 0-3.949-.98-3.965-2.279.083-.422.677-1.19 1.505-1.842.774-.608 1.162-1.108 1.187-1.531a.693.693 0 00-.207-.538c-.336-.539-.417-2.414-.245-4.524.305-3.724.197-4.236-1.159-5.478-.812-.745-2.178-1.446-3.045-1.563-1.213-.163-1.419-.49-1.579-2.496-.096-1.209-.411-2.711-.806-3.113-.252-.256-.523-1.166-.523-2.112 0-1.458-.776-2.193-2.209-3.039-1.049-.619-1.968-1.497-2.048-1.956-.005-.68-.726-1.551-1.421-2.039-1.499-1.05-2.184-5.744-1.527-10.462.126-.908-.204-1.687-1.04-2.449-.391-.562-.529-1.012-.547-1.368-.63-.439-1.159-.7-1.841-.7-.703 0-1.452.285-2.616.751-1.242.497-3.195.932-4.181.932-2.676 0-4.453 1.531-5.139 4.428-.169.716-.796 1.362-1.677 1.728-1.192.494-2.396 1.444-2.384 2.376-.039.092-.316.421-.821.613-2.059.783-3.261 2.058-3.386 3.589-.046.552.067 1.111.315 1.671.202.457.489.914.893 1.367l.199.135z" /></svg>