<svg viewbox="0 0 500 600"><path d="M123.291 433.561l-.143-.199a1.355 1.355 0 01-.238-.804c0-.695-.569-1.426-1.418-1.814-.868-.396-1.744-1.251-1.954-1.909-.175-.55-.73-1.015-1.212-1.015-3.057 0-7.518-1.577-8.23-2.91-.374-.695-1.344-1.447-2.117-1.641-.679-.171-1.075-.402-1.246-.73a.81.81 0 01-.085-.293l-.017-.167-.136-.1a4.421 4.421 0 00-.518-.312 3.717 3.717 0 00-.805-.329l-.095-.013c-.133 0-.278-.005-.447-.019-1.018-.073-2.188.422-3.166 1.328-1.486 1.378-2.424 1.779-2.777 1.295a.66.66 0 01-.104-.247l-.057-.249-.252-.039a5.947 5.947 0 00-.465-.05c-.058-.003-.12-.009-.171-.009l-.098-.001-.085.048a.743.743 0 01-.408.098l-.126-.023-.059.03.165.753-.096.135c-.203.286-.203.755-.203 1.064 0 1.286-1.92 7.473-3.884 12.035-.651 1.513-.987 2.438-.897 2.995l.026.158-.098.129c-.065.086-.148.152-.22.231.135-.015.281-.031.408-.042l.123-.011.104.066c.305.188.778.215 1.244.215.563 0 .989.115 1.182.214l.148.076.043.161c.102.383.872.931 1.916 1.363.897.372 1.671 1.032 1.725 1.473.003.242.092.511.518.682 1.272.499 5.369-.309 6.875-1.706.605-.561 1.201-.855 1.723-.855.775 0 1.238.674 1.238 1.803 0 .894.291 2.165.649 2.836.41.768 1.349 1.263 2.393 1.263.778 0 1.22-.052 1.33-.316.092-.223-.101-.46-.323-.684-.373-.372-.687-1.161-.687-1.727 0-.634-.327-1.673-.729-2.318-.501-.803-.617-1.531-.327-2.052.318-.577 1.16-.8 2.161-.596.625.123.965.172 1.211.172.18 0 .4-.022.516-.195l.049-.073.013-.095c.027-.206-.077-.479-.177-.717-.239-.563-.571-1.639-.724-2.344-.145-.664-.204-.938.302-1.204.598-.315 1.978-.649 4.482-1.256l.258-.063c.896-.217 1.635-.482 2.197-.793l.099-.037c.517-.115 1.011-.229 1.484-.336.028-.041.062-.079.086-.12l.126-.21z" /></svg>