<svg viewBox="46 414 97 462" xmlns="http://www.w3.org/2000/svg"><path d="M64.272 459.421c-1.16-.219-1.578-.319-1.758-.6-.185-.291-.126-.793.076-2.048.208-1.306.77-2.759 1.252-3.239 1.981-1.98 2.818-4.398 2.082-6.018-.525-1.15-.387-1.719.873-3.573.86-1.267 1.735-2.85 1.951-3.528.226-.715.717-1.027 1.526-.95.79.091 2.008-.062 2.762-.312 1.371-.46 2.457-.365 3.027.264.37.409.525 1.043.45 1.831-.176 1.832.05 2.108 1.861 2.287 1.135.104 2.387-.222 2.953-.785.501-.501 1.834-.838 3.316-.838l.832.006c2.342-.001 3.813-.23 4.771-.743l.135-.042.76-.088c.183-.022.346-.036.517-.054.071-.079.154-.146.22-.231l.098-.129-.026-.158c-.09-.558.246-1.482.897-2.995 1.964-4.562 3.884-10.749 3.884-12.035 0-.311 0-.778.203-1.064l.096-.135-.165-.753-.017-.077-.078-.078a1.67 1.67 0 01-.23-.314c-.233-.377-.864-3.184-1.087-4.293l-.758-3.671-2.646-.396a13.362 13.362 0 01-2.054-.486l-.073-.023-.077.008a4.31 4.31 0 00-.723.129c-.302.076-.572.174-.779.309l-.087.078c-.37.454-1.629.592-4.042.46-.26-.016-.557-.021-.881-.021-2.176 0-5.352.324-7.551.771-2.628.531-6.26 1.173-8.12 1.433-1.515.212-2.43.34-2.845.66-.382.291-.436.766-.531 1.903-.182 2.186-.59 2.494-3.049 3.435-1.71.651-2.88 1.52-3.208 2.38-.278.729-.829 1.512-1.301 1.521l-.127.003-.099.08c-.121.099-.25.312-.25.618 0 .865-1.706 1.26-2.723 1.419-1.392.216-2.991.493-3.491.606-.515.116-1.336.068-1.769-.104a1.128 1.128 0 01-.287-.17l-.197-.157-.22.123a1.337 1.337 0 00-.36.317c-.058.067-.117.134-.167.218-.729 1.218-.982 5.122-.235 6.521 1.264 2.36 6.21 6.9 8.338 7.309a142 142 0 004.312.722c1.171.176 1.964.462 2.278.613.015.49-.088 1.79-.452 3.51-.61 2.878-.816 2.878-1.191 2.878-.546 0-1.218-.276-1.406-.467-.299-.296-.64-.569-1.101-.569-1.181 0-1.181 1.403-1.181 2.077 0 .884-.151 1.821-.259 2.104-.155.402-.229 1.131.92 2.803.524.744 2.341 3.169 3.659 3.169h.005c.1.028.478.253.78.618.5.604 1.292.994 2.017.994.234 0 .455-.039.655-.117.374-.144 1.042-.273 1.404-.273 1.494 0 1.782-.73 1.821-1.165a1.19 1.19 0 00-.017-.296l-.988-.278c-.405-.391-1.218-.734-2.125-.904z" fill="#000" opacity=".2" /></svg>