<svg viewBox="106 409 167 434" xmlns="http://www.w3.org/2000/svg"><path d="M135.202 409.358c-.263.233-.684.442-1.455.721-1.566.569-2.583.577-4.716.017-3.748-.985-6.908.007-9.703 3.027-1.604 1.734-2.223 2.793-2.072 3.54.093.468.51.854 1.312 1.221 1.05.479 1.665 1.079 1.568 1.528-.032.144-.164.384-.695.384-.229 0-.509-.045-.829-.132-.649-.18-3.364-.522-6.615-.763-1.928-.145-2.97-.219-3.722-.219-.897 0-1.153.116-1.297.244-.178.16-.225.433-.292.903-.082.574-.222.929-.454 1.151l-.074.07-.028.1a3.12 3.12 0 01-.103.321c-.025.064-.034.129-.052.192.175.093.35.189.518.312l.136.099.017.167a.804.804 0 00.085.293c.171.328.567.561 1.246.73.773.192 1.743.944 2.117 1.641.712 1.333 5.174 2.91 8.23 2.91.482 0 1.038.465 1.212 1.015.209.658 1.086 1.515 1.954 1.909.849.39 1.418 1.119 1.418 1.814 0 .312.08.581.238.804l.143.2-.126.21c-.024.041-.059.078-.086.119.148-.033.302-.068.444-.102l.112-.026.107.042c.737.285 1.833.019 2.461-.607.339-.359.51-.71.566-1.101.128-.909.525-1.232 1.517-1.232 1.439 0 1.639-.319 1.639-2.626 0-2.123 1.318-5.79 2.351-6.539.282-.204.466-1.156.437-2.265-.039-1.451.247-1.726 1.184-1.858.455-.065.823.018.978.088l.192.089.023.21c.056.502.689 1.421 1.257 2.03.703.755 1.176 1.643 1.176 1.997 0 .546.234.957.545.957 1.194 0 5.604-1.551 6.463-2.273.497-.418 1.602-.771 2.413-.771 1.243 0 1.517.343 2.091 2.62.458 1.817 1.094 2.859 1.747 2.859.544 0 .747.703.747 2.596 0 2.438.249 2.961 1.665 3.498 2.887 1.103 4.134.731 4.134-1.074 0-.854.285-1.363.763-1.363.528 0 1.45-.269 2.056-.596.567-.311 2.042-.726 3.289-.925 1.916-.307 2.367-.654 2.413-1.861l.009-.245.228-.09a.987.987 0 01.232-.064l.137-.021.067.042-.039-.036c-.211-.195-.338-.554-.338-.957 0-.468-.644-1.481-1.377-2.169-.807-.757-1.659-2.173-1.899-3.157-.277-1.128-.461-1.434-1.226-1.434-.239 0-.55.028-.976.092-1.039.146-2.393.474-2.959.718-.921.404-1.424.021-2.311-1.839-.749-1.57-1.165-1.978-2.022-1.978-.123 0-.26.011-.421.027-1.279.149-1.524.843-1.597 1.354-.157 1.099-.993 1.837-2.082 1.837-.809 0-1.637-.401-2.271-1.102-1.935-2.13-3.544-2.789-5.879-2.413a7.78 7.78 0 01-1.265.13c-.804 0-1.228-.251-1.463-.867-.187-.481-.681-.89-1.08-.89-.688 0-1.017-.855-1.1-2.865l-.008-.203-.176-.104a1.228 1.228 0 00-.549-.158l-.032-.002-.126-.01-.122.109z" fill="#000" opacity=".2" /></svg>