<svg viewBox="89.1099624633789 363.42401123046875 146.741455078125 410.9230041503906" xmlns="http://www.w3.org/2000/svg"><path d="M89.539 381.89l-.025.116c-.29 1.295.165 3.631.972 4.998.611 1.035 1.579 1.846 2.203 1.846.495 0 1.036.319 1.18.696.209.544 1.642 1.262 2.907 1.642 1.125.339 1.998.788 2.278 1.059l.096.093.016.132a.415.415 0 00.119.254c.203.199.623.142 1.288-.218l.086-.045c.107-.057.256-.134.418-.21l.119-.033c.641-.065 1.104.036 1.459.334l.094.078.029.119c.062.253.113.583.152.981.165 1.714.54 2.146 2.005 2.314.694.079 1.181.262 1.387.396l.118.076.039.137c.079.272.699.692 2.192.974 2.145.402 2.668 1.168 2.668 3.902 0 2.183-1.446 3.625-4.992 4.979-1.688.645-2.511 1.009-2.762 1.573-.201.451-.032.969.229 1.651.049.125.112.241.185.346l.082.114-.014.141c-.02.189-.059.391-.094.588.154-.109.316-.217.495-.316l.113-.064.129.021c.128.02.262.007.381-.046.367-.157 2.17-.729 4.02-1.273 1.854-.545 4.653-1.589 6.24-2.328 1.313-.61 2.007-.975 2.404-1.396l.093-.061.155-.289c.269-.499.319-1.197.33-2.572.021-2.483.186-2.812 1.757-3.506 1.828-.811 1.921-1.284 1.921-1.371 0-.953-2.002-2.487-3.247-2.487-.513 0-.896-.334-.998-.871-.098-.528.109-1.214.793-1.479.57-.219 1.016-1.025 1.016-1.84 0-1.816 1.677-3.409 3.589-3.409 1.235 0 1.574.229 1.574 1.06 0 .927.469 1.377 1.434 1.377.597 0 1.966.42 3.053 1.045.863.495 1.361.697 1.718.697.313 0 .521-.156.635-.479.127-.355.576-.654.981-.654.559 0 1.017-.45 1.021-1.004.118-.493.883-1.057 1.719-1.349 1.482-.518 1.934-1.084 1.934-2.427 0-.985.665-2.209 1.779-3.271 1.086-1.039 1.875-2.453 1.875-3.362 0-1.404 2.396-3.199 4.272-3.199a.734.734 0 00.465-.159l.159-.128.194.062c.173.059.323.148.467.246.095-.155.168-.332.217-.523.364-1.442-.538-4.013-2.072-4.844-.972-.524-3.337-.832-5.068-.854l-2.507-.031-.133-2.084c-.175-2.753-1.116-4.331-2.582-4.331-.583 0-1.148.271-1.682.806-.126.123-.884.424-1.716.424-1.009 0-2.232.304-2.769.979-.149.054-.674.188-2.162.188-.654 0-1.435-.026-2.319-.077a49.161 49.161 0 00-2.72-.103c-1.072 0-2.83 0-3.015 1.312-.146.055-.469.139-1.089.141-1.889.006-2.821.574-3.562 2.17-.317.683-.783 1.907-.841 2.643-.428.406-3.196 1.265-7.222 1.271-2.798.003-4.281.089-4.755 1.899-.076.29-.386.539-.586.539-1.067 0-1.938.668-2.044 1.543-.428.41-3.141 1.502-5.415 1.502-2.391 0-2.512 1.518-2.512 1.82 0 .016 0 .028-.002.041-.241.059-.536.213-.778.558.149.223.281.457.386.709l.043.101z" /></svg>