<svg viewbox="0 0 500 600"><path d="M191.878 407.255c-1.641-.725-2.106-1.309-2.138-1.438 0-1.671-1.795-2.225-3.795-2.686-1.549-.356-3.608-.735-4.372-.735-.237 0-.978-.338-1.476-.888-.591-.651-.777-1.034-.419-4.112l.512-4.415-3.087-.856c-1.357-.377-3.402-.685-4.559-.686-.377-.001-.947-.001-1.038-.06-.034-.062-.034-.325-.034-.558 0-.992 0-2.352-1.328-2.352-.493 0-1.001.224-2.104.728-.522.236-.775.312-.904.331l-.028-.043c-.368-.604-.867-.909-1.481-.909-.415 0-.853.14-1.466.467-1.25.67-3.171.648-3.986-.012-2.535-2.061-4.604-7.166-4.394-8.573.974-.074 1.686-.678 1.686-1.461 0-.116.105-.663.309-1.196.194-.508.146-1.032-.133-1.438-.347-.504-.998-.781-1.834-.781-.898 0-2.235.349-3.049 1.33-.116.13-.86.416-2.322.416-1.952 0-3.328-.482-3.487-.73a1.746 1.746 0 00-.508-.512 1.89 1.89 0 00-.467-.246l-.194-.062-.159.128a.734.734 0 01-.465.159c-1.876 0-4.272 1.795-4.272 3.199 0 .909-.789 2.323-1.875 3.362-1.114 1.062-1.779 2.286-1.779 3.271 0 1.344-.452 1.91-1.934 2.428-.835.292-1.601.854-1.719 1.349a1.019 1.019 0 01-1.021 1.004c-.405 0-.854.299-.981.654-.114.322-.321.479-.635.479-.357 0-.855-.201-1.718-.696-1.087-.625-2.457-1.045-3.053-1.045-.965 0-1.434-.45-1.434-1.377 0-.831-.338-1.06-1.574-1.06-1.912 0-3.589 1.593-3.589 3.409 0 .812-.446 1.621-1.016 1.84-.684.264-.891.949-.793 1.479.102.536.484.87.998.87 1.244 0 3.247 1.535 3.247 2.488 0 .087-.093.562-1.921 1.371-1.571.693-1.735 1.021-1.757 3.506-.011 1.375-.062 2.073-.33 2.572l-.155.289-.132.245 1.769.044c.919-.191 1.959-.272 3.479-.272.465 0 1.003.01 1.642.022.365.01.727.013 1.077.013 2.301 0 3.733-.188 4.132-.374l.088-.041.057-.079c.296-.406 1.02-.65 1.548-.65.575 0 1.235-.795 1.682-2.027.687-1.901 1.276-2.186 1.566-2.186.535 0 .675.801.699 1.474.027.759.121 2.766.208 4.476.073 1.447.098 2.364-.176 2.899l-.045.088.007.177.032.002c.215.017.395.067.549.158l.176.104.008.204c.083 2.009.412 2.864 1.1 2.864.398 0 .893.407 1.08.89.236.616.659.867 1.463.867.333 0 .734-.04 1.265-.13 2.335-.376 3.944.283 5.879 2.413.634.699 1.462 1.102 2.271 1.102 1.089 0 1.925-.738 2.082-1.837.073-.511.318-1.203 1.597-1.354.162-.018.298-.026.421-.026.858 0 1.273.405 2.022 1.977.887 1.859 1.39 2.243 2.311 1.839.566-.244 1.92-.572 2.959-.718.426-.062.737-.092.976-.092.765 0 .949.306 1.226 1.434.24.984 1.092 2.4 1.899 3.157.733.688 1.377 1.701 1.377 2.169 0 .403.126.762.338.957l.039.036.05.03c.064.04.13.064.196.071l.101.011.082.062c.224.166.608.662.926 1.361.444.974.77 1.563 1.549 1.564.625 0 1.523-.393 2.96-1.118l.256-.129.191.213a1.4 1.4 0 01.235.411c.251-.128.513-.262.803-.412.748-.387 1.509-.601 1.656-.603.82 0 5.137-2.146 6.966-3.073 3.098-1.577 6.833-3.095 8.158-3.313 2.779-.463 3.26-.903 3.966-3.633.358-1.39.788-2.992.956-3.576.496-1.726.26-4.147-3.691-5.893z" /></svg>