<svg viewBox="0 0 600 500" xmlns="http://www.w3.org/2000/svg"><path d="M47.562 429.633l.22-.123.197.157c.093.074.19.132.287.17.432.172 1.253.22 1.769.104.5-.113 2.099-.392 3.491-.606 1.017-.159 2.723-.554 2.723-1.419 0-.308.129-.521.25-.618l.099-.08.127-.003c.473-.011 1.023-.793 1.301-1.521.328-.86 1.498-1.729 3.208-2.38 2.458-.939 2.867-1.249 3.049-3.435.095-1.139.148-1.612.531-1.903.416-.32 1.33-.448 2.845-.66 1.859-.26 5.491-.9 8.12-1.433 2.2-.447 5.375-.771 7.551-.771.325 0 .621.006.881.021 2.414.132 3.673-.006 4.042-.46l.087-.078c.208-.135.478-.231.779-.309a1.332 1.332 0 00-.045-.336l-.044-.153-.141-.074c-.234-.124-.406-.239-.512-.346-.421-.423-1.146-.779-1.583-.779-.538 0-.978-.299-1.024-.693l-.021-.179-.151-.096c-.19-.12-.586-.248-1.13-.248-.878 0-1.737-.446-1.956-1.016-.182-.472-1.043-.812-2.048-.812-.749 0-2.004-.133-2.004-1.021 0-.45-.148-1.221-.325-1.683-.065-.17-.044-.342.109-.558l.025-.027c.634-.682 2.822-.992 4.587-.992 1.529 0 2.761.229 3.383.629.607.39 2.356.969 4.124 1.228 1.385.2 2.113.271 2.437.141l.148-.06.06-.148c.03-.074.065-.207.065-.564 0-.787-.473-1.176-1.747-1.433l-2.011-.4.288-4.56c.154-2.44.478-5.162.722-6.065.337-1.248.223-1.522-.77-1.838-.763-.242-1.648-1.132-1.972-1.981-.398-1.049-.924-1.368-2.252-1.368-.735 0-1.265.146-1.494.271l-.172.094-.021.194c-.045.415-.349.662-.812.662-.708 0-1.591-.559-2.053-1.297-.42-.674-1.339-1.144-2.236-1.144a3.55 3.55 0 01-.867-.092l-.181-.045-.146.117c-.149.119-.283.27-.408.431-.073.094-.146.187-.21.293-.642 1.069-.911 2.978-.143 4.415.462.864.581 1.216.602 1.359-.607.368-4.234.368-6.426.368h-6.603l-.457-1.31c-.364-1.042-.617-2.258-.617-2.696 0-.675-.332-1.88-2.554-2.37-.5-.108-.897-.159-1.25-.159-1.187 0-1.924.593-2.667 1.482-.792.95-1.4 2.366-1.416 3.294-.01.618-.019 1.151-4.017 1.151-2.884 0-5.947 1.006-10.926 3.589-.575.299-1.38.491-2.052.491-.194 0-.374-.019-.503-.051-.418-.106-.751-.156-1.048-.156-.968 0-1.569.615-1.569 1.607 0 .133-.17.388-.33.447-.868.331-1.498 1.196-1.498 2.056 0 .354 0 .658.144.97.124.269.451.72 1.243.72.55 0 1.35-.201 3.128-.65.732-.184 1.364-.276 1.875-.276 1.125 0 1.524.357 1.524 1.37 0 1.074.737 1.959 1.672 2.045.054.15.154.595.154 1.802 0 1.55 0 2.328.486 2.945.535.679 1.366.748 2.631.854 1.56.129 1.582.28 1.654.781.206 1.447 1.047 2.149 2.574 2.149 1.111 0 2.68 1.375 2.963 2.162-.301.122-1.166.366-3.552.606-4.504.45-6.52.826-7.338 1.991-.522.741-.393 1.59-.25 2.163.185.732.185.732-.926 1.119-1.143.4-2.504 1.081-2.504 2.055 0 .542.253 1.233 3.274 2.595.686.309 3.021 1.312 4.299 1.312.172 0 .287.043.346.077.03.471.23.937.546 1.306.111-.132.227-.244.362-.318z" /></svg>