<svg viewBox="-9902 -9600 10136 10424" xmlns="http://www.w3.org/2000/svg"><mask id="mm"><rect x="-10000" y="-10000" width="30000" height="30000" fill="#fff" /><path d="M115.349 406.913c-1.587.739-4.386 1.783-6.24 2.328-1.85.545-3.652 1.116-4.02 1.273a.69.69 0 01-.381.045l-.129-.021-.113.063a5.697 5.697 0 00-.495.317 4.514 4.514 0 00-.954.919l-.061.115a8.932 8.932 0 01-.524 1.291c-.62 1.229-1.125 3.204-1.125 4.403 0 1.751-.454 2.707-1.942 4.099-.634.593-1.079 1.004-1.419 1.285l-.113.094-.022.218c.136.009.285.022.465.05l.252.039.057.249a.653.653 0 00.104.247c.353.484 1.291.083 2.777-1.295.978-.906 2.148-1.402 3.166-1.328.169.014.314.019.447.019l.095.013c.274.071.542.189.805.329.018-.064.027-.128.052-.192.038-.097.071-.206.103-.321l.028-.1.074-.07c.232-.224.372-.577.454-1.151.067-.472.113-.743.292-.903.145-.128.4-.244 1.297-.244.752 0 1.794.074 3.722.219 3.251.239 5.966.583 6.615.763.32.087.599.132.829.132.531 0 .663-.24.695-.384.097-.449-.519-1.049-1.568-1.528-.802-.365-1.219-.753-1.312-1.221-.151-.747.469-1.807 2.072-3.54 2.794-3.021 5.955-4.015 9.703-3.027 2.133.562 3.149.553 4.716-.017.771-.277 1.192-.486 1.455-.722l.118-.104.126.01-.007-.177.045-.088c.274-.535.25-1.452.176-2.899-.087-1.71-.18-3.717-.208-4.476-.024-.673-.165-1.475-.699-1.475-.29 0-.88.284-1.566 2.187-.447 1.231-1.107 2.027-1.682 2.027-.529 0-1.252.243-1.548.65l-.057.079-.088.041c-.399.188-1.831.374-4.132.374-.351 0-.712-.003-1.077-.013a70.513 70.513 0 00-1.642-.022c-1.52 0-2.56.081-3.479.272l-1.769-.044.132-.245-.093.061c-.4.421-1.094.786-2.407 1.396z" fill="#000" /></mask><rect x="-10000" y="-10000" width="30000" height="30000" fill="#fff" opacity=".3" mask="url(#mm)" /></svg>