<svg viewBox="76 378 111 423" xmlns="http://www.w3.org/2000/svg"><defs><filter id="f1" x="0" y="0" width="130%" height="130%"><feOffset result="offOut" in="SourceAlpha" dx="1" dy="1" /><feGaussianBlur result="blurOut" in="offOut" stdDeviation="2" /><feBlend in="SourceGraphic" in2="blurOut" mode="normal" /></filter></defs><path d="M77.349 387.611l.146-.117.181.045c.247.062.53.092.867.092.897 0 1.816.47 2.236 1.144.462.738 1.344 1.297 2.053 1.297.463 0 .767-.247.812-.662l.021-.194.172-.094c.229-.125.759-.271 1.494-.271 1.329 0 1.854.319 2.252 1.368.324.851 1.208 1.739 1.972 1.981.992.314 1.107.59.77 1.838-.244.903-.567 3.625-.722 6.066l-.288 4.559 2.011.401c1.274.256 1.747.645 1.747 1.432 0 .358-.035.49-.065.565l-.06.147-.148.06c-.324.131-1.052.061-2.437-.141-1.767-.259-3.516-.838-4.124-1.228-.622-.399-1.854-.628-3.383-.628-1.765 0-3.954.311-4.587.991l-.025.027c-.153.216-.174.388-.109.558.176.463.325 1.231.325 1.683 0 .889 1.255 1.021 2.004 1.021 1.005 0 1.867.342 2.048.812.219.568 1.078 1.016 1.956 1.016.544 0 .94.128 1.13.248l.151.096.021.179c.046.396.487.693 1.024.693.437 0 1.161.356 1.583.779.105.105.278.222.512.346l.141.074.044.153c.032.111.042.225.045.336.221-.056.454-.105.723-.129l.077-.008.073.023c.64.209 1.389.387 2.054.486l2.646.396.758 3.671c.224 1.109.854 3.916 1.087 4.293.064.104.136.222.23.314l.078.078.017.077.059-.03.126.024a.745.745 0 00.408-.099l.085-.048.098.001c.052 0 .113.006.171.009l.022-.218.113-.094c.341-.281.785-.692 1.419-1.285 1.489-1.391 1.942-2.348 1.942-4.099 0-1.199.505-3.176 1.125-4.403a8.71 8.71 0 00.524-1.291l.061-.115c.281-.361.588-.655.954-.919.035-.196.074-.397.094-.588l.014-.141-.082-.114a1.705 1.705 0 01-.185-.346c-.261-.684-.43-1.2-.229-1.651.251-.563 1.074-.93 2.762-1.573 3.546-1.354 4.992-2.797 4.992-4.979 0-2.734-.524-3.5-2.668-3.902-1.493-.28-2.113-.7-2.192-.974l-.039-.136-.118-.077c-.206-.134-.693-.315-1.387-.396-1.465-.169-1.84-.602-2.005-2.314a7.212 7.212 0 00-.152-.981l-.029-.119-.094-.078c-.355-.298-.818-.399-1.459-.334l-.119.033a8.396 8.396 0 00-.418.21l-.086.045c-.665.358-1.085.417-1.288.218a.413.413 0 01-.119-.254l-.016-.132-.096-.093c-.28-.27-1.153-.72-2.278-1.059-1.265-.38-2.698-1.098-2.907-1.642-.144-.377-.685-.695-1.18-.695-.624 0-1.592-.812-2.203-1.847-.807-1.367-1.261-3.703-.972-4.998l.025-.116-.045-.108a4.079 4.079 0 00-.386-.709c-.924-1.381-2.711-2.215-5.551-2.597-.765-.104-1.304-.165-1.8-.165-1.64 0-2.435.752-3.938 2.316-1.89 1.97-2.426 2.918-2.098 5.007.158 1.005.385 1.937 1.22 2.408.128-.155.262-.305.412-.425z" stroke="#c00" stroke-width=".2" fill="transparent" filter="url(#f1)" /></svg>