<svg viewBox="0 0 600 500" xmlns="http://www.w3.org/2000/svg"><path d="M201.275 101.766l-.118-.044c-1.072-.409-2.384-.635-3.693-.635-1.839 0-3.317.447-3.858 1.167-.637.849-.831 1.333-.691 1.729.138.388.575.635 1.557.881 1.228.308 2.055 1.131 2.328 2.316.399 1.731-.462 3.792-2.195 5.25-1.052.885-2.233 1.502-2.635 1.502-.356 0-.641.1-.823.289l-.069.072-.665.195-.056-.029.058.055c.274.259.337.813.394 1.301.132 1.136.631 1.648 2.056 2.109 1.11.358 2.354.99 2.773 1.409.331.33 1.405.691 2.476.703 1.529.016 2.659.418 3.27 1.165.458.559.613 1.311.447 2.174-.153.798-.104 1.075.019 1.248.096.133.281.271.973.369.999.141 1.622.732 1.754 1.664.028.196.059.487.009.748l-.012.062-.023.122.125.138c.053.058.109.112.172.161l.22.103.337-.124a.807.807 0 01.6.022l.121.053.127-.034c.35-.094.741-.182 1.146-.257 1.235-.228 2.771-.889 3.425-1.474.985-.883 2.541-1.5 3.784-1.5.979 0 1.332.378 1.455.695.154.399.622.736 1.021.736.311 0 .713.053.867.308l.058.096.102.048c.087.042.169.093.242.152.02.016.034.033.053.049.283.237.517.483.718.735.068.084.146.167.204.253l.107.159.192.006c.867.025 1.486.604 1.616 1.508.14.975.711 1.346 2.703 1.739l.195.039.11-.05c.283-.129.539-.309.778-.509.14-.117.281-.234.4-.371l.084-.096.008-.128c.063-1.081.677-2.611 1.528-3.807.514-.724 1.227-1.156 1.907-1.156.785 0 1.312.589 1.312 1.467 0 .426.338.773.754.773.233 0 .457.071.646.206l.035.025.168.119.212-.131c.056-.035.113-.075.171-.12l.13-.103.012-.166c.079-1.113.622-1.328 3.355-1.93 1.525-.334 1.563-.585 1.403-2.446a10.318 10.318 0 01-.052-1.104l.005-.223-.194-.111c-.042-.024-.096-.032-.142-.051a3.802 3.802 0 01-.604.543l-.084.06-.103.008c-.416.035-1.017.24-1.949.665-.569.26-.925.366-1.229.366-.407 0-.765-.193-1.367-.737-.868-.786-1.162-1.335-1.05-1.961.117-.655.67-1.472 1.972-2.913 1.698-1.878 2.164-2.712 2.172-2.909 0-.235-.326-.906-2.511-2.743-1.196-1.005-2.83-2.229-3.828-2.648-.776-.327-1.323-.725-1.503-.956l-.064-.083-.012-.104c-.007-.059-.028-.237-.381-.407l-.115-.056-.057-.113-.005-.014-.084.076-.189-.043a3.966 3.966 0 00-.862-.09c-1.015 0-1.581-.401-1.954-1.384-.322-.849-1.168-1.852-1.885-2.235-.631-.338-1.163-.988-1.163-1.419 0-.58-.581-1.051-1.294-1.051-.585 0-1.77-.542-2.586-1.184-.722-.57-1.758-1.201-2.261-1.25l-.161-.016-.099-.127c-.147-.19-.296-.631-.296-1.186 0-.883-.324-1.775-.737-2.031a1.178 1.178 0 00-.616-.194c-.925 0-1.522 1.313-1.522 3.345 0 1.003-.061 1.47-.226 1.72-.172.262-.518.313-1.057.313-.816 0-2.47.473-3.686 1.054-1.102.526-1.658.704-2.206.704-.396 0-.816-.101-1.451-.347l-.223-.087-.01-.163c-.032.012-.061.032-.093.042l-.117.034z" /></svg>