<svg viewBox="159 60 211 122" xmlns="http://www.w3.org/2000/svg"><defs><filter id="f1" x="0" y="0" width="130%" height="130%"><feOffset result="offOut" in="SourceAlpha" dx="1" dy="1" /><feGaussianBlur result="blurOut" in="offOut" stdDeviation="2" /><feBlend in="SourceGraphic" in2="blurOut" mode="normal" /></filter></defs><path d="M159.833 84.186c.166.169.333.367.498.571.635.783 1.313 2.113 1.545 3.028.624 2.488 1.62 3.202 3.587 2.517 1.307-.455 2.063-.418 2.588.104.582.582.78 1.792.675 2.688-.043.38-.185 1.061-.644 1.345-.281.182-.527.845-.527 1.419 0 .728.351 1.025 1.211 1.026 1.485.003 4.428 2.178 4.632 3.191.05.25-.048.442-.277.539-2.141.902-3.74 2.929-3.74 4.139 0 1.101-.449 1.776-1.335 2.008-.596.155-1.1.739-1.1 1.276 0 1.46-.837 2.048-4.073 2.859-1.401.353-2.167.815-2.412 1.458-.271.711.072 1.73 1.078 3.206 1.543 2.268 3.46 2.628 5.669 1.082.602-.422 1.027-.698 1.432-.698.383 0 .689.219 1.232.71.57.515 1.53.937 2.14.941 1.687.013 2.736.774 3.743 2.713.222.429.354.73.429.979l.045.148.136.073c.089.048.185.082.282.109.124.035.252.056.387.056.382 0 .786-.124 1.364-.437.463-.357.948-.739 1.451-1.144 3.558-2.859 6.983-5.095 8.329-5.437 1.081-.275 1.726-.423 2.101-.232l.076.039.056.029.665-.195.069-.072c.182-.189.466-.289.823-.289.401 0 1.583-.617 2.635-1.502 1.733-1.458 2.595-3.518 2.195-5.25-.273-1.186-1.101-2.008-2.328-2.316-.982-.246-1.418-.494-1.557-.881-.14-.396.054-.88.691-1.729.541-.72 2.019-1.167 3.858-1.167 1.31 0 2.622.226 3.693.635l.118.044.121-.035c.033-.009.062-.03.093-.042l-.005-.076a4.616 4.616 0 01.011-.641l.011-.132.09-.096c.649-.69.872-2.624.768-6.673l-.101-3.946.344-.233 1.03.252c1.488.375 2.206-.147 3.177-1.196.765-.826 1.951-1.497 2.645-1.497.533 0 .86-.044 1.067-.279.334-.382.242-1.211.019-2.9-.239-1.797-.125-2.789.06-3.118l.122-.13c.441-.287.684-.771.666-1.329-.027-.881-.644-1.771-1.571-2.269-.695-.371-1.822-1.726-2.392-3.15-.54-1.35-1.843-3.705-2.905-5.248-1.046-1.52-2.063-3.708-2.267-4.876-.068-.385-.248-1.397-.72-1.869-.081-.106-.104-.124-.104-.125a2.543 2.543 0 01-.534-.276c-.004.007-.007.016-.012.023l-.116.18-.214-.009c-.599-.024-2.02-.294-3.724-.83-2-.628-3.09-.807-3.909-.651l-.117.022-.107-.049a6.744 6.744 0 01-.743-.413 2.479 2.479 0 00-.218.127c.045.291.043.581-.011.89l-.017.097-.062.076c-.243.298-.445.677-.656 1.229-.304.803-1.26 1.748-2.088 2.062-.92.351-1.819 1.214-2.005 1.925-.156.592-.712 1.092-1.216 1.092-.63 0-1.605.532-2.22 1.211-.732.808-1.825 1.115-4.031 1.132-1.783.013-3.013.167-3.639.896-.579.675-.56 1.76-.353 3.183.168 1.127.153 1.477.128 1.642l-.047.133a1.653 1.653 0 01-.089.135l-.078.107-.128.035c-.321.087-1.278-.088-1.611.368-.163.223-.16.535.011 1.076.162.506-.07 1.257-.62 2.007-.643.879-1.519 1.47-2.179 1.47l-.043-.002c-.406-.047-1.544-.819-2.594-1.892-1.232-1.26-1.736-1.396-1.895-1.396-.156 0-.267.107-.276.266l-.008.136-.093.099c-.153.163-.54.353-1.127.353-.31 0-.706.118-1.146.342l-.126.064-.137-.035a1.599 1.599 0 01-.457-.191c-.146.324-.301.642-.469.933l-.08.097a8.216 8.216 0 00-.796.787l-1.778 2.027.283.505-.246.199a3.536 3.536 0 01-.356.245l.294.522.056.076z" stroke="#c00" stroke-width=".2" fill="transparent" filter="url(#f1)" /></svg>