<svg viewBox="9 100 92 200" xmlns="http://www.w3.org/2000/svg"><defs><filter id="f1" x="0" y="0" width="130%" height="130%"><feOffset result="offOut" in="SourceAlpha" dx="1" dy="1" /><feGaussianBlur result="blurOut" in="offOut" stdDeviation="2" /><feBlend in="SourceGraphic" in2="blurOut" mode="normal" /></filter></defs><path d="M46.852 197.134l.18-.138a.55.55 0 01.351-.104c.438.002 1.055.35 2.273 1.128l.217.139c1.534.982 2.304 1.475 3.086 1.475.77 0 1.61-.47 3.298-1.414l.24-.135c3.203-1.791 4.449-2.241 7.746-2.241.935 0 2.042.037 3.001.075 1.505.058 2.477.083 3.249.083 2.419 0 3.093-.245 3.887-.979.868-.802 2.352-1.256 4.411-1.348 1.247-.054 2.116-.091 2.808-.091.972 0 1.592.1 1.953.314l.098.058.113-.006.211-.014a16.37 16.37 0 001.031-.09l.099-.027c.181-.077.411-.117.771-.131.277-.07.518-.153.787-.285.382-.26.722-.673.931-1.133.167-.365.371-.674.608-.917l.091-.155c.029-.098.055-.222.082-.327a1.643 1.643 0 01-.486-.409l-.088-.132-.009-.217c.089-.415.176-.88.271-1.401.234-1.297.681-2.695.975-3.052.211-.254.288-.496.23-.719-.062-.24-.283-.435-.655-.578-.418-.16-.789-.524-.823-.813.093-.987 2.992-3.536 3.926-3.536.419 0 .506-.168.539-.232.148-.287-.054-.737-.802-1.787-1.459-2.051-1.484-2.345-.374-4.483.87-1.675.738-2.013-.695-3.892-.882-1.159-2.167-2.102-2.864-2.102-.337 0-.468-.036-.536-.063l-.134-.053-.064-.13c-.111-.226-.128-.673.117-2.291.283-1.895.263-2.952-.617-3.832-.505-.504-.933-1.356-.933-1.859 0-.661-1.008-2.098-1.983-3.105-.594-.613-1.044-1.068-1.42-1.343l-.081-.08a5.022 5.022 0 01-.512-.844 5.694 5.694 0 01-.355.584l-.059.082-.092.042c-.225.102-.453.287-.748.554-.516.468-.85.642-1.23.642-.31 0-.683-.112-1.288-.388-.876-.398-2.571-.566-3.683-.356-1.359.254-2.392.069-3.434-.614-.844-.553-1.62-.778-2.68-.778-.52 0-1.125.053-1.907.166-1.464.213-3.264.661-3.741 1.04-.283.227-.659.275-.923.275-.9 0-2.348-.572-3.397-1.828-.761-.911-1.049-2.341-1.063-5.279-.018-3.519-.228-4.294-1.322-4.879-.651-.349-1.022-.801-1.072-1.31-.004-.047.012-.096.013-.144l-.208-.144.237-.171c.125-.524.53-1.082 1.209-1.639.678-.556 1.062-.889 1.082-1.269.02-.355-.276-.675-.761-1.167-.451-.458-.833-.763-1.228-.763-.333 0-.6.224-.795.418-.424.424-.833.622-1.289.622-1.104 0-2.683-1.163-5.633-4.148-2.061-2.09-4.612-4.31-5.284-4.31-.255 0-.457-.148-.599-.44-.5-1.03-.109-3.561 1.059-5.048.719-.914 1.292-1.851.622-2.521-.346-.345-.462-1.662-.27-3.063.436-3.184-1.388-7.201-3.982-8.772a87.486 87.486 0 01-3.315-2.138l-.199-.135a5.233 5.233 0 01-.893-1.367 1.609 1.609 0 00-.513-.095c-.849 0-1.268.648-1.799 1.469-.537.829-1.169 2.302-1.409 3.282-.174.706-.58 1.256-.701 1.329-1.197.458-1.442 2.119-1.442 4.471 0 1.348-.139 3.608-1.072 3.608-.259 0-.608-.097-1.009-.28-.786-.358-.973-.444-.973-2.518 0-2.146-.443-3.462-1.483-4.403-.484-.439-.997-1.563-1.076-2.359-.164-1.644-.905-2.715-2.479-3.581-.827-.455-1.489-1.217-1.573-1.812-.375-2.667-2.328-4.39-4.973-4.39h-2.979l.426 3.787c.253 2.241.088 2.356-.606 2.842-.702.49-1.632 1.276-1.604 2.432.025 1.082.864 2.065 2.804 3.29 1.244.787 3.087 2.685 4.025 4.146 1.624 2.531 1.66 2.718 1.304 6.661l-.44 4.873 3.52 2.626c2.604 1.944 2.679 2.271 2.579 3.344-.203 2.174.341 2.794 2.646 3.017 1.201.116 1.825.544 2.671 1.836 1.018 1.554 2.34 2.521 3.824 2.8.848.159 2.163.905 2.812 1.596.173.184 1.72 1.797 2.762 1.797h.002c.168.031.973.409 1.877 1.121 1.13.89 1.225 1.119 1.009 2.45-.312 1.92.04 2.876 1.392 3.786 2.268 1.524 3.666 3.289 3.738 4.721.032.642-.211 1.168-.744 1.61-.626.521-1.814 1.979-2.762 3.394-.876 1.306-2.07 3.091-2.655 3.969-.692 1.04-1.216 2.781-1.218 4.05-.002 1.608-.088 1.925-3.071 3.692-1.891 1.121-2.481 1.87-2.026 3.842.603 2.613 3.491 6.947 5.502 6.947.342 0 1.482.461 2.421 1.156 1.229.908 1.433 1.127 1.433 3.537 0 2.621.41 3.728 1.992 5.385.37.385 1.221 1.23 1.99 1.718.137.087.272.166.4.226l.202.09z" stroke="#c00" stroke-width=".2" fill="transparent" filter="url(#f1)" /></svg>