<svg viewBox="160 114 205 143" xmlns="http://www.w3.org/2000/svg"><path d="M170.11 143.089a2.71 2.71 0 001.004-.204l.112-.069c1.525-1.351 4.111-2.095 7.28-2.095 3.743 0 3.946-.076 5.436-2.029.882-1.157 1.494-2.255 1.562-2.665.008-.435.644-1.05 1.479-1.43 1.223-.558 2.783-3.987 2.783-6.116 0-.577.505-1.342.993-1.748.261-.217.553-.418.915-.418.514 0 1.037.398 1.882 1.182.903.838 2.133 1.782 2.742 2.104.405.214.713.401.708.685a.34.34 0 01-.032.145l-.04.086.005.095c.003.05.015.097.021.146.239.019.46.07.678.178l.126.063.053.13c.103.249.26.471.467.66.625.566 1.604.682 2.281.244.489-.317.782-1.324.782-2.114 0-1.123.293-1.415 1.57-1.561.705-.082 1.229-.207 1.497-.553a.835.835 0 00.138-.273l.021-.068.012-.062c.05-.261.019-.552-.009-.748-.133-.932-.756-1.522-1.754-1.664-.692-.099-.877-.236-.973-.369-.123-.172-.171-.449-.019-1.248.166-.863.011-1.615-.447-2.174-.61-.747-1.741-1.149-3.27-1.165-1.071-.012-2.145-.373-2.476-.703-.419-.419-1.663-1.051-2.773-1.409-1.425-.46-1.924-.973-2.056-2.109-.056-.488-.12-1.042-.394-1.301l-.058-.055-.076-.039c-.375-.191-1.02-.042-2.101.232-1.346.342-4.771 2.578-8.329 5.437-.503.405-.988.786-1.451 1.144-.578.313-.982.437-1.364.437-.135 0-.263-.021-.387-.056l-.303.226-.095.069-.038.112c-.132.39-.588.807-1.232 1.312-1.056.831-1.569 1.178-2.014 1.178-.512 0-.848-.478-1.302-1.208-.872-1.391-2.944-1.389-4.747-.004-1.06.813-1.521 1.849-1.766 3.958-.176 1.522-.269 2.212-.613 2.624-.358.428-.935.455-2.012.47-1.05.014-1.502.047-1.749.324-.268.299-.328.96-.413 2.119-.16 2.21-.021 2.659 2.671 5.512 1.53 1.622 2.902 2.794 3.344 2.991l.143.033c.847.022 1.82.587 2.499 1.466l.072.102.119.039c.302.099.582.146.853.149l.034.003h.011v.002z" /></svg>