<svg viewbox="0 0 500 600"><path d="M162.452 49.208l.096.079c.113.093.225.196.343.314.511.505 1.252 1.025 1.654 1.159.113.039.412.14.524.411.141.34-.045.841-.389 1.539-.344.694-.867 2.893-1.112 5.234-.309 2.955-.19 4.073.55 5.203.552.842 1 2.103 1 2.81 0 .753.724 1.48 2.149 2.161 1.145.55 2.379 1.343 2.525 1.796.051.159.013.447-.898 1.122-.607.448-1.437.945-2.335 1.399-3.08 1.561-3.329 1.953-3.653 3.967a7.923 7.923 0 01-.456 1.599l-.065.167.089.156a1.333 1.333 0 00.45.468c.133.083.284.147.457.191l.137.035.126-.064c.439-.224.835-.342 1.146-.342.587 0 .974-.19 1.127-.353l.093-.099.008-.136c.009-.159.121-.266.276-.266.159 0 .663.136 1.895 1.396 1.049 1.073 2.188 1.845 2.594 1.892l.043.002c.66 0 1.536-.591 2.179-1.47.55-.75.782-1.501.62-2.007-.171-.542-.174-.853-.011-1.076.333-.456 1.29-.281 1.611-.368l.128-.035.078-.107c.032-.044.062-.089.089-.135l.047-.133c.025-.165.04-.514-.128-1.642-.207-1.422-.227-2.508.353-3.183.625-.729 1.856-.883 3.639-.896 2.207-.017 3.299-.324 4.031-1.132.614-.679 1.589-1.211 2.22-1.211.503 0 1.06-.5 1.216-1.092.186-.711 1.085-1.574 2.005-1.925.828-.314 1.785-1.259 2.088-2.062.211-.551.414-.93.656-1.229l.062-.076.017-.097a2.692 2.692 0 00-.059-1.202 17.112 17.112 0 01-1.502-1.152c-.622-.755-1.467-1.621-2.825-2.973a67.49 67.49 0 00-2.993-2.816c-1.382-1.209-1.581-1.209-1.666-1.209-1.168-.032-4.776-4.38-4.776-5.744 0-1.358-.727-1.832-1.336-1.99-.572-.15-1.1-.486-1.098-1.921 0-.44-.022-.94-.188-1.303l-.081-.177.099-.168c.097-.165.212-.311.343-.438-.355-.381-.877-.577-1.564-.577-.506 0-1.427-.289-1.934-.605-.42-.262-.887-.504-1.452-.504-.832 0-1.481.478-2.539 1.482-.785.745-2.184 1.476-2.994 1.564-2.501.272-2.639 1.089-2.817 4.506-.05.965-.077 1.718-.034 2.34.02.293.051.567.11.804l.032.119z" /></svg>