<svg viewBox="134 48 170 85" xmlns="http://www.w3.org/2000/svg"><defs><filter id="f1" x="0" y="0" width="130%" height="130%"><feOffset result="offOut" in="SourceAlpha" dx="1" dy="1" /><feGaussianBlur result="blurOut" in="offOut" stdDeviation="2" /><feBlend in="SourceGraphic" in2="blurOut" mode="normal" /></filter></defs><path d="M135.451 52.502l.123.055c2.227.55 3.971 2.754 3.971 5.018 0 1.409.454 2.464 1.472 3.421.867.814 1.572 2.129 1.572 2.932 0 .727.798 2.521 1.744 3.92 1.25 1.851 1.71 3.184 1.492 4.326-.248 1.303-.033 1.549 2.091 2.398 2.199.88 2.59 1.197 2.59 3.205 0 1.096.415 2.332.925 2.756.773.641.945 1.462.732 3.514l-.012.12.06.105c.146.256.367.437.621.582.147.084.294.17.477.216l.127.032.119-.054c.481-.219 1.019-.345 1.475-.345.799 0 2.011-.301 2.701-.671.434-.232.836-.453 1.347-.327l.145.036.129-.074c.049-.028.087-.054.131-.081.139-.085.262-.168.356-.245l.246-.199-.283-.505 1.778-2.027a8.33 8.33 0 01.796-.787l.08-.097c.168-.291.323-.609.469-.933a1.316 1.316 0 01-.45-.468l-.089-.156.064-.169c.222-.567.38-1.121.456-1.599.324-2.014.573-2.406 3.653-3.967.898-.455 1.728-.951 2.335-1.399.912-.675.949-.963.898-1.122-.146-.453-1.381-1.246-2.525-1.796-1.426-.68-2.149-1.407-2.149-2.161 0-.707-.449-1.967-1-2.81-.74-1.129-.858-2.248-.55-5.203.245-2.341.768-4.54 1.112-5.234.344-.698.53-1.198.389-1.539-.112-.271-.411-.373-.524-.411-.402-.134-1.144-.654-1.654-1.159a4.373 4.373 0 00-.343-.314l-.096-.079-.03-.12a4.718 4.718 0 01-.11-.804c-.702-.254-1.438-.048-2.514.485-.922.458-5.722 1.142-15.168 1.152-.786.001-3.431.086-4.491 1.146-.318.318-1.086.63-1.582.642l-2.956.071-.077.004-1.026.06.953.659z" stroke="#c00" stroke-width=".2" fill="transparent" filter="url(#f1)" /></svg>