<svg viewBox="0 0 600 500" xmlns="http://www.w3.org/2000/svg"><path d="M175.303 40.516l-.099.168.081.177c.165.363.188.863.188 1.303-.002 1.435.526 1.771 1.098 1.921.61.159 1.336.632 1.336 1.99 0 1.364 3.607 5.711 4.776 5.744.085 0 .284 0 1.666 1.209a68.088 68.088 0 012.993 2.816c1.358 1.352 2.204 2.218 2.825 2.973.55.467 1.049.847 1.502 1.152.099.067.194.126.288.185.265.165.518.311.743.413l.107.049.117-.022c.819-.155 1.909.023 3.909.651 1.705.536 3.125.806 3.724.83l.214.009.116-.18c.004-.007.007-.016.012-.023a1.69 1.69 0 00.215-.556l.038-.179-.119-.14a1.105 1.105 0 01-.244-.511c-.121-.644.297-1.419 1.208-2.244.719-.651 1.165-1.802 1.165-3.005 0-1.683.378-2.313 1.838-3.069 1.744-.902 2.423-1.974 2.423-3.823 0-.716.636-1.951 1.252-2.732.653-.831 1.184-2.198 1.184-3.047 0-2.081 1.583-2.778 4.116-1.736 1.019.419 2.636.91 3.531 1.072.42.076.895.145 1.11.086l.149-.041.078-.134c.113-.197.152-.583.152-1.53 0-2.488.988-3.698 3.021-3.698.743 0 1.242-.303 1.242-.754 0-.314.131-1.046 1.409-1.046h.176l.112-.129c.132-.153.234-.343.322-.551.171-.404.266-.899.266-1.501 0-.915.25-1.57.305-1.651.743-.766 1.204-3.226 1.223-3.331.234-1.271.348-2.151-.176-2.779-.299-.358-.737-.539-1.304-.539-.655 0-1.568.238-3.129.706-.562.168-1.135.296-1.578.356.084-.787.322-2.181.724-3.886 1.034-4.383 1.192-5.057-.244-6.643-.802-.888-2.03-1.532-2.918-1.532-.227-.005-1.316-.528-2.306-1.473-1.228-1.173-1.889-1.737-3.491-1.737-.739 0-1.668.118-3.112.312-1.29.172-2.221.279-2.882.279-.85 0-1.147-.154-1.731-.682-1.39-1.258-3.681-1.831-5.222-1.831-1.187 0-2.076.315-2.571.912-2.218 2.673-3.132 5.697-2.274 7.524.472 1.005 1.403 1.559 2.622 1.559.71 0 .725.102.795.589.185 1.298 1.269 2.333 3.624 3.457 1.726.825 2.613 1.466 2.794 2.016.11.336-.009.81-.373 1.492-1.025 1.915-3.814 3.416-6.35 3.416-.783 0-1.482-.153-2.022-.443a2.352 2.352 0 00-1.122-.281c-1.441 0-3.042 1.301-4.629 3.761-.578.896-1.406 1.608-1.665 1.697-1.809.627-10.011 4.42-10.604 5.39-.072.065-.422.228-.821.228a2.052 2.052 0 00-1.803 1.017z" /></svg>