<svg viewBox="251 13 282 73" xmlns="http://www.w3.org/2000/svg"><defs><filter id="f1" x="0" y="0" width="130%" height="130%"><feOffset result="offOut" in="SourceAlpha" dx="1" dy="1" /><feGaussianBlur result="blurOut" in="offOut" stdDeviation="2" /><feBlend in="SourceGraphic" in2="blurOut" mode="normal" /></filter></defs><path d="M256.51 33.896c1.258.656 1.771 1.649 1.771 3.429 0 1.426-.654 2.396-2.799 4.154-1.784 1.461-2.69 2.76-2.693 3.86-.001.614.291 1.168.867 1.646.535.444.971 1.473.971 2.292 0 .682.226 1.414.539 1.657.385.237.618.699.656 1.301.058.919-.347 1.896-1.007 2.431-2.359 1.907-3.831 3.762-3.837 4.451.058.363.641.793 1.299.958 1.429.358 1.549.952 1.579 4.123.01 1.081-.018 1.955-.082 2.596l-.009.09.033.085c.106.27.24.487.408.664.048.051.112.092.169.138.044.035.08.074.131.106l.157.056h.109c.965 0 1.73.695 2.98 2.156 1.403 1.639 2.662 2.463 4.212 2.754.668.125 1.098.2 1.435.2.883 0 1.013-.602 1.497-2.842.161-.743.746-1.869 1.391-2.677l.074-.155c.064-.299.104-.687.126-1.15l.007-.176c.01-.287.015-.594.01-.944L266.5 65l-.05-.085a1.965 1.965 0 01-.1-.195c-.372-.83-.485-2.264-.692-4.868l-.107-1.339c-.354-4.306.029-5.317.346-5.701a2.57 2.57 0 00.447-.853c.043-.211.074-.419.084-.691a1.88 1.88 0 01-.008-.365l.012-.094c.06-.579.292-1.434.58-2.127.827-2.006.914-4.932.161-5.398a1.329 1.329 0 01-.628-.904c-.155-.839.355-2.037 1.517-3.56l1.609-2.11 3.794 1.181c2.275.709 3.696 1.093 4.685 1.093 1.336 0 1.908-.687 2.848-2.622.464-.956.797-1.588 1.123-1.987l.069-.131c.104-.351.13-.659.119-.95-.022-.586-.26-1.074-.771-1.5-.193-.16-.958-1.477-1.566-3.304-.726-2.185-.793-3.034-.342-4.329 1.14-3.269.855-4.554-1.52-6.877-1.235-1.208-2.097-1.941-3.644-1.941-.406 0-.872.045-1.607.154-.732.109-1.152.154-1.45.154-.155 0-.25-.006-.265-.006-.04-.049-.104-.294-.125-.374-.333-1.273-1.427-1.939-2.336-1.939-1 0-1.726.76-1.698 1.739-.038.033-.211.08-.424.08-.552 0-1.301-.285-1.546-.745-.773-1.444-2.05-1.698-4.448-1.698-2.825 0-7.005.896-7.005 2.819 0 .858 1.211 1.781 1.933 2.254.881.578 1.111.826 1.111 3.176 0 1.41-.213 2.392-.322 2.648-.348.303-.556.884-.708 1.958a22.318 22.318 0 00-.188 3.007c0 2.096.128 3.334.479 4.252.136.358.303.672.514.962l.129.112z" stroke="#c00" stroke-width=".2" fill="transparent" filter="url(#f1)" /></svg>