<svg viewbox="0 0 500 600"><path d="M282.19 34.244l-.069.131c-.326.399-.659 1.031-1.123 1.987-.939 1.935-1.511 2.622-2.848 2.622-.989 0-2.41-.384-4.685-1.093l-3.794-1.181-1.609 2.11c-1.162 1.522-1.672 2.72-1.517 3.56.071.382.289.694.628.904.753.466.666 3.392-.161 5.398-.287.694-.52 1.549-.58 2.127l-.012.094c-.008.172-.005.28.008.365-.01.272-.041.48-.084.691a2.57 2.57 0 01-.447.853c-.317.384-.7 1.395-.346 5.701l.107 1.339c.207 2.604.32 4.038.692 4.868.031.072.065.135.1.195l.05.085.001.099c.005.351 0 .657-.01.944.035.024.073.045.11.068.192.116.398.215.635.28l.157.042.138-.084c.84-.516 1.987-.489 4.519-.278 3.135.26 4.926.9 5.323 1.904.208.522.011 1.136-.566 1.775-1.168 1.291-1.128 5.836.062 7.153.372.411.571.71.647.97l.033.11.089.073c.188.154.404.295.612.439.124.085.233.179.363.26l.183.054h.108c.359 0 .722.168 1.06.35.692.371 1.905.672 2.704.672.861 0 1.923.436 2.368.972.386.464 1.167.855 1.705.855.642 0 1.498.426 1.948.971.613.737 1.427.892 2.001.892 1.544 0 3.197-1.137 3.197-2.83 0-1.208.578-2.198 1.819-3.115l1.868-1.382 1.54 1.647c.93.994 1.485 1.282 2.476 1.282.294 0 .635-.027 1.068-.085 1.277-.17 1.917-.102 2.562.236l.09.047.104-.005.909-.05c.33-.019.642-.037.912-.054l.158-.045c.144-.079.326-.152.578-.231.521-.165.858-.476 1.01-.925.326-.987-.267-2.596-1.668-4.528-1.433-1.979-2.227-4.465-1.732-5.431a.696.696 0 01.648-.399h.19l.112-.155c.288-.397.084-1.726-.778-2.678-.987-1.087-1.569-5.025-1.733-11.705-.059-2.306-.412-3.739-1.11-4.512-.61-.675-1.106-1.858-1.106-2.637 0-.261 0-.618.118-.882l.079-.179-.102-.167a2.353 2.353 0 00-.322-.411c-.707-.746-2.076-1.351-4.823-2.556-1.377-.604-2.424-.978-3.388-.978-1.283 0-2.197.656-3.256 1.715-.934.935-1.398 1.191-1.582 1.261-.088-.175-.272-.736-.272-2.364 0-3.765-1.406-6.426-4.177-7.909-.297-.16-.694-.343-1.137-.343a1.55 1.55 0 00-.636.14c.014.291-.012.6-.116.951z" /></svg>