<svg viewBox="201 32 258 107" xmlns="http://www.w3.org/2000/svg"><path d="M224.842 34.797h-.176c-1.277 0-1.409.731-1.409 1.046 0 .451-.499.754-1.242.754-2.033 0-3.021 1.209-3.021 3.698 0 .947-.039 1.333-.152 1.53l-.078.134-.149.041c-.215.059-.689-.01-1.11-.086-.895-.162-2.512-.653-3.531-1.072-2.532-1.042-4.115-.344-4.116 1.736 0 .849-.531 2.216-1.184 3.047-.616.781-1.252 2.016-1.252 2.732 0 1.849-.68 2.921-2.423 3.823-1.46.755-1.838 1.386-1.838 3.069 0 1.203-.446 2.354-1.165 3.005-.911.824-1.328 1.6-1.208 2.244.036.19.118.363.244.511l.119.14-.038.179a1.707 1.707 0 01-.215.556c.163.111.342.204.534.276 0 0 .023.019.104.125.472.472.652 1.484.72 1.869.204 1.168 1.221 3.356 2.267 4.876 1.062 1.543 2.365 3.898 2.905 5.248.57 1.425 1.697 2.779 2.392 3.15.927.498 1.544 1.388 1.571 2.269.018.558-.225 1.042-.666 1.329l-.122.13c-.186.329-.299 1.32-.06 3.118.224 1.688.316 2.518-.019 2.9-.207.234-.534.279-1.067.279-.693 0-1.88.671-2.645 1.497-.971 1.049-1.689 1.571-3.177 1.196l-1.03-.252-.344.233.101 3.946c.104 4.049-.118 5.983-.768 6.673l-.09.096-.011.132a4.465 4.465 0 00-.011.641l.005.076.01.163.223.087c.634.246 1.055.347 1.451.347.547 0 1.104-.178 2.206-.704 1.216-.581 2.869-1.054 3.686-1.054.539 0 .885-.051 1.057-.313.165-.25.226-.717.226-1.72 0-2.032.597-3.345 1.522-3.345.201 0 .408.065.616.194.414.256.737 1.148.737 2.031 0 .555.149.996.296 1.186l.099.127.161.016c.502.049 1.539.68 2.261 1.25.817.642 2.001 1.184 2.586 1.184.713 0 1.294.471 1.294 1.051 0 .431.532 1.081 1.163 1.419.717.384 1.563 1.387 1.885 2.235.373.983.939 1.384 1.954 1.384.304 0 .602.031.862.09l.189.043.084-.076.06-.054c.156-.14.287-.312.39-.513l.066-.129-.038-.14a1.828 1.828 0 01-.034-.142c-.135-.688.058-1.334.544-1.82.524-.524 2.113-1.287 3.285-1.693 1.871-.648 2.876-1.338 3.073-2.108.131-.505-.099-1.088-.683-1.732-.747-.825-1.156-2.047-1.044-3.114.11-1.042-.347-2.232-1.287-3.349-1.029-1.223-1.487-2.946-1.141-4.288.188-.73.612-1.255 1.23-1.496.34-.177.691-1.045.691-2.19 0-1.573.55-2.638 2.179-4.22 1.539-1.493 2.084-2.525 2.084-3.944 0-1.889.273-2.122 1.576-1.715 4.693 1.453 6.949 1.125 6.949-1.087 0-1.402.719-1.948 2.229-2.579.972-.406 1.717-.896 1.95-1.169l.078-.091.01-.119c.04-.45.356-1.466.634-2.193l.606-1.593.106-.279.242.228 1.401 1.316c.79.741 1.427 1.058 2.128 1.058.222 0 .453-.031.768-.11l.218-.056.046-.19c-.057-.045-.121-.087-.169-.138a2.054 2.054 0 01-.408-.664l-.033-.085.009-.09c.064-.642.092-1.515.082-2.596-.03-3.171-.15-3.764-1.579-4.123-.659-.165-1.242-.595-1.299-.958.006-.689 1.478-2.544 3.837-4.451.66-.535 1.064-1.512 1.007-2.431-.038-.602-.271-1.063-.656-1.301-.313-.243-.539-.975-.539-1.657 0-.819-.436-1.848-.971-2.292-.577-.478-.868-1.032-.867-1.646.003-1.1.91-2.399 2.693-3.86 2.145-1.757 2.799-2.728 2.799-4.154 0-1.78-.513-2.773-1.771-3.429l-.13-.112a4.056 4.056 0 01-.514-.962c-1.522-.51-3.616-.751-6.362-.94l-.453-.031c-1.668-.114-2.873-.196-3.849-.196-3.344 0-3.963 1.115-5.621 4.1l-.139.25c-.926 1.665-1.127 1.836-2.158 1.836-.828 0-2.113-.2-3.979-.506-1.379-.226-3.439-1.02-4.499-1.735-1.191-.803-2.458-1.32-3.529-1.483a2.05 2.05 0 01-.322.551l-.109.125z" fill="#000" opacity=".2" /></svg>