<svg viewBox="237 76 318 135" xmlns="http://www.w3.org/2000/svg"><mask id="mm"><rect x="-10000" y="-10000" width="30000" height="30000" fill="#fff" /><path d="M277.917 79.251c-.222.192-.474.457-.818.856-.889 1.033-1.667 1.474-2.605 1.474-.833 0-1.824-.348-3.213-1.129-1.799-1.01-2.524-1.124-3.52-.589-.799.428-1.229.915-1.244 1.408-.012.368.201.693.631.967l.098.09c.226.298.46 1.305.46 2.473 0 1.293.452 3.249 1.006 4.361.835 1.675.859 2.235.184 4.279-.423 1.282-1.28 2.716-1.873 3.131-.882.617-1.109 1.319-.812 2.503.287 1.143.129 2.176-.443 2.91-.501.642-1.257.981-2.187.981-1.822 0-1.964.758-1.964.99 0 1.306-2.348 3.881-3.539 3.881-.734 0-1.332.482-1.332 1.075 0 .474-.549 1.899-1.2 3.112-.59 1.1-1.214 2.558-1.237 3.093l-.007.167-.128.106c-.093.077-.478.329-1.543.329-1.234 0-2.667-.345-3.565-.858-.859-.491-2.194-.9-2.977-.913-.721-.01-1.834-.333-2.43-.706-.255-.159-.567-.322-.947-.322-.691 0-1.51.574-2.871 1.705-1.649 1.37-2.562 2.663-2.57 3.64-.004.462.009.896.212 1.139l.119.142-.04.18a3.95 3.95 0 01-.159.52c.055.023.105.052.165.069l.14.04.13-.065c.294-.148.705-.283 1.371-.45 1.8-.455 3.008-.658 3.918-.658 1.424 0 2.247.5 2.838 1.724.479.989 1.453 1.904 2.062 2.139.747.287 1.98 1.248 2.75 2.142 1.133 1.316 1.781 1.531 4.623 1.531 2.154 0 4.175-.426 5.692-1.201 3.259-1.661 3.926-1.599 6.531.86 1.576 1.486 2.255 2.588 2.138 3.469-.074.56-.483 1.042-1.215 1.434-.678.364-1.134 1.197-1.134 2.075 0 .587.025.828.107.979l.039.163.307.057c.073.013.195.028.392.028.415 0 1.009-.067 1.869-.169 1.557-.188 3.156-.397 3.494-.457.404-.078 1.522.085 2.575.321 1.296.292 2.393.021 3.007-.73.489-.596.649-1.473.451-2.47-.287-1.435-.022-2.053 1.234-2.875 1.104-.724 1.879-.837 2.452-.384.348.273 1.749.663 3.19.887l.152.023.125-.089c.087-.062.16-.142.235-.22.135-.14.256-.295.347-.482l.078-.159-.073-.161a1.432 1.432 0 01-.066-.166c-.256-.832.331-2.02 1.795-3.63l1.248-1.372.079-.136c.016-.049.015-.099.028-.148l-.163-.091a1.747 1.747 0 01-.357-.264l-.123-.119.01-.171c.043-.751-.322-1.595-1.152-2.656-1.328-1.696-1.438-2.107-.431-5.429.482-1.589 1.569-3.125 3.063-4.327 1.148-.926 2.594-2.463 2.926-3.333.358-.937.938-1.269 2.218-1.269 1.327 0 2-.361 2-1.072 0-.451.51-.742 1.299-.742.668 0 1.683.235 2.344.897.477.476.814.977.892 1.207l.021.102c0 .021.054.549 2.699 1.834 1.377.67 2.01.966 2.562.966.563 0 .985-.341 1.625-.857.75-.608 2.032-1.117 2.808-1.117.561 0 1.4-.196 2.364-.551l.079-.029.085.008c.235.021.45.062.646.117.041-.146.102-.298.207-.458l.057-.087.095-.045c.778-.37 1.707-.908 1.707-1.366 0-.082-.03-.322-.076-.659l-.022-.175.119-.129c.023-.026.06-.045.084-.071-.061-.048-.123-.09-.18-.146l-.085-.087-.019-.121a213.16 213.16 0 00-.471-3.037c-.764-4.721-3.274-10.211-5.271-11.519-.903-.593-1.382-1.555-1.507-3.027-.15-1.81-.528-2.409-1.616-2.564-.67-.095-1.833-.811-2.54-1.562l-.089-.162a1.261 1.261 0 01.005-.695c.009-.032.025-.06.037-.091-.291.017-.598.034-.909.05l-.104.005-.09-.047c-.646-.338-1.285-.406-2.562-.236a8.142 8.142 0 01-1.068.085c-.99 0-1.545-.288-2.476-1.282l-1.54-1.647-1.868 1.382c-1.241.917-1.819 1.907-1.819 3.115 0 1.693-1.653 2.83-3.197 2.83-.575 0-1.389-.155-2.001-.892-.451-.544-1.307-.971-1.948-.971-.539 0-1.319-.392-1.705-.855-.445-.536-1.507-.972-2.368-.972-.799 0-2.012-.302-2.704-.672-.338-.182-.7-.35-1.06-.35h-.108l-.183-.054c-.129-.082-.239-.175-.363-.26a2.514 2.514 0 01-.25.65l-.087.104z" fill="#000" /></mask><rect x="-10000" y="-10000" width="30000" height="30000" fill="#fff" opacity="1" mask="url(#mm)" /></svg>