<svg viewBox="226 66 278 123" xmlns="http://www.w3.org/2000/svg"><path d="M226.119 107.412l.115.056c.354.17.375.349.381.407l.012.104.064.083c.18.231.728.629 1.503.956.998.42 2.632 1.644 3.828 2.648 2.185 1.837 2.511 2.508 2.511 2.743-.008.197-.475 1.031-2.172 2.909-1.302 1.441-1.855 2.258-1.972 2.913-.112.625.182 1.175 1.05 1.961.602.544.96.737 1.367.737.304 0 .661-.106 1.229-.366.932-.425 1.533-.63 1.949-.665l.103-.008.084-.06c.235-.168.429-.351.604-.543.276-.304.484-.646.63-1.041a3.95 3.95 0 00.159-.52l.04-.18-.119-.142c-.203-.242-.216-.677-.212-1.139.008-.977.92-2.27 2.57-3.64 1.361-1.13 2.18-1.705 2.871-1.705.38 0 .692.163.947.322.596.372 1.709.695 2.43.706.782.013 2.118.422 2.977.913.898.513 2.331.858 3.565.858 1.065 0 1.45-.251 1.543-.329l.128-.106.007-.167c.022-.535.646-1.993 1.237-3.093.65-1.213 1.2-2.638 1.2-3.112 0-.593.598-1.075 1.332-1.075 1.191 0 3.539-2.575 3.539-3.881 0-.232.142-.99 1.964-.99.929 0 1.686-.339 2.187-.981.573-.734.73-1.767.443-2.91-.297-1.185-.069-1.886.812-2.503.592-.416 1.45-1.85 1.873-3.131.675-2.044.651-2.604-.184-4.279-.555-1.112-1.006-3.068-1.006-4.361 0-1.168-.234-2.175-.46-2.473l-.098-.09c-.43-.273-.643-.599-.631-.967.015-.494.445-.98 1.244-1.408.996-.534 1.721-.421 3.52.589 1.389.781 2.38 1.129 3.213 1.129.938 0 1.716-.441 2.605-1.474.344-.399.597-.664.818-.856l.084-.104c.126-.232.203-.445.25-.65-.208-.145-.424-.285-.612-.439l-.089-.073-.033-.11c-.076-.26-.276-.559-.647-.97-1.191-1.317-1.231-5.863-.062-7.153.578-.639.774-1.252.566-1.775-.397-1.004-2.188-1.645-5.323-1.904-2.532-.211-3.679-.238-4.519.278l-.138.084-.157-.042a2.453 2.453 0 01-.635-.28c-.038.033-.078.073-.117.108a7.295 7.295 0 01-.126 1.15l-.074.155c-.645.808-1.23 1.934-1.391 2.677-.484 2.24-.614 2.842-1.497 2.842-.336 0-.766-.076-1.435-.2-1.55-.291-2.809-1.115-4.212-2.754-1.25-1.46-2.016-2.156-2.98-2.156h-.109l-.157-.056c-.051-.032-.086-.072-.131-.106l-.046.19-.218.056c-.315.079-.546.11-.768.11-.702 0-1.338-.316-2.128-1.058l-1.401-1.316c-.12.004-.239.011-.348.052l-.606 1.593c-.278.728-.594 1.743-.634 2.193l-.01.119-.078.091c-.233.273-.978.763-1.95 1.169-1.51.63-2.229 1.177-2.229 2.579 0 2.212-2.256 2.54-6.949 1.087-1.303-.407-1.577-.174-1.576 1.715 0 1.418-.545 2.451-2.084 3.944-1.629 1.583-2.179 2.647-2.179 4.22 0 1.146-.352 2.013-.691 2.19-.619.241-1.042.766-1.23 1.496-.346 1.342.112 3.065 1.141 4.288.939 1.117 1.396 2.307 1.287 3.349-.112 1.066.298 2.289 1.044 3.114.584.644.814 1.227.683 1.732-.197.771-1.202 1.46-3.073 2.108-1.171.406-2.76 1.168-3.285 1.693-.486.486-.679 1.132-.544 1.82.009.047.021.095.034.142l.038.14-.066.129c-.103.2-.234.373-.39.513l-.06.054.005.014.055.113z" fill="#000" opacity=".2" /></svg>