<svg viewBox="302 44 366 103" xmlns="http://www.w3.org/2000/svg"><mask id="mm"><rect x="-10000" y="-10000" width="30000" height="30000" fill="#fff" /><path d="M301.902 44.739l.102.167-.079.179c-.118.264-.118.621-.118.882 0 .778.496 1.961 1.106 2.637.698.773 1.053 2.207 1.11 4.512.164 6.68.746 10.618 1.733 11.705.862.952 1.066 2.281.778 2.678l-.112.155h-.19a.694.694 0 00-.648.399c-.493.965.301 3.452 1.732 5.431 1.401 1.933 1.994 3.541 1.668 4.528-.15.449-.489.76-1.01.925a3.124 3.124 0 00-.578.231l-.158.045c-.271.018-.582.036-.912.054-.012.031-.028.059-.037.091a1.271 1.271 0 00-.005.695l.089.162c.707.751 1.87 1.467 2.54 1.562 1.088.156 1.466.755 1.616 2.564.125 1.473.604 2.435 1.507 3.027 1.995 1.308 4.507 6.798 5.271 11.519.147.912.334 2.105.471 3.037l.019.121.085.087c.057.057.119.099.18.146.16.127.332.235.525.302l.172.06.153-.099c.247-.159.543-.283.833-.349 4.05-.924 8.297-3 10.568-5.166 1.266-1.208 3.221-2.562 4.354-2.692.66-.076 1.042-.13 1.219-.366.307-.408.156-1.406-.322-4.232-.267-1.58-.095-2.695.543-3.507.865-1.105 2.558-1.676 5.658-1.908 5.088-.381 8.131-2.08 8.143-4.543.005-.983.521-2.526 1.154-3.439.608-.88 1.271-2.056 1.479-2.625.391-1.091.984-.996 2.461-.481.46.161.846.273 1.141.345l.104.025.104-.034c.277-.092.543-.259.787-.495l1.018-1.961c1.084-2.146 1.572-2.5 3.488-2.523 1.732-.022 2.032-.293 2.164-1.215.109-.765.613-1.731 1.122-2.154.396-.328.819-1.491.819-3.271 0-.868.011-1.569.152-2.041l.033-.115-.039-.114a3.338 3.338 0 00-.326-.678c-.241-.386-.541-.664-.909-.805-.851-.326-1.638-.491-2.339-.491-1.61 0-2.789.91-3.153 2.434-.271 1.125-.758 2.465-1.547 2.465-.285 0-.927-.153-2.019-1.178-.978-.916-2.714-1.837-3.953-2.098-.545-.114-.953-.165-1.328-.165-1.227 0-2.028.564-3 1.538-.67.67-1.807 2.074-1.805 3.072-.074.459-2.496 2.52-3.871 2.52-.465 0-.738-.106-.797-.204-.064-.108-.082-.509.317-1.256.698-1.304.753-2.394.179-3.644-.328-.711-.838-2.092-1.136-3.079-.504-1.679-1.962-2.764-3.714-2.764-1.034 0-2.047.4-2.852 1.127-.524.473-1.502.678-2.767.575-1.601-.132-1.601-.132-1.703-1.021-.133-1.153-.716-2.395-1.388-2.954-.193-.16-.549-.929-.549-1.706 0-3-1.935-4.404-4.939-3.358-1.049.366-3.093.603-5.207.603-2.07 0-2.982-.228-3.188-.313-1.107-1.375-7.202-3.723-9.496-4.153-.743-.14-1.254-.221-1.668-.221-.563 0-.916.18-1.156.403.124.13.235.265.321.41z" fill="#000" /></mask><rect x="-10000" y="-10000" width="30000" height="30000" fill="#fff" opacity="1" mask="url(#mm)" /></svg>