<svg viewBox="117.61600494384766 51.67698287963867 153.85101318359375 91.61898803710938" xmlns="http://www.w3.org/2000/svg"><path d="M117.771 63.528l-.155.112.003 1.771c.004 1.835 2.797 4.676 4.598 4.676 1.021 0 1.496.437 1.496 1.376 0 .683.338 1.059.953 1.059 1.472 0 3.372 2.265 4.489 4.503.378.756.826 1.336 1.073 1.518l.081.06.1.011c.343.039.612.473.612.987 0 .414.525 1.444 1.125 2.206.765.971 1.088 2.13.886 3.183-.14.733-.03 1.537.303 1.837.372.23.608.654.685 1.229.09.667-.045 1.447-.381 2.195l-.033 1.368.101-.041.413-.165c.996-.397 2.337-.604 4.35-.669.415-.014.869-.021 1.348-.021 2.183 0 4.644.142 5.986.346a13.28 13.28 0 001.958.134c2.713 0 5.646-.704 6.035-1.447l.054-.104-.015-.117c-.041-.317-.417-1.027-.953-1.619-.804-.89-.96-1.361-.211-2.26l.088-.095.011-.129c.015-.175.037-.378.058-.579-.253-.145-.474-.325-.621-.582l-.06-.105.012-.12c.212-2.052.041-2.873-.732-3.514-.51-.424-.925-1.66-.925-2.756 0-2.007-.391-2.325-2.59-3.205-2.124-.849-2.338-1.096-2.091-2.398.219-1.142-.242-2.475-1.492-4.326-.945-1.398-1.744-3.193-1.744-3.92 0-.802-.705-2.117-1.572-2.932-1.018-.958-1.472-2.013-1.472-3.421 0-2.264-1.744-4.468-3.971-5.018l-.123-.055-.954-.656 1.026-.06a4.984 4.984 0 00-.98-.108c-2.332 0-2.646.878-2.947 3.388-.545 4.518-1.069 5.865-3.113 8.005-1.263 1.322-2.221 1.938-3.015 1.938-.765 0-1.606-.546-2.729-1.772-1.66-1.812-2.344-2.336-3.049-2.336-.868 0-1.308.685-1.308 2.036 0 .062-.012.095-.018.146-.008.069-.012.151-.024.198a1.45 1.45 0 00-.566.248z" /></svg>