<svg viewBox="0 0 600 500" xmlns="http://www.w3.org/2000/svg"><path d="M296.309 213.918l.067-.085.012-.107c.05-.467.352-1.108.947-2.018.598-.911 1.65-1.573 2.502-1.573.765 0 1.438-.419 1.589-.811.217-.56.967-1.016 1.672-1.016.654 0 1.752-.379 1.752-2.92 0-1.066-2.72-2.852-4.343-2.852-.709 0-1.144-.182-1.292-.539-.244-.589.34-1.578 1.785-3.021.9-.903 2.085-1.955 2.7-2.197l.159-.062.057-.161c.154-.44.323-1.656.323-3.286 0-3.461.144-3.818 2.188-5.452 1.146-.912 1.945-1.865 2.059-2.259l.016-.097c.008-.484.344-.889.748-.901l.148-.005.104-.105c.104-.104.215-.318.215-.607 0-.638.794-1.095 2.122-1.224 1.146-.11 1.879-.534 2.061-1.192.221-.79-.391-1.811-1.633-2.731-1.043-.771-2.197-2.328-2.576-3.471-.301-.909-.711-1.611-.963-1.834l-.078-.069-.104-.019c-.5-.092-1.717-1.085-2.661-2.02a145.97 145.97 0 00-4.54-4.211c-1.075-.947-2.587-2.586-2.587-3.269 0-.607.81-1.932 1.592-2.861.461-.547.812-1.01 1.027-1.501.045-.117.087-.235.131-.373.165-.602.105-1.209-.054-2.057l-.275-1.478-.179-.945.106.012.519.055-.083-.066c-.238-.193-.393-.416-.456-.664a2.818 2.818 0 00-.226-.237l-.063-.084c-.348-.621-1.03-1.16-2.247-1.998-1.443-.993-2.466-2.175-2.517-2.656-.002-.308-.209-.646-.601-1.017a2.394 2.394 0 00-.705-.569c-1.669-1.158-4.34-2.247-6.294-2.961a4.151 4.151 0 00-1.268-.234l-.626-.022-.151.055c-1.835.235-3.37 1.477-3.57 2.889-.114.8-.619 1.322-1.385 1.43-.768.11-1.848.893-2.407 1.746-.502.766-1.298 1.414-1.739 1.414-.542 0-1.54.574-2.273 1.307-.891.893-1.887 1.182-3.686 1.116a49.8 49.8 0 00-1.896-.055c-2.044 0-2.28.438-3.272 2.28-.963 1.789-1.461 2.105-3.807 2.415-2.27.301-3.075.758-3.917 2.223-.796 1.388-1.587 2.092-2.349 2.092-.409 0-.824-.208-1.232-.616-.562-.562-1.699-1.019-2.533-1.019a2.57 2.57 0 01-.966-.197 8.421 8.421 0 01-.733-.494l-.148-.189c-.146-.26-.335-.558-.598-.558h-.144l-.007-.005-.003.018-.098.079c-.225.182-.431.606-.657 1.102-.333.731-.793 1.275-1.057 1.416l-.161.043a.796.796 0 00-.748.811c0 .793-1.485 2.233-2.304 2.233a.269.269 0 00-.254.153l-.027.085c-.018.159.063.75 1.488 2.407 1.45 1.685 2.639 2.454 3.854 2.491 1.211.037 1.608.27 1.901 1.738.184.918.705 2.143 1.257 2.601.425.354.783 1.42.783 2.328 0 1.386-.181 1.594-1.379 1.594-.883 0-1.539-.264-2.075-1.576l-.697-1.704a.604.604 0 00-.228-.058c-.007 0-.016.007-.023.008l-.667 1.757c-.546 1.44-.837 1.573-3.462 1.573h-3.173l.441 2.008c.454 2.066-.667 7.461-1.528 8.249l-.096.088-.13.009c-.504.036-1.158.482-1.498.893-.036.044-.07.091-.103.14l-.069.101-.115.042c-.14.05-.293.094-.446.139.104.105.202.22.286.356l.067.107-.012.126c-.053.55.072 1.198.343 1.776.437.928 1.146 1.505 1.851 1.505.897 0 1.429.962 1.627 1.862.318 1.44-.025 3.242-1.15 3.764a5.327 5.327 0 00-.566.285l-.136.05a7.373 7.373 0 01-.892.075c-.025.083-.058.16-.063.257l.065.264.092.112c.246.299 1.308.954 2.661 1.534 1.819.779 2.884 1.739 3.452 3.112.536 1.294 1.26 1.946 2.421 2.177.244.048.715.157 1.133.336l.16.069.156-.078c.193-.097.36-.234.515-.39.083-.084.168-.167.24-.268l.059-.084.035-.441c.122-1.568.4-2.276 1.81-2.603.899-.208 1.481-.779 1.596-1.567.188-1.298 1.26-2.315 2.442-2.315.351 0 .692.099.988.285.527.333 1.462.517 2.633.517 1.276 0 2.654-.225 3.78-.618.712-.249 1.201-.355 1.633-.355.577 0 1.093.197 1.781.68.844.591 1.487.878 1.967.878.381 0 .873-.145 1.303-1.277.493-1.297 1.375-1.618 3.612-1.87.499-.056 1.04-.085 1.562-.085 1.185 0 2.153.14 2.591.374.706.378 1.58.365 2.61-.039 1.477-.576 2.59-.833 3.609-.833 1.606 0 3.048.623 5.144 2.22 2.905 2.215 3.13 2.71 3.13 2.81 0 .233-.366.825-.87 1.408-.422.488-.875 2.239-1.127 4.355-.235 1.98-.188 3.302-.054 3.91.028.09.058.175.092.259l.038.093.079.062c.075.059.124.144.147.307l.06.151c.025.037.052.071.091.121.149.179.298.333.447.474.185.175.372.33.563.453l.133.085.154-.036c.504-.117 1.12-.175 2.061-.194l.523-.002.102-.08c.118-.092.234-.203.351-.317.175-.171.351-.36.532-.589z" /></svg>