<svg viewBox="0 0 600 500" xmlns="http://www.w3.org/2000/svg"><path d="M249.285 159.598l-.203-.193-.009-.148c-.016-.257-.122-.57-.795-.947-.563-.315-.957-1.242-.957-2.253 0-1.305.332-1.829 1.42-2.243 1.167-.444 1.854-1.978 1.667-3-.111-.602-.513-.961-1.074-.961-.472-.053-1.698-.896-2.84-2.073l-2.12-2.183-3.434.72c-1.196.251-2.506.408-3.419.408-.543 0-.774-.057-.863-.09-1.312-.503-2.061-2.744-2.502-7.493-.349-3.752-.37-3.977 1.102-4.764.794-.425 1.753-1.223 1.984-1.825.207-.538.109-1.161-.267-1.71-.46-.668-1.233-1.084-2.016-1.084-1.658 0-2.861-.601-2.861-1.428a.968.968 0 00-.332-.726l-.061-.054-.035-.025a1.118 1.118 0 00-.646-.206.765.765 0 01-.754-.773c0-.877-.527-1.467-1.312-1.467-.681 0-1.394.432-1.907 1.156-.851 1.196-1.465 2.726-1.528 3.807l-.008.128-.084.096c-.119.137-.26.253-.4.371.143.038.285.076.41.117l.145.047.071.134a.629.629 0 00.575.355c.367 0 .678.48.678 1.048 0 .857.589 1.478 1.659 1.747a3.3 3.3 0 012.079 1.581c.369.662.458 1.389.25 2.045-.177.555-1.401 1.378-2.673 1.799-1.965.649-2.599 1.294-2.537 1.681.048.3.423.453 1.113.453a.63.63 0 01.493.208c.144.162.204.404.169.681-.033.263-.021.618.033.999.007.148.026.258.058.358.081.373.172.675.274.911.279.645.195 1.246-1.06 2.409-1.828 1.696-3.467 1.819-4.891.352-.679-.697-1.402-.969-2.578-.969-.345 0-.748.024-1.23.074-1.271.132-1.971.205-2.349.59-.208.211-.309.5-.352.998l-.012.143-.083.078.081.082-.004.16c-.006.227-.006.475-.006.748 0 1.593-.211 2.213-.754 2.213-.591 0-1.073.58-1.073 1.292 0 .261.023.588.201.81a.647.647 0 00.16.142l.013.006c.208.127.458.127.564.127.217 0 .484-.032.844-.1l.934-.178.214.206c.03.035.059.07.084.104l.087.119-.338 2.916c-.355 3.061-.241 3.913.644 4.797.633.634.748 1.526.534 2.043-.096.23-.298.502-.718.502-.292 0-.548.305-.685.816l-.037.141-.122.079a1.628 1.628 0 01-.549.239l-.129.027-.009.096.09.117c.275.354.271.543.237.668-.105.381-.683.562-1.975.886-.786.197-1.33.209-1.623.031a.496.496 0 01-.249-.428l-.003-.167-.126-.109c-.161-.14-.486-.224-.868-.224-.592 0-1.239.187-1.761.519-.374.289-.963 1.801-1.246 3.592-.252 1.591-.875 3.636-1.482 4.307-.334.372-.896 1.425-.896 4.309 0 3.211.076 3.366 2.702 5.519 2.342 1.918 3.249 2 3.624 1.844.71-.272 1.512.062 2.142.886.61.797 1.73 1.223 3.528 1.338.482.031.842.045 1.132.045 1.339 0 1.672-.279 2.199-1.308l.782-1.528.204-.399.106.527.392 1.952c.306 1.518 1.236 2.45 1.769 2.45l.119-.019c.151-.05.262-.186.338-.414.155-.464.677-.827 1.188-.827.332 0 .812-.326 1-.812.29-.757 1.17-1.295 1.548-.843.271.321.289 1.076.059 2.449-.11.65-.211 1.301-.202 1.665l.029.137c.034.08.072.157.112.227l.085.149.169.032c.143.028.37.041.692.041.752 0 1.645-.257 1.949-.562.405-.405 2.25-.782 3.8-.912 1.325-.108 2.073-.166 2.6-.028l.085.022.086-.018c.333-.069.628-.146.908-.229.153-.045.307-.089.446-.139l.115-.042.069-.101c.033-.049.067-.096.103-.14.34-.411.994-.857 1.498-.893l.13-.009.096-.088c.862-.788 1.982-6.183 1.528-8.249l-.441-2.008h3.173c2.625 0 2.917-.132 3.462-1.573l.667-1.757.111-.293.14.343.697 1.704c.537 1.312 1.192 1.576 2.075 1.576 1.199 0 1.379-.208 1.379-1.594 0-.908-.358-1.973-.783-2.328-.552-.458-1.073-1.682-1.257-2.601-.293-1.468-.689-1.701-1.901-1.738-1.216-.037-2.404-.806-3.854-2.491-1.425-1.657-1.505-2.248-1.488-2.407l.027-.085a.269.269 0 01.254-.153c.818 0 2.304-1.44 2.304-2.233 0-.437.329-.792.748-.811l.161-.043c.264-.141.724-.685 1.057-1.416.227-.495.432-.919.657-1.102l.098-.079.005-.021-.127-.09a13.964 13.964 0 01-.316-.29z" /></svg>