<svg viewbox="0 0 500 600"><path d="M287.864 142.122c1.674-1.727 2.689-3.883 2.689-5.678 0-1.542.307-2.104 1.43-2.614.905-.414 1.615-1.131 1.615-1.634 0-1.227-2.731-2.752-5.963-3.331l-.144-.059a2.444 2.444 0 01-.449-.391c-.075.078-.148.157-.235.22l-.125.089-.152-.023c-1.441-.224-2.843-.614-3.19-.887-.573-.453-1.348-.34-2.452.384-1.256.822-1.521 1.44-1.234 2.875.198.997.038 1.874-.451 2.47-.614.751-1.711 1.022-3.007.73-1.053-.236-2.171-.399-2.575-.321-.338.06-1.938.269-3.494.457-.86.102-1.454.169-1.869.169-.196 0-.318-.015-.392-.028l-.307-.057-.039-.163c-.083-.151-.107-.391-.107-.979 0-.877.456-1.711 1.134-2.075.732-.392 1.141-.874 1.215-1.434.117-.881-.562-1.983-2.138-3.469-2.605-2.458-3.272-2.521-6.531-.86-1.517.774-3.539 1.201-5.692 1.201-2.842 0-3.49-.215-4.623-1.531-.769-.894-2.002-1.854-2.75-2.142-.609-.235-1.583-1.15-2.062-2.139-.592-1.224-1.414-1.724-2.838-1.724-.91 0-2.118.203-3.918.658-.666.167-1.076.302-1.371.45l-.13.065-.14-.04c-.059-.017-.11-.046-.165-.069a3.147 3.147 0 01-.63 1.041c.045.02.099.027.142.051l.194.111-.005.223c-.007.31.014.673.052 1.104.16 1.861.122 2.111-1.403 2.446-2.734.602-3.276.817-3.355 1.93l-.012.166-.13.103a2.067 2.067 0 01-.171.12l-.212.131-.168-.119.061.054a.965.965 0 01.332.726c0 .827 1.203 1.428 2.861 1.428.783 0 1.556.416 2.016 1.084.376.549.473 1.172.267 1.71-.231.602-1.19 1.4-1.984 1.825-1.472.787-1.451 1.012-1.102 4.764.441 4.75 1.189 6.99 2.502 7.493.089.034.319.09.863.09.913 0 2.223-.156 3.419-.408l3.434-.72 2.12 2.183c1.142 1.176 2.368 2.02 2.84 2.073.562 0 .963.359 1.074.961.188 1.022-.5 2.555-1.667 3-1.088.414-1.42.938-1.42 2.243 0 1.011.394 1.938.957 2.253.673.377.78.69.795.947l.009.148.203.193c.08.075.188.175.316.291l.127.09.007.005h.144c.262 0 .451.298.598.558l.148.189c.217.161.445.321.733.494.314.129.648.197.966.197.834 0 1.97.457 2.533 1.019.408.409.823.616 1.232.616.762 0 1.553-.704 2.349-2.092.841-1.465 1.647-1.922 3.917-2.223 2.345-.31 2.843-.626 3.807-2.415.992-1.842 1.228-2.28 3.272-2.28.503 0 1.11.023 1.896.055 1.799.066 2.795-.223 3.686-1.116.733-.733 1.731-1.307 2.273-1.307.441 0 1.237-.647 1.739-1.414.559-.853 1.639-1.636 2.407-1.746.767-.108 1.271-.63 1.385-1.43.2-1.412 1.734-2.654 3.57-2.889l.151-.055-.053-.002 1.375-2.019z" /></svg>