<svg viewbox="0 0 500 600"><path d="M314.146 130.935l-.109-.068c-1.104-.998-2.032-1.106-5.223-1.106-3.984 0-4.166-.067-6.431-2.386-1.208-1.235-2.913-2.484-3.837-2.484-.706 0-2.686-.718-4.324-1.567l-3.162-1.64-.486.535-.098-.055c-.013.049-.012.099-.028.148l-.079.136-1.248 1.372c-1.464 1.611-2.051 2.798-1.795 3.63.017.054.042.111.066.166l.073.161-.078.159a1.873 1.873 0 01-.347.482c.127.143.276.274.449.391l.144.059c3.232.578 5.963 2.104 5.963 3.331 0 .503-.709 1.22-1.615 1.634-1.123.511-1.43 1.073-1.43 2.614 0 1.795-1.015 3.952-2.689 5.678l-1.376 2.023.053.002.626.022c.458.016.884.095 1.268.234 1.954.714 4.625 1.803 6.294 2.961.274.148.513.338.705.569.392.371.599.708.601 1.017.051.481 1.074 1.663 2.517 2.656 1.217.838 1.898 1.377 2.247 1.998l.064.084c.12.118.188.193.225.237.063.248.218.471.456.664l.083.066.003.002 3.655.392c1.136.122 2.06.214 2.759.214 1.37 0 1.909-.309 3.445-1.525 3.395-2.685 7.332-3.97 10.767-3.5.624.085 1.192.128 1.689.128 1.149 0 1.671-.228 1.907-.422.285-.237 1.312-.559 3.338-.749l.121-.033c.285-.131.561-.286.822-.452-.004-.008-.011-.014-.014-.022a1.05 1.05 0 01.007-.812l.037-.091.077-.061c.705-.557 1.109-1.163 1.109-1.662 0-.546-.662-1.068-1.509-1.188-.831-.119-1.472-.78-1.852-1.913-1.001-3.006-1.533-3.459-4.069-3.459-1.406 0-2.609-.435-2.96-.856-.453-.544-1.271-.978-1.862-.986-.543-.079-1.406-1.118-1.938-2.273-.447-.969-1.214-2.23-1.953-3.212l-.054-.101a3.49 3.49 0 01-.207-.995c-.028.002-.056.011-.083.011a1.911 1.911 0 01-.714-.158z" /></svg>