<svg viewBox="296 149 342 218" xmlns="http://www.w3.org/2000/svg"><mask id="mm"><rect x="-10000" y="-10000" width="30000" height="30000" fill="#fff" /><path d="M322.833 209.684l.085-.07.033-.105c.048-.151.101-.304.165-.459.401-.971.909-3.72 1.128-6.127.391-4.331.607-4.936 3.464-5.831.188-.058.384-.118.537-.267l.062-.075a1.66 1.66 0 00.163-.399c.027-.22-.008-.501-.116-.939-.135-.539-.237-1.133.02-1.46.133-.171.342-.254.638-.254.408 0 .943-.587 1.146-1.256.235-.775.985-2.016 1.67-2.765.726-.792 1.29-1.17 2.538-1.17.441 0 .977.042 1.789.139 1.629.192 2.275.191 2.591.021l.167-.1.027-.185c.004-.029.012-.076.012-.151 0-.56.427-1.352.971-1.803.465-.385.855-1.171.855-1.715 0-.924.562-1.491 1.119-1.574l.153-.023.093-.126c.041-.055.072-.138.109-.201a7.737 7.737 0 01-.254-1.268l-.01-.068.019-.067c.199-.792.326-1.87.375-3.204.112-3.047-.028-4.054-1.228-5.33-.693-.738-1.279-1.765-1.279-2.242 0-.555-.682-1.994-1.552-3.274-.819-1.21-1.398-2.259-1.483-2.575-.012-.12-.081-.279-.188-.461l-.26.055-.018-.118.229-.014c-.27-.427-.75-.977-1.348-1.537-.834-.784-1.434-1.729-1.47-2.12l-.005-.052.01-.052c.086-.458 1.023-1.956 2.391-3.577 1.541-1.824 2.471-3.192 2.352-4.374a2.012 2.012 0 00-.09-.421l-.045-.135.057-.13c.059-.137.139-.263.218-.389a3.326 3.326 0 01-.625-.163l-.151-.106a6.672 6.672 0 00-.933-.865 5.736 5.736 0 00-1.103-.7 1.887 1.887 0 00-.818-.292c-.704-.172-1.529-.242-2.802-.242a47.138 47.138 0 00-1.646.032l-.186.009-.12-.143a1.12 1.12 0 01-.156-.255 7.102 7.102 0 01-.821.452l-.121.033c-2.027.19-3.055.511-3.338.749-.237.194-.76.422-1.908.422-.497 0-1.065-.043-1.689-.128-3.436-.47-7.373.815-10.767 3.5-1.536 1.217-2.075 1.525-3.445 1.525-.698 0-1.623-.093-2.759-.214l-3.655-.392-.003-.002-.518-.055c.037.255.061.555.07.934l.275 1.478c.159.848.219 1.456.054 2.057a6.874 6.874 0 01-.131.373c-.216.492-.565.954-1.027 1.501-.782.929-1.592 2.254-1.592 2.861 0 .682 1.512 2.322 2.586 3.269a143.822 143.822 0 014.541 4.211c.944.935 2.161 1.928 2.661 2.02l.104.019.078.069c.252.223.662.925.963 1.834.379 1.143 1.533 2.701 2.576 3.471 1.242.92 1.854 1.941 1.633 2.731-.182.658-.914 1.082-2.061 1.192-1.329.129-2.122.586-2.122 1.224 0 .289-.11.503-.215.607l-.104.105-.148.005c-.404.013-.74.417-.748.901l-.016.097c-.112.394-.914 1.347-2.059 2.259-2.046 1.633-2.189 1.99-2.189 5.452 0 1.63-.168 2.846-.322 3.286l-.057.161-.159.062c-.615.243-1.8 1.294-2.7 2.197-1.445 1.443-2.029 2.432-1.785 3.021.148.357.583.539 1.292.539 1.623 0 4.343 1.786 4.343 2.852 0 2.541-1.098 2.92-1.752 2.92-.705 0-1.455.456-1.672 1.016-.15.392-.824.811-1.589.811-.853 0-1.905.662-2.502 1.573-.596.91-.897 1.551-.947 2.018l-.012.107-.067.085a6.103 6.103 0 01-.533.59c.013.028.016.06.03.087.04.075.087.145.145.214l.101.122.158.013c1.152.09 2.029.296 2.346.552.351.285 1.689.718 3.121.91 1.349.181 3.72.519 5.289.752l2.414.36.297-.274.153-1.813c.176-2.089.977-3.336 2.141-3.336.512 0 1.043.247 1.58.735.655.592 1.391.918 2.067.918 1.048 0 1.78-.75 1.911-1.958.102-.925.396-2.078.713-2.407.111-.116.324-.253.703-.253.592 0 1.453.36 2.195.918l.088.066.109.008c.062.004.122.008.229.008.179 0 .341-.042.502-.083a1.88 1.88 0 00.765-.364z" fill="#000" /></mask><rect x="-10000" y="-10000" width="30000" height="30000" fill="#fff" opacity="1" mask="url(#mm)" /></svg>