<svg viewBox="-9712 -9897 10335 10131" xmlns="http://www.w3.org/2000/svg"><mask id="mm"><rect x="-10000" y="-10000" width="30000" height="30000" fill="#fff" /><path d="M315.16 105.142l-.079.029c-.964.355-1.804.551-2.364.551-.773 0-2.058.509-2.808 1.117-.64.516-1.062.857-1.625.857-.552 0-1.185-.296-2.562-.966-2.646-1.285-2.699-1.813-2.699-1.834l-.021-.102c-.076-.23-.415-.731-.892-1.207-.661-.662-1.676-.897-2.344-.897-.789 0-1.299.292-1.299.742 0 .711-.673 1.072-2 1.072-1.28 0-1.86.332-2.218 1.269-.332.869-1.777 2.406-2.926 3.333-1.494 1.202-2.581 2.738-3.063 4.327-1.007 3.321-.897 3.733.431 5.429.83 1.061 1.195 1.905 1.152 2.656l-.01.171.123.119c.104.102.225.19.357.264l.163.091.098.055.486-.535 3.162 1.64c1.638.85 3.618 1.567 4.324 1.567.924 0 2.629 1.249 3.837 2.484 2.265 2.319 2.445 2.386 6.431 2.386 3.189 0 4.119.109 5.223 1.106l.109.068c.254.105.489.156.719.156.029 0 .056-.009.084-.011.211-.013.414-.065.591-.169l.146-.084.032-.163c.022-.108.056-.204.101-.287.215-.403.699-.617 1.404-.617.512 0 1.367-.604 1.944-1.722.878-1.696 2.358-2.928 3.522-2.928.408 0 1.354.166 1.354 1.706 0 1.21 1.772 2.944 3.013 2.944.469 0 1.191-.391 1.579-.855.45-.544 1.063-.961 1.493-.978.311-.065 1.237-.574 2.196-1.284.573-.425.966-.67 1.31-.823l.088-.054c.402-.334.703-.611.945-.868l.018-.018c-.093-.189-.186-.378-.254-.6l-.056-.175.104-.151c.406-.58.467-1.144.242-2.233a141.077 141.077 0 01-.731-3.878c-.272-1.58-.862-2.296-2.427-2.949-1.133-.473-2.135-1.135-2.326-1.434-.262-.424-1.236-.751-2.223-.751-1.121 0-2.367-.805-4.166-2.69-1.965-2.06-3.146-2.79-4.519-2.79-.955 0-1.776-.356-1.944-.689a.778.778 0 00-.367-.419l-.166-.096-.021-.191a1.49 1.49 0 01.058-.566 3.43 3.43 0 00-.646-.117l-.083-.008z" fill="#000" /></mask><rect x="-10000" y="-10000" width="30000" height="30000" fill="#fff" opacity=".3" mask="url(#mm)" /></svg>