<svg viewBox="-9652 -9881 10415 10170" xmlns="http://www.w3.org/2000/svg"><mask id="mm"><rect x="-10000" y="-10000" width="30000" height="30000" fill="#fff" /><path d="M391.386 127.879l-.144.188-.232-.049a3.924 3.924 0 00-.811-.084c-.965 0-2.846-.692-4.191-1.542-1.529-.966-2.477-1.406-2.707-1.406a.206.206 0 00-.156.063c-.106.127-.51.961-1.16 2.528-.607 1.469-1.26 2.184-1.996 2.184-.685 0-2.711.968-4.52 2.158-1.724 1.136-3.189 1.969-3.562 2.089-.444.045-.687.813-.687 1.929 0 1.878-3.207 4.785-5.278 4.785-.914 0-1.418.462-1.418 1.302 0 .579-.397 1.399-.869 1.791a1.98 1.98 0 00-.615 2.08c.191.614-.209 1.959-.934 3.132-.84 1.361-1.973 2.11-3.188 2.11-1.033 0-2.07-.531-3.002-1.536-.902-.973-2.207-1.554-3.488-1.554-1.064 0-1.992.391-2.613 1.101a2.696 2.696 0 00-.24.324l-.055.084-.947.462-.389 2.334c-.217 1.349-.132 2.274.049 2.592l.111.123c.458.319.664 1.53.664 2.289 0 .723.148 1.238.277 1.458l.085.147.166.033c.452.091.69 1.181.69 2.211 0 1.661.312 2.024 1.252 2.274 1.914.514 3.918.446 5.068-.167.58-.311 1.545-.718 2.148-.906.705-.218.955-.906.955-2.632 0-2.078.172-2.601 1.529-2.601.784.007 2.125.563 2.989 1.239.806.629 1.877 1.17 2.342 1.184.532.016 1.667.577 2.527 1.251.913.713 2.435 1.162 3.97 1.171 2.227.013 2.896.354 4.487 2.284 1.694 2.053 1.954 2.157 5.549 2.224 3.61.067 4.015.222 4.789 1.836.522 1.092 1.437 1.581 2.108 1.581.5 0 .932-.243 1.211-.683.285-.444 1.377-1.401 2.486-2.178 1.127-.788 1.754-1.134 3.02-1.134.771 0 1.809.126 3.451.36 2.967.42 4.097.618 4.476.781l.149.064.147-.065c.132-.057.238-.121.33-.196l.116-.096.004-.033.014-.117c.123-1.054.622-2.13 1.303-2.811 1.037-1.038 1.117-1.401.574-2.59-.388-.851-.691-2.295-.691-3.289 0-.478 0-.93.129-1.244l.046-.114-.03-.119c-.037-.146-.078-.279-.117-.417a5.784 5.784 0 01-.854-.445l-.099-.065-.045-.11a6.014 6.014 0 00-.188-.428c-1.416-2.86-2.749-7.553-2.551-8.456l.068-.146c.211-.278.711-.505 1.113-.505.592 0 2.454-1.126 3.911-2.214l2.989-2.233-.19-4.979c-.133-3.396.073-5.313.687-6.409 1.119-1.999 2.758-6.523 3.188-8.802.059-.313.124-.716.1-1.054l-.009-.105.05-.094a7 7 0 01.416-.697c-.027-.042-.043-.094-.076-.132-.2-.242-.58-.53-1.252-.53-1.768 0-4.988 3.898-4.984 5.507-.053.227-.732 1.367-2.034 2.716-1.28 1.329-2.969 3.254-3.765 4.292-.707.919-1.549 1.49-2.197 1.49-1.723 0-5.775-2.136-6.993-3.687a4.617 4.617 0 00-2.241-1.558 1.282 1.282 0 01-.082.25 1.455 1.455 0 01-.133.211z" fill="#000" /></mask><rect x="-10000" y="-10000" width="30000" height="30000" fill="#fff" opacity=".3" mask="url(#mm)" /></svg>