<svg viewBox="316 58 379 127" xmlns="http://www.w3.org/2000/svg"><defs><filter id="f1" x="0" y="0" width="130%" height="130%"><feOffset result="offOut" in="SourceAlpha" dx="1" dy="1" /><feGaussianBlur result="blurOut" in="offOut" stdDeviation="2" /><feBlend in="SourceGraphic" in2="blurOut" mode="normal" /></filter></defs><path d="M365.932 59.793l-.035.115c-.142.472-.151 1.173-.151 2.041 0 1.779-.425 2.942-.819 3.271-.509.423-1.013 1.389-1.121 2.154-.133.922-.433 1.193-2.166 1.215-1.914.023-2.404.377-3.488 2.523l-1.017 1.961c-.243.236-.51.403-.788.495l-.103.034-.104-.025a12.58 12.58 0 01-1.14-.345c-1.478-.515-2.071-.609-2.461.481-.206.568-.869 1.745-1.479 2.625-.632.913-1.148 2.456-1.154 3.439-.01 2.463-3.055 4.162-8.141 4.543-3.103.232-4.794.803-5.66 1.908-.637.812-.809 1.927-.541 3.507.479 2.826.627 3.824.321 4.232-.177.236-.559.291-1.219.366-1.133.13-3.088 1.484-4.354 2.692-2.271 2.167-6.519 4.242-10.567 5.166-.29.066-.586.19-.833.349l-.153.099-.172-.06a1.794 1.794 0 01-.524-.302c-.025.025-.062.044-.086.071l-.119.129.023.175c.046.336.076.577.076.659 0 .458-.93.996-1.707 1.366l-.094.045-.059.087a1.613 1.613 0 00-.205.458c-.062.22-.074.418-.059.566l.02.191.168.096a.788.788 0 01.366.419c.168.333.989.689 1.944.689 1.372 0 2.554.73 4.518 2.79 1.799 1.886 3.045 2.69 4.168 2.69.984 0 1.959.328 2.221.751.191.298 1.193.96 2.326 1.434 1.564.653 2.154 1.37 2.428 2.949.188 1.103.52 2.843.73 3.878.225 1.09.164 1.653-.24 2.233l-.105.151.055.175c.069.221.162.41.254.6.004.006.006.014.01.021.153.312.33.596.554.831l.137.091c.154.059.308.124.456.192.848.385 2.077.699 2.742.699 1.303 0 3.363-2.172 3.395-3.576.012-.597.446-1.417.991-1.868.463-.387.854-1.446.854-2.312 0-.868-.392-1.927-.854-2.314-.545-.451-.972-1.232-.972-1.779 0-.468-.387-1.729-.844-2.752-1.524-3.403-1.463-3.823.729-4.998 1.272-.684 2.419-1.076 3.144-1.076.535 0 .854.203.929.587l.038.2.188.077c.397.163 1.379.327 2.674.327 2.412 0 2.885-.272 2.885-.743 0-.642.812-1.23 1.598-1.427.791-.198 1.891-.866 2.452-1.487.54-.597 1.518-1.214 2.219-1.214.53 0 1.302-.393 1.685-.856.504-.607 1.834-.971 2.828-.971 1.524 0 1.978-.314 2.66-1.861l.061-.104-.016-.124a5.431 5.431 0 00-.226-.963c-.271-.845-.698-1.686-.979-2.194-.641-1.138-1.902-3.083-3.175-3.318-.705-.132-1.606-.482-1.907-1.403-.394-1.211.328-2.983 1.885-4.625 1.224-1.292 2.397-1.963 2.619-2 .989 0 2.363-.903 3.209-1.794.67-.705 1.789-1.235 2.344-1.24 2.552-.017 5.438-3.084 6.055-6.436.202-1.095.979-2.656 1.66-3.34l2.098-2.094-4.969-5.501c-3.438-3.81-5.139-5.16-6.498-5.16-.842 0-1.404.209-1.771.627.123.198.236.417.326.678l.032.114z" stroke="#c00" stroke-width=".2" fill="transparent" filter="url(#f1)" /></svg>