<svg viewBox="315 96 392 151" xmlns="http://www.w3.org/2000/svg"><path d="M365.236 98.566l-.06.104c-.684 1.547-1.136 1.861-2.659 1.861-.994 0-2.324.363-2.83.971-.381.463-1.152.856-1.684.856-.701 0-1.679.618-2.219 1.214-.562.622-1.661 1.289-2.452 1.487-.785.197-1.599.785-1.599 1.427 0 .471-.471.743-2.885.743-1.295 0-2.274-.164-2.673-.327l-.188-.077-.038-.2c-.073-.384-.395-.587-.93-.587-.724 0-1.869.392-3.143 1.076-2.193 1.175-2.255 1.595-.73 4.998.459 1.024.845 2.284.845 2.752 0 .547.427 1.328.972 1.779.465.387.854 1.446.854 2.314 0 .867-.391 1.926-.854 2.312-.545.451-.98 1.271-.992 1.868-.029 1.404-2.091 3.576-3.394 3.576-.665 0-1.896-.313-2.742-.699a7.413 7.413 0 00-.456-.192l-.137-.091c-.225-.234-.398-.519-.555-.831l-.024-.003c-.242.257-.543.534-.944.868l-.089.054c-.344.152-.735.398-1.31.823-.959.709-1.887 1.219-2.196 1.284-.431.017-1.043.434-1.493.978-.388.464-1.109.855-1.58.855-1.238 0-3.012-1.733-3.012-2.944 0-1.54-.946-1.706-1.354-1.706-1.164 0-2.646 1.231-3.523 2.928-.577 1.119-1.434 1.722-1.945 1.722-.703 0-1.189.213-1.402.617a1.102 1.102 0 00-.102.287l-.033.163-.145.084a1.32 1.32 0 01-.592.169c.016.305.08.632.207.995l.055.101c.738.982 1.506 2.243 1.953 3.212.531 1.156 1.396 2.195 1.938 2.273.592.008 1.409.441 1.862.986.351.421 1.553.856 2.96.856 2.536 0 3.068.453 4.068 3.459.381 1.133 1.021 1.794 1.853 1.913.847.12 1.509.642 1.509 1.188 0 .499-.404 1.104-1.109 1.662l-.077.061-.037.091c-.11.271-.114.551-.007.812.003.008.01.014.014.022.041.091.09.176.156.255l.12.143.186-.009a47.093 47.093 0 011.646-.032c1.271 0 2.098.07 2.802.242.319.043.56.125.817.292.359.169.711.392 1.104.7.391.307.693.589.932.865l.152.106c.205.077.415.128.625.163.168.028.337.047.507.047.091 0 .181-.006.271-.013l.134-.011.097-.092c.368-.351.883-.671 1.663-1.038 1.101-.517 1.959-.754 2.39-.616l.14.062c.08.054.125.121.147.168l.062.127.131.054c.116.048.341.105.747.105.357 0 .797-.046 1.27-.134l2.392-.448-.058.376.01-.004.947-.462.055-.084c.076-.119.156-.228.24-.324.621-.71 1.549-1.101 2.613-1.101 1.281 0 2.586.581 3.488 1.554.931 1.005 1.969 1.536 3.002 1.536 1.216 0 2.35-.75 3.188-2.11.725-1.172 1.125-2.518.934-3.132a1.985 1.985 0 01.615-2.08c.472-.392.869-1.211.869-1.791 0-.839.504-1.302 1.418-1.302 2.071 0 5.278-2.907 5.278-4.785 0-1.116.241-1.884.687-1.929.371-.12 1.839-.953 3.562-2.089 1.809-1.19 3.835-2.158 4.52-2.158.736 0 1.389-.714 1.996-2.184.65-1.567 1.054-2.401 1.16-2.528a.206.206 0 01.156-.063c.23 0 1.178.44 2.707 1.406 1.346.85 3.227 1.542 4.191 1.542.273 0 .546.028.811.084l.232.049.144-.188c.056-.073.099-.143.134-.21.041-.081.062-.166.084-.25.23-.863-.412-1.87-.947-2.578-.295-.392-.709-1.951-.709-3.6 0-3.237-.407-3.758-4.817-8.389-2.547-2.673-4.106-4.662-4.344-5.124-.162-1.944-2.74-4.292-4.743-4.292-1.088 0-3.146-2.266-3.146-3.464 0-.822-.679-2.092-1.136-2.746-.767-1.094-1.938-1.722-3.211-1.722-1.416 0-2.707.742-3.553 1.974.104.327.187.654.226.963l.01.125z" /></svg>