<svg viewBox="374 196 418 248" xmlns="http://www.w3.org/2000/svg"><path d="M416.594 228.187l-.148-.093-1.9-1.948c-2.225-2.277-2.743-4.043-1.54-5.247.608-.609.526-1.155-.315-2.084-1.473-1.625-1.955-6.876-.797-8.645.433-.661.84-1.402.58-1.885-.225-.413-.857-.582-2.188-.582-1.923 0-3.429-1.862-3.429-4.239 0-1.429.23-1.533 1.666-1.533 1.317 0 1.985-.361 1.985-1.072a.911.911 0 00-.185-.544l-.12-.164.003-.009-.016.003-.135-.097a1.456 1.456 0 00-.851-.264c-.578 0-1.405-.407-1.806-.889-1.562-1.881-3.433-2.326-10.526-2.506l-7.304-.185-.375 4.494-4.436.031c-3.811.026-4.98.289-6.594 1.482a10.7 10.7 0 00-.717.582l-.09.081-.19.015c-.177 0-.349-.038-.519-.098.019.232.019.476-.018.752l-.013.102-.062.081c-.528.684-.802 1.358-.812 2.005-.014.853.435 1.661 1.295 2.336.854.671 1.283 1.292 1.372 1.94l.088.076-.063.09c.039.8-.449 1.72-1.541 2.888-.549.587-.892.993-1.129 1.454l-.053.103-.078.042-.012.131-.021.101c-.341.927-.391 2.292-.373 5.001v.188l-.148.113c-.18.136-.389.193-.6.214.004.494.01 1.014.017 1.593l.011.461a28.5 28.5 0 01.409 3.013c.243 2.796.666 4.453.892 4.885l.077.149.163.042c.498.125 1.753.41 2.973.675 1.877.406 2.578.797 2.771 2.184.11.812.46 1.789.778 2.18.367.445.475 1.615.244 2.663-.187.84-.144 1.662.101 1.953l.087.076c.439.28.711 1.052.711 1.607 0 .475.561 1.283 1.393 1.728.848.454 1.698 1.469 1.898 2.263.18.708.865 1.425 1.528 1.596l.267.077.146-.101c.082-.057.173-.125.27-.202.305-.242.674-.584 1.123-1.038l.061-.08c.246-.437.59-.862 1.112-1.377.866-.855 1.472-1.648 1.601-1.959l.029-.131c.028-.907 1.032-1.703 2.147-1.703.185 0 .362.023.537.069.263.067.517.207.735.404l.096.087.957.059.168.01.104-.066c.349-.224.853-.338 1.5-.338 1.373 0 1.668-.117 1.668-1.354v-1.757l3.421 1.487c2.107.917 4.041 1.291 6.674 1.291 1.024 0 2.203-.059 3.599-.179.496-.043.83-.383.894-.915.064-.594-.27-1.353-1.019-1.59-.86-.272-1.179-.862-.947-1.754.151-.575.532-1.207.968-1.303l.256-.057.035-.26c.076-.579-.205-1.996-.838-4.212-.129-.455-.248-.965-.02-1.268.189-.252.546-.304 1.021-.304a6.02 6.02 0 001.889-.291l.057-.02c.087-.03.178-.061.24-.087l.515-.211-.216-.221a1.474 1.474 0 01-.988.005z" fill="#000" opacity=".2" /></svg>