<svg viewBox="82 61 134 117" xmlns="http://www.w3.org/2000/svg"><defs><filter id="f1" x="0" y="0" width="130%" height="130%"><feOffset result="offOut" in="SourceAlpha" dx="1" dy="1" /><feGaussianBlur result="blurOut" in="offOut" stdDeviation="2" /><feBlend in="SourceGraphic" in2="blurOut" mode="normal" /></filter></defs><path d="M81.989 92.204c.087.122.197.243.327.36l.087.06c.86.421 2.707 1.006 3.939 1.006a1.89 1.89 0 00.543-.065c.734-.227 1.602.051 2.071.618.393.472 1.436.871 2.277.871 1.975 0 3.251 1.035 3.251 2.638 0 .425.313.593.819.726.764.2 2.149.313 3.994.42 3.698.213 5.502.72 6.226 1.749.437.62.483 1.442.146 2.586-.606 2.053-.429 10.831.25 12.358.091.206.205.478.328.783l.062.103c.28.33.606.496.988.518.028.001.054.009.082.009.075 0 .149-.006.227-.019l.111-.018.083-.076c.654-.6 1.801-1.675 3.31-3.121 2.562-2.457 3.414-3.234 4.27-3.234.411 0 .778.18 1.292.455 1.431.766 1.553.707 2.526-.603a46.82 46.82 0 012.074-2.584c.5-.565.915-1.476.924-2.028.013-.62.437-1.67.945-2.342.467-.618.862-2.038.862-3.101 0-1.889.25-2.173 1.911-2.173.909 0 2.002-.392 2.388-.856.445-.535 1.489-.971 2.328-.971 1.06 0 1.289-.247 1.289-1.389 0-1.585.546-2.615 1.72-3.243l.068-.06-.101.041.033-1.368c.336-.749.471-1.528.381-2.195-.076-.575-.312-1-.685-1.229-.333-.3-.443-1.104-.303-1.837.202-1.052-.121-2.212-.886-3.183-.599-.762-1.125-1.792-1.125-2.206 0-.515-.269-.949-.612-.987l-.1-.011-.081-.06c-.247-.182-.694-.762-1.073-1.518-1.117-2.238-3.017-4.503-4.489-4.503-.615 0-.953-.376-.953-1.059 0-.939-.476-1.376-1.496-1.376-1.8 0-4.593-2.84-4.598-4.676l-.003-1.771.155-.112c.168-.122.359-.205.569-.248.013-.047.016-.129.024-.198l-.003-1.766-3.104 3.788c-.683.833-1.705 2.441-1.707 3.376-.055.081-.422.283-.961.283-.459 0-.704-.146-.745-.212a2.044 2.044 0 00-1.792-1.004c-1.88 0-4.091 2.254-4.729 4.823-.188.749-.653 1.756-.996 2.156-.53.618-1.12 1.885-1.371 2.948l-.222.934-5.668-.15a81.848 81.848 0 00-2.186-.031c-4.792 0-5.199.494-5.495.853-.711.854-1.16 4.188-1.178 4.33-.324 2.449-.645 3.069-2.29 4.427-1.235 1.017-2.229 1.559-2.353 1.597-.791.009-1.558.589-1.823 1.38-.008.024-.008.05-.015.075-.122.434-.036.898.263 1.312z" stroke="#c00" stroke-width=".2" fill="transparent" filter="url(#f1)" /></svg>