<svg viewBox="0 0 600 500" xmlns="http://www.w3.org/2000/svg"><path d="M338.398 151.954l.045.135c.045.138.074.276.09.421.119 1.182-.811 2.549-2.352 4.374-1.365 1.622-2.305 3.12-2.391 3.577l-.01.052.005.052c.036.392.636 1.336 1.47 2.12.598.56 1.078 1.11 1.348 1.537.018.026.032.052.047.077.107.182.178.341.188.461.085.316.664 1.365 1.483 2.575.869 1.28 1.552 2.719 1.552 3.274 0 .477.586 1.503 1.28 2.242 1.197 1.275 1.339 2.282 1.227 5.33-.049 1.334-.176 2.413-.375 3.204l-.018.067.009.068c.055.478.144.888.254 1.268.022.081.041.17.067.248l.047.139.129.07c.287.156.496.451.601.853.193.741 1.005 1.174 2.714 1.448 1.705.272 2.932.911 3.545 1.847.557.85 1.369 1.374 4.063 1.71 1.646.205 3.631.763 4.11 1.341.367.443 1.194.817 1.806.817 2.042 0 4.759 1.951 5.813 4.175.662 1.396 1.275 1.915 2.262 1.915 2.293 0 4.801 1.15 6.88 3.156.696.67 1.176 1.18 1.417 1.645l.087.11c.312.271.585.437.856.532.172.06.342.098.52.098l.189-.015.092-.081c.221-.196.459-.39.716-.582 1.612-1.193 2.784-1.456 6.594-1.482l4.437-.031.373-4.494 7.305.185c7.095.18 8.964.625 10.525 2.506.4.482 1.229.889 1.807.889.312 0 .615.094.851.264l.134.097.017-.003.146-.03c.332-.068.603-.175.826-.328l.083-.076a.873.873 0 01.188-.18l.123-.14c.188-.366.281-1.537.07-3.329-.33-2.803-.277-3.406 1.135-4.728.371-.346.664-.619.976-.802l.103-.088a7.694 7.694 0 00.963-1.528l.041-.084-.004-.094a3.282 3.282 0 01.068-.743c.504-2.636-.354-5.357-1.912-6.066-1.185-.54-1.604-1.234-1.604-2.653 0-1.147-.607-2.375-1.756-3.551-1.01-1.033-2.129-2.975-2.492-4.329-.354-1.312-.859-2.396-1.182-2.693-.439-.279-.588-.811-.634-1.205a3.811 3.811 0 01-.015-.588l.007-.144-.001-.001-.004.033-.116.096c-.092.075-.199.14-.33.196l-.147.065-.149-.064c-.379-.164-1.509-.361-4.476-.781-1.644-.233-2.681-.36-3.451-.36-1.266 0-1.893.346-3.02 1.134-1.109.777-2.201 1.733-2.486 2.178-.279.44-.711.683-1.211.683-.672 0-1.586-.489-2.108-1.581-.774-1.615-1.179-1.77-4.789-1.836-3.595-.067-3.854-.171-5.549-2.224-1.591-1.93-2.263-2.271-4.487-2.284-1.535-.009-3.057-.458-3.97-1.171-.86-.674-1.995-1.235-2.527-1.251-.465-.013-1.536-.555-2.342-1.184-.864-.676-2.205-1.231-2.989-1.239-1.357 0-1.529.523-1.529 2.601 0 1.726-.25 2.415-.955 2.632-.604.188-1.568.595-2.148.906-1.15.613-3.154.681-5.068.167-.939-.25-1.252-.614-1.252-2.274 0-1.03-.238-2.121-.69-2.211l-.166-.033-.085-.147c-.129-.221-.277-.735-.277-1.458 0-.758-.206-1.97-.664-2.289l-.111-.123c-.181-.318-.266-1.244-.049-2.592l.389-2.334-.01.004.058-.376-2.392.448a7.182 7.182 0 01-1.27.134c-.406 0-.631-.058-.747-.105l-.131-.054-.062-.127a.424.424 0 00-.147-.168l-.14-.062c-.431-.138-1.289.099-2.39.616-.78.367-1.295.688-1.663 1.038l-.097.092-.133.011a3.535 3.535 0 01-.271.013c-.17 0-.339-.019-.507-.047-.079.126-.158.251-.218.389l-.062.128z" /></svg>