<svg viewBox="322 183 378 247" xmlns="http://www.w3.org/2000/svg"><mask id="mm"><rect x="-10000" y="-10000" width="30000" height="30000" fill="#fff" /><path d="M328.471 233.287l.192.117h.103c.305 0 .51.167.625.512.478 1.434 2.772 2.505 4.506 2.505.609 0 1.414-.126 1.785-.727a.488.488 0 01.426-.245c.162 0 .653 0 1.965 1.598.921 1.12 1.41 1.619 1.871 1.619.222 0 .465-.097.869-.345.806-.495 1.408-.715 1.953-.715 1.159 0 2.024 1.043 3.047 2.728 1.097 1.805 2.002 2.651 2.852 2.662.799.013 1.607.321 1.843.703.188.309.854.517 1.655.517.586 0 1.404-.131 1.781-.5.281-.271.722-.414 1.271-.414 1.264 0 3.141.801 3.921 1.994.654 1 1.425 1.372 2.837 1.372.885 0 1.523 0 1.812.33l.113.13h.019l.153-.001c.275-.002.533-.007.771-.018l.107-.005.09-.062c.35-.243.773-.372 1.229-.372.615 0 1.047-.205 1.211-.576.246-.553-.09-1.438-.877-2.307-.992-1.096-.992-1.347 0-2.442.689-.765 1-1.591.898-2.39-.1-.771-.578-1.457-1.384-1.985-.896-.586-1.595-1.445-1.595-1.956 0-.364-.344-1.036-.854-1.457-1.277-1.059-.676-5.229 1.13-7.827a103.28 103.28 0 001.413-2.066c.043-.072.354-.337 2.547-.691 1.874-.302 2.229-.719 2.354-1.599.054-.376.024-.735-.075-.961l-.093-.204-.223-.017c-.377-.028-.637-.232-.695-.547-.096-.515.354-1.12 1.026-1.377 1.151-.44 2.134.217 2.818 1.921l.075.188.197.04c.11.022.226.006.338-.005.213-.021.422-.078.601-.214l.149-.113-.002-.188c-.017-2.709.033-4.074.373-5.001l.022-.101a9.02 9.02 0 01.012-.131l.078-.042.054-.103c.236-.461.579-.867 1.127-1.454 1.092-1.168 1.58-2.088 1.543-2.888-.002-.019 0-.038 0-.056-.004-.037-.021-.073-.024-.11-.089-.649-.521-1.27-1.372-1.94-.859-.675-1.309-1.483-1.295-2.336.01-.647.281-1.321.812-2.005l.062-.081.013-.102c.035-.277.035-.521.018-.752-.272-.095-.547-.261-.857-.532l-.087-.11c-.241-.465-.722-.975-1.417-1.645-2.079-2.005-4.587-3.156-6.879-3.156-.986 0-1.6-.519-2.264-1.915-1.055-2.224-3.771-4.175-5.812-4.175-.609 0-1.438-.375-1.807-.817-.479-.578-2.465-1.136-4.109-1.341-2.693-.337-3.508-.861-4.064-1.71-.612-.936-1.838-1.575-3.543-1.847-1.709-.274-2.521-.707-2.715-1.448-.104-.402-.312-.697-.601-.853l-.128-.07-.049-.139c-.025-.077-.043-.167-.066-.248-.037.063-.068.146-.109.201l-.093.126-.153.023c-.557.083-1.119.65-1.119 1.574 0 .544-.392 1.33-.855 1.715-.544.451-.971 1.243-.971 1.803 0 .075-.008.122-.012.151l-.027.185-.167.1c-.315.169-.962.17-2.591-.021-.812-.097-1.348-.139-1.789-.139-1.248 0-1.812.377-2.538 1.17-.685.749-1.435 1.989-1.67 2.765-.203.669-.738 1.256-1.146 1.256-.296 0-.505.083-.638.254-.257.327-.153.922-.02 1.46.108.438.145.719.116.939a1.66 1.66 0 01-.163.399l-.062.075c-.153.148-.349.208-.537.267-2.854.895-3.073 1.5-3.464 5.831-.219 2.408-.727 5.157-1.128 6.127a5.788 5.788 0 00-.165.459l-.033.105-.085.07a1.882 1.882 0 01-.765.365 4.238 4.238 0 00-.027.778l.006.107.062.087c.166.236.279.469.336.688.172.686 1.177 2.145 2.195 3.186 2.437 2.492 4.272 6.064 4.272 8.309 0 1.562-.315 1.858-1.985 1.858-1.352 0-1.668.119-1.668 1.288 0 .745.371 1.682.809 2.044.559.464 1.232 1.698 1.537 2.576.237.684.334 1.116.324 1.444l-.002.105.051.091c.037.064.076.117.113.177.124.193.25.367.381.5z" fill="#000" /></mask><rect x="-10000" y="-10000" width="30000" height="30000" fill="#fff" opacity="1" mask="url(#mm)" /></svg>