<svg viewBox="270 209 329 293" xmlns="http://www.w3.org/2000/svg"><path d="M304.268 292.273l-.024-.205c-.091-.758.349-1.598 1.269-2.43.697-.63 1.166-1.443 1.166-1.81 0-.251.081-.416.264-.536l.178-.117-.008-.211c-.002-.021-.006-.04-.006-.062a7.505 7.505 0 01-.821-.494l-.119-.139c-.306-.611-.956-1.129-1.935-1.537-1.071-.446-2.119-1.359-2.287-1.992-.195-.752-.846-1.361-1.448-1.361-.334 0-.565-.134-.687-.398-.305-.651.067-2.178 1.361-3.715.854-1.014 1.726-2.584 1.942-3.5.611-2.561 1.521-3.029 3.089-3.029 1.178 0 2.419-.75 3.905-2.358 1.91-2.062 2.213-2.847 2.504-6.46.23-2.878.072-4.602-.532-5.764-.396-.766-.822-3.062-.822-5.438 0-1.659.03-2.659.19-3.189.133-.424.312-.538.839-.538.599 0 1.304.343 1.538.748.621 1.049 2.572 2.078 3.572 2.078a.93.93 0 00.496-.119c.469-.291.484-.902.045-1.722-.99-1.851-.727-4.941.489-5.702.787-.49 1.366-1.826 1.634-3.762.316-2.312.676-2.979 1.92-3.565.943-.445 2.146-.744 2.676-.744.65 0 1.707-.283 2.354-.632.366-.197.612-.391.753-.594l.063-.094.106-.042c.058-.023.105-.033.16-.051-.037-.06-.076-.112-.113-.177l-.052-.091.003-.105c.01-.329-.087-.761-.324-1.444-.305-.878-.979-2.112-1.537-2.576-.438-.362-.809-1.299-.809-2.044 0-1.169.316-1.288 1.668-1.288 1.67 0 1.985-.295 1.985-1.858 0-2.245-1.837-5.817-4.272-8.309-1.02-1.041-2.023-2.5-2.195-3.186a2.168 2.168 0 00-.336-.688l-.062-.087-.006-.107a4.235 4.235 0 01.027-.778c-.161.041-.323.083-.502.083-.105 0-.166-.004-.229-.008l-.109-.008-.088-.066c-.742-.558-1.604-.918-2.195-.918-.379 0-.592.138-.703.253-.317.329-.611 1.482-.713 2.407-.131 1.208-.863 1.958-1.911 1.958-.679 0-1.412-.326-2.067-.918-.538-.488-1.068-.735-1.58-.735-1.164 0-1.965 1.247-2.141 3.336l-.153 1.813-.297.274-2.414-.36c-1.569-.234-3.94-.572-5.289-.752-1.432-.192-2.77-.625-3.121-.91-.317-.255-1.194-.462-2.346-.552l-.158-.013-.101-.122a1.26 1.26 0 01-.145-.214c-.015-.027-.017-.059-.03-.087a4.388 4.388 0 01-.351.317l-.102.08-.523.002c-.941.019-1.557.077-2.061.194l-.154.036-.133-.085a3.868 3.868 0 01-.563-.453c-.386.157-.74.363-1.088.647l-.083.094c-.292.474-.625.916-.853 1.203-1.653 2.088-1.82 2.633-1.486 4.856.214 1.424.544 3.808.738 5.317.187 1.462.6 3.01.9 3.379.189.233.262.469.217.698-.087.433-.578.74-.939.933-.691.369-1.174 1.199-1.174 2.019 0 .841-.828 3.057-1.846 4.94-.98 1.812-1.792 3.691-1.808 4.201 0 .683-.662 1.059-1.864 1.059-2.257 0-3.008.699-3.008 4.834 0 1.793.009 2.603.213 3.01.188.362.598.362 1.416.362 1.002 0 2.564.283 3.482.633 1.625.619 1.727.895 1.367 3.67-.328 2.545-.197 2.995 1.407 4.814 1.285 1.455 1.857 2.771 1.857 4.27v2.29l-2.621-.442c-.992-.168-1.575-.226-1.805-.188l-.117.04c-.043.023-.086.05-.126.078l-.113.078-.035.134c-.049.187-.055.508-.055.798 0 .809.4 2.232.893 3.177.805 1.546 1.2 2.558.837 3.155a.818.818 0 01-.216.236l-.147.113v.038l-.091-.008-.081.03c-.394.148-.9.167-1.298.167-.385 0-.855-.023-1.438-.072-1.776-.147-4.38-.692-5.804-1.212-1.242-.45-2.717-.725-3.299-.602l-.088.024c-.469.179-.744.953-.81 1.644-.066.711.065 1.551.507 1.818.343.213.563.669.639 1.32.105.906-.112 2.146-.732 2.765-.471.474-1.31.755-2.245.755-.286 0-.552-.025-.789-.078l-.199-.045-.145.144a1.457 1.457 0 00-.115.123c-.089.11-.139.237-.188.362-.212.541-.111 1.222.085 2.138.019.087.461 2.134.798 2.706.334.566 1.083.894 2.056.894.411 0 1.775-.069 2.39-.958.127-.072.613-.255 1.294-.258 2.313-.016 3.403-.68 4.487-2.736.313-.597.354-.674 1.348-.674.594 0 1.428.062 2.581.16 2.507.214 4.579.757 5.833 1.529 3.231 1.99 5.209 2.852 7.054 3.068.522.061 1.225.538 1.446.984.383.77 1.089 1.872 1.574 2.459.657.789 1.575 1.279 2.396 1.279.225 0 .436-.041.63-.109a1.59 1.59 0 00.479-.261l.16-.132z" /></svg>