<svg viewBox="300 233 366 287" xmlns="http://www.w3.org/2000/svg"><mask id="mm"><rect x="-10000" y="-10000" width="30000" height="30000" fill="#fff" /><path d="M365.229 266.184c.096-.283-.276-.69-1.367-1.828-.489-.513-.814-.896-1.023-1.209a3.782 3.782 0 01-.296-.734l-.015-.049.002-.051c.003-.279.13-.483.242-.664.424-.682.533-2.155.393-3.133-.158-1.062-.137-1.346-.033-1.52l.098-.109c.138-.104.342-.158 1.08-.158 1.439 0 1.75-.336 1.75-1.891 0-1.027-.569-2.318-1.326-3.003-.928-.839-1.139-1.539-.9-2.997.102-.621.188-1.157.107-1.521l-.039-.172.017-.02h-.019l-.113-.13c-.288-.33-.928-.33-1.812-.33-1.412 0-2.183-.372-2.837-1.372-.78-1.193-2.657-1.994-3.921-1.994-.551 0-.99.143-1.271.414-.377.368-1.195.5-1.781.5-.801 0-1.467-.208-1.655-.517-.233-.381-1.044-.69-1.843-.703-.85-.011-1.755-.856-2.852-2.662-1.021-1.685-1.888-2.728-3.047-2.728-.545 0-1.147.221-1.953.715-.404.249-.647.345-.869.345-.461 0-.95-.5-1.871-1.619-1.312-1.598-1.803-1.598-1.965-1.598a.488.488 0 00-.426.245c-.371.601-1.176.727-1.785.727-1.732 0-4.028-1.071-4.506-2.505-.115-.344-.32-.512-.625-.512h-.103l-.192-.117a3.012 3.012 0 01-.379-.499c-.055.018-.104.028-.16.051l-.106.042-.063.094c-.141.203-.387.397-.753.594-.647.349-1.704.632-2.354.632-.53 0-1.731.299-2.676.744-1.244.586-1.604 1.252-1.92 3.565-.268 1.937-.847 3.272-1.634 3.762-1.216.761-1.479 3.852-.489 5.702.439.819.424 1.431-.045 1.722a.93.93 0 01-.496.119c-1 0-2.951-1.029-3.571-2.078-.235-.405-.94-.748-1.539-.748-.525 0-.706.114-.839.538-.16.531-.19 1.53-.19 3.189 0 2.376.427 4.672.822 5.438.604 1.162.764 2.887.532 5.765-.291 3.612-.594 4.397-2.504 6.46-1.486 1.609-2.729 2.359-3.905 2.359-1.568 0-2.478.469-3.089 3.029-.217.915-1.088 2.485-1.942 3.5-1.293 1.536-1.666 3.062-1.361 3.715.122.265.353.397.687.397.603 0 1.253.61 1.448 1.36.168.634 1.216 1.547 2.287 1.994.979.408 1.629.924 1.935 1.535l.119.139c.261.185.541.348.821.496.098.052.194.108.293.154l.095.045.104-.011c.182-.021.366-.019.449-.019.491 0 1.151.052 2.139.166 1.041.123 1.684.176 2.148.176.98 0 1.232-.229 1.43-.743.235-.61.562-.942 1.623-.942.436 0 1.01.053 1.92.174 2.715.355 3.061.221 4.801-1.416.982-.922 2.396-2.004 3.057-2.217.508-.164 1.018-.721 1.113-1.217.143-.744 1.24-1.324 3.359-1.771 2.528-.537 2.977-.922 3.11-1.879.164-1.151.668-1.504 2.158-1.504.967 0 2.421-.437 3.241-.973 1.402-.921 1.721-.98 3.104.32 1.552 1.457 3.203 1.597 4.794.416.854-.628 2.092-.796 3.914-.553.454.062.908.096 1.35.096 2.477 0 4.076-1.021 4.076-2.602 0-1.401.342-1.58 3.051-1.588 3.375-.012 3.963-.332 4.481-2.459.334-1.369 1.343-2.047 2.427-1.679l.242.082.029-.035-.452-.546.064-.191z" fill="#000" /></mask><rect x="-10000" y="-10000" width="30000" height="30000" fill="#fff" opacity="1" mask="url(#mm)" /></svg>