<svg viewBox="304 267 385 316" xmlns="http://www.w3.org/2000/svg"><path d="M383.739 304.986l-.093-.086c-.166-.158-.248-.332-.248-.531 0-.326-.355-.811-.885-1.01-.951-.366-1.033-1.271-.824-4.187.217-2.976.598-4.045 1.943-5.45 1.465-1.529 1.73-3.072 1.512-3.927-.142-.556-.496-.938-1.026-1.106-1.05-.332-1.263-.82-1.296-1.082-.026-.219.029-.646.707-1.065.27-.169.453-.749.3-1.343-.188-.723.116-1.417.725-1.651.574-.217.703-.774.462-1.989-.164-.817-.219-1.389.012-1.705l.089-.119-.054.026-.177-.101a2.377 2.377 0 01-.75-.711l-.048-.092c-.838-2.346-2.453-4.813-4.217-6.443-.872-.807-1.246-1.053-1.604-1.053-.328 0-.591.233-.904.611a2.454 2.454 0 01-1.844.85c-.613 0-1.121-.24-1.39-.658-.96-1.501-2.665-2.475-4.562-2.604-1.067-.074-2.144-.636-2.676-1.396-.343-.487-.724-.855-1.132-1.094l-.099-.084-.049-.06-.029.035-.242-.082c-1.084-.368-2.093.31-2.427 1.679-.521 2.127-1.106 2.447-4.481 2.459-2.709.008-3.052.187-3.052 1.588 0 1.58-1.601 2.602-4.075 2.602-.441 0-.896-.032-1.35-.096-1.823-.243-3.062-.075-3.914.553-1.591 1.181-3.243 1.041-4.794-.416-1.386-1.303-1.702-1.241-3.104-.32-.82.536-2.274.973-3.242.973-1.489 0-1.993.353-2.157 1.504-.136.957-.582 1.342-3.111 1.879-2.118.447-3.217 1.027-3.358 1.771-.097.496-.605 1.053-1.113 1.217-.661.213-2.073 1.295-3.057 2.217-1.74 1.637-2.086 1.771-4.802 1.416-.909-.121-1.483-.174-1.92-.174-1.06 0-1.387.332-1.622.942-.195.515-.449.743-1.43.743-.467 0-1.107-.053-2.148-.175-.986-.115-1.646-.167-2.139-.167-.083 0-.27-.002-.45.019l-.104.011-.094-.045c-.099-.045-.195-.104-.293-.154 0 .021.004.039.006.062l.008.211-.178.117c-.183.12-.264.285-.264.536 0 .365-.469 1.18-1.167 1.811-.919.832-1.356 1.672-1.269 2.428l.024.205-.159.131a1.688 1.688 0 01-.479.261c.004.011.004.021.008.032.474 1.224 1.94 1.926 4.022 1.926 1.293 0 5.121 1.9 7.117 3.772 1.174 1.104 2.912 1.735 4.771 1.735 1.674 0 3.252-.535 4.328-1.469.757-.657 1.812-1.021 2.971-1.021 1.314 0 2.534.468 3.348 1.28.859.862 2.188 1.789 3.067 1.789.317 0 1.455.417 3.154 1.538 1.552 1.021 2.262 1.781 2.38 1.979.238 3.351 9.079 7.787 10.859 8.648 2.922 1.412 3.898 1.507 20.916 2.042 2.721.087 4.496.318 4.935.436.19.178.606.513 1.2.513.973 0 1.797-.753 4.127-3.342 2.435-2.712 3.029-3.894 3.029-6.023 0-.221-.011-.421-.021-.616a7.675 7.675 0 00-.08-.773l-.017-.127z" /></svg>