<svg viewBox="362.5350341796875 218.1368408203125 404.37506103515625 281.93194580078125" xmlns="http://www.w3.org/2000/svg"><path d="M403.552 274.932l-.104-.062c-.162-.095-.429-.095-.604-.095-.492 0-1.293.07-2.557.188-1.047.098-1.684.137-2.195.137-1.376 0-1.943-.301-2.951-1.205-1.214-1.09-1.595-1.863-1.772-4.89l-.206-3.425 2.01-.566c1.264-.356 2.303-.947 2.854-1.619l.076-.094.117-.031.016-.002-.047-.069.097-.195c.118-.239.161-.472.132-.69-.043-.31-.324-1.026-2.023-1.026-1.397 0-1.692-.323-1.822-1.233-.122-.865-.396-1.367-1.434-1.367-.175 0-.373.015-.609.037-.666.066-1.154-.057-1.279-.106l-.191-.079-.035-.205c-.069-.398-.576-.698-1.18-.698-1.137 0-3.686-2.28-3.686-3.297 0-.353.468-.647 1.021-.647 1.239 0 1.639-.287 2.01-1.771.024-.124.05-.245.074-.373.059-.312.125-.625.204-.935l.056-.29c.308-1.644.265-2.184-.197-2.514l-.191-.137.04-.232c.013-.066.033-.12.048-.185a5.372 5.372 0 01-.271.202l-.146.101-.268-.077c-.663-.171-1.35-.888-1.528-1.596-.2-.794-1.052-1.809-1.897-2.263-.834-.445-1.394-1.253-1.394-1.728 0-.555-.271-1.328-.711-1.607l-.087-.076c-.243-.292-.286-1.113-.102-1.953.23-1.048.125-2.218-.242-2.663-.319-.392-.668-1.369-.779-2.18-.191-1.386-.895-1.777-2.771-2.184a122.597 122.597 0 01-2.971-.675l-.164-.042-.078-.149c-.225-.432-.646-2.089-.891-4.885a29.29 29.29 0 00-.408-3.013l-.012-.461-.018-1.593c-.112.011-.228.027-.338.005l-.197-.04-.075-.188c-.687-1.704-1.667-2.362-2.817-1.921-.673.257-1.123.862-1.026 1.377.059.314.317.519.694.547l.224.017.092.204c.101.226.129.585.075.961-.124.879-.479 1.296-2.354 1.599-2.193.354-2.504.619-2.547.691-.076.125-.66.986-1.412 2.066-1.807 2.599-2.408 6.768-1.131 7.827.51.421.854 1.093.854 1.457 0 .51.699 1.37 1.595 1.956.806.528 1.284 1.215 1.384 1.985.102.799-.209 1.625-.898 2.39-.992 1.095-.992 1.346 0 2.442.787.87 1.123 1.754.877 2.307-.164.372-.596.576-1.211.576-.455 0-.879.129-1.229.372l-.09.062-.107.005a20.08 20.08 0 01-.771.018l-.153.001-.016.02.038.172c.08.364-.006.9-.107 1.521-.236 1.458-.025 2.158.901 2.997.756.684 1.325 1.975 1.325 3.003 0 1.556-.311 1.892-1.75 1.892-.737 0-.942.054-1.08.158l-.098.108c-.103.174-.125.457.033 1.521.143.977.032 2.45-.393 3.131-.112.182-.239.386-.242.666l-.001.05.014.049c.054.205.146.438.296.733.209.312.534.697 1.024 1.211 1.09 1.137 1.462 1.545 1.366 1.828l-.065.197.452.547.049.059.1.084c.407.238.789.605 1.131 1.094.533.761 1.607 1.322 2.677 1.396 1.896.131 3.601 1.104 4.562 2.604.269.418.774.658 1.389.658.703 0 1.41-.326 1.844-.85.314-.377.576-.611.904-.611.356 0 .73.246 1.604 1.053 1.764 1.63 3.379 4.1 4.217 6.443l.049.092c.226.318.472.552.75.711l.176.102.054-.027.128-.066c.154-.079.357-.118.621-.118.552 0 2.043-.549 3.256-1.198 2.143-1.146 2.533-1.231 2.596-1.236.238 0 .582.637 1.02 1.891.449 1.293 1.143 1.859 2.845 2.334 1.495.414 2.36.583 2.987.583 1.181 0 1.684-.639 2.363-2.069.59-1.244 1.83-3.068 2.763-4.068l.135-.145c.136-.145.265-.281.388-.408l.145-.18-.055-.186c-.207.018-.416.033-.631.055l-.137.001z" /></svg>