<svg viewbox="0 0 500 600"><path d="M438.515 306.219l-.118-.293c-.067-.167-.237-.19-.333-.19-.439-.024-1.503-.741-2.417-1.771-1.521-1.701-1.842-1.863-4.896-1.502l-3.006.353-.676-2.263c-.409-1.362-1.416-3.076-2.293-3.898-1.167-1.096-1.483-1.789-1.483-4.586 0-2.771.391-3.303.813-3.465.861-.33 1.014-1.771 1.014-4.674 0-3.633-.194-4.375-1.301-4.968-.615-.327-1.137-1.093-1.137-1.672 0-.597-.232-1.38-.666-1.661l-.086-.077c-.229-.28-.465-1.233-.465-2.342l.027-2.187-.027.021v-.296l-1.783 1.168c-.863.565-2.492.946-3.826.84-1.901-.098-2.705.167-3.623 1.298-.594.733-.901 1.032-1.564 1.032-.469 0-1.104-.139-2.265-.431-2.193-.549-2.747-.682-3.69.105l-.094.078-.121.008c-.062.004-.13.012-.193.018l.055.185-.145.181c-.124.127-.252.265-.388.408l-.136.145c-.933 1-2.172 2.824-2.762 4.068-.681 1.432-1.184 2.069-2.363 2.069-.627 0-1.492-.169-2.987-.583-1.703-.475-2.396-1.041-2.845-2.334-.438-1.254-.78-1.891-1.021-1.891-.062.005-.452.09-2.595 1.236-1.213.649-2.704 1.198-3.256 1.198-.264 0-.467.039-.621.118l-.128.066-.089.119c-.229.316-.176.887-.012 1.705.241 1.215.112 1.772-.461 1.989-.609.233-.914.929-.726 1.651.153.594-.03 1.174-.3 1.343-.678.42-.733.849-.706 1.065.032.262.245.75 1.295 1.082.53.168.886.551 1.026 1.106.22.854-.047 2.396-1.512 3.927-1.347 1.405-1.728 2.477-1.943 5.45-.209 2.916-.127 3.819.824 4.187.528.199.885.684.885 1.01 0 .199.082.373.248.531l.093.086.021.124c.04.234.063.497.08.773.109.049.208.104.335.146.638.208 1.489.322 2.403.322 1.462 0 2.891-.275 3.917-.76.546-.258 1.062-.501 1.308-.501.252 0 .721.429 1.66 1.34 1.824 1.767 2.885 2.197 5.405 2.197 1.543 0 2.733.376 3.356 1.059.338.37.483.827.437 1.358-.156 1.716-.204 2.808.444 3.518.492.54 1.184.604 1.658.604.387 0 .836-.044 1.607-.155.575-.085.986-.123 1.332-.123.975 0 1.689.31 3.482 1.502 1.818 1.21 2.828 1.66 3.723 1.66.412 0 .796-.097 1.169-.296 1.051-.562 3.407-1.02 5.254-1.02 1.084 0 1.445.156 1.465.156h.001c.184.209.843 1.91 1.271 4.558.402 2.501.834 5.041.979 5.78.391 2.005 1.504 2.221 1.965 2.221 1.664 0 3.123-2.587 3.123-5.536 0-1.013.506-2.73 1.083-3.677.67-1.102 1.351-2.697 1.353-3.617.003-1.704 2.555-6.022 4.707-7.967 1.649-1.491 1.942-2.193 1.903-2.641-.118.052-.236.11-.359.139l-.303.074z" /></svg>