<svg viewBox="393 213 440 275" xmlns="http://www.w3.org/2000/svg"><path d="M432.99 260.52l-.007-.062.015-.062c.233-1.004.4-2.27.479-3.117.29-3.201.361-3.506 1.902-3.814.964-.191 2.355-.99 3.103-1.781 1.158-1.228 1.327-2.01 1.132-5.229-.187-3.029-.575-4.178-1.986-5.854-1.472-1.749-1.636-2.327-1.348-4.758.097-.824.155-1.476.128-1.98l-.008-.131.075-.107c.104-.146.227-.257.346-.372a9.717 9.717 0 01-.503-.183l-.11-.044-.065-.101c-.191-.299-.52-.557-1.095-.863-1.111-.597-1.398-1.191-1.398-2.89 0-1.857-.332-2.489-1.615-3.074-.749-.341-1.281-.827-1.401-1.11l-.03-.134c-.017-.482-.655-1.548-1.248-2.308-.643-.813-1.186-2.138-1.186-2.89 0-.879-.308-1.565-.717-1.597l-.156-.048c-.273-.157-.793-.762-1.213-1.575-.942-1.823-3.148-3.197-5.131-3.197-.938 0-1.693.313-2.186.905-.709.854-.322 1.639 1.205 3.562.87 1.101 1.374 1.936 1.513 2.776l.071.091-.044.081c.121 1.174-.479 2.394-1.838 4.395-.634.936-1.37 2.144-1.537 2.726l-.034.123-.104.076a1.547 1.547 0 01-.416.213l.216.221-.515.211c-.062.026-.153.057-.24.087l.02.02h-.076a6.003 6.003 0 01-1.889.291c-.476 0-.83.052-1.021.304-.229.303-.109.813.019 1.268.633 2.216.916 3.634.838 4.212l-.035.26-.256.057c-.435.096-.814.729-.967 1.303-.23.892.088 1.482.947 1.754.749.237 1.083.996 1.02 1.59-.063.531-.397.872-.895.915a42.003 42.003 0 01-3.6.179c-2.631 0-4.564-.374-6.674-1.291l-3.42-1.487v1.757c0 1.238-.295 1.354-1.668 1.354-.646 0-1.152.114-1.5.338l-.104.066-.17-.01.05.082-.12.193c-.027.047-.057.09-.07.132-.121.29-.189.884.656 1.732.771.772 1.98 2.809 2.939 4.952l.705 1.576c.021.002.043.011.062.011.039 0 .08-.01.121-.016l1.393-1.99c.68-.973 1.229-1.585 1.59-1.771l.321-.166.078.14.163-.233-.025.497c.211.479.289 1.553.23 3.213-.109 3.081-.5 3.913-1.227 4.445-.556.405-.77.688-.693.916.031.099.13.216.418.218l.309.002.057.303c.043.226.003.589-.121 1.08-.2.804-.156 1.969.322 2.545.422.507.463 1.521.09 2.311-.221.477-.543.749-.881.749-.515 0-1.1.476-1.332 1.083-.152.4-.375.635-1.057.635-.312 0-.717-.049-1.268-.152a7.3 7.3 0 00-1.303-.135h-.146l-.172-.099a2.627 2.627 0 01-.397-.457l-.074-.11-.017.004-.116.03-.078.095c-.549.672-1.59 1.262-2.853 1.617l-2.01.567.206 3.425c.179 3.025.56 3.801 1.773 4.891 1.008.903 1.574 1.205 2.95 1.205.513 0 1.147-.039 2.195-.138 1.264-.116 2.063-.188 2.557-.188.177 0 .442 0 .604.096l.104.062.121-.013c.216-.021.424-.038.631-.055.064-.005.133-.013.194-.017l.121-.009.094-.077c.942-.789 1.497-.656 3.69-.106 1.16.292 1.795.431 2.265.431.663 0 .972-.299 1.563-1.031.918-1.132 1.723-1.396 3.623-1.299 1.334.106 2.965-.273 3.826-.84l1.784-1.168v.296l.027-.021.837-.629.088-.1c.898-1.474 2.654-2.318 4.816-2.318 3.594 0 4.245-.418 4.655-2.988.213-1.333.489-2.586 1.066-2.735l.137-.036.08-.115c.046-.068.091-.149.135-.24a6.09 6.09 0 01-.309-1.348z" fill="#000" opacity=".2" /></svg>