<svg viewBox="0 0 600 500" xmlns="http://www.w3.org/2000/svg"><path d="M304.77 449.201l-.033-.169c-.127-.648-.613-1.409-1.577-2.467-.765-.835-1.173-1.816-1.066-2.564.05-.364.216-.637.495-.808.598-.369.688-.758.655-1.018-.034-.264-.254-.763-1.339-1.106-.807-.258-1.045-.914-.997-1.444.053-.637.524-1.342 1.465-1.476.478-.066.851.023.974.075l.188.082.033.202c.07.441 1.137.749 2.59.749 1.531 0 2.275.226 2.275.688 0 .486.416 1.681.928 2.659.484.932.896 2.215.896 2.805.004.753.23 1.046.807 1.046.242 0 .551-.052 1.033-.172 2.03-.511 3.309-2.059 3.336-4.04.01-.792.408-1.407 1.016-1.568.671-.176 1.771-1.502 2.506-3.02.751-1.545 1.867-2.778 2.441-2.961 1.094-.348 1.361-.983 1.361-3.246 0-1.134-.025-2.035-.349-2.478l-.079-.107.015-.273c.009-.167.019-.335.031-.501l.006-.07-.188.126a.884.884 0 01-.504.155c-.586 0-1.058-.328-1.071-.746l-.007-.149-.106-.104c-.106-.104-.328-.216-.626-.216-.559 0-1.41-.805-1.941-1.831-.543-1.052-1.484-1.802-2.52-2.008a9.847 9.847 0 00-1.915-.172c-2.425 0-4.959.703-5.771 1.6-.605.67-1.471 1.194-1.97 1.194-.241 0-.464.092-.579.237l-.078.1-.002.125c-.011.424-.5.756-1.115.756-1.258 0-2.539 1.435-2.539 2.842 0 .513-.084 1.369-.646 1.369-.368 0-.806-.401-1.302-1.191-.427-.687-1.901-1.365-3.849-1.771-2.132-.445-3.326-.766-3.935-1.277l-.108-.075-.112-.013a1.342 1.342 0 00-.151-.011 1.62 1.62 0 00-.586.118c-.778.297-1.486 1.228-2.411 3.13-1.222 2.513-1.377 2.513-2.583 2.513-.952 0-1.687-.181-1.762-.209-.679-.641-3.094-.71-4.1-.71l-.436-.002c-1.497 0-2.4 0-2.966.626-.508.562-.436 1.281-.345 2.194.209 2.12 1.363 2.924 4.609 4.681 3.402 1.838 3.558 2.18 3.67 3.329.126 1.274.951 2.925 1.921 3.84l2.024 1.899 2.253-1.773c.848-.666 2.157-1.096 3.336-1.096 1.764 0 2.545.459 3.176 5.077.181 1.286.672 3.442 1.944 3.447h.002c.883 0 3.401-1.319 3.686-1.472 1.219-.645 2.494-1.477 2.716-2.76.013-.073.012-.147.018-.221a5.935 5.935 0 01-.587-.282l-.155-.087z" /></svg>