<svg viewBox="0 0 600 500" xmlns="http://www.w3.org/2000/svg"><path d="M110.572 132.806c.492 0 4.16 1.139 6.039 1.874.65.254 1.993.644 2.934.85.752.165 1.264.34 1.491.709.197.319.154.714.028 1.208-.189.743-.53 2.131-.761 3.096l-.233.972-.023.273.324.233 2.801-.35c3.429-.428 3.639-.338 5.549 1.673 3.074 3.238 4.824 4.077 8.514 4.077 3.412 0 3.831.22 6.41 3.363.4.487 1.499.899 2.398.899 1.425 0 1.956.38 2.269 1.625.422 1.686 1.998 2.568 3.336 2.568 1.139 0 1.967-.611 2.215-1.635.283-1.158.523-1.533 2.296-1.533.48 0 1.062.022 1.846.06a26.27 26.27 0 012.499.222c.639-.056 1.121-.172 1.529-.357l.035-.019c.304-.143.572-.32.814-.562l.085-.133c.118-.314.304-.676.586-1.14.573-.945 1.24-2.479 1.458-3.35.265-1.055.493-1.552 1.443-1.552.276 0 .622.038 1.194.13.554.089.884.125 1.139.125.702 0 .876-.273 1.114-1.212.079-.315.199-.62.356-.906l.066-.12-.027-.134a3.044 3.044 0 00-.227-.672 2.881 2.881 0 01-.853-.149l-.119-.039-.072-.102c-.679-.878-1.652-1.444-2.499-1.466l-.143-.033c-.441-.197-1.813-1.37-3.344-2.991-2.693-2.853-2.832-3.302-2.671-5.512.084-1.159.145-1.82.413-2.119.246-.276.698-.31 1.749-.324 1.077-.015 1.654-.042 2.012-.47.344-.411.437-1.102.613-2.624.245-2.109.707-3.145 1.766-3.958 1.803-1.385 3.875-1.387 4.747.004.454.73.79 1.208 1.302 1.208.445 0 .958-.347 2.014-1.178.644-.506 1.1-.923 1.232-1.312l.038-.112.095-.069.303-.226a1.339 1.339 0 01-.282-.109l-.136-.073-.045-.148c-.075-.248-.208-.55-.429-.979-1.006-1.939-2.056-2.7-3.743-2.713-.61-.004-1.57-.427-2.14-.941-.542-.491-.849-.71-1.232-.71-.404 0-.83.276-1.432.698-2.209 1.546-4.126 1.186-5.669-1.082-1.005-1.476-1.348-2.494-1.078-3.206.245-.642 1.011-1.105 2.412-1.458 3.235-.811 4.073-1.398 4.073-2.859 0-.537.503-1.121 1.1-1.276.886-.232 1.335-.908 1.335-2.008 0-1.21 1.599-3.237 3.74-4.139.229-.097.327-.288.277-.539-.204-1.013-3.146-3.188-4.632-3.191-.86-.001-1.211-.298-1.211-1.026 0-.574.246-1.237.527-1.419.459-.285.6-.965.644-1.345.105-.895-.093-2.105-.675-2.688-.525-.522-1.282-.56-2.588-.104-1.967.685-2.963-.029-3.587-2.517-.231-.915-.91-2.245-1.545-3.028a8.561 8.561 0 00-.498-.571l-.059-.079-.294-.522c-.044.027-.082.053-.131.081l-.129.074-.145-.036c-.511-.126-.914.094-1.347.327-.69.37-1.902.671-2.701.671-.456 0-.993.126-1.475.345l-.119.054-.127-.032c-.183-.045-.329-.131-.477-.216-.021.201-.043.404-.058.579l-.011.129-.088.095c-.749.899-.593 1.371.211 2.26.536.592.912 1.302.953 1.619l.015.117-.054.104c-.389.744-3.322 1.447-6.035 1.447a13.28 13.28 0 01-1.958-.134c-1.342-.204-3.804-.346-5.986-.346-.479 0-.933.007-1.348.021-2.013.065-3.354.272-4.35.669l-.413.165-.068.06c-1.173.628-1.72 1.658-1.72 3.243 0 1.143-.229 1.389-1.289 1.389-.839 0-1.883.436-2.328.971-.386.464-1.479.856-2.388.856-1.661 0-1.911.284-1.911 2.173 0 1.063-.395 2.483-.862 3.101-.509.672-.933 1.722-.945 2.342-.009.552-.424 1.462-.924 2.028a46.82 46.82 0 00-2.074 2.584c-.974 1.31-1.096 1.369-2.526.603-.514-.274-.882-.455-1.292-.455-.856 0-1.708.777-4.27 3.234a218.449 218.449 0 01-3.31 3.121l-.083.076-.111.018a1.364 1.364 0 01-.227.019c-.028 0-.054-.007-.082-.009l.005.014.111.289-.262.164a.171.171 0 00-.074.092c-.038.105-.006.569 1.069 2.675 1.018 1.993 1.904 4.837.345 7.062-.494.707-.688 1.055-.609 1.383.072.306.357.504.969.832.622.334 1.148 1.059 1.148 1.583 0 .277.097.521.297.749l.078.089.013.118c.022.211.039.438.049.681l.006.136-.001.001.017.006h.109v.001z" /></svg>