<svg viewBox="287 377 329 431" xmlns="http://www.w3.org/2000/svg"><mask id="mm"><rect x="-10000" y="-10000" width="30000" height="30000" fill="#fff" /><path d="M291.493 426.966l.112.013.108.075c.609.513 1.803.832 3.935 1.277 1.948.406 3.422 1.086 3.849 1.772.496.789.934 1.19 1.302 1.19.562 0 .646-.856.646-1.369 0-1.407 1.281-2.842 2.539-2.842.615 0 1.104-.332 1.115-.756l.002-.125.078-.099c.115-.146.338-.238.579-.238.499 0 1.363-.524 1.97-1.194.812-.896 3.346-1.6 5.771-1.6.7 0 1.345.058 1.915.172 1.033.206 1.977.956 2.52 2.008.531 1.026 1.385 1.831 1.941 1.831.298 0 .52.111.626.216l.106.104.006.149c.016.418.486.746 1.072.746.181 0 .35-.053.504-.155l.188-.126.003-.038.064-.087c.199-.265.309-.624.309-1.011 0-1.668 1.1-3.454 1.871-3.454.572 0 1.281-1.104 1.658-2.146.779-2.159.226-4.148-2.827-10.137-.703-1.378-.854-1.929-.308-2.271a.842.842 0 00.324-.323l.041-.1a.508.508 0 00.026-.114c.065-.492-.515-1.197-1.149-1.884-.883-.952-1.447-2.158-1.346-2.87.146-1.026.588-1.131 2.409-1.131l.772.006c.629 0 1.11-.028 1.515-.088l.089-.013.085.027c.338.113.704.244 1.083.385.508-.269.766-.663.766-1.181a.369.369 0 01.063-.119c.227-.075.772-.335.974-1.12.383-1.491-.708-4.474-2.246-6.134-.719-.774-1.143-1.422-1.23-1.611-.083-.771-.893-1.304-1.999-1.304-.357 0-.954-.233-1.185-.465-.229-.229-.465-.827-.465-1.184 0-1.199-.854-2.005-2.127-2.005-.165 0-.271-.115-.314-.34-.034-.192-.01-.596.336-.729.822-.315 1.431-1.104 1.492-1.952.258.013.631.16 1.011.399.28.176.63.262 1.069.262 1.15 0 4.621-.901 4.621-2.541 0-.297 0-.704-2.271-2.733l-2.916-2.605-1.237 2.939c-.383.911-.746 1.152-.884 1.152-.153 0-.468-.191-.853-.732-.561-.784-1.129-1.271-2.24-1.271-.627 0-1.439.148-2.723.423-2.947.629-3.658 1.188-3.851 1.662-.217.175-.828.565-1.804.988-4.012 1.745-4.547 2.097-5.163 5.43-.138.747-.326 1.771-.517 1.981-.096.104-.828.104-1.143.104-3.323 0-3.585 1.168-3.984 5.219-.231 2.353-.428 3.963-.694 4.728-.142.403-.148.403-.478.403l-.222.001c-.008-.011-.077-.117-.077-.654 0-.636 0-2.321-1.779-2.321-.177 0-.381.018-.627.052-1.278.184-2.152 1.058-2.336 2.338-.031.221-.074.37-.112.468-.115-.083-.3-.249-.541-.575-.38-.517-.773-1.048-1.427-1.048-.866 0-1.167.798-1.517 1.721-.722 1.896.191 4.7 2.327 7.139.421.48.498 1.032.264 1.907-.557 2.09-.906 4.87-.912 7.257-.002.437-.074.669-.12.776-1.108.071-2.498.869-3.181 4.066-.197.922-.368 1.718.121 2.32.492.607 1.329.607 2.215.607h.227c.616 0 .875.036.982.063.015.073.034.229.034.54 0 .689.061 1.393.424 1.98a1.62 1.62 0 01.586-.118l.16.017z" fill="#000" /></mask><rect x="-10000" y="-10000" width="30000" height="30000" fill="#fff" opacity="1" mask="url(#mm)" /></svg>