<svg viewBox="-9556 -9825 10489 10219" xmlns="http://www.w3.org/2000/svg"><mask id="mm"><rect x="-10000" y="-10000" width="30000" height="30000" fill="#fff" /><path d="M473.521 176.518c0 1.919-1.275 2.261-3.679 1.122-1.467-.697-2.479-1.021-3.187-1.021-1.385 0-1.675 1.239-1.776 2.451-.089 1.066-.163 1.599-.462 1.9-.316.316-.96.417-1.981.547-2.407.306-2.528.442-3.246 3.634-.385 1.715-1.149 3.653-1.674 4.231-1.42 1.571-5.665 3.576-7.569 3.576-.126 0-.236-.01-.328-.027-.656-.128-1.046-.115-1.309.051l-.033.022c-.22.16-.33.474-.33.932 0 .482-.147.975-1.242.975-2.033 0-3.021 1.188-3.021 3.63 0 1.905.241 2.168 1.985 2.168 1.021 0 1.61.441 1.726.851.096.336-.103.685-.542.955-.229.142-.382.474-.452.988-.123.86-.019 2.183.269 3.37l.036.15-.079.132a1.333 1.333 0 01-.523.503c.2.661.521 1.475.984 1.987.084.093.254.311.603.841 1.009 1.301 1.86 2.627 2.465 3.833 1.862 3.729 2.188 4.065 4.33 4.497.705.143 1.26.212 1.691.212.577 0 .944-.126 1.124-.383.174-.248.335-.77-.273-2.448-.738-2.042-.694-2.4.388-3.19.289-.212.613-.417 1.019-.482l.107-.017.082-.073a6.43 6.43 0 00.39-.386c.17-.182.337-.373.491-.578l.075-.101v-.126c-.002-.509.287-1.117.568-1.644.484-.903 1.633-1.333 4.42-1.647 1.708-.194 2.647-.301 3.082-.584.39-.258.39-.722.39-1.646 0-1.366.22-3.181 2.117-3.181.815 0 1.866.317 3.306.998.945.441 2.056.135 5.189-1.332 2.197-1.028 3.917-2.01 4.31-2.364l.104-.094.017-.139c.052-.425-.175-1.61-.693-2.971-.979-2.568-.973-2.832.117-4.031 3.188-3.502 5.019-6.482 5.019-8.175 0-1.186.352-2.433.916-3.253l.056-.081.009-.098c.02-.2.021-.372.032-.561a2.4 2.4 0 01-.479-.354 1.385 1.385 0 01-.163-.205l-.064-.098.003-.117c.036-1.637-.2-2.731-.723-3.343a1.539 1.539 0 00-.617-.44l-.116-.045-.065-.105a1.74 1.74 0 01-.229-.606 7.693 7.693 0 01-.691.645l-.148.074a5.184 5.184 0 00-1.176.46c-1.167.603-2.274.896-3.387.896-1.252 0-2.474-.374-3.734-1.143-1.772-1.081-2.477-1.32-2.938-1.078l-.066.035-.065.065c-.36.346-.36 1.11-.36 1.436z" fill="#000" /></mask><rect x="-10000" y="-10000" width="30000" height="30000" fill="#fff" opacity=".3" mask="url(#mm)" /></svg>