<svg viewbox="0 0 500 600"><path d="M458.538 212.507l-.107.017c-.404.065-.729.271-1.019.482-1.082.79-1.126 1.148-.388 3.19.608 1.678.447 2.2.273 2.448-.18.257-.547.383-1.124.383-.433 0-.986-.069-1.691-.212-2.144-.432-2.468-.768-4.33-4.497-.604-1.207-1.456-2.532-2.465-3.833-.349-.531-.519-.748-.603-.841-.464-.512-.784-1.326-.984-1.987a1.34 1.34 0 01-.62.167l-.154.003-.111-.106c-1.888-1.796-3.438-2.523-4.078-1.888-.877.872-2.455.765-3.263-.208-.452-.544-1.578-.97-2.564-.97-1.98 0-3.677-1.367-5.184-4.179-.645-1.201-1.807-2.462-2.592-2.812-.715-.318-1.441-1.291-1.619-2.168-.266-1.314-.786-1.803-1.919-1.803-.733 0-1.586-.477-1.899-1.062-.356-.669-1.444-1.379-2.425-1.583-2.418-.505-3.738-.781-4.604-.804l-.108-.003-.09-.06a1.68 1.68 0 01-.479-.491c-.162.26-.342.512-.535.753l-.104.088c-.312.183-.604.456-.975.802-1.413 1.322-1.465 1.925-1.137 4.728.211 1.792.117 2.963-.068 3.329l-.124.14a.922.922 0 00-.188.18l-.082.076a2.294 2.294 0 01-.826.328l-.146.03-.003.009.12.164a.916.916 0 01.185.544c0 .711-.668 1.072-1.985 1.072-1.436 0-1.666.104-1.666 1.533 0 2.377 1.507 4.239 3.429 4.239 1.33 0 1.964.168 2.188.582.26.483-.147 1.224-.58 1.885-1.158 1.768-.676 7.019.797 8.645.843.929.926 1.475.315 2.084-1.202 1.204-.685 2.969 1.54 5.247l1.901 1.948.147.093c.342.116.678.106.988-.003.145-.051.285-.116.416-.213l.104-.076.035-.123c.166-.582.902-1.79 1.537-2.726 1.356-2.001 1.958-3.221 1.837-4.395-.006-.058-.019-.115-.027-.172-.139-.84-.642-1.675-1.513-2.776-1.526-1.923-1.914-2.708-1.205-3.562.492-.592 1.246-.905 2.186-.905 1.982 0 4.188 1.374 5.131 3.197.42.813.938 1.418 1.213 1.575l.156.048c.409.032.717.718.717 1.597 0 .752.543 2.077 1.186 2.89.593.759 1.231 1.826 1.249 2.308l.029.134c.12.284.652.769 1.401 1.11 1.283.584 1.615 1.216 1.615 3.074 0 1.699.288 2.293 1.398 2.89.575.306.902.564 1.096.863l.064.101.11.044c.159.064.33.124.503.183.239.082.486.159.75.23l.12.032.114-.046c.221-.085.465-.109.701-.074 1.686.25 3.645 2.825 4.191 5.508.447 2.184 1.202 2.643 1.758 2.643.67 0 1.367-.649 1.834-1.194 1.254-1.458 2.161-1.826 5.108-2.071 3.215-.266 3.543-.433 5.007-2.558.904-1.311 2.141-2.549 2.756-2.76.365-.125.625-.364.773-.708.311-.717.136-1.874-.494-3.26-.547-1.198-.529-2.05.07-3.504.611-1.478 1.053-2.071 1.626-1.755l.22.118.192-.153c-.063-.276-.137-.547-.182-.837l-.017-.104.041-.097c.266-.636.266-1.604.266-2.243 0-1.547.343-2.873.854-3.301.679-.563.977-1.1.91-1.642-.09-.728-.867-1.436-2.378-2.166-.717-.347-1.184-.545-1.562-.664l-.104-.033-.07-.083a2.046 2.046 0 01-.298-.479 6.43 6.43 0 01-.39.386l-.078.07z" /></svg>