<svg viewBox="0 0 600 500" xmlns="http://www.w3.org/2000/svg"><path d="M512.594 204.363h.209v-2.785c0-2.166-.368-3.047-1.875-4.49-2.659-2.549-1.754-4.641-.525-5.948.671-.714 1.221-1.826.979-2.453-.566-1.479-3.229-2.976-5.936-3.339-2.092-.28-2.347-.597-2.614-1.951-.252-1.248-.626-1.882-1.976-1.882-.783 0-1.486-.403-1.672-.959-.532-1.587-1.19-2.758-1.903-3.387l-.13-.114.003-.172c.002-.123.043-.235.073-.35-.164.005-.327.018-.491.018l-.371-.004c-.137 0-.291.035-.462.101-.478.092-.862.344-1.215.77-1.166 1.4-3.696 2.881-4.925 2.881-.23 0-.461.075-.685.221l-.179.118-.192-.094c-.062-.03-.117-.069-.176-.104-.013.189-.015.36-.032.561l-.009.098-.057.081c-.563.82-.916 2.067-.916 3.253 0 1.693-1.828 4.673-5.018 8.175-1.09 1.199-1.098 1.463-.117 4.031.52 1.36.745 2.546.693 2.971l-.018.139-.104.094c-.394.354-2.111 1.335-4.311 2.364-3.134 1.467-4.243 1.773-5.188 1.332-1.439-.681-2.489-.998-3.306-.998-1.897 0-2.117 1.815-2.117 3.181 0 .924 0 1.388-.391 1.646-.434.283-1.374.39-3.082.584-2.786.314-3.935.745-4.419 1.647-.281.527-.57 1.134-.568 1.644v.126l-.075.101a7.083 7.083 0 01-.491.578c.076.167.17.327.298.479l.07.083.104.033c.381.119.848.317 1.563.664 1.511.73 2.288 1.438 2.378 2.166.065.542-.232 1.079-.91 1.642-.512.428-.854 1.754-.854 3.301 0 .64 0 1.607-.267 2.243l-.041.097.018.104c.045.291.117.562.182.837.037.157.062.325.104.475l.061.123c.206.271.439.634.737 1.141.87 1.471 1.39 1.749 3.269 1.749 1.194 0 2.68.333 3.206.97.445.537.954.809 1.513.809.843 0 1.771-.596 2.76-1.771.797-.95 1.396-1.825 1.516-2.123l.025-.108c.065-.815 2.546-1.517 3.733-1.517.381 0 .67.06.856.179.484.308 1.378.492 2.389.492 1.213 0 2.291-.265 2.686-.659.543-.545.751-1.98.632-2.996-.071-.618-.25-1.058-.491-1.207-.367-.227-.522-.553-.429-.892.151-.531.867-.917 1.701-.917.56 0 1.366-.403 1.765-.881.3-.364.553-.589.886-.589.428 0 .897.381 1.788 1.236 1.188 1.137 1.844 1.415 3.346 1.415.294 0 .645-.012 1.062-.039.74-.045 1.236-.057 1.677-.025l.188.013.123-.143c.055-.064.093-.146.137-.219.117-.195.213-.412.263-.682l.028-.15-.085-.127c-.277-.416-.336-.675-.336-.82 0-.376.5-.996.971-1.388.464-.385.856-1.416.856-2.251 0-2.426 3.252-5.091 6.214-5.091 1.768 0 2.295-.267 2.819-1.428.573-1.253 1.223-1.616 2.891-1.616.66 0 1.342.147 1.972.427l.497.013c-.033-.078-.07-.148-.101-.232l-.181-.505z" /></svg>