<svg viewBox="-9560 -9900 10499 10177" xmlns="http://www.w3.org/2000/svg"><mask id="mm"><rect x="-10000" y="-10000" width="30000" height="30000" fill="#fff" /><path d="M463.491 111.348l-.06.113c-.182.353-.274.789-.276 1.297-.004.872-.181 2.253-.383 3.015-.218.81-.396 1.08-1.032 1.08-.271 0-.622-.045-1.18-.149-.513-.097-.857-.138-1.154-.138-.986 0-1.51.492-2.381 1.669-.719.971-1.55 1.675-1.907 1.771-.787.029-2.361 1.322-4.195 3.388-1.811 2.047-2.979 3.86-2.979 4.619 0 .783-.409 1.896-.894 2.431-.825.911-.865 1.57-.234 3.92l.621 2.329-.021.092c-.05.209-.121.41-.22.614l-.052.08-2.155 2.56c-1.443 1.709-2.839 4.081-3.111 5.286-.418 1.857-.256 2.464.962 3.608s1.85 2.317 1.825 3.395c-.021.832-.418 1.588-1.187 2.248-1.031.888-1.625 2.056-1.625 3.205 0 1-.332 2.003-.645 2.312-.139.138-.292.398-.233.848l.02.142-.081.118a5.58 5.58 0 01-.466.588c.052.127.099.253.167.384l.047.089.085.054c.343.217.735.613 1.235 1.247.604.768 1.765 1.507 2.529 1.615 1.165.165 1.655.713 1.808 2.022.166 1.439.428 1.534 2.175 1.534 1.521 0 2.778-.568 4.642-2.096 1.752-1.438 3.289-2.167 4.567-2.167.69 0 1.661.072 2.088.691.361.524.307 1.332-.179 2.618-.433 1.142-.431 2.2.005 2.831.246.355.601.535 1.095.535.715-.016 2.346-1.141 3.966-2.736 1.646-1.619 2.753-3.178 2.757-3.885.01-.864.088-1.128.334-1.128.178 0 .326.182.56.54.339.525.62 1.572.625 2.334.011 1.6 2.129 5.308 3.284 5.751.47.18.816 1.062.955 2.419l.011.11.068.087c.095.116.205.222.334.316l.188.14.141-.074.067-.035c.463-.242 1.166-.003 2.938 1.078 1.263.769 2.483 1.143 3.735 1.143 1.111 0 2.219-.293 3.386-.896a5.126 5.126 0 011.177-.46l.148-.074a9.207 9.207 0 001.461-1.554l.057-.107c.184-.563.553-1.274.98-2.079 1.521-2.861 1.898-6.05.842-7.109-.494-.494-.591-1.35-.246-2.179.337-.814.969-1.32 1.646-1.32 1.968 0 6.37-3.4 6.729-5.197.191-.945.53-2.461.758-3.381.287-1.178.115-1.924-.636-2.754-.958-1.056-1.021-1.551-.359-2.785.373-.697.702-1.013 1.295-1.222.059-.028.089-.032.151-.043.146-.039.303-.071.476-.096l.109-.034c.209-.103.381-.25.508-.438.074-.109.133-.228.175-.353.122-.372.097-.808-.079-1.266-.195-.509-.301-.886-.31-.906-.004-.575-.395-.993-2.699-1.957-1.111-.464-1.892-1.216-1.963-1.419-.938-3.012-2.432-5.669-4.704-8.361-1.792-2.126-2.688-2.992-4.351-2.992-.25 0-.536.02-.896.062-.28.033-.499.049-.688.049-.788 0-1.198-.247-2.784-2.099-1.492-1.744-2.088-2.785-1.928-3.375.271-1.003 2.984-2.075 5.876-3.083 1.021-.356 2.261-.948 2.521-1.769.179-.157.725-.532 1.62-.906 1.517-.634 2.467-1.655 2.676-2.876.207-1.221-.35-2.501-1.564-3.604-.711-.644-.925-.951-.681-3.113.261-2.299-.006-3.572-1.055-5.045-.956-1.341-1.846-1.994-2.72-1.994-.586 0-1.631.302-2.049 2.325-.158.762-1.097 2.297-2.009 3.285-.949 1.026-1.51 1.445-1.936 1.445-.105 0-.228-.021-.366-.063-1.257-.381-1.727-.524-3.856-.524-.881 0-2.043.022-3.773.055l-.196.004c-3.984.078-5.634.11-6.206 1.915-.117.366-.609.858-.974.974a2.54 2.54 0 00-.954.572c.074.248.141.501.188.765l.019.124z" fill="#000" /></mask><rect x="-10000" y="-10000" width="30000" height="30000" fill="#fff" opacity=".3" mask="url(#mm)" /></svg>