<svg viewBox="403 86 463 167" xmlns="http://www.w3.org/2000/svg"><mask id="mm"><rect x="-10000" y="-10000" width="30000" height="30000" fill="#fff" /><path d="M414.682 120.112l.008.105c.024.338-.041.74-.1 1.054-.43 2.279-2.066 6.804-3.188 8.802-.612 1.096-.818 3.013-.687 6.409l.191 4.979-2.99 2.233c-1.457 1.088-3.319 2.214-3.911 2.214-.402 0-.902.227-1.113.505l-.067.146c-.199.903 1.134 5.595 2.55 8.456.064.131.128.276.188.428l.045.11.099.065c.251.164.543.309.854.445.15.066.299.134.465.193l.101.036.104-.022c.436-.093 1.106-.007 2.074.116 1.453.183 3.2.841 3.894 1.467.571.517 2.219 1.307 3.886 1.68 2.163.486 3.514 1.393 6.017 4.041 2.156 2.28 3.482 3.297 4.301 3.297.318 0 .566-.16.776-.501.293-.472 1.523-.685 2.304-.685 1.007 0 1.633-.264 1.633-.689 0-.816.595-1.364 1.479-1.364.539 0 1.109.208 1.606.586.688.523 1.358.799 1.938.799.532 0 1.257-.236 1.684-1.361.271-.712.627-1.451 1.208-1.535l.122-.018.088-.087c.071-.071.142-.153.211-.232.162-.181.318-.373.466-.588l.081-.118-.02-.142c-.059-.45.096-.71.233-.848.312-.31.646-1.312.646-2.312 0-1.149.593-2.317 1.625-3.205.768-.66 1.165-1.416 1.186-2.248.023-1.077-.607-2.251-1.825-3.395-1.218-1.144-1.38-1.75-.962-3.608.272-1.206 1.668-3.577 3.111-5.286l2.155-2.56.052-.08c.099-.204.17-.405.22-.614l.021-.092-.621-2.329c-.631-2.35-.591-3.009.234-3.92.483-.534.894-1.647.894-2.431 0-.759 1.17-2.572 2.979-4.619 1.834-2.065 3.408-3.358 4.195-3.388.357-.096 1.188-.801 1.907-1.771.87-1.177 1.395-1.669 2.381-1.669.297 0 .643.041 1.154.138.558.104.909.149 1.18.149.636 0 .814-.27 1.032-1.08.202-.762.379-2.143.383-3.015.002-.508.096-.944.276-1.297l.06-.113-.022-.125a6.625 6.625 0 00-.188-.765 5.87 5.87 0 00-.795-1.66c-.845-1.205-1.695-1.632-3.257-1.632-.296 0-.64.015-1.055.045l-1.646.121-.604-6.026h-3.875c-2.42 0-3.021-.241-5.359-2.153-1.612-1.316-2.483-2.497-2.552-2.674 0-2.236-1.727-3.395-4.449-2.951-1.38.225-1.843.079-3.203-1.067-1.568-1.319-2.95-1.81-5.103-1.81-1.73 0-2.534-.414-2.717-.633-.778-.937-1.839-1.239-3.56-.916-1.113.206-1.645.089-2.334-.557-.721-.669-1.979-1.576-2.807-2.021-.565-.301-1.052-.502-1.585-.502-.809 0-1.438.448-2.318 1.274-.852.799-1.641 1.694-1.656 2.812-.02 1.153.751 2.157 1.998 3.404 1.068 1.068 1.57 2.062 1.58 3.125.029 2.876 2.94 7.009 6.23 8.844l2.013 1.122.358 4.3c.148 1.77.209 3.2.209 4.027a8.353 8.353 0 01-.902-.287c-.789-.298-1.325-.426-1.796-.426-.662 0-1.2.261-1.646.796-.131.149-1.038.611-2.131.789-1.952.316-3.979 1.72-5.176 3.52a7.116 7.116 0 00-.416.697l-.049.098z" fill="#000" /></mask><rect x="-10000" y="-10000" width="30000" height="30000" fill="#fff" opacity="1" mask="url(#mm)" /></svg>