<svg viewBox="405 156 474 208" xmlns="http://www.w3.org/2000/svg"><path d="M405.329 166.91a3.58 3.58 0 00.015.588c.047.394.193.925.633 1.205.322.296.828 1.38 1.183 2.693.364 1.354 1.483 3.295 2.493 4.329 1.146 1.175 1.755 2.403 1.755 3.551 0 1.419.42 2.113 1.604 2.653 1.557.709 2.416 3.43 1.911 6.066-.056.296-.079.54-.069.743l.004.094-.039.084a7.916 7.916 0 01-.428.775c.121.188.274.354.479.491l.09.06.108.003c.865.023 2.187.299 4.604.804.979.204 2.067.914 2.425 1.583.313.585 1.166 1.062 1.899 1.062 1.133 0 1.653.488 1.919 1.803.178.877.904 1.85 1.619 2.168.785.35 1.947 1.611 2.592 2.812 1.507 2.812 3.202 4.179 5.184 4.179.986 0 2.112.426 2.564.97.808.973 2.386 1.079 3.263.208.64-.635 2.19.092 4.078 1.888l.111.106.154-.003a1.32 1.32 0 00.62-.167 1.333 1.333 0 00.523-.503l.079-.132-.036-.15c-.286-1.188-.392-2.51-.269-3.37.07-.514.225-.846.452-.988.439-.271.638-.619.542-.955-.114-.41-.703-.851-1.726-.851-1.744 0-1.985-.263-1.985-2.168 0-2.442.988-3.63 3.021-3.63 1.095 0 1.242-.493 1.242-.975 0-.458.11-.772.33-.932l.033-.022c.263-.166.651-.179 1.309-.051.092.017.202.027.328.027 1.904 0 6.149-2.005 7.569-3.576.523-.579 1.289-2.517 1.673-4.231.719-3.192.84-3.328 3.247-3.634 1.021-.13 1.665-.231 1.981-.547.299-.301.373-.834.462-1.9.103-1.212.394-2.451 1.776-2.451.707 0 1.72.325 3.187 1.021 2.402 1.139 3.678.798 3.678-1.122 0-.326 0-1.09.347-1.436l.064-.065-.141.074-.188-.14a1.858 1.858 0 01-.333-.316l-.068-.087-.011-.11c-.139-1.357-.485-2.239-.955-2.419-1.155-.443-3.273-4.152-3.284-5.751-.005-.762-.286-1.809-.625-2.334-.232-.358-.382-.54-.56-.54-.247 0-.324.264-.334 1.128-.004.708-1.111 2.267-2.757 3.885-1.62 1.595-3.251 2.72-3.966 2.736-.494 0-.849-.18-1.095-.535-.436-.631-.438-1.689-.005-2.831.484-1.286.54-2.093.179-2.618-.427-.619-1.396-.691-2.088-.691-1.278 0-2.815.729-4.567 2.167-1.862 1.528-3.121 2.096-4.642 2.096-1.747 0-2.009-.095-2.175-1.534-.151-1.31-.643-1.858-1.808-2.022-.766-.108-1.925-.848-2.529-1.615-.5-.634-.894-1.03-1.235-1.247l-.085-.054-.047-.089c-.068-.131-.115-.256-.167-.384-.069.079-.14.161-.211.232l-.088.087-.122.018c-.581.084-.938.823-1.208 1.535-.427 1.125-1.15 1.361-1.684 1.361-.579 0-1.249-.276-1.938-.799-.497-.378-1.067-.586-1.606-.586-.885 0-1.479.548-1.479 1.364 0 .425-.626.689-1.633.689-.779 0-2.011.212-2.304.685-.21.342-.458.501-.776.501-.817 0-2.145-1.017-4.301-3.297-2.504-2.648-3.854-3.555-6.017-4.041-1.667-.373-3.313-1.163-3.886-1.68-.692-.626-2.439-1.284-3.895-1.467-.967-.123-1.639-.208-2.074-.116l-.104.022-.102-.036c-.164-.059-.312-.127-.465-.193.041.137.082.271.118.417l.03.119-.046.114c-.128.314-.128.766-.128 1.244 0 .994.304 2.438.691 3.289.543 1.189.461 1.552-.576 2.59-.68.68-1.178 1.757-1.301 2.811l-.015.117.001.001.007.143z" fill="#000" opacity=".2" /></svg>