<svg viewBox="-9503 -9835 10541 10210" xmlns="http://www.w3.org/2000/svg"><mask id="mm"><rect x="-10000" y="-10000" width="30000" height="30000" fill="#fff" /><path d="M530.83 182.579l-.162-.019-.097-.132c-.156-.214-.392-.427-.738-.672-.647-.455-1.196-1.203-1.196-1.634 0-.582-.604-1.038-1.377-1.038-.31 0-.848-.058-.979-.445-.151-.438.246-1.314 1.476-2.281.31-.241.529-.416.714-.574l.152-.079a3.33 3.33 0 01.249-.054c.008-.059.016-.117.022-.176l.012-.1.061-.081c.108-.145.147-.262.135-.404-.033-.369-.441-.599-1.617-1.21-1.122-.585-1.371-.95-1.176-3.001.136-1.4-.003-2.245-.197-2.461a.299.299 0 00-.122-.083l-.152-.052-.065-.146c-.042-.092-.181-.441-.181-1.078 0-.722-.149-1.639-.431-1.917-.091-.092-.255-.198-.537-.198-.924 0-2.394 1.11-2.394 2.034 0 .439-.294.711-.769.711-.417 0-.932-.244-1.141-.789-.086-.222-.312-.812-.687-.936l-.12-.04-.141.031c-.491.108-.904 1.05-1.209 1.859-.76 2.002-2.304 2.235-4.56.755-.754-.494-1.425-.813-1.705-.813-.115 0-.175.047-.205.087-.104.134-.731 1.151-1.565 2.534-.903 1.506-1.73 2.207-2.603 2.207-.792 0-2.067.671-2.842 1.497-.792.841-2.284 1.535-3.717 1.727-1.415.188-2.44.396-2.848.794l-.099.097-.138.01c-.22.016-.438.017-.658.024-.031.115-.072.227-.074.35l-.003.172.13.114c.713.628 1.371 1.8 1.904 3.387.185.556.888.959 1.672.959 1.349 0 1.723.634 1.975 1.882.27 1.354.523 1.671 2.614 1.951 2.705.363 5.368 1.86 5.936 3.339.241.626-.309 1.739-.979 2.453-1.229 1.307-2.133 3.398.525 5.948 1.508 1.443 1.875 2.324 1.875 4.49v2.785h-.209l.184.503c.03.084.066.154.101.232.035.082.067.17.106.244l.124.138c.926.616 1.494 1.465 1.521 2.271l.01.259.244.083c.439.149 1.395.127 3.377-.098 2.046-.233 4.262-.686 4.841-.989.435-.229 1.073-.345 1.899-.345 2.092 0 5.274.775 6.981 2.073 1.106.842 3.088 1.431 4.817 1.431 1.073 0 1.921-.23 2.322-.631a.881.881 0 01.613-.263l.148-.005.104-.104c.077-.077.138-.16.205-.24.178-.212.334-.431.443-.662l.059-.125-.035-.133a4.67 4.67 0 01-.167-1.166c-.002-1.059-.324-1.852-2.019-3.004-1.726-1.175-2.13-1.673-1.839-3.505.242-1.522-.027-2.158-1.521-3.581-.946-.901-1.926-2.161-1.926-2.71 0-.757-.294-1.473-1.745-4.26-.64-1.226-.577-4.238.138-6.714l.027-.094-.022-.095a2.19 2.19 0 00-.135-.395 1.25 1.25 0 01-.614.101z" fill="#000" /></mask><rect x="-10000" y="-10000" width="30000" height="30000" fill="#fff" opacity=".3" mask="url(#mm)" /></svg>