<svg viewBox="486 134 533 181" xmlns="http://www.w3.org/2000/svg"><path d="M498.646 145.911l-.11.034a4.393 4.393 0 00-.476.096c-.062.011-.094.016-.151.043-.593.209-.922.524-1.295 1.222-.661 1.234-.599 1.729.359 2.785.751.831.923 1.577.636 2.754a101.01 101.01 0 00-.758 3.381c-.357 1.796-4.761 5.197-6.729 5.197-.678 0-1.309.506-1.646 1.32-.345.83-.248 1.685.246 2.179 1.058 1.059.681 4.248-.842 7.109-.429.804-.798 1.516-.98 2.079l-.057.107c-.25.337-.506.635-.77.909.039.201.103.404.229.606l.065.105.116.045c.238.093.446.241.616.44.522.612.76 1.706.724 3.343l-.003.117.064.098c.055.082.106.148.163.205.132.131.301.249.479.354.059.035.113.074.176.104l.192.094.179-.118c.224-.146.453-.221.685-.221 1.229 0 3.759-1.481 4.925-2.881.353-.426.737-.678 1.215-.77.171-.066.325-.101.462-.101l.371.004c.163 0 .327-.013.491-.018.221-.007.439-.008.659-.024l.137-.01.1-.097c.406-.398 1.433-.605 2.848-.794 1.433-.192 2.924-.886 3.716-1.727.774-.825 2.051-1.497 2.843-1.497.87 0 1.697-.701 2.603-2.207.834-1.383 1.462-2.4 1.565-2.534.029-.04.09-.087.205-.087.28 0 .95.319 1.704.813 2.257 1.48 3.801 1.247 4.561-.755.305-.809.718-1.751 1.209-1.859l.141-.031-.025-.009-.454-.966c-.021-.493-.216-1.075-.33-1.377-.574-1.521-.504-1.865.628-3.071.791-.843 1.387-1.83 1.386-2.296l.029-.146c.101-.24.443-.386.858-.352.599.061 1.081.091 1.482.091.555 0 1.325-.048 1.61-.463.153-.222.158-.509.018-.879-.294-.764-.064-2.201.557-3.495.438-.912.984-1.546 1.464-1.697 1.155-.367 1.29-1.495 1.29-2.311 0-1.459.168-1.627 1.632-1.627 1.294 0 2.111-.286 2.302-.805l.028-.131.103-.076c.188-.149.396-.261.617-.349-.085-.391-.337-.844-.92-1.327-.362-.301-.571-.769-.577-.892 0-1.477-.884-1.698-1.411-1.698-.532 0-1.215.213-2.542.692-.49.178-.885.296-1.22.296-.5 0-1.071-.264-2.444-1.13-1.868-1.18-2.126-1.809-2.126-2.313 0-2.427-3.192-5.027-5.439-5.027a2.6 2.6 0 00-.907.154c-1.386.512-2.248 1.688-2.05 2.796.116.658.701 1.427 1.965 1.427.107 0 .242 0 .258-.002.063.088.096.473.096 1.142 0 .267 0 .859-.052 1.083-.252.066-.97.071-1.33.074-2.835.023-5.023.86-7.558 2.892-1.142.915-2.127 1.139-5.023 1.139-.838 0-1.519.012-2.098.046-.042.125-.1.244-.175.353-.129.192-.3.34-.509.442z" fill="#000" opacity=".2" /></svg>