<svg viewBox="531 174 563 222" xmlns="http://www.w3.org/2000/svg"><defs><filter id="f1" x="0" y="0" width="130%" height="130%"><feOffset result="offOut" in="SourceAlpha" dx="1" dy="1" /><feGaussianBlur result="blurOut" in="offOut" stdDeviation="2" /><feBlend in="SourceGraphic" in2="blurOut" mode="normal" /></filter></defs><path d="M561.423 206.224c-.368-1.21-.88-2.472-1.589-3.915-1.061-2.166-2.002-4.872-2.099-6.032-.159-1.902-.474-2.294-1.979-2.468-.99-.115-2.339-1.064-3.206-2.257-.23-.32-.759-1.13-.658-1.761l.044-.126c.229-.404 1.415-1.181 3.001-1.782 2.395-.907 3.243-1.273 3.373-1.826.105-.439-.261-.866-.919-1.583-.747-.808-1.356-1.951-1.468-2.521-.169-.888-.58-1.202-1.57-1.202-.22 0-.479.016-.794.045a9.018 9.018 0 01-.812.049c-.729 0-.97-.127-.97-.882 0-.692-.479-1.652-1.065-2.14-.539-.448-1.307-1.593-1.71-2.551-.202-.481-.356-.848-.498-1.092l-.082-.142.048-.156c.018-.038.036-.061.054-.094-.068-.035-.14-.068-.199-.108l-.053.137-.209.038c-.225.04-.361.474-.509.933-.291.916-2.214 1.811-3.437 1.811-.404 0-.688-.096-.821-.278-.276-.378-1.621-.65-2.805-.722a14.214 14.214 0 00-.813-.029c-1.326 0-1.769.31-2.252 1.579-.391 1.032-.645 1.27-1.356 1.27-.271 0-.604-.036-1.149-.124-1.111-.182-1.596-.18-1.851.018l-.089.094c-.037.049-.146.208-.003.585.14.357-.055 1.287-.563 2.097a6.392 6.392 0 00-.519 1.054l-.038.098-.085.064c-.103.078-.212.13-.32.176.054.127.103.256.135.395l.022.095-.027.094c-.715 2.476-.777 5.488-.138 6.714 1.45 2.787 1.744 3.503 1.744 4.26 0 .549.979 1.81 1.927 2.71 1.492 1.423 1.764 2.059 1.521 3.581-.291 1.832.114 2.33 1.839 3.505 1.694 1.152 2.018 1.945 2.02 3.004 0 .354.058.757.167 1.166l.035.133-.06.125c-.109.23-.266.449-.443.662.065.156.134.311.209.451l.049.089.087.052c.854.519 1.498 1.641 1.498 2.61 0 .509.883 1.641 2.519 2.735 2.058 1.377 2.696 2.234 2.85 3.818.147 1.525.558 2.032 2.188 2.711.346.145.854.375 1.269.695l.144.068c.371.089.718.132 1.057.151.101.006.2.019.298.019 1.834 0 3.354-.97 4.93-3.144.822-1.137 1.827-2.632 1.905-3.209.05-.114.537-.854 1.543-1.929 1.522-1.63 2.129-3.471 1.864-5.81l-.146.085-1.036-2.093z" stroke="#c00" stroke-width=".2" fill="transparent" filter="url(#f1)" /></svg>