<svg viewBox="0 0 600 500" xmlns="http://www.w3.org/2000/svg"><path d="M149.043 210.21l-.015-.078.018-.077c.269-1.194.064-2.056-.684-2.882-.736-.814-.967-1.767-.796-5.498l.21-4.613-2.129-.205c-1.32-.127-1.835-.438-1.835-1.107a.958.958 0 00-.18-.593l-.087-.121.019-.147c.011-.086.034-.2.049-.294a3.812 3.812 0 01-.632.009l-.147-.038c-.835-.408-2.211-.778-4.019-1.208-2.317-.552-3.593-.855-4.197-1.24-.552-.351-.552-.804-.552-1.708 0-1.749-.335-2.167-2.241-2.796-1.813-.599-2.021-.87-2.021-2.637 0-1.046-.017-1.607-.386-1.922-.343-.293-.878-.321-2.209-.321-1.596 0-2.277-.215-2.277-.718 0-.451-.119-1.05-.685-1.344l-.164-.085-.033-.182c-.007-.038-.009-.084-.016-.122-.075.055-.14.114-.224.166l-.1.062-.27-.012c-.499 0-1.108.147-1.81.438-1.286.532-1.87.565-2.445.088-.323-.27-.634-.406-.925-.406-.46 0-.953.383-.953 1.458 0 .635.746 1.709 1.385 2.437.873.992 1.683 1.583 2.167 1.583.678 0 1.307 1.234 1.319 2.589l.001.145-.097.108c-.26.292-1.092.513-1.935.513-.783 0-1.405-.186-1.585-.473-.217-.351-1.66-.424-2.833-.424-.525 0-1.073.017-1.627.049a41.59 41.59 0 01-2.216.088c-1.505 0-1.784-.212-2.097-1.056-.149-.401-.276-.741-.441-.917l-.08-.084-.082-.026c-.35-.106-.629.148-1.744 1.264-1.239 1.238-2.114 1.558-4.259 1.558-1.902 0-2.609-.202-2.609-.743 0-.932-.692-1.489-1.851-1.489-1.216 0-2.813.577-4.382 1.583-1.578 1.012-3.587 1.867-4.386 1.867-.438 0-.83.088-1.167.262l-.17.088-.171-.087c-.026-.013-.047-.033-.073-.047-.027.104-.053.229-.082.327l-.091.155a3.206 3.206 0 00-.608.917c-.209.46-.549.874-.931 1.133-.269.131-.51.215-.787.285-.36.014-.59.055-.771.131l-.099.027c-.308.04-.655.067-1.031.09-.014.027-.037.044-.049.072l-.07.156.072.155c.168.361.202.907.202 1.669 0 .488 0 1.973.941 1.973.527 0 1.276-.387 2.29-1.185.965-.76 2.164-1.213 3.207-1.213.941 0 1.624.374 1.874 1.025.187.486.919 1.113 1.599 1.37.845.322 1.718 1.519 2.225 3.049.756 2.292.708 2.688-.518 4.247-.918 1.168-1.244 1.848-1.162 2.427.08.56.55 1.089 1.675 1.891 1.674 1.192 1.873 1.656 1.515 3.562-.197 1.059-.195 1.39-.127 1.582l.058.164.162.062c.082.032.227.068.614.068.732 0 1.501.292 1.75.666l.083.089c.296.228 1.302.463 2.475.463 1.576 0 2.762.427 3.525 1.27.858.947 1.793 1.167 5 1.175 2.389.005 4.699.378 5.618.908.832.48 2.158 1.162 2.962 1.522.683.307 1.105.512 1.174.843.067.322-.21.649-.667 1.156-.517.571-.954 1.893-.954 2.886 0 .962-.24 2.132-.685 2.407-.329.206-.508.516-.531.924-.037.671.405 1.834 1.77 2.901 1.026.804 2.518 2.691 3.327 4.206 1.32 2.474 1.601 2.671 4.29 3.024.905.117 2.092.185 3.258.185.849 0 1.614-.037 2.153-.104 1.506-.182 3.183.034 4.054.506.789.427 2.361.931 3.505 1.124 1.51.251 2.062.609 2.462 1.596l.079.121c.259.267.576.433.913.51.033.008.062.027.096.033l.172.028.133-.113a1.78 1.78 0 01.681-.353c.675-.193 1.076-.563.989-1.812-.083-1.174.545-2.402 2.035-3.984 2.552-2.705 3.032-4.448 2.144-7.771-.429-1.599-.556-4.402-.324-7.142.325-3.845.142-4.78-.658-6-.82-1.252-1.03-2.636-.546-3.612.126-.256.296-.474.504-.648l.098-.082.028-.124.113-.488c-.22-.269-.373-.633-.465-1.104z" /></svg>