<svg viewbox="0 0 500 600"><path d="M557.597 458.688l.1-.181c.021-.039.043-.08.06-.125.23-.577-.019-1.404-.591-1.973-.362-.367-.438-1.49-.185-2.733.207-1.028.587-1.845.943-2.027l.163-.042c.623-.015.995-.742.995-1.949 0-.932.24-1.738.474-1.981.759-.486.83-.931.771-1.228-.138-.688-1.107-1.241-2.599-1.48-1.955-.312-2.301-.696-2.301-1.393 0-.741-.562-2.189-1.087-3.105-.617-1.083-.764-2.081-.412-2.812.307-.626.957-1.027 1.884-1.164.903-.134 1.443-.382 1.443-.663 0-.126-.18-.479-1.482-2.203a171.345 171.345 0 00-3.459-4.387c-.156-.192-.519-.299-1.017-.299-.47 0-.886.093-1.043.132-1.319.331-1.587.778-1.364 2.287.185 1.243-.049 1.777-.994 2.283-.725.387-1.009.508-1.525.394a1.207 1.207 0 00-.269-.025l-.302.008-.214-.024-.092-.108c-.107-.126-.192-.361-.261-.723-.16-.856-1.096-2.472-2.086-3.602-1.197-1.359-1.832-2.729-1.694-3.662.059-.367.225-.631.509-.81.143-.087.343-.348.468-1.617.086-.877.108-1.995.063-3.146l-.161-4.353-3.603-1.312c-1.86-.678-2.979-1.358-3.274-1.65l-.125-.123.014-.174c.04-.505.258-2.138.585-4.169.571-3.527-.062-7.371-1.441-8.75-.207-.227-.372-.853-.372-1.379 0-1.14-1.525-3.146-2.64-3.146-.398 0-.724.48-.724 1.071 0 .417-.32.756-.714.756-.537 0-1.547.831-2.301 1.893-.769 1.08-1.633 1.688-2.434 1.719h-.003c-.615 0-1.127-.273-1.576-.812-.443-.535-1.487-.972-2.328-.972-1.022 0-1.288-.265-1.288-1.288 0-3.382.765-5.108 2.918-6.603 1.753-1.214 2.534-2.393 3.35-5.037.702-2.276.876-3.781.685-4.093a1.373 1.373 0 00-.61-.553l-.137-.097c-.092-.104-.186-.202-.276-.297l-.025-.027-.179.395-.111.061c-.279.152-.443.472-.45.873l-.036.154c-.15.319-.83.741-1.836.928-1.886.355-2.483 1.172-4.221 4.514a960.715 960.715 0 01-2.693 5.143c-.303.555-1.224 1.098-2.014 1.188a2.875 2.875 0 00-2.276 1.695c-.253.591-.472 1.102-1.3 1.102-.23 0-.519-.035-.961-.119-2.564-.482-3.627-.673-4.17-.285-.296.212-.394.56-.479 1.169-.105.745-.737 1.96-1.379 2.654-3.921 4.251-5.099 5.229-6.303 5.229-.889 0-1.559.33-1.559.769v.188l-.149.132c-.116.088-.279.13-.499.13-.497 0-1.604-.246-2.599-1.174-1.112-1.037-1.812-1.255-2.203-1.255a.81.81 0 00-.405.099.754.754 0 00-.255.233l-.062.104c-.145.299-.163.747-.059 1.298.188.979-.045 1.688-.71 2.174-1.491 1.093-1.301 5.73-.342 9.749.552 2.308 1.177 3.191 3.188 4.51.814.53 2.368 1.464 3.044 1.612l.243.054.045.245c.033.189.064.637-.117 1.506a71.072 71.072 0 00-.734 4.494c-.224 1.755-.198 2.361.398 2.731l.179.109-.001.211c-.002.197-.008.386-.015.575l.104.041.159-.098c.198-.121.47-.13.988.006.587.156 1.582-.063 2.074-.474.417-.346.679-.479.931-.479.426 0 .752.382 1.279 1.184.54.821 2.003 2.855 3.261 4.535 1.138 1.52 2.314 3.434 2.314 4.017l.053.229.154.112.107.054c.4.126 1.187.104 2.728-.081l3.352-.394.835 2.824c.5 1.694.698 2.734.31 3.376-.334.554-1.054.793-2.185 1.021-1.948.391-2.519.71-6.04 4.232-2.036 2.035-3.268 2.591-3.909 1.857-.468-.53-.566-1.722-.312-3.748l.322-2.576-.049-.101a1.579 1.579 0 00-.236-.357l-.111-.129h-1.477c-3.291 0-3.893.687-3.893 2.037 0 .799-.164 1.616-1.378 1.616-.784 0-1.376-.33-1.377-.797v-.219l-.19-.107c-.364-.208-1.327-.008-1.964.762-1.092 1.315-2.429 1.22-3.731-.302-.652-.763-1.646-1.162-2.29-1.162-.233 0-.374.053-.451.097l-.307.178.115.23c-.038.404-.493.714-1.067.714-.334 0-.599.223-.71.601-.106.383-.021.921.417 1.194.445.274.862 1.717.988 2.433.226 1.197.842 2.124 1.651 2.479 1.367.601 1.469 1.058 1.552 6.984a75.53 75.53 0 01-.048 4.243c-.082 1.836-.217 1.971-.274 2.029-.039.039-.08.062-.168.058a31.789 31.789 0 01-1.47-.353c-.654-.172-1.186-.756-1.186-1.301a.716.716 0 00-.719-.712c-.267 0-.462-.077-.597-.234-.297-.35-.25-1.083-.077-2.148.086-.553.16-1.105.122-1.405l-.013-.1-.062-.08a1.35 1.35 0 00-.143-.161l-.077-.073-.105-.021a2.816 2.816 0 00-.529-.036c-.495 0-.84-.102-1.055-.309l-.145-.141-.195.042a3.36 3.36 0 00-.518.158c-.386.153-.842.425-1.002.886-.102.299-.084.723.22 1.069-.212.281-.638.768-1.479 1.528-1.325 1.199-2.964 3.104-3.39 4.27-.243.667-1.281 1.626-2.269 2.095-1.775.843-2.843 1.536-3.041 2.589-.188.984.468 1.844 1.203 2.623.617.656 1.349 1.356 2.231 1.356.411 0 .81-.156 1.182-.465.491-.409 1.914-.232 3.179.429 1.469.768 2.21 1.784 2.161 2.352-.268 3.15.045 4.937 2.486 5.946.691.286 1.135.592 1.299.734.15.646.814 1.124 1.624 1.159.093.082.326.352.446.835.363 1.445 1.225 2.18 2.558 2.18l.087-.002c1.6-.036 2.549-1.327 3.74-3.696 1.239-2.464 2.08-3.294 5.287-5.226 3.038-1.824 4.483-2.977 4.483-4.584 0-1.221-.458-2.088-1.177-2.254-.23-.193-.914-.902-1.796-2.174-.568-.822-1.273-1.452-1.97-2.075-.562-.506-1.097-.981-1.518-1.533-.215-.282-.532-.803-.908-1.488.142-.021.325-.037.567-.037.984 0 2.508.234 5.092.784 5.965 1.267 6.588 1.96 6.588 3.239 0 .596 0 1.705.793 2.261.778.549 1.917.302 3.874-.406 2.604-.941 2.621-1.57 2.274-4.758-.261-2.396-.16-2.86.888-4.128 1.164-1.417 5.208-3.63 8.02-3.682.618 0 1.269.378 1.954.777.315.187.646.374.979.536.038.02.082.064.188.188.29.332.774.888 1.994.888.864 0 2.277.25 3.025.535.72.272 1.568.418 2.453.418 1.422 0 2.639-.369 3.255-.986.47-.471.614-1.104.388-1.691-.082-.215-.148-1.548.094-3.166.06-.393.207-1.381.283-1.651.098.013.276.044.594.125l.215.055c.906.225 1.005.282 1.069.409.191.362.284 1.327.445 2.996l.482 5.011 3.747.087c1.824 0 3.239-.424 4.206-1.261.617-.536 1.57-.883 1.956-.886 3.197-.022 4.701-.991 5.549-3.573.895-2.725 2.227-4.259 2.595-4.312a1.632 1.632 0 001.05-.414 1.724 1.724 0 01-.319-.408l-.088-.19z" /></svg>