<svg viewBox="467 433 514 472" xmlns="http://www.w3.org/2000/svg"><path d="M480.47 465.168l.146.14c.214.208.559.31 1.054.31.242 0 .411.012.53.036l.104.021.077.073c.053.051.101.104.144.161l.062.08.013.1c.038.3-.036.854-.122 1.405-.173 1.064-.22 1.8.077 2.147.136.158.33.235.598.235.396 0 .718.319.718.712 0 .545.531 1.129 1.186 1.301.523.136 1.215.306 1.471.353.088.006.129-.019.168-.059.058-.059.191-.192.273-2.028a75.53 75.53 0 00.048-4.243c-.083-5.928-.185-6.385-1.552-6.984-.81-.354-1.427-1.282-1.651-2.479-.126-.716-.543-2.157-.987-2.433-.439-.273-.524-.812-.417-1.194.11-.378.376-.601.709-.601.575 0 1.029-.31 1.067-.714l-.114-.23.306-.178c.077-.044.218-.097.451-.097.644 0 1.638.399 2.291 1.162 1.303 1.521 2.64 1.617 3.73.302.638-.77 1.601-.97 1.964-.762l.19.106v.22c.001.467.593.797 1.377.797 1.214 0 1.378-.817 1.378-1.616 0-1.352.603-2.037 3.894-2.037h1.476l.112.129c.097.111.174.229.235.357l.05.101-.323 2.576c-.254 2.026-.155 3.218.312 3.748.644.732 1.873.178 3.909-1.858 3.522-3.521 4.092-3.842 6.04-4.231 1.131-.229 1.851-.467 2.185-1.021.39-.642.19-1.682-.31-3.376l-.835-2.824-3.351.394c-1.541.184-2.326.207-2.729.081l-.106-.054-.155-.112-.052-.23c0-.583-1.179-2.497-2.315-4.016-1.258-1.68-2.72-3.714-3.26-4.535-.528-.802-.854-1.184-1.28-1.184-.252 0-.513.135-.93.479-.493.409-1.488.629-2.075.474-.52-.137-.79-.127-.988-.006l-.159.098-.104-.041-.004.175-.022.184c-.137.401-.137.973-.137 1.523 0 2.736-2.48 7.467-5.647 10.771-2.188 2.285-3.084 2.692-4.512 2.692-.981 0-1.268-.076-1.407-.143l-.209-.101-.005-.23a2.097 2.097 0 01.081-.514c.196-.747-.017-1.466-.482-1.636l-.247-.123-.011-.295c.031-.196.163-.49.402-.896.433-.731.784-1.88.784-2.561 0-.625.247-1.226.478-1.395.103-.066.151-.147.16-.244.033-.342-.512-1.279-2.157-2.802-1.604-1.479-2.934-2.396-4.592-2.396-1.021 0-2.167.312-3.958 1.078-.896.386-1.501.678-1.935 1.029l-.114.062c-.446.153-.844.271-1.213.354-.469.782-.799 1.872-1.266 3.617-.771 2.897-.989 5.252-.711 7.632.255 2.152.134 3.412-.434 4.492-.832 1.586-.93 3.123-.268 4.217.639 1.052 1.898 1.51 3.356 1.218.363-.072.632-.107.818-.107.048 0 .111 0 .101-.016.012.015.062.087.138.38.412 1.575 2.571 3.44 3.984 3.44.491 0 .903-.2 1.169-.565.145-.075.685-.258 1.447-.258.506 0 .729.026.828.051.023.103.053.334.053.867 0 .59.043 1.229.292 1.738.217-.086.412-.136.518-.158l.192-.035z" /></svg>