<svg viewBox="434 349 526 449" xmlns="http://www.w3.org/2000/svg"><path d="M471.573 438.244c.434-.353 1.038-.645 1.935-1.029 1.791-.766 2.938-1.078 3.958-1.078 1.658 0 2.986.916 4.592 2.396 1.646 1.521 2.19 2.46 2.157 2.802-.009.097-.059.178-.16.244-.229.169-.478.77-.478 1.395 0 .681-.353 1.828-.784 2.561-.239.406-.371.699-.402.896l.011.295.247.123c.467.17.68.889.482 1.637a2.084 2.084 0 00-.081.513l.005.23.209.101c.141.065.426.143 1.407.143 1.428 0 2.324-.407 4.512-2.692 3.167-3.306 5.647-8.035 5.647-10.771 0-.552 0-1.122.137-1.523l.022-.184.004-.175c.007-.189.013-.378.015-.575l.001-.211-.179-.11c-.597-.369-.622-.977-.398-2.73.18-1.387.51-3.403.734-4.494.184-.869.151-1.316.117-1.506l-.045-.245-.243-.054c-.675-.148-2.229-1.082-3.044-1.612-2.011-1.317-2.636-2.202-3.188-4.51-.959-4.019-1.149-8.656.343-9.749.665-.484.896-1.195.71-2.174-.105-.552-.086-.999.058-1.298l.062-.104a.7.7 0 01.255-.233.83.83 0 01.404-.099c.392 0 1.092.218 2.203 1.255.995.927 2.103 1.174 2.6 1.174.219 0 .382-.042.499-.13l.148-.132v-.188c0-.438.67-.769 1.56-.769 1.204 0 2.382-.978 6.302-5.229.642-.694 1.272-1.909 1.379-2.654.086-.609.184-.957.479-1.169.543-.388 1.604-.197 4.171.285.441.084.729.119.961.119.827 0 1.047-.511 1.3-1.102a2.88 2.88 0 012.275-1.696c.79-.091 1.711-.634 2.015-1.188.32-.604 1.532-2.908 2.692-5.144 1.736-3.341 2.335-4.156 4.222-4.513 1.006-.187 1.685-.607 1.836-.928l.036-.154c.007-.401.171-.721.449-.873l.111-.061.179-.395c-.16-.163-.294-.298-.41-.444l-.136-.169.078-.201c.187-.476.223-.836.116-1.173a4.486 4.486 0 00-.316-.762l-.086-.158.071-.167c.096-.221.21-.405.332-.551-.706-.934-1.757-1.487-3.35-2.319l-.276-.146c-2.495-1.309-2.998-1.881-2.999-2.379 0-.507 0-2.049-1.65-2.049-.294 0-.647.046-1.184.152-.317.062-.514.091-.656.091-.4 0-.742-.378-2.094-2.741-1.578-2.759-1.729-3.536-1.464-4.961.449-2.385-.548-8.994-1.822-10.564-.608-.752-2.253-1.106-3.521-1.118-1.057-.011-2.582-.354-3.27-.733-1.076-.594-2.408-.828-2.948-.61 0 0-.061.013-.212.013-.56 0-1.49-.154-2.317-.384a7.24 7.24 0 00-1.919-.271c-2.543 0-4.329 1.515-4.344 3.684-.011 1.466-.133 1.867-3.016 2.3-.817.122-1.378.18-1.763.18-.396 0-.485-.056-.485-.075-.369-.96-1.444-1.427-3.288-1.427l-.331.004c-2.006.052-3.018.375-3.237 1.042-.193.184-.76.644-1.792 1.255-1.25.738-2.655 2.021-2.924 3.047a1.782 1.782 0 01-.247.562 1.007 1.007 0 00-.546.396c-.259.382-.412 1.182.706 4.004l.378.949c.552 1.383 1.121 2.812 1.011 3.103-.154.209-1.279.478-2.277.716l-.771.185c-2.339.57-5.259 1.477-6.509 2.021-2.559 1.109-2.817 1.634-2.14 4.311.424 1.676.33 2.3-.63 4.178-1.131 2.225-.957 2.977-.729 3.345.143.233.364.396.608.459-.067.471-.485 1.339-1.25 1.895l-2.933 2.138 3.99 1.597c2.788 1.115 2.695 1.481 2.391 2.695-.137.545-.211.846-2.218 1.148-5.937.896-6.698 1.014-6.698 3.707 0 .175 0 .604-.035.789-.301.081-1.202.081-1.706.081-3.429 0-5.587-1.007-5.77-1.702-.236-.914-1.222-1.813-2.292-2.094-.481-.124-.765-.173-1.009-.173-.431 0-.792.17-1.02.479-.405.56-.177 1.263.009 1.828.875 2.684.844 5.496.437 6.256-.179.336-.976.933-1.817 1.103-1.664.331-2.741 1.352-4.433 4.197-1.235 2.078-1.775 2.745-2.225 2.745-.081 0-.168-.009-.274-.029-1.194-.228-2.174.134-2.624.954-.463.846-.285 1.985.495 3.212.437.688 1.467 3.049 2.206 5.054.161.437 1.613 4.276 2.945 4.745 1.492.525 2.495 1.712 2.495 2.948 0 1.518.652 2.521 2.054 3.154.694.318.991.719.991 1.338 0 1.042.494 2.286 1.407 2.633.128.091.549.705.735 1.559.361 1.646.749 2.599 1.661 2.599.289 0 .562-.12.771-.339.199-.211.811-.853.574-5.376-.225-4.321-.225-4.321 1.376-5.834.691-.651.856-.671 1.18-.709.167-.022.372-.051.618-.126.271-.08.604-.097.958-.113.425-.022.863-.047 1.326-.188 1.708-.514 2.507-.947 2.826-1.524.12-.121 1.007-.474 2.655-.474 1.266 0 1.957.207 2.193.31.086.695.516 1.271 1.09 1.481a1.735 1.735 0 01-.033.167c-.298 1.135.132 2.25 1.068 2.773.225.126.358.202-.229 2.812-.658 2.926-.941 4.261-.785 5.234.227 1.414 1.388 1.753 2.41 2.053 1.136.334 1.983.389 3.078.141.369-.084.767-.201 1.213-.354l.119-.073z" /></svg>