<svg viewBox="548 169 590 208" xmlns="http://www.w3.org/2000/svg"><path d="M588.427 198.026c-.235-.195-.586-.977-.586-1.658 0-1.007-.516-3.142-1.198-4.963-.608-1.626-1.285-4.199-1.509-5.736-.186-1.235-.623-3.386-1.477-3.913-.249-.155-.567-.227-1-.227-.729 0-1.825.212-2.859.553-.771.254-1.383.455-1.702.455-.26 0-.481-.209-1.403-1.316-.919-1.098-2.455-2.279-3.654-2.279-.223 0-.391-.032-.497-.063-.338-.847-1.661-1.262-2.461-1.438-.984-.216-1.303-.501-1.477-1.328-.204-.965-.791-2.529-1.309-3.487-.468-.863-.766-1.882-.766-2.204 0-.84-.365-1.395-1.017-1.598-.006.02-.006.038-.013.057-.062.19-.175.359-.329.501l-.106.099h-.146c-.286 0-.661.055-1.255.185-1.801.396-3.7 1.76-4.234 3.04-.191.466-.186.87.023 1.2.707 1.118.827 2.336.32 3.259-.456.83-1.359 1.307-2.479 1.307-1.357 0-3.957-2.071-4.268-3.308l-.092-.074.064-.116c0-.013-.005-.026-.005-.039 0-.322-.062-.583-.18-.776l-.115-.187.184-.312c-.109.039-.208.083-.327.118l-.121.035-.118-.046c-.373-.145-.871-.165-1.31-.165-.634 0-1.326.037-1.661.312l-.146.12-.185-.046a2.745 2.745 0 01-.29-.09c-.077-.029-.134-.075-.202-.11-.019.033-.037.057-.055.094l-.048.156.082.142c.143.244.296.611.498 1.092.403.958 1.171 2.103 1.71 2.551.587.488 1.065 1.448 1.065 2.14 0 .755.242.882.97.882.208 0 .476-.017.812-.049.314-.03.574-.045.794-.045.99 0 1.401.314 1.57 1.202.11.57.721 1.713 1.468 2.521.658.717 1.024 1.144.919 1.583-.13.553-.979.919-3.372 1.826-1.587.601-2.771 1.378-3.001 1.782l-.045.126c-.101.631.428 1.441.658 1.761.867 1.193 2.217 2.142 3.206 2.257 1.505.174 1.818.566 1.979 2.468.097 1.16 1.038 3.866 2.099 6.032.709 1.442 1.221 2.704 1.589 3.915l1.026 2.092.146-.085 2.334-1.342c.646-.37.979-.507 1.229-.507.229 0 .54.117 1.102.417.85.455 1.506.64 2.271.64.627 0 1.309-.127 2.351-.438 3.04-.911 4.85-.863 6.693.226.735.434 1.315.777 1.997.777.957 0 1.66-.607 3.201-1.938 1.312-1.132 3.07-2.532 3.922-3.12 1.253-.868 1.881-1.745 1.921-2.681.037-.803-.363-1.556-1.185-2.239z" /></svg>