<svg viewBox="540 149 555 174" xmlns="http://www.w3.org/2000/svg"><defs><filter id="f1" x="0" y="0" width="130%" height="130%"><feOffset result="offOut" in="SourceAlpha" dx="1" dy="1" /><feGaussianBlur result="blurOut" in="offOut" stdDeviation="2" /><feBlend in="SourceGraphic" in2="blurOut" mode="normal" /></filter></defs><path d="M540.629 151.63l-.02.165c-.032.281.003.651.062 1.045.05.113.084.233.084.359v.143l.019.1c.249 1.316.138 2.415-.298 2.938-.529.636-.703 1.135-.026 1.812.32.321.5.441.659.441.077 0 .313 0 .313-.58 0-.091.008-.164.017-.222l.025-.203.186-.088a1.6 1.6 0 01.152-.063l.158-.053.146.082c.325.183.938.77 1.164 1.809.237 1.091.659 2.406.938 2.932.271.509.656 1.715.863 2.688.183.859.366 1.392.716 1.392a.323.323 0 00.18-.053l.04-.025c.123-.09.21-.232.244-.287.415-.675 1.199-.686 1.679-.101.319.384.442.925.337 1.48-.175.915.081 1.925.594 2.35.506.42.721 1.014.751 1.395.021.274-.045.433-.085.502l-.108.187h-.216a.776.776 0 00-.79.768c0 .046.009.167.088.298l.103.168-.081.179a7.35 7.35 0 00-.175.43l-.022.062c.061.04.131.073.2.108.068.035.125.081.203.11a2.8 2.8 0 00.289.09l.185.046.146-.12c.336-.275 1.027-.312 1.661-.312.438 0 .937.02 1.31.165l.118.046.122-.035c.118-.035.217-.079.326-.118.419-.146.797-.312 1.091-.512l.116-.128c.928-1.666 1.034-2.119.912-2.408-.077-.186-.273-.341-1.023-.538-1.178-.308-1.33-.735-.962-2.692.18-.959.243-1.399.176-1.642l-.047-.167-.158-.073c-.199-.091-.562-.107-1.3-.107-1.303 0-2.056-.206-2.056-1.255 0-.615-.32-1.351-.62-1.652-.882-.88-1.012-3.751-.581-4.793.027-.066.058-.125.12-.229.135-.203.299-.305.488-.305.36 0 .836-.448 1.018-.959.213-.604.938-1.709 1.619-2.465.367-.41.698-.763 1.021-.934l.086-.045.053-.081c.17-.261.258-.498.276-.738a1.225 1.225 0 00-.008-.296c-.104-.665-.643-.983-1.33-1.392-1.389-.817-4.077-1.245-6.016-1.245-1.616 0-2.661.256-3.193.783-.313.31-.878.534-1.104.534-.542 0-.962.174-1.249.518-.062.077-.105.169-.151.259.173.122.332.259.462.408l.103.124z" stroke="#c00" stroke-width=".2" fill="transparent" filter="url(#f1)" /></svg>