<svg viewBox="548 151 566 178" xmlns="http://www.w3.org/2000/svg"><path d="M552.782 152.755l-.086.045c-.321.171-.652.524-1.021.934-.68.756-1.406 1.862-1.619 2.465-.181.511-.655.959-1.017.959-.19 0-.354.103-.489.305a1.751 1.751 0 00-.12.229c-.43 1.042-.3 3.913.581 4.793.3.302.621 1.037.621 1.652 0 1.049.753 1.255 2.055 1.255.738 0 1.102.016 1.301.107l.157.073.047.167c.068.243.005.683-.176 1.642-.368 1.957-.215 2.384.962 2.692.75.197.947.352 1.024.538.122.289.015.742-.912 2.408l-.117.128c-.294.2-.671.366-1.09.512l-.184.312.114.187c.119.193.181.455.181.776 0 .012.005.026.005.039.003.061.01.124.025.19.312 1.237 2.909 3.308 4.269 3.308 1.119 0 2.021-.477 2.479-1.307.508-.922.388-2.141-.319-3.259-.209-.33-.217-.734-.023-1.2.534-1.28 2.435-2.644 4.234-3.04.594-.13.969-.185 1.255-.185h.146l.107-.099c.154-.142.266-.312.329-.501.007-.02.007-.038.013-.057.198-.685-.264-1.253-.52-1.562-.158-.202-.589-1.768-.619-4.097-.025-1.917-.365-4.529-.944-5.594-.33-.607-.501-1.797-.357-2.497.239-1.203-.026-2.455-.694-3.269-.461-.565-1.082-.876-1.747-.876-.796 0-1.396.755-1.396 1.757 0 .225-.678.661-1.919.661-.96 0-1.879-.258-2.521-.707-.553-.387-1.06-.707-1.653-.707-.011 0-.021.003-.03.004a1.57 1.57 0 01-.275.738l-.057.081z" /></svg>