<svg viewBox="0 0 600 500" xmlns="http://www.w3.org/2000/svg"><path d="M496.527 218.574l-.188-.013c-.439-.031-.937-.02-1.677.025-.419.027-.77.039-1.062.039-1.502 0-2.157-.278-3.346-1.415-.891-.854-1.36-1.236-1.788-1.236-.333 0-.586.226-.886.589-.397.479-1.205.881-1.765.881-.834 0-1.55.386-1.701.917-.095.339.062.665.429.892.241.149.42.589.491 1.207.119 1.016-.089 2.451-.632 2.996-.395.394-1.473.659-2.686.659-1.011 0-1.902-.184-2.389-.492-.188-.119-.477-.179-.856-.179-1.188 0-3.668.702-3.733 1.517l-.025.108c-.119.298-.719 1.173-1.516 2.123-.989 1.175-1.917 1.771-2.759 1.771-.56 0-1.067-.272-1.514-.809-.526-.637-2.012-.97-3.206-.97-1.879 0-2.397-.278-3.269-1.749-.298-.507-.531-.87-.737-1.141l-.061-.123c-.043-.15-.066-.318-.104-.475l-.192.153-.22-.118c-.573-.316-1.015.278-1.626 1.755-.601 1.455-.618 2.307-.07 3.504.63 1.386.805 2.543.493 3.26a1.242 1.242 0 01-.772.708c-.615.211-1.853 1.449-2.756 2.76-1.464 2.125-1.792 2.292-5.008 2.558-2.946.246-3.854.613-5.107 2.071-.467.544-1.164 1.194-1.834 1.194-.556 0-1.312-.458-1.758-2.643-.548-2.684-2.507-5.258-4.191-5.508a1.37 1.37 0 00-.701.074l-.114.046-.12-.032a11.307 11.307 0 01-.75-.23c-.119.115-.241.226-.346.372l-.075.107.008.131c.027.504-.031 1.156-.128 1.98-.288 2.431-.124 3.009 1.348 4.758 1.411 1.676 1.801 2.825 1.986 5.854.195 3.22.026 4.002-1.132 5.229-.746.79-2.139 1.59-3.103 1.781-1.541.309-1.612.613-1.902 3.814-.078.849-.245 2.113-.479 3.117l-.015.062.007.062c.052.498.167.928.317 1.342.05.134.085.271.146.4l.117.145c.261.191.559.549.912 1.088.604.925 1.425 1.412 2.372 1.412.981 0 2.028-.545 2.946-1.534 1.111-1.199 1.522-1.338 1.735-1.338a.34.34 0 01.289.149c.131.188.206.604-.383 2.158-.364.964-.692 2.266-.187 2.997.26.374.721.563 1.37.563.915 0 2.203-.389 3.724-1.121 1.29-.625 2.022-.84 2.532-.76l.1.017.094-.035c.214-.08.404-.149.577-.208.141-.049.271-.091.372-.12.143-.04.27-.087.391-.134l.11-.042.065-.099a.728.728 0 01.326-.283l.113-.072c.32-.303.562-1.334.562-2.4 0-2.205.533-2.849 3.254-5.154 1.774-1.508 3.842-2.924 4.608-3.158.524-.16.812-.182 1.102-.08l.232.002.115-.034.123-.036c.213-.063.426-.128.639-.195l.129-.041.073-.114c.166-.261.518-.374 1.036-.519a15.74 15.74 0 002.491-.98c.664-.348 2.034-.875 3.054-1.178 1.309-.387 1.771-.888 1.907-2.068.147-1.281.61-1.804 1.599-1.804.4 0 .536-.037.622-.076l.122-.056.059-.12c.127-.261.098-.817-.124-2.306-.234-1.561-.304-2.209-.062-2.563l.048-.064c.254-.295.748-.295 1.318-.295.814 0 1.372.238 1.807.772l.117.095a.831.831 0 01.093.056c.155.156.352.325.584.459.077-.146.17-.287.29-.42l.142-.157.207.04c.349.066.704-.169.992-.456.37-.37 1.086-.686 1.562-.688.722-.002 1.723-.93 2.679-2.482.941-1.521 1.604-3.239 1.771-4.595l.29-2.367 3.246-.294c1.883-.169 4.16-.795 5.076-1.395.87-.573 2.643-1.04 3.95-1.04 2.094 0 2.797-.372 4.428-2.341a9.743 9.743 0 001.156-1.734l.683-.838c-.04-.089-.098-.172-.134-.264l-.046-.117.033-.121c.234-.848.228-1.577-.021-2.106-.302-.642-.93-.939-1.771-.846-.097.011-.19.016-.284.016l-.238-.029c-.515-.205-1.104-.528-1.704-.935l-.173-.197c-.439-.584-.832-.901-1.34-1.078l-.143-.089a8.276 8.276 0 01-.403-.439c-.044.074-.082.155-.137.219l-.12.144z" /></svg>