<svg viewBox="0 0 600 500" xmlns="http://www.w3.org/2000/svg"><path d="M550.857 222.085c-.415-.321-.924-.55-1.27-.695-1.63-.68-2.039-1.187-2.187-2.711-.153-1.584-.792-2.44-2.851-3.818-1.636-1.095-2.519-2.227-2.519-2.735 0-.969-.646-2.091-1.498-2.61l-.087-.052-.048-.089a4.678 4.678 0 01-.209-.451c-.067.08-.128.163-.205.24l-.104.104-.147.005a.881.881 0 00-.613.263c-.402.401-1.249.631-2.323.631-1.729 0-3.71-.588-4.816-1.431-1.707-1.298-4.892-2.073-6.981-2.073-.826 0-1.466.116-1.9.345-.578.303-2.795.756-4.84.989-1.982.226-2.938.248-3.377.098l-.245-.083-.009-.259c-.026-.806-.595-1.655-1.521-2.271l-.124-.138c-.039-.074-.071-.163-.106-.244l-.497-.013a4.915 4.915 0 00-1.972-.427c-1.668 0-2.316.362-2.891 1.616-.524 1.161-1.053 1.428-2.819 1.428-2.962 0-6.214 2.665-6.214 5.091 0 .835-.394 1.867-.856 2.251-.471.392-.971 1.011-.971 1.388 0 .145.059.405.336.82l.085.127-.028.15c-.05.271-.146.487-.263.682.124.144.255.29.404.439l.142.089c.508.177.899.494 1.34 1.078l.173.197c.601.407 1.189.73 1.704.935l.238.029c.094 0 .188-.005.284-.016.843-.093 1.471.204 1.771.846.249.53.257 1.258.021 2.106l-.033.121.046.117c.036.091.094.175.134.264.104.23.206.459.348.682l1.854 1.734c1.097 1.017 1.762 2.281 1.777 3.383.017 1.151.309 1.6 1.116 1.715.732.106 1.861 1.211 2.57 2.517.958 1.761 1.247 2.075 2.732 2.075.34 0 .757-.019 1.155-.039.433-.021.743-.03 1.011-.03 1.804 0 2.395.456 4.354 2.581 1.837 1.993 2.44 2.959 2.163 4.412-.18.944.051 1.941.588 2.539.536.596 1.065 1.923 1.181 2.959.146 1.307.219 1.583 1.388 1.583.293 0 .655-.021 1.051-.043.473-.028.844-.051 1.15-.051.234 0 .529.012.741.107l.178.08.167-.099c.183-.107.3-.239.384-.374.041-.066.09-.132.104-.195a72.81 72.81 0 011.073-1.976c.548-.985 1.467-2.634.306-3.793-1.068-1.069.419-3.009.9-3.579.151-.182 1.43-1.731 1.688-2.782.335-.222 1.434-.761 3.306-1.26 6.496-1.731 12.794-5.5 14.649-8.765 1.149-2.025 1.825-3.644 1.373-4.965a2.399 2.399 0 00-.264-.529 5.965 5.965 0 01-1.057-.151l-.14-.069z" /></svg>