<svg viewBox="476.3708190917969 224.41603088378906 529.3187255859375 265.615966796875" xmlns="http://www.w3.org/2000/svg"><path d="M528.536 250.521l-.167.1-.178-.08c-.212-.095-.508-.107-.741-.107-.308 0-.679.022-1.15.051-.396.023-.758.042-1.051.042-1.169 0-1.24-.275-1.388-1.583-.114-1.036-.645-2.363-1.181-2.959-.537-.598-.768-1.595-.588-2.539.277-1.453-.326-2.419-2.163-4.412-1.96-2.125-2.551-2.581-4.354-2.581-.268 0-.578.009-1.012.03-.397.02-.814.039-1.154.039-1.485 0-1.774-.313-2.732-2.075-.709-1.306-1.838-2.411-2.571-2.517-.808-.115-1.1-.564-1.115-1.715-.017-1.102-.682-2.367-1.777-3.383l-1.854-1.734c-.142-.222-.242-.452-.348-.682l-.683.838a9.798 9.798 0 01-1.156 1.734c-1.631 1.969-2.334 2.341-4.428 2.341-1.309 0-3.08.467-3.95 1.04-.916.6-3.193 1.225-5.076 1.395l-3.246.294-.29 2.367c-.166 1.356-.828 3.074-1.771 4.595-.956 1.552-1.957 2.479-2.679 2.482-.478.002-1.192.318-1.562.688-.288.286-.645.522-.992.456l-.207-.04-.142.157c-.12.133-.213.274-.29.42-.06.11-.111.222-.146.338l-.023.159.05.122c.519 1.268 1.38 2.038 2.795 2.495 1.895.612 2.136 1.144 2.153 1.49.022.465-.419.882-1.392 1.312-.896.393-1.288 1.346-1.271 2.065.014.581.28 1.015.729 1.187.441.17 2.116.51 3.659.742.854.127 1.472.204 1.898.204.759 0 .92-.202 1.118-.954.227-.873 1.062-1.414 2.185-1.414a3.91 3.91 0 012.85 1.275c.626.691 1.131.98 2.631.98.527 0 1.202-.035 2.256-.117 2.21-.168 3.881-.396 4.262-.535.364-.186 2.045-.371 3.518-.46l3.186-.197.326 2.258c.267 1.856.426 1.998 2.428 2.165 1.729.143 2.673.659 3.607 1.975.876 1.229 1.863 1.768 3.777 2.055 1.852.277 3.272.992 4.477 2.249.945.987 1.898 1.661 2.348 1.753.496.009 1.174.462 1.511.869l.194.26.123.036c.281.081.508.121.692.121.008 0 .014-.003.021-.003a1.1 1.1 0 00.686-.231c.294-.237.409-.462.652-2.206.138-.984.28-2.279.403-3.644.248-2.734.629-5.817.848-6.872.243-1.151.391-1.846-.083-2.423-.023-.031-.059-.055-.087-.084-.085.13-.202.262-.385.368z" /></svg>