<svg viewBox="450 254 500 302" xmlns="http://www.w3.org/2000/svg"><mask id="mm"><rect x="-10000" y="-10000" width="30000" height="30000" fill="#fff" /><path d="M498.686 286.663l-.058-.097a2.955 2.955 0 00-.32-.418c-.538-.596-1.265-1.088-1.688-1.143l-.148-.053c-.401-.248-1.45-1.504-2.511-3.18-2.068-3.271-2.176-3.34-5.726-3.752-3.03-.352-3.589-.859-3.734-1.312-.188-.58-1.284-2.035-2.495-3.312-1.618-1.699-2.091-2.699-2.107-4.457-.02-1.782-.556-3.002-2.127-4.836-1.291-1.511-1.845-2.082-2.525-2.082-.384 0-.778.194-1.217.431-.604.323-.976.444-1.367.444-.48 0-.993-.18-2.03-.711-1.136-.584-2.7-1.561-3.488-2.174-.824-.643-2.138-1.166-2.925-1.166-.84 0-1.414-.367-2.217-2.373-.326-.824-.588-1.41-.886-1.791l-.062-.078-.015-.099c-.019-.118-.009-.22-.007-.325l-.123.037-.115.034-.232-.002c-.288-.101-.575-.08-1.102.08-.767.235-2.834 1.651-4.608 3.157-2.721 2.308-3.254 2.951-3.254 5.156 0 1.065-.241 2.098-.562 2.399l-.113.073a.736.736 0 00-.326.281l-.065.1-.11.042a4.138 4.138 0 01-.391.134 6.868 6.868 0 00-.372.12c-.036.146-.076.281-.101.452l-.02.137.075.116c.457.715.462 2.091.467 3.2.009 2.156.2 2.469 2.05 3.349 1.266.606 2.221 1.502 2.221 2.083 0 .459.499.768 1.242.768 2.005 0 3.021 1.188 3.021 3.535 0 2.316 1.315 5.02 3.275 6.725.765.662 1.582 1.671 1.604 2.312.098.431 1.037 1.789 2.385 3.235 2.175 2.333 2.477 3.02 2.477 5.646 0 .812-.033 1.379-.108 1.847l-.029.18.124.134a.996.996 0 00.545.287c.076.018.147.046.229.046.532 0 .94-.369 1.416-.798 1.33-1.203 3.03-.889 4.622.776 1.356 1.416 2.432 2.074 3.38 2.074.694 0 1.299-.356 1.665-.961.065-.058.403-.227.842-.227 1.06 0 2.062-.613 2.381-1.451.066-.13.806-.894 2.98-1.983 1.688-.847 3.396-1.438 4.153-1.438 1.596 0 2.952-.958 5.813-4.104 2.265-2.491 3.303-3.656 3.186-4.748a4.567 4.567 0 01-.766-.276l-.103-.043z" fill="#000" /></mask><rect x="-10000" y="-10000" width="30000" height="30000" fill="#fff" opacity="1" mask="url(#mm)" /></svg>