<svg viewBox="81 133 163 195" xmlns="http://www.w3.org/2000/svg"><defs><filter id="f1" x="0" y="0" width="130%" height="130%"><feOffset result="offOut" in="SourceAlpha" dx="1" dy="1" /><feGaussianBlur result="blurOut" in="offOut" stdDeviation="2" /><feBlend in="SourceGraphic" in2="blurOut" mode="normal" /></filter></defs><path d="M88.619 191.001l.17-.088a2.517 2.517 0 011.167-.262c.799 0 2.808-.855 4.386-1.867 1.569-1.006 3.166-1.583 4.382-1.583 1.159 0 1.851.557 1.851 1.489 0 .542.707.743 2.609.743 2.145 0 3.021-.32 4.259-1.558 1.115-1.116 1.395-1.371 1.744-1.264l.082.026-.008-.009-.013-.128a18.429 18.429 0 01-.051-.711l-.004-.079.027-.074c.152-.41.25-1.023.292-1.822.04-.761-.041-1.782-.396-2.157a.457.457 0 00-.211-.128l-.225-.057-.05-.227c-.04-.18-.081-.607.087-1.448.241-1.206.219-2.143-.67-2.793-.385-.283-.857-.784-.511-1.872.495-1.559 1.296-1.542 3.609-.216.826.473 1.606.723 2.256.723.672 0 1.019-.267 1.191-.49.182-.235.358-.667.168-1.392a2.549 2.549 0 01-.095-.517l-.003-.107.18-.251.098-.044c.305-.114.98-.138 1.901-.138 2.09 0 2.515.274 2.729 1.1.196.748.773 1.335 1.315 1.335.282 0 .487.115.586.223l.094.103.004.14c.013.494.855.752 1.68.752 1.161 0 1.366.227 1.373 1.517.002.627.022 1.152.062 1.604l.012.139-.082.113a2.618 2.618 0 01-.58.557c.006.038.009.084.016.122l.033.182.164.085c.566.294.685.893.685 1.344 0 .503.681.718 2.277.718 1.331 0 1.866.028 2.209.321.369.315.386.875.386 1.922 0 1.767.208 2.039 2.021 2.637 1.906.629 2.241 1.047 2.241 2.796 0 .903 0 1.356.552 1.708.604.385 1.88.688 4.197 1.24 1.808.43 3.183.8 4.019 1.208l.147.038c.092.004.182.008.266.008.079 0 .211-.001.366-.017.175-.017.382-.053.589-.132l.201-.094.039-.207a5.845 5.845 0 00-.574-3.786c-1.266-2.447-.939-3.935-.441-4.751.493-.81 1.648-1.775 4.353-1.775.147 0 .296.003.448.008 1.908.078 2.339-.147 2.488-.339l.055-.071.027-.201c0-1.363 3.063-3.557 4.966-3.557 2.143 0 4.777-2.591 4.777-4.7 0-.817.107-1.284.359-1.562l.099-.109-.001-.128a1.57 1.57 0 01-.637-.306l-.124-.102-.011-.16c-.118-1.652-.624-3.956-1.203-5.479-1.414-3.724-1.271-4.669-.989-5.077.153-.224.429-.334.842-.334.952 0 1.376-.482 1.376-1.563 0-.733.685-2.281 1.496-3.38.673-.911 1.311-1.947.942-2.72-.085-.18-.21-.33-.383-.46l-.096-.073-.036-.116a2.418 2.418 0 01-.106-.775l-.037-.015c-.408.185-.89.301-1.529.357a26.21 26.21 0 00-2.499-.222 39.845 39.845 0 00-1.846-.06c-1.773 0-2.013.375-2.296 1.533-.249 1.024-1.077 1.635-2.215 1.635-1.338 0-2.914-.882-3.336-2.568-.313-1.245-.844-1.625-2.269-1.625-.9 0-1.998-.412-2.398-.899-2.579-3.143-2.998-3.363-6.41-3.363-3.689 0-5.44-.838-8.514-4.077-1.91-2.012-2.12-2.101-5.549-1.673l-2.801.35-.324-.233.023-.273.233-.972c.231-.964.572-2.353.761-3.096.125-.494.169-.888-.028-1.208-.228-.369-.739-.544-1.491-.709-.94-.207-2.284-.596-2.934-.85-1.879-.735-5.547-1.874-6.039-1.874h-.115l-.017-.006-.081.107c-.135.177-.361.702-.361 2.229 0 2.318-.861 4.363-1.843 4.377-2.209.027-2.758 2.229-2.979 3.881-.296 2.207-.611 2.559-1.62 2.703-.064.008-.13.013-.204.013-.818 0-2.08-.543-3.14-1.352-1.157-.882-2.829-1.601-3.725-1.601-.824 0-1.989-.291-2.543-.634-.415-.259-.757-.316-1.175-.195l-.096.028-.097-.023a1.874 1.874 0 01-.573-.256 2.595 2.595 0 01-.208.715l-.117.145c-.43.319-.94.757-1.706 1.464-1.464 1.353-3.848 3.004-5.205 3.605-2.12.936-2.669 1.55-2.939 3.285-.098.625-.111 1.112-.043 1.53l.016.097-.034.093a6.967 6.967 0 01-.414.904c.13.275.296.552.512.844l.081.08c.376.274.826.729 1.42 1.343.975 1.008 1.983 2.445 1.983 3.105 0 .503.427 1.354.933 1.859.88.88.9 1.937.617 3.832-.245 1.617-.228 2.064-.117 2.291l.064.13.134.053c.068.027.199.063.536.063.697 0 1.981.942 2.864 2.102 1.434 1.879 1.565 2.217.695 3.892-1.11 2.139-1.085 2.432.374 4.483.748 1.05.95 1.5.802 1.787-.033.063-.119.232-.539.232-.934 0-3.833 2.549-3.926 3.536.035.289.405.653.823.813.372.143.592.337.655.578.058.223-.019.464-.23.719-.294.356-.741 1.754-.975 3.052-.094.521-.181.987-.271 1.401l.009.217.088.132c.131.167.298.301.486.409.026.015.047.034.073.047l.176.088z" stroke="#c00" stroke-width=".2" fill="transparent" filter="url(#f1)" /></svg>