<svg viewBox="461 242 527 287" xmlns="http://www.w3.org/2000/svg"><mask id="mm"><rect x="-10000" y="-10000" width="30000" height="30000" fill="#fff" /><path d="M525.787 265.492l-.123-.036-.194-.261c-.337-.406-1.015-.859-1.511-.868-.448-.091-1.401-.767-2.348-1.753-1.203-1.258-2.625-1.973-4.477-2.249-1.914-.287-2.901-.824-3.777-2.056-.936-1.313-1.88-1.83-3.607-1.974-2.002-.167-2.161-.31-2.428-2.165l-.326-2.258-3.186.197c-1.473.089-3.152.275-3.518.46-.381.141-2.052.366-4.262.536-1.054.08-1.729.115-2.256.115-1.5 0-2.004-.289-2.631-.979a3.903 3.903 0 00-2.85-1.276c-1.121 0-1.958.543-2.185 1.415-.198.751-.359.954-1.118.954-.428 0-1.044-.078-1.898-.204-1.543-.231-3.218-.571-3.659-.741-.449-.174-.717-.605-.729-1.188-.016-.72.375-1.672 1.271-2.065.973-.429 1.414-.846 1.392-1.312-.019-.346-.26-.878-2.153-1.49-1.415-.458-2.276-1.227-2.795-2.495l-.05-.122.023-.159c.034-.116.087-.228.146-.338a2.84 2.84 0 01-.584-.459s-.023-.019-.093-.056l-.117-.095c-.435-.534-.991-.772-1.807-.772-.57 0-1.064 0-1.318.295l-.048.064c-.24.354-.171 1.002.062 2.563.222 1.489.251 2.045.124 2.306l-.059.12-.122.056c-.086.04-.222.076-.622.076-.987 0-1.45.521-1.598 1.804-.137 1.18-.601 1.683-1.908 2.069-1.02.302-2.39.83-3.054 1.177-.643.335-1.783.784-2.491.981-.52.144-.87.256-1.036.518l-.073.113-.129.041c-.213.068-.426.133-.639.195-.002.105-.012.207.007.325l.015.099.062.078c.298.381.56.967.886 1.791.803 2.006 1.377 2.373 2.217 2.373.787 0 2.1.523 2.925 1.166.788.613 2.354 1.59 3.488 2.174 1.037.531 1.55.711 2.03.711.393 0 .763-.121 1.366-.444.438-.235.834-.431 1.218-.431.682 0 1.233.571 2.525 2.082 1.571 1.834 2.107 3.054 2.126 4.836.019 1.758.49 2.758 2.108 4.457 1.211 1.277 2.307 2.732 2.495 3.312.146.452.704.961 3.733 1.312 3.551.412 3.657.48 5.727 3.752 1.06 1.676 2.108 2.932 2.511 3.18l.148.053c.424.055 1.149.547 1.688 1.143.13.146.237.281.32.418l.058.097.103.049c.223.106.478.198.766.276.824.223 1.932.328 3.404.328 3.441 0 4.209-.178 5.271-2.231.522-1.009 1.432-3.752 2.024-6.116 1.353-5.386 2.311-6.264 6.834-6.264 3.161 0 4.624-.344 5.798-1.361.267-.229 1.6-1.431 1.612-2.304.041-.121.378-.638.93-1.136.433-.393 1.33-1.225 1.074-2.295-.008 0-.015.004-.021.004-.179.003-.407-.037-.687-.118z" fill="#000" /></mask><rect x="-10000" y="-10000" width="30000" height="30000" fill="#fff" opacity="1" mask="url(#mm)" /></svg>