<svg viewBox="0 0 600 500" xmlns="http://www.w3.org/2000/svg"><path d="M468.215 299.379l.029-.18c.075-.467.107-1.035.107-1.846 0-2.629-.301-3.314-2.476-5.647-1.348-1.446-2.287-2.806-2.385-3.235-.022-.642-.841-1.65-1.604-2.312-1.96-1.705-3.275-4.407-3.275-6.726 0-2.346-1.018-3.535-3.021-3.535-.743 0-1.242-.308-1.242-.767 0-.581-.955-1.478-2.221-2.083-1.85-.88-2.041-1.191-2.05-3.348-.005-1.11-.01-2.486-.467-3.201l-.075-.116.02-.137c.023-.171.063-.308.101-.452-.172.059-.363.128-.577.208l-.094.035-.1-.017c-.51-.08-1.242.135-2.532.76-1.521.732-2.809 1.121-3.724 1.121-.649 0-1.11-.189-1.37-.563-.507-.731-.179-2.032.187-2.997.589-1.555.514-1.971.383-2.158a.336.336 0 00-.289-.149c-.213 0-.624.139-1.735 1.338-.918.99-1.965 1.535-2.945 1.535-.948 0-1.77-.488-2.373-1.413-.354-.539-.651-.896-.912-1.088l-.117-.145c-.062-.129-.097-.268-.146-.399a1.851 1.851 0 01-.135.239l-.08.117-.137.035c-.577.148-.854 1.402-1.066 2.735-.409 2.569-1.062 2.989-4.655 2.989-2.162 0-3.918.845-4.816 2.317l-.088.101-.837.627-.027 2.187c0 1.108.236 2.062.465 2.343l.086.076c.434.281.666 1.064.666 1.661 0 .579.521 1.345 1.137 1.672 1.105.593 1.301 1.335 1.301 4.968 0 2.903-.151 4.344-1.015 4.674-.423.162-.812.692-.812 3.465 0 2.797.316 3.49 1.483 4.586.877.822 1.884 2.536 2.293 3.898l.676 2.263 3.006-.353c3.055-.361 3.376-.199 4.896 1.502.915 1.028 1.979 1.745 2.417 1.771.097 0 .267.023.333.19l.119.293.311-.067c.123-.027.241-.086.359-.139 1.355-.583 2.478-2.617 2.497-4.122.005-.297.556-1.256 1.437-1.933a79.962 79.962 0 003.816-3.179c1.103-.983 2.196-1.529 2.417-1.547 2.322 0 10.206 3.44 11.717 5.113.897.993 2.429 1.587 4.093 1.587a6.74 6.74 0 002.396-.433c.823-.316 1.161-1.041 1.326-1.701a1.003 1.003 0 01-.545-.287l-.131-.131z" /></svg>