<svg viewBox="107 173 125 189" xmlns="http://www.w3.org/2000/svg"><path d="M124.614 179.728l.082-.113-.012-.139c-.04-.452-.06-.977-.062-1.604-.007-1.29-.212-1.517-1.373-1.517-.825 0-1.667-.258-1.68-.752l-.004-.14-.094-.103c-.099-.108-.304-.223-.586-.223-.542 0-1.119-.587-1.315-1.335-.214-.825-.639-1.1-2.729-1.1-.921 0-1.596.023-1.901.138l-.098.044-.18.251.003.107c.004.116.035.285.095.517.19.725.014 1.157-.168 1.392-.172.224-.519.49-1.191.49-.65 0-1.43-.25-2.256-.723-2.313-1.326-3.114-1.342-3.609.216-.347 1.088.125 1.589.511 1.872.889.65.911 1.587.67 2.793-.168.84-.127 1.268-.087 1.448l.05.227.225.057a.452.452 0 01.211.128c.355.375.436 1.396.396 2.157-.041.799-.139 1.413-.292 1.822l-.027.074.004.079c.014.236.029.478.051.711l.013.128.008.009.08.084c.166.176.292.517.441.917.312.843.592 1.056 2.097 1.056.618 0 1.43-.042 2.216-.088a28.387 28.387 0 011.627-.049c1.173 0 2.616.073 2.833.424.18.287.802.473 1.585.473.843 0 1.675-.22 1.935-.513l.097-.108-.001-.145c-.013-1.355-.642-2.589-1.319-2.589-.484 0-1.294-.592-2.167-1.583-.639-.727-1.385-1.801-1.385-2.437 0-1.075.492-1.458.953-1.458.291 0 .602.136.925.406.575.477 1.159.443 2.445-.088.701-.291 1.311-.438 1.81-.438l.27.012.1-.062c.084-.052.149-.111.224-.166.23-.173.43-.354.579-.559z" fill="#000" opacity=".2" /></svg>