<svg id="Layer_1" data-name="Layer 1" xmlns="http://www.w3.org/2000/svg" viewBox="0 0 400 400"><defs><style>.cls-1{fill:#f7931e;}.cls-2{fill:#fff;}</style></defs><title>cssd</title><rect class="cls-1" width="400" height="400"/><g id="layer1"><g id="g3289"><g id="g3113"><path id="path3115" class="cls-2" d="M234.36,144a34.74,34.74,0,1,1-34.74-34.74A34.73,34.73,0,0,1,234.36,144"/></g><g id="g3117"><path id="path3119" class="cls-2" d="M225.34,178.18c-14.2,31.1-68.6,36.72-84.76-.27-21.31-48.76,23.91-80.55,49.83-80.73-39.87,8.43-46.93,42.92-32,67.82,17.17,28.64,52.34,23.93,66.92,13.18"/></g><g id="g3121"><path id="path3123" class="cls-2" d="M190,210.34c62.23-9.1,83-122-5.76-125.09C292,78.34,305.07,217.25,190,210.34"/></g><g id="g3125"><path id="path3127" class="cls-2" d="M101.11,201.83c-21.27-41,10.17-98.69,56.57-111.47-46.4,25.22-41.78,79-14.83,105.64,24.24,24,69.23,30.35,101.59,12.4-55.82,51.11-122.64,33.27-143.33-6.57"/></g><g id="g3129"><path id="path3131" class="cls-2" d="M100.85,225.21c46.41,37.66,111.76,27.76,145.27-6.73,32.29-33.21,54.14-83.39,11.44-131.48,67.25,66.58,38.67,131.15,18.83,154.35S173.49,313,100.85,225.21"/></g><g id="g3133"><path id="path3135" class="cls-2" d="M112.44,286.7c29.16,69.84,153.49,5.37,174.21,29.55-11.89-66.77-147.73-6.91-174.21-29.55"/></g></g></g></svg>