
<svg x="0px" y="0px" viewBox="0 0 5342 3123"
	 style="enable-background:new 0 0 5342 3123;" xml:space="preserve">
<style type="text/css">
	.st0{fill:none;stroke:#07070D;stroke-miterlimit:10;}
	.st1{fill:none;stroke:#000000;stroke-width:16;}
</style>
<path id="CZ010" class="st0" d="M2064.1,1212.1c35.5,43.3-29.2,25.4-35.2,58c-9.9,20.8,24.9,67-16.6,63.7
	c-38-34.1-97.8-0.6-129.8,29.2c-14.6,8.8-53.7-1.9-43,29.8c-0.8,2.3-78.1-0.9-53.7-21.3c36.1-29.4-44.4-35.3-14.6-62.3
	c-86.5-57.5-1.6-89.2-64.5-106.3c109.4-55.9,42.4,2.1,101.3-14.5c-3.4-61.1-16.3-11.7,117.4-63.7
	C1936.3,1101.5,2008.7,1185.2,2064.1,1212.1z"/>
<path id="CZ020" class="st0" d="M2245.5,1874.5c-32,10.1-24.9-40.6-50.5-53c-23.8,51-53.4-74.9-102.1-5.7
	c-3.3,109.4,17.3,7.8-71.8,101.3c-17.7-33.9-54.7,7.6-40.7-39c-28.5,30.7-64.9-14.9-94.2,6.6c-96.2-45.1,6-5-103.3,7.4
	c-94.8-91.6-61.1-13.2-127.9-5.6c-12.3,16.5-31.3-19.8-41.6,0c-68.7,36-7.8-106-98.9,10.4c-18.5-2.5-37.4,22.4-63.1,19.3
	c-41.5-18.6-19.5-33.8-58.2-10.5c-20.3-27.3-20.9-2.8-51.5,1.6c-18.9-1.4,15.4-24-13.4-47.2c-47.2,14.1,48.3-102-41.7-85.2
	c15.3-83.5-29.2-25.9,16-74.4c-6.2-6.3-44.5,14.7-30.3-19.2c50.6-71.8,61.6-2.3,76.5-38.8c77.6-81.2-34.3,51.6,43.9-180.8
	c-3.2-66.1,12.5-23.3-137.3-138.1c-35.9,26.2-149.1-47.7-91.1-38.8c14.6-29.2-83.6,3.8-97.7-9.3c-1.3-23.5,34.6-32.1,12-54.1
	c-20.8-8.4,7.4-47,29.6-29.4c15.3,2.6,9.6-22.9,17.3-25c67.9-136.3,51.8-12.9,146.4-117.1c-4.9-13.8,56.7,27.4,74.5-6.9
	c26,8.2,33.6-69.8,70.8-5.5c14.2,6.9,11.1-43.3,40.2-40.6c54.3-1,20.6-24.4,69.5-40.4c-5.4-26-1.7-40,23.9-43
	c77.8,27.3,150.9,18.7,223.7-7.2c32.5-8.4,59.7,38.1,41.4-86.5c6.3-26.1,31.8,21.7,42.3-0.2c-0.1-60.4,47.5,8.3,38.6-63.4
	c-3-12.9-7.9-51.9,22.1-18.4c12.8,6.7,6.2-32.8,26.9-5.6c48.6-4.1,14-29,46.7,27.9c28.3-11.2,98.1,16.4,128.8-92.3
	c60.7,22,31.9,24.3,104.9-46.9c-3.3-37.6,30.7-14.3,47.1-23.6c-0.1,8.9-13.4,36,9.9,20.6c40.8-27.9,28.9,40.8,73.2,33.4
	c24.9,26.9,13.6,41.3,56.9,54.6c-4.3,23.6-36.2,14.4-10.2,43.2c-4.5,15.9,38,84.9,11.5,100c-17.4,13.9-46.2,76,13.3,72.2
	c32.3-5.8,26.3,42.4,45.4,61.5c122.8,28,93.7-71.4,132.9,95.5c11.4,26.1-27.4,42.4-20.5,65.4c-9,24.6,16.1,10.4,52.4,32.8
	c4.7,16,4.8,37.7-24.5,30.6c28.2,71.4-33,42.5-1.6,65.2c-24.5,13.4-36.5,29.8,14.2,34.7c36.8,16.2,30.2,51.5,82.4,65.2
	c20.5,13.8-17.6,12.8,3.8,43.4c-36.5,49.8,6.6,78.2-76.2,112.1c-31.5,18.3,21.9,34.8-11.1,48c-43-13.7-1.6,32.7-144.8,46
	c-119.7,158.5,75.1,76.4-7,168.7c-76.2-14.3-5.8,59-84.9,7.3c-45.4,40.6-127.6-32.5-98.1,35.7
	C2259.7,1830.9,2257.1,1847.3,2245.5,1874.5z M2074.6,1227.9c-18.5-29.2-48-44.4-83.5-58.5c-6.1-25.5-37.7-48.1-79.7-46.3
	c-93.4,57.5-114.6,1.8-103.3,65.4c-36.1,19.3-31.7-33.2-48.3-6.9c-3.6,6.2-77.5,24.5-43.1,26.2c10.1-3.6,16-2.6,13.4,12.4
	c-2.2,38.7-3.5,62.6,41.3,89c-20,37.4,8.9,9.7,19.8,36.8c2,23.6-36,61.2,48.8,39.5c-6.9-29.9,14.7-3.8,52.2-27.4
	c13.6-23.3,83.2-58.6,112-27.5c64.9,22.9-5.8-56.5,38.8-77.6C2051.6,1247.6,2076.4,1250.5,2074.6,1227.9z"/>
<path id="CZ031" class="st0" d="M2245.4,1874.6c28.5,46.7-14.1,9.6-16.7,34.4c37,45.6,4.4,107.4-13.1,162.7
	c35.2,33.9,32.7,12.9,14.4,61.3c116.5,131,16.7,4.1,143.4,66.1c17.6,6.7-11.5,29.8,9.6,34.3c38.5-14.4,11.7,60,69,14.4
	c104.7,49.8,118.1-17.9,120.8,46.6c-25.2,139.2,230.7,38.9,163.4,93.9c69.2,60.6,40.1,21-4.6,58.1c-22.9,58.8-80.2,95.5-25.2,81.1
	c12.2,29.8-3.1,20.5,44.3,32.4c-9.4,38.6,18.7-0.3-7.9,49.1c-52.9,32.2,33.6,38.9-156.6-63.4c-29.4-8.1-34.5,14.9-69.8-14.3
	c-0.1,86.1-27.6,17.2-74.9,61.9c-37.9,2.5,0.8-46.2-29.8-63.7c-65.5,10.8-145.2-110-122.6,92c-1.8,159.3-56.6,105.4-3.4,180.3
	c-22.5,48.6-149.2-85.9-144.3,40.2c-53.9,63.7-81.3,32.7-67.1,154.9c-34.4,96.4-71.8-84.7-121.2,6.1c-94-49.8-82.3-87.9-93-15.3
	c-9.7,55.3-43.8,4.3-48.7,29.2c13,20.6-14.7,17.5-25.3,16.7c-4.7,15.2-10.2,24.6-29.6,18.3c-61.3-55.4-168.7-29.8-215.4-68.2
	c-4.6-9.9,8.3-23.1-14.1-20.9c-55.1-42.3,82.6-1.2-18.5-93.6c-28-12.4-58.5-8.5-73.2-48.3c-44.1-59.2-103.1-1.9-79.4-64.9
	c-23.6-37.2-39.4-54-57.9-101c-91.5,47.3-58.3-111.1-145.6-103.1c-30.7-112.7,63.1-81.4,42.5-124.5c-14-26.9-7.1-45-1.7-77.7
	c0.8-42.2,16.2,55.3,96.3-73.2c-50.2-64.6,39.8-34.4-9.1-78.2c-11.1-22.2,30.9-6.5,20.7-31.8c-14.7-41.2,23.7-3.8,47.8-82.8
	c5.5-31.7-38.4-4.4-6.8-96.5c-4.6-15.5-39.7-94.6,7.6-80.6c118.7-44.7,68.7,75.6,212.5-55.8c51.1-2.4-57.9,48,92.7,35.6
	c67.8-9.2,21.1-37.9,65.5-34.9c82.2,2.5,23.1,80.5,128.6,14.6c45,36.3,155,6.3,130.4,21.4c-16.9,25.7,22.4,4.5,50.8,32.7
	c7.8-28,30.9-46.6,66.6-52c-9.8-25.1-11.4-42.7,9.9-67.8c20.6-27.6,61,33.9,79.8,35.3c3.9-12.8,8.2-21.6,19.7-6
	C2215.6,1846.1,2214.9,1879.6,2245.4,1874.6z"/>
<path id="CZ032" class="st0" d="M989.2,1196.8c14.5-12.9,20.7,13,30.6,7.1c4.5-8.5,10.7-12.2,20,2.2c7.1,37.7,19.5-8.8,44.4,21.9
	c17.3,13.4-40.1,47.6-5.9,52.3c7.9-4.7,110.3-14.9,80.8,3.8c-41.7-6.7,25.3,38.5,67.4,47.9c22-25.7,101.3,34.9,112.8,61.5
	c119.3,17.2-3.9,134.2,34.2,228.8c-27.8,0.9-15.5,33.2-40.6,31.2c-12.6-33.5-100.8,51.7-47.1,48.2c44-7.3-8.9,12.5-3.7,24.5
	c33.9,14.7-10.8,27.3,9.1,51.9c80.1-7.7-8.9,33.4,50,108.9c-36.6,46.3,8.9,68-2.4,119.6c-3,5.9-20.9,17.9,1,57.4
	c41.3,44.2-57.7,65.7-37.8,115.2c-38.6,19.7-17.5,8.5-5.4,40.9c-66.6,43.2,22.9,37.8-22.6,68.5c-43.3,108.9-80.8,13.3-84.8,74.2
	c8.2,20-15.9,26.9,2.3,47.2c33.2,71.2-66.5,13.9-38.9,141.9c-54.8-20.7-24.9,39-46.2,27.3c-150.3-95.8,15.2-74.1-150.3-206.6
	c-158.7-24.2-49.8-45.2-121.1-95.1c-167.1-199.6-9.5-72-133.5-178.1c-15.6-7.2-72.1-30.5-63.2,5.3c-17.8-18.6-82.9-1.6-81.4-43.2
	c-68.9-151.3-89.7,9.2-101.7-205.1c-76.6,30.3-22.5-120.5-81.4-104c-2.4-15.8-7.3-18.1-4.4-40.3c18-61.1-27.6-15.3-87.5-106.1
	c-16.7-52.2,57.9-27.1,60.4-99.8c47.4-78.6,52.5-112.3,92.5-85c22.8,6.5,27.8-53.1,66.3,7.6c42.4-68.9,117.9-39.7,204.2-35.1
	c32.9-4.5,1.7-55.2,30.5-57c96.4-36.3,62.1-102.9,196.4-17.1c21.3-61-21.8-32.3,54.7-88.6C973.2,1224.3,971.3,1205.9,989.2,1196.8z"
	/>
<path id="CZ041_1_" class="st0" d="M989.2,1196.1c-45.2,44.9,47.3,17.8-50.6,69.9c3.3,133-46.7-37.9-130.5,27.4
	c-67.1,61.2-78.6,10-89.4,89.9c-25.8,38-142.6-40.4-195.1,25.8c-49.5,13.7,2.3,37-49.1-7.7c-30.9,13.5-69.6,33.3-76.6-12.3
	c-16.2-12.4-48.8-3.7-54.3-32.3c55.8-65.3-49.3-33.5-27.2-59.9c-96.2-49.8-84-83.1-127.2-76.7c23.3-60.1-52.6-30.5-52.9-90.7
	c50.4-120.8-87.6-113.9-62.6-159.3c41.3-23.5,21.5-10.7,14.8-41.5c10.2-26.6-59-36.1,50.8-20.2c27.5,51.4-20.1,40,53.4,63.7
	c20.7,25.8-28.8,4.5-9.7,26.3c59.3,15-7.2,108.5,60.7,71.3c13.1-18.8-18.3-70.5,21.4-67.3c-4.7-24.7-3.5-48.1,29-57.5
	c16.4-32.4,33.1-66.2,79.7-64c-23.8-75.4,150.3-91.7,160-61.3c3.6,24,60.9-89.2,87.6-35.7c34.7-57.3,120.3,82.7,199.6,62.3
	c92,24.5-68.9,38.9,113.3,44.9c38.6,34.4-34.6,68.7,35.5,197.4c13.1,24.2,4.6,41.2,5.9,59.5C893.3,1137.3,986.6,1164.8,989.2,1196.1
	z"/>
<path id="CZ042" class="st0" d="M2040,216.1c17.1-1-28,126.7-61.2,114.6c-17.7,5.7,9.4,45.4-29.4,48c-42.5-10.4-63.1-53.6-63,26.2
	c-15.1,1.6-34.3,30.6-18.3,47.6c-62.4,23.9-15,10.8-66.2,84.8c-3.1,17.1,10.4-12.7,28.6,69.3c13.6,28.1,39.2,77.6,76,108.7
	c-24.4,13,7.2,75.8-19.7,74.4c-41.1-7.6-14.5,64.6-55.6,23.5c-5.7-1.8-11.9-3.7-15,6.5c6,14.9,16.2,114.1-24.7,83.8
	c-32-6.5-51,24.6-77.2,26.2c-49.8-21.4-23.6,4.8-115.5-0.2c-19.8-11-74.9-32.7-75.4,10c17,18.8-44.6,59.7-81,61.4
	c-16.8,5.5-12.3,55.6-32.6,27c-23.8-65.1-62.3,78-130.7,13.7c-6.7,4.5-3,2.9-9.9,13.7c-65.8,71.4-131.6,14.8-134.9,108.2
	c-33,62-39.7-10.8-64.3,52.5c-47.8,22-9.3-31.9-59.1-12c3.9-24.3-22.1,5.8-20.8-14.9c0.3-26.3-76.8-21.3-35.4-48.6
	c69,31-34.6-111.8-14-177.5c16.2-111.2-11.7-55-98.4-82.4c39.2-59.5-92.8-10.2-116.3-69.3c19.3,4.2,31.9-2,42.3-25.2
	c62.9-38.6-30.7-94.6,83.6-75.1c20-30.2,28.4-7.4,62.2-0.9c26.6,5.3,34.6-125,69.4-103.8c32.3,39.3,31.5,15.5,49-13.9
	c36-12.1,24-29.4,30.5-49.9c34,20.7,52.7,89.7,90.4,26.5c15.2-17.5,48.7-61.5,34.8-75.5c-26.2-38.8,48.2-16.3,68.3-28.1
	c10.5-22.4,22-23.5,44.7-3.9c41.6-3.6,58.9-26.3,114-6.1c32,2.6,12.6-30.9,36.5-16.4c39,5.2-30.7-64.1,46-59.7
	c39.9-64.3,44.3,0.6,92.9-21.6c43.1-33.6,114.3-34.3,149.7-93c17.1-12.4,25.8,20.5,68.6-1.2c121.9-85.1-81.8-38.1-14.5-107.5
	c-13.9-8.1-33.1,19-52.3-2.4c-3.1-22.9,27.5-123.7,61.7-65.4c31.7-16.3,23.3-1.2,42.9,20c45.1,5.1,15.5-29.4,71-3.5
	c6.7-51.4,8.5-13.2,14.4,5.4c25.8,24,70.9,27.4,64.5,68.1C1958.7,264.6,1977.6,230.7,2040,216.1z"/>
<path id="CZ051" class="st0" d="M2413.8,705.8c-46.3-6.2-28.5-54.6-81.8-57.9c-34-76.7-49.3-5.8-63.3-33.5c7-26.4,6-14-14.4-10.6
	c-7.6-14.8-13.6-10.2-25,4.1c-11.3,50-27.3,7.7-50.5,66.6c-12.3,29.8-43.5-21.1-66.1-0.9c30.2,46.5-121,121.4-131.6,67.5
	c1.7-41.7-7.3,4.6-51.6-15.9c-4,16.9-14.1,15.2-24.9-1.7c11.1-22.7-13.2,23.7-102.6-186.2c24.4-29.1,19.7-76.1,66.2-84.8
	c-25.7-47.4,39.3-28.6,17.5-91.6c151.1,33.3,20.4,6.9,137.9-51.4c250.2,115.3,24-71.3,254.6-10.7c36.2-7.8,17,17.6,36-136
	c-68.5-21.3-5.6-67.6,69.9-34.1c-10.7,16.3,0.7,23.8,18,16.3c51.2-64,22.1,5,49.1,15.7c16.9,1,17.7-59.8,74.2,34.7
	c-65.4,95.2,62.8,107.9,62.8,154.8c3.1,4.2-21.2,43.5,9.7,51.6c53.3-74.4,94.8,1.3,141.7,43.1c6.4,23.8-24.5,2.2,7.2,134.8
	c4.4,4.6,21.3,19.1,5.8,29.7c-42,28.5,80.9,98,7.4,98.4c-57.7,1.2-31.9,20.8-96.4-26c-53.9,58.3,22.2,52.8-54.6,75.9
	c-17.6,0.5,12.5-28.6-71.5-40.1C2474.1,668.3,2521.3,792.6,2413.8,705.8z"/>
<path id="CZ052" class="st0" d="M3498.4,1113.2c66.1,87.2-57.6-15.1-60.9,20.2c17.3,30.9-155.3,82.7-110.5,132.4
	c-5.1,24.8-30.6-20.1-39,0.3c-60.6-4.7-45.3,16.3-68.2,6.5c-29.4-33.6-56-31.9-94-58.8c-4.5-41.5-36.8-1.3-47.9-34.6
	c11.8-38-43.1-47.2-68.3-53.2c-30.1,16.2-33.5,28.6-67.3,39.6c-41.9-12-9.9-21.7-24.2-38.9c-48.8-20.3-30.5,34.5-70.9,37.3
	c-36.6,29.4-14.8-8.4-95.1,2.9c-4.2-35.7-60.1,24.1-80.4,38.7c-51.1,20.7-12.8-17.5-41.7-33.3c-4.2-12.8-60.9-4.3-43.5-28.7
	c26.6-75,18.4-19.9,8-115.1c0.1-77.8-12.1-31-120.5-45.7c-47.6-119.9-44.6-10.6-86.9-95.7c-10.7-19.6,73-27.8,20.9-93.9
	c11.6-14.7-35.8-94.1,16.7-75.9c116.8,66.7,6-36.9,138.3,3.1c51.5,15.3,19.6,57.2,83.4,22.7c-7.5-32.7-17-23,25.4-62
	c29,10.5,1.1,43.9,70.3,26.3c96.7,5.9-6.7-15.1,10.5-122.1c-14.1-6.6-26.5-86.8-13.1-140.2c-6.4-7.6-47.5-37.3-20.6-44.5
	c45.2-1.5,82.9,26,122.4,47.6c98.5,4.3,69.4-83,118.7,75.7c38.2,23.8,84-89.5,118.8,49.9c-2.5,9.9-41.3,13.7-15.1,27
	c57.1,45.7,44.1-137.6,140.8-29.8c29.8,8.6,18.6-27.2,38.2-43.1c116.4,1.1,72.9,17.6,145.5,73.4c45,49.5-34.1,19-8.8,59.3
	c-15.1,41.7-33,77.1-76.1,62.7c2.5,28.7-46.5,35-61.8,47.3c26,85-21.4-22.9-20.9,34.9c6.8,7.8,9.2,25.5,13.4,30.7
	c65.9,0-3.5,59.9,102.4,32.9c30.1-3.9-15.9,77.3,60.9,65C3431.1,1001.2,3514.6,1029.7,3498.4,1113.2z"/>
<path id="CZ053" class="st0" d="M2638.3,1198.6c27.7,42.9,55.1-33.3,109.9-44.2c-2.5,9.8,69.3,23.6,91.5,14.8
	c51.1-12.1,19.3-29.8,44.6-38.8c73.9-37.6-9.6,95.1,125.2-4.4c56.4,14.3,55.1,6.9,78.5,66.9c35,0.5,4.3-5.7,131.7,79.6
	c17.1,16.2,14.5-22.5,106.1-2.1c-22.8-81.2,110-92.8,111.4-129.4c7.1-44.2,27.1,9.8,88.6,8.2c25.5,26.6,28.2,38.9,75.3,44.6
	c45.6,12.3,156.7-235.7,121-74.8c-41.3,67.4,0.8,190.4-93.2,194.1c-4.7,6.1-9.4,6.7-1,19.9c25.7,40.7,15,94.7,38.9,136.5
	c-17.2,7.2-31.5,28.2-18.3,51.5c26.8,45,53.4,71.3,50.7,118.5c26.1-8.6,62.7,17.3,2,92c-7.3,28.2,22.9,7.5,0,46.6
	c-0.5,54.2-43.2-34.9-160.7-11.7c-52.7-20.8-23.1,13.9-54.3,40.9c-40.3-0.8-72.5-21.3-99.2,17.6c-30.1-35.2-14.8-27.3-89.1-55.9
	c-18.8-17.3-18.8-43.9-58.6-48.4c-33.1-23.6-77.3-6.5-97.7-47.7c-60.5-6.1-64.5-41.9-77.7-20.9c-14.7,0-10.2,84.4-64.9,34.3
	c-48.6-12.4-35.8-12.3-27.9-52.7c-20.6,15.8-22.1-13.5-47.5-17.4c-8.9-3.2-27.5,9.8-23.5-14c15.2-25.6-12.1,7.2-44.3-28.6
	c-46.5-47.2-71.7,19-150.6-67c-36.5-13.7-4.9-40.5,9.3-128.5c-98.4-43.8,6-24.6-119.9-81.4c-21.5-24.9,40.1-13,6.3-31.7
	c24.5-15.1,21.9-32.9,13.2-58.1C2619.3,1198.8,2640.3,1221.2,2638.3,1198.6z"/>
<path id="CZ063" class="st0" d="M3386.4,1870.1c65.1,27.7-67.1,63.3-12.4,66.8c0.6,238.3,26.4,92.8-95,236.6
	c56.1,70.5-5.7,5.8-12.4,81.8c33.7,23.9,49.6,31.6-3.7,58.3c-0.9,6.3,2.1,45.7,14.3,32.5c20.1-13.6,29.8,39.4-20.9,57
	c19,44-97.2,8.8-58.5,57.5c-5,2.5-1.4,5.5-28.2,12c-12.6-5.3-13,15.2-24.6-0.7c-45.7-32.3-47.1,54.1-91.9-14.1
	c-23.5-14.4-24.3,42-52.9,17.8c-30.5,3.7,27.8,25.5-68.4,40c-2.9,20.7-18.2,24.9-38.1,32.2c-6.2,14.5-15.8,41.9-31.7,18.1
	c-66.4-24.1-22.1,61-90.1,10.1c-26.3-5.4-3,13.4-23.9,2.4c13.6-45.3-31.9,3.6-41.8-50.6c-11-0.1-34.6,11.9-17.6-12.2
	c22.7-22.9,31.1-36.7,38.5-67.5c40.2-30.9,83.5-10.4,12.6-55.3c39.8-82.1-181.8,76.2-171.5-127.3c-122.8,18.8-29.9-9.6-123.9-14.4
	c-32.9,34.7-22-9.9-71.2-25.5c8.5-16.1,6.1-32.9-19.9-27.3c-77.3-71.3-14.3,68.1-123.4-65.2c-4.5-5.6-3-8.1,5.5-17.3
	c39.5-62-56,31.2,10-140.9c3.7-67.7-39.6-78.9,7.6-74.4c4.7-30.8-17.5-63.8,40.3-70.2c-33.6-60.1,22.1-4.6,79.5-21.1
	c13.2-12.7,32.8-10.4,53.4,13.2c19.2-24.6-7.6-38.6,47.4-32.2c83.8-58.3-81.4-44.6-22.5-123.2c49.5-23.3-35.1-43.4,120.8-60.3
	c12.4-28.6,50.9-24,65-45c-32.2-40.3,23.8-37,52.4-63.3c109.5,84.7,51.4,39.9,154.6,65.5c28.3,11,6.9,26.2,61.6,28.7
	c-2.9,6.6-11,16.6-0.1,25.7c17.2-5.6,91.5,22.6,55.4,39.3c97.1,118.2,89.8-44.9,121.4-7.9c9.5,38.2,53.5-8.8,73.8,49.7
	c18.5-4,95.2,5.5,152.9,77.4C3430.4,1794.5,3349.9,1870,3386.4,1870.1z"/>
<path id="CZ064" class="st0" d="M4378,2654.5c-133.8,117.8-103-14.5-161.8,25.5c-14.5,23-24.1,27.8-53.9,30.5
	c-72.5-41.2-149.3-129.4-205.3,18.3c-97,99.8-114.7,290.6-138.3,208.8c-17.6-190.4-15.3-34-170.3-117.3
	c-14.3,4.2-29.6,17.2-26.6-11.1c8-69.3-50.3-22.8-96.5-60.7c-138.4-14.3-58.3,14.7-109.7,49.6c-34.1,61.1-25.3,20.8-157.3,28.2
	c-84.3,4.6-226.6-46.4-204.4-94.8c-30.8,0.4-50.6-40.9-86.6-41.5c-14.6-51.9-67.2,16.5-122.9,5.4c-69.3-83.1-181.8-24.2-75.3-117.7
	c89.6,50.4,11.3-48.7,109.2-3.1c97.6-121,99.5-28.5,116.6-99.9c18.7,4.4,25.6,16.5,37.3-12.6c33-23.2,25.6,35.7,64.9,20.4
	c32-47.4,24.2,15.8,96.4-19c-15.1-64.6,64-6.2,68.4-66.2c90.5-39.9-40.7-57.5,13.3-92.5c63.7-23.2-29.7-36.4-3.1-70.9
	c-1.6-24.9,55.5-20.5,22.6-41.8c-30.1-10.3-9.1-21.3,32.5-72.8c27.6-25,46.8-4.4,47-48.5c-18-162.3,30.9-94-14.9-145.1
	c108.8-63.2-19.1-36.2,24.1-94c19.3-54.5,67-11.6,114.5-32.7c-4.6-58.9,50.6-31.5,88.6-32.4c0.9-17,106.8,15.3,113.4,47.7
	c-7.9,20.8-38.3-19.7-42.1,8.7c4.9,53.6-27,17.2,53.8,50.5c-59.5,54.4,45.8,113.5-9.2,123.5c-22.2,21.4,93.5,94.4,76.2-29
	c14-22.6-74.1-22.1,6.7-58.2c68.9,2.5,64.7,148.1,116.5,115.7c16.1,27.2-47.1,47.7,38.8,67.3c13.9-2.8,68.1,74.3,28.1,103.8
	c7.9,41,1.8,105.2,52.4,87.9c-8,92-33-2.5-63.5,119.7c43.9,31.4,78.5-87.5,90.4,46c21.1-15.8,31.6,16.3,45.2,23.1
	c20.2-1.4,62.6-8.4,53.6,29c-1.8,11.5,20.8,11.1,67,39.4c25.8-15.3,94.8-21.4,84.1,35.3C4347.8,2588.3,4341,2590,4378,2654.5z"/>
<path id="CZ071" class="st0" d="M3697.5,1795.5c13.3-24.5,6.4-39.5,4.6-70.7c30.4-32.4,60.7-83.2-9.8-90.1
	c24.4-32-4.2-34.2-48.8-124.8c-1.6-75.6,56.5,34.9-20-184.4c124-78.8,23.5-21.3,111.2-239.5c4.8-20.6,23.4-54.6,63.8-40.7
	c12.8-0.6,8.1-37.6,22-23.9c6.6,27.9,33.3,48.5,30.3,5.1c-36.5-35.1,45.9-54.3-63.7-95.2c-37.1-81.4,0.5-60.5-63.1-105.9
	c17.8-61.9,39.3-57.9,87.6-16.6c53.5-13.5,115,57.6,166.6,31.4c72.5,166.2,142.6-7.7,115.8,129.1c22.8,40.3,7.5-44,65.6,11.9
	c2.3,138.1-21.9,16.2-55.6,98.5c-36-0.8-47.1,16.5-80.6,56.4c-12.6,192.1-10.5,36.9-59.7,196.7c46.7,31.7,41.3,11.8-5.8,109.8
	c2.6,23.9,32.1,62.1,61.6,23.8c-19.3,84.5-12.6,21.1,76.5,72.7c18.5-19.4,31.1-16.9,54.3,10.9c35.4,62.5,3.6,25,60.7,37
	c53.6,39.8,24.9-3.5,59-4.7c64.3,56.9,21,0.9,94.6,17c16.6,25.4,23.8-5.4,18.9,22.6c-20.6,27.7,12.2,96.8,39.4,52.2
	c24.9,49.3,50.1,48.4,85.6,99.9c40.4,44.8-27.4,6.9,13.2,48.2c23.7-52.7,54.5,15.3,28.4,44.1c-31.9,11.5-46.5-48.5-46.4,7.1
	c-60.9,23.8-23.2,140.8-116.7,57.5c-28.2-0.7,15.1,31.8-35.4,15.3c3.5,99.2-10,40.4-94,61.5c-1.9-14.4-13.8,82.2-33.9,39.8
	c-48.1-33.9-88.7,6.6-72.4-31.3c11.7-43.1-61.9,12.1-16.2,55.5c-11.3,19.1-29.6,26.5-37.6,50.6c-20.7,38.2-76.6-13.4-104.4,51.8
	c-45.2-61.1,16.8-43.2-98.5-106.1c5.7-5.1,13.8-64.8-2-41.4c-16,62.2-58.9-179-136.3-100.1c-25.7,13.5,39.3,21,28.7,69.4
	c-30.1,87.4-100.3,16.1-76-2.2c49.5,1.2-62-58.4,8-121.5c2.3-9.2-37.9,0-62.9-21.4C3662.6,1767.9,3696.4,1859.5,3697.5,1795.5z"/>
<path id="CZ072" class="st0" d="M4949,1990.5c34.7,129.5-217.5,85.2-191.3,207.1c-1.7,39.4-16.7,73-29.1,108.6
	c31.5,200.1-159.2,88.9-147.2,168.2c-23.5,177.8-35,25.6-120.6,121.5c-117.5,140.1-58.8-3.4-162.7-18.8c2.8-61.9-10.9-12.9-35-54.5
	c2.8-11.7-53.3,52-82.1-8.1c-29.4,0.3-33.1,8.7-34.3-33.8c-14.6-13.5-45.2-0.9-61.9-12c3.3-29.3-39.3-10.9-47-23.6
	c34.7-123.5-81.4,2.9-79.5-52.6c34.9-91.9,30.1-29.7,60.1-80.8c9.3-96.8-29.4,72.2-49.6-115.1c34.3-37,43.2-70.1,112.2-57.6
	c86.7-94.1,37.7-50.7,37.3-109.1c10.1-10.4,10.4-27.4,31.6-29.1c3.9,63-10.3,17.8,54.4,36.6c39.7,28,22.7,27.9,53.4-11.7
	c-25.7-56.1,140.8,29,88.2-74.6c7.2-8.6,12.7-4.7,28.9,1.8c13.3-74.7,68.9,95.5,95.9-55.9c67.1-29-1.3-63.2,74.4-29.8
	c40.6-58.1,42.6-43.6,92.5,2.1c103.3-59.4,111.7,28.9,220.5,8c16.3,59.1,31.2,34.5,51.7,64.7
	C4935.1,1970.1,4888.6,1958.3,4949,1990.5z"/>
<path id="CZ080" class="st0" d="M4562.6,1832.7c-38.4-83.8-30.8,25.4-54.9-28.9c40.1-18.6-48.4-67.6-89-131.2
	c-39.8,61.7-39-53.3-38.3-62.7c-102.1-36.8-21.2,27-123.1-25.1c-23.8,52.3-25.4-19.5-86.5,4.2c-12.5,1.6,0.8-24-26.8-45
	c-20.5-31.3-20.4,7.7-134.4-35.2c-3.1-10.2,17.6-47.3,5.6-41.3c-37.5,36.9-30.8,16.5-57.3-24.6c13.3-17.9,24.3-16.4,10.5-38.9
	c67.1-66.4-10.2-52.6-2.8-79c8.4-81.5,66.8-50.8,45.5-133.3c30.5-46.9-1-40.8,22.1-65.6c60.1-85.6,64-10.8,92.5-84.1
	c10.9,15.6,40.7,15.7,31.1-14.5c5-105,186-1.8,196.2-111.5c-1.1-15.4,12.7-17.3,27.9-3.8c48.8,39.5,6.6,22.6,6.6,73.4
	c31.2,32.7,36.6,5.8,26.6,58c-152.9,80.1-141.5,29-78.6,115.4c14.7,23.6,25.8-16.4,40.5-4.3c54,58.3,58.7,112.6,120.9,153.3
	c33.2,25.5,62.9-26.2,99.4-39.5c7.8-15.1,45.2,18.4,42.4-12.7c-2.5-27.2-9.6-10.7-27.4-10.1c-10.6-18-2.8-43,22.1-41.4
	c60.2,16.5,42.1,121.7,116.1,71c59.7,13.7-23.6,32.2,68.5,36.3c20.9,9.6-8.1,39.6,20.2,49.2c36.2,2.7,43,2.4,27.6-26.3
	c29.4,14,61.3-4.5,81.7,22c112.8,73.2,48.7-47.8,103.7,12.5c-15.1,65.6,28.6,41,19.1,58.1c-44.3,53.2-1.9,45.2,7.3,92
	c36.1,76.9,5.7,83.9,82.4,87.4c29,60,37.9,1.7,79.7,29.8c15.2,148.9,110.6,158.8-42.1,223.5c-80.9-42.7-62.8,18.7-118.7-15.4
	c-70.3,25.1,5.4,7.4-75.4,114.4c-28.7,52.6-81.8,31-96.1-19.9c-16.9-20.2-44.7-18.6-45.9-55.8c-16.2-34.4-35.6,41.2-109.1-31.3
	c-37.3-6.6-91.7,14.9-130.5,11.8C4621.6,1828.9,4601.7,1831.3,4562.6,1832.7z"/>
<path id="Czechia_1_" sodipodi:nodetypes="csssssssssssssssssssssssssssssssssssssssssssssssssssssssssssssssssssssssssssssssssssssssssssssssssssssssssccssssssssssssssssssssssssssssssssssssssssssssssssssssssssssssssssssssssssssssssssssssssssssssssssssssssssssssssssssssssssssssssssssssssssssssssssssssssssssssssssssssssssssssssssssssssssssssssssssssssssssssssssssssssssssssssssssssssssssssssssssssssssssssssssssssssssssssssssssssssssssssssssssssssssssssssssssssssssssssssssssssssssssssssssssssssssssssssssssssssssssssssssssssssssssssssssssssssssssssssssssssssscssssssssssssssssssssssssssssssssssssssssssssssssssssssssssssssssssssssssssssssssssssssssssssssssssssssssssssssssssssssssssssssssssssssssssc" class="st1" d="
	M1778.7,68c-93.7,141.5,15.8,71.5,16.9,94c-49.3,35.2,26.1,36.9,53,49.5c-8.4,65.6-55.6,60.6-108.2,53.4
	c-36.3,45.7-156.4,115.8-212.2,85.2c-42.4,16-7.1,32.8-64.2,32.5c-13.9,13.7,18,69.9-22.5,52.1c-34,48.1-29.8-9.6-140.3,27
	c-42-39.9-40.1,26.4-81,5.8c-71.6,1.6-12.9,30.6-32,52.7c-86.5,148-86.9,28.3-128.7,24.1c6.4,20.3-0.7,38.1-27.1,48.3
	c-40.6,94-43-49.4-83.2,47.4c-38.4,128.5-53.4,35-87.8,60c-16.1,39.4-53.9-13.1-68.5,11.8c-5.5,70.5,0.3,48.2-40.3,97.7
	C720.8,842.6,622.7,714.9,624,787c-14.2-45.5-74.3,14.1-85.5,37c-38.3-47-184-4.7-167.3,60c-35.6-3.3-70.4,23.2-71.9,58.2
	c-23.5,9.7-45.3,23.4-34.3,56.1c-23.9,13.1-18.7,36.9-21.3,71.6c-38.1,35-39.6-24-33.1-42.9c6-20.6-60.7-37.1-14-41.3
	c1.5-6.6-0.2-10-11-19c-87.2-8,18.8-81.4-111-60.9c17.5,9.4,37.5,56.2,4.7,59.9c-55.6,40.1,114.2,41.7,56.9,163.8
	c-0.1,14.2,0.2,28.1,21.2,34.7c77.8,41.4,2.2,47,40.9,57.7c44.1-2.7,48.1,48.1,93.7,62.6c56.1,43.6,25.4,2.9,68.2,40.8
	c-46.2,95.6,94.4,24.7,19.2,113.4c-66.4,105.8-26.7,86.4-59.9,117.6c-87.1,30.4-4.7,104.2,48.1,117.4c20.5,10.5-24.3,88.5,26.4,77.4
	c10.1,9,1.3,11,5.6,25.7c41.5,195.9,52.8-34.8,67.9,181.6c-7.1,36.5,81.2,35.2,76.6,80.6c12.7,65.6,42.8,43.8,95.4,62.5
	c-6.2-54.4,96.9,27,114.8,42.1c-3.9,83.8-0.1-6.3,72.5,128.3c70.9,46.5,8.5,47.7,47.5,77.5c72.9,56.2,38.2-34.7,138.2,76.1
	c71,90.6-39.7,77.3,102.5,155.7c4-34.3,3.7-40.2,71-24.6c0.1,13.9,7.7,30.7,26.1,17c5.8,12.6,6.9,55.3,31.3,77.5
	c11.4,26.4,40.8,4,58.9,8.2c5.2,47.6,67.6,77.9,47.2,124.4c68.7,16.1,67,12.8,106.4,65.3c25,8.3,147.6,78.7,67.5,85.2
	c-21.9,22.1,10.9,28.3,17.7,36.4c-14,51.5,138.6,17.4,224.5,85.3c24.4-18.6,46-17.9,50.7-46.8c71.3,32.5,24.4-86.1,66.6-54.7
	c87,81.6,81.3,11.2,111.8,20.9c23.2,30.6,84,93,75.4,0.8c-3.7-147.1,75.1-61.4,78-183.2c7.3-29.3,108.2,30.9,133,15.8
	c21-35.7-33.6-6.5-14.3-70.8c47.5-52.3-17.4-253.6,58.3-233.9c70.4,20.4-19.4,21.8,92.4,29.8c23.9,103.9,2.2,45.5,93.2,38.2
	c14-21.3-1.4-65.8,23.2-26.1c27.6,20.6,17.3-36.3,96.8,32.8c22.1,14.3,50.6-8.5,76.3,46.4c85.9,30.3,75.9,30.4,150.1,68.8
	c38.4,16.5,80.5-48.6,110.9-14.4c-19.8,24.7,26.2,0.2,25.8,15.7c19.7,29.7,35.3,25.4,63.1,37.9c-43.3,78.9,307.4,121,346.3,87.7
	c65.3-88,5.8-71.5,96.2-72.2c13-28.4,40.2,23.7,82.7,19.1c59.7-10.9,30.7,50.5,45.4,61.3c76.4-26.7,27.3,24.6,109.7,20.5
	c133.9-60.9,36.6,140.5,108.7,98.9c72.9-238.6,62-115.1,114.4-235.4c69.9-134,131.4-31.5,210.5-4.1c40.7,8.5,44.6-65.1,85.1-25.4
	c58,64.9,90.3-38,166-39c28.5-16.2,50.9-84.7,86.1-81.2c76.9,7.8,51.2-1.4,73.1-80.9c-9.6-66.1,60.2-28.5,101.4-49.5
	c52.2-25.7,54.4-86.7,47-140.4c41.6-40.2,7-197.9,99.4-182.1c53.3-18.2,143.7-52,122.7-124.7c34.4-0.4,29.2,3.7,52-27.1
	c90.5-121.6-0.4-52.9,56.7-107.5c50.7-25.3,8.2,26.5,93.4-8.5c33.3,20.6,62.3,15.9,97.6-13.5c78.7-0.3-17.2-126.8-9.3-187.7
	c-16.3-31.4-38.6,2.6-63.7-9.8c-30.1-40.3-27.9-19.4-67.8-32.4c-57.6-145.4-76.5-132.2-37-175.2c-54.7-23,8.8-57.2-44.9-71.3
	c-42.2,72.3-47.9-19.1-164.8-16c21.4,24.9-3.3,30.9-34.5,18.8c-12-20,7.6-52.7-35.3-47.1c-11.7,0.8-26.2,1.8-21.7-14.4
	c-50-76.1-14.7,86.7-123.9-83.2c-21.7-23.6-52.5,9-36.9,34.7c13.4-2.8,35.6-8.3,26.1,21.7c-133.5-2.7-78.4,163.9-261.4-112.7
	c-13.4-15-28.1,31.1-43.6-2.1c-89.1-97.7-18-23.1,83.9-120.1c9-75.3-49.4,11.2-15.9-104.4c-72.6-49.5-18-15.1-83.6,45
	c-111.7,4.1-58.7-17-155.3,20.1c-35.6-92.4-79.3,65.9-62.3-77.5c-95.3,1.2-80.3-6.7-128.3-74.9c-45.3,24.1-57.3-22.7-104.2-18.4
	c-23.5-30.6-48.2-1.1-74.9-29c-45.5-43.2-82.7,26.1-57,42.9c49.2,16.8,27.2,73.2,63.6,102.6c81.2,21.4,26.9,51,53.3,102.2
	c-13,31.3-22.7-4.8-33.2-23.8c-36.6,54.2-16.2,9.5-61.5,30.8c-18.3,10-3.6,46.8-37.1,16.6c-39-6-83,245.9-210.8,61.5
	c-45.9-57.9,49-21.8-79.1-145.3c-64.6-110.2-44.8,24.7-93.4-111.8c-28.3-6.3-38.4,16.9-58.5,6.5c0.6-35.8-89.4-56.7-45.8-88.2
	c43,45.2-15.3-15.6,38.7-37.3c47.8,6.7,20.7-30.1,41.5-29.4c65.7,27.9,45-84,91.2-95.1c-120.1-151.9-72.1-64.7-153.1-100.2
	c-52.4,37.2-1.2,71.4-81.4,16.3c-68.6-28.3-50.3,100.7-111.4,55.2c-16.4-27.7,46.8,11.5,3.4-74.8c-50.3-74.8-86.2,98.3-128.9-83.5
	c-10.5-38.4-73.6,39.8-108.2-0.7c-98.9-62.6-86.8-8.9-188.4-72.9c-18.2-3.5-22.2,46.5-46.7,35.2c3.5-134-123.8-82.7-64.6-210.9
	c-10.7-3.7-4.8-27.2-20.8-28.2c-38.4-4.7,3.4-45.6-52.2-0.3c-43.3-82.3-12.5-19.7-66.2-12.3c-15-66.6-165.5-9.2-70.8,14.4
	c12.7,21.3-22,83.9-11.3,132.6c-48.9,23-123.5-48.7-141.2,17.4c-11.7,58.6-54,45-146.1-16.6c79.1-162.4-31.3-23.6-42.9-73.4
	c74.9-95-36.1-70.6-49.8-143.7c-24.5,60.8-1.7-11.9-67,31.5c-20.9,3.4-15.3-24.4-34.5-31C1799.8,97.3,1801.2,76.9,1778.7,68z"/>
</svg>
