<svg id="Layer_1" data-name="Layer 1" xmlns="http://www.w3.org/2000/svg" width="480" height="320" viewBox="0 0 480 320">
  <path d="M259.43,44.42h0C259.43,44.2,259.76,46.41,259.43,44.42Zm39.78-2.21h0C299.21,42,298.88,44.2,299.21,42.21ZM104.74,61h0C104.29,60.88,107.39,59.67,104.74,61Zm-9.95,50.83h0C94.57,111.82,96.78,112.15,94.79,111.82Zm-22.1,57.46h0C72.8,168.84,74,171.93,72.69,169.28Zm89.5-123.76h0C162.19,45.3,161.86,47.51,162.19,45.52ZM371,142.76h0C371,142.54,370.7,144.75,371,142.76Zm39.78,16.57c-3.42-6.07.11-1.32-6.08-6.07,1.33-.67,4.09-3.87-2.76-5-2.21-.11,2.76,4.09-4.42,1.11-1,1.77-8.06,5-11.6-.55-2.87-3.43-2,5.52-5,1.1-6.85-4-10.5-5.52-12.71-11.05,2.76-2.65,2.43-16.68-4.42-11-1.55,1.66-1.33-1.32-9.94,1.11,3.53-3.54-7.85-2.21-10.5-7.19-.11,2.55-3.43,7.3-7.74,4.42-3.53-7.73.89-4.64-11.05-7.73,2.66,1.22,7.52-2.87,2.21-5.52-5.52,0-5.19,1.1-8.84-4.42-3.64-4-6.29,5.41-9.94,3.31.88-1.33-5.3-4.86-12.16-14.36.56-3.65,5.2-3.54,3.32-6.63,2-3.21-8.84-2.1-5.53-5.53-2.09,1.11,6.52-10.5,1.11-11,5.63-8.06,6.63-15.8,1.1-25.41,2.21-.67,8.51,3.09,5.53-2.21-2.1-4.86-3.32-.56-8.84-7.74,1.66,2.77-.88-10.72-6.08-5.52-.88,1,.55,4.09-.55,1.1-3.54-4.64-8.29-5-12.71-9.39-3.31,2.1-1.54,1.66-7.18,6.08,4.53,5.08-5.19-1,1.66,10.5-.89,3-10.83,1.21-13.81,9.39.22,4.42-1.77,1.21-4.42-1.11-1.33-2.87-6.85,2.1-7.74-1.1-2.21.55,5.19-7.85,0-4.42-3.42,6.52-15-6.3-18.78,2.21-2.54-1.33-6.74-5.31-10.5-6.08-3.54-.55,4.09,5.08.55,5-5-4.64-1.77,1.33-13.26,2.21-1.21.44,2-6.63-5.52-4.42-1-.44.33-6.63-7.18-5-6.19.33-3.65,3.65-8.29,8.29,1.1-2.32-4.31.88-13.26-1.11,2.43,1.11-14.26,7.63-8.29-5,1.66-3-8.84.88-10.5,1.66,1.88,4.75-1.43,2.1-1.65,7.18-6.19-3.54,1.1,5.75-9.4.55-2.09,7.85-6.07,3.43-12.15-1.1-1.88-4.42-3.31,9.72-7.73,0-1.22-2.43-.78,3.2-5.53,1.1.55,5.2-5.19-1-5.52,2.21,2.21,1-7.3,8.18,2.21,6.63C102.86,63.31,108.27,69,109.16,72c-8.73,2.1-.45,15.47,0,16.58,1.76,11.38-14.59,12.7-8.84,21,2.65.88-12.27,3.43,0,7.74-.45,3-12.38,3.42-2.21,14.36,1.32,3-7.74-.77-3.87,9.39-7.52-.88-7.07,9.39-16,3.87-2.21-.33,1.32,8.07-3.32,12.15,3.54,2.55,2,4.53,4.42,8.84-.66,8.07-8.29-1.21-11,16.58-.33,5,2.21,8.06,8.84,8.84-1.21,5.52,4.42,4.53,6.08,5-4.09,3.87,2.87,1.88,3.31,12.15.11,1,5.42.78,2.77,2.77,10.49,8.06,9.17-10,16.57,12.15.66,5.2,3-3.76,5.53,6.63,6.29,23,2-2.65,25.41,23.21,3.31,6.07,8.84-2,11.05,7.73,15.14,9.83,1.1,5.19,0,13.26.55,3.65,6.52.11,4.42,4.42,2.87,11.38,17.13,3.09,31.49,9.39,12,1.22,18,13.7,21.55,1.66,6.52,4.53,3.42-.33,5.52-4.42,15.14,6.3,3.54-21.55,14.92-10.5,3.65.67-.22,6.85,6.08,3.87.55-.11,6.29,4.75,7.73,3.31,1.66-.33,6.74-8.28,8.29-3.31,3.53,10.5,4.53-4.2,7.73,9.39,14.26,4.09,6.52-19.78,11.61-29.28,4.19-3.09,14.69-6.41,11.05-12.15,3.86-19.45,16.68,0,28.72-5,5.2-2.87-5-4.64-2.21-11.6,3.43-6.19,3.54-6.52,2.21-14.36,1.11-2.21,6.08-8.18,2.21-12.16.56-4.09-4.31-14.47,2.21-19.89-1.65-3.2-.22-5.63,5-6.07.88,4,3.42-.67,6.07,1.65-1,4.42,6.41,4.53,11,3.32,6.41,1.77,2.66.22,4.42,5.52,1.44.44,3,3.54.56,7.19-2.21,7,8.5-5.53,12.7-1.66,2.54-5.75,3.1,10.83,7.74-8.84,4.09,4.09,1.66,1.88,14.91,2.76,5.42,7,13,7.4,18.79,10,2.87-1.11,5.3,15.35,11.6,3.86,2.43,1.44,1.33-1.43,1.11-5.52-.67,1.43,8.06.66,2.21-1.11,2.65-5.52-3.76-4.09-8.84-6.63,0-2.43,3.31-7.29-4.42-3.31-.34,2.87-3.65-4.53,4.42-6.63,1.1-5.2,4.42-7.41,5.52-13.26-1.1-3.76,3.65-.11,6.08-.55C410.48,163,413.13,159.33,410.81,159.33Z"/>
</svg>
