<svg id="Layer_1" data-name="Layer 1" xmlns="http://www.w3.org/2000/svg" width="480" height="320" viewBox="0 0 480 320">
  <path d="M137,184c-.68-.67-.45-.45,0,0C137,184.87,134.52,182.5,137,184ZM68.2,205.39h0C67.75,205.28,70.91,204,68.2,205.39ZM288.14,65.54h0C288.14,65.31,287.8,67.57,288.14,65.54ZM417.84,228c-.79-4.17-4.74-11-11.28-13.53-.67-2.94-7.22,2.82-4.85-3.61,3.61-5.53-1.35-6.88-5.64-6.32-.11-1-2-5.41-1.91-2.48.56,3.05-7.67,1.69-7.9,1.13-1.69.9-2.48,4.51-4.51,0-10-3.39,2.93-5.19-12.41-4.51-.79-2.82,4.18-5.53-1.13-9-1-.45-6-.56-11.27-1.12.56-.57-1.47-5.76-3.95-3.95.11-4.17-8.91,3.27-5.08-2.82,2-12.75-2.37-14.44-15.79-7.9-1.91.34-7.44-9.36,1.13-7.89.79-15.9,7.22,1.13,10.72-19.74,1.69-1.69-13.31,3.27-8.46.56-1.81-5,6.54,1.92-1.7-7.89-1.57-5.41,3.16-3.5-1.69-10.15.57-3.38,6.21-5,4.51-9-3.94-2.26-.22-13.88-14.66-16.92-3.16-3.05-6.31.22-4-7.33,3.39.45-.11-14.1-.56-7.33.11,6.54-3.72,3-6.77-4.52-3.27,0-2.82.68-3.38-9-1.24-.79-5.41-1.47-1.69-2.82-.57-2-3.72,1.35-3.95-1.69,5.08.11-7.33-13.2-12.41-3.38-6.09,2.48,2.37,4.39,5.08,14.09,2.14,2.82-3.5-.11-2.82,3.95,1.24,3.05-4.4,6.2-6.2,8.46-4.52-4.85-12.41-5.53-10.16-11.28,11.51-3.72-2-1.24-1.69-20.86-1-2.26,5.08.56,2.26-7.9-1,.56-7.67-2.37-10.72-2.82,5.08-2-1.35-7.44,2.26-10.15,6.77,3.05,7.78,5.75,7.33-1.69,2.82-1.81-7.22-1.47-14.66-7.9-2.93-.22-7.45-.67-10.72,0-1.91-4.06-3.94-2.48-6.2,0-12.41-1.24-7.89-6-12.41,7.9-4.85,1.13-7.78-3.61-14.66,1.13-3.16,1.12,3.84-5.19-5.64-1.13-.34,1.46-1.46,8.12-2.25,4.51-4.06-4.29-.23,3.83-3.39,4.51,0,1.13-4.17,2,0,3.39,6.32,1.69,9.14,7.33-1.13,13.53-2.93-1.58-5.3-4.74-2.25,1.13-1.92,2.59,8.8-.57.56,10.71-1.35-1.69.12,12.3,2.82,8.46-1,5.53-3.16,8.12,0,14.66-5,6.43-11.16,2.15-19.17,16.92-9,3.27,7,7.11,2.25,10.15-2.93-1.24-11.61,4.4-6.76,11.28,4.51,2.82,3.72.11,5.07,8.46,0,2.59-14.89-2.82-3.94,10.72,4.62-4.63-1,1.35,1.12,1.12.12,0,3,.23,1.47,3.61-.79,6.54-8.23,2.48-8.23,11.06-2.49,3.49-20.76-1.36-12.41,7.89-3.27.9-2.93.68-5.08,2.82-2-2.93-3.72,3.27-13.53-2.26-.56,4.4-11.62,7.79-11.84-2.81-7.67.67-2.15,8.79-14.67,4.51,3,12.74-7.33,0-16.91,15.79-7.34-1.58-.46,1.91-7.9,3.38,2.82,0-.34,7.22-1.13,3.38-4.06-1.8,1.58-6.31-11.28-2.25,2.26-.34-2.7,8.68-3.38,4.51-4.74,2.48-3.27-10.71-10.15,0-.68.9-4.85-2.93-4,.56,7.67,2.94-10.37,5.08,2.26,11.28,13-1.58,19.51,15.91,32.71,10.15,3-5.52,9.13-4.28,13-3.94.45.11,3.15.79,1.12,2.25-2.93,6,7.67-1.8,5.64,4.51,0,3.39,3.16-2.59,4.52,2.26-.91-1-4.52-.11-1.13,1.13,11.16-2.82-1.69,5.3,9.58,2.82,2.37,2.25-4.85,2.82,3.39,7.89,16.35,16,32.82,12.07,53.8,13.87,6.54,2,3.72,2.71,9.92-.78,1,6,4.51,3.49,10.49-.91,14.66-28.87,2.6-6.54,22.22-17.14,7.33,8.12,7.67,6.88,20.3,7.89,3.16.34,1,17.71,6.77,11.28,4.85-.56,8,2.71,12.41,6.77,5-.11,15.56,1,18-2.26,4.06,1.47,5.19,4.52,6.77,7.9-1,1.8-4.29,3.83.56,5.08-1.35,2.36-1.35,18.15,4.52,12.4,4.62-3,1.35-6.2,3.94-13-.11-6.31,3.39-1.58,4.52-7.89-.12-5.64,1.57-6.32,7.89-14.67-3.5-2.36,7.33-3.72,7.9-9,2.7-2.14-.57-14.44,10.15-11.28,1.35-4,.67-5.86,4.51-4.51-1.81-9.7,18.16-1.47,25.38,5.08,2.7,4.85,8.45,5.86,11.84,5.07,2.14-.34,6.31-7.67,7.89-5.64,12-7.67,2.15,12.86,25.38,2.82C410.4,233,419.87,232.69,417.84,228ZM179.86,158h0C179.86,158.25,180.2,156,179.86,158ZM253.17,29.45h0C253.28,29.56,250.69,29.11,253.17,29.45ZM278,53.13c.68.68.46.45,0,0C277.08,53.13,279.45,55.61,278,53.13Zm0,21.43c.68.68.46.45,0,0C277.08,74.56,279.45,77,278,74.56Zm-1.12-21.43c.67.68.45.45,0,0C276,53.13,278.32,55.61,276.86,53.13Zm4.51,1.13h0C281.59,52.79,277.31,54,281.37,54.26Z"/>
</svg>
