<svg id="Layer_1" data-name="Layer 1" xmlns="http://www.w3.org/2000/svg" width="480" height="320" viewBox="0 0 480 320">
  <path d="M407.63,251.92c-6.43,12.87-15-10.77-25.44-3,2.25,14.67-10.62,7.93-23.94,20.95-8.38,1.8-8.08,1.2-4.49,9-16.61,3.14,4.79,16.16-7.48,10.47-2.7-4.48-20.8,6.29-15-3-2.39,1.8-4.49,2.84-10.47,4.49-2.7,0-7.63-6.28-9-7.48-.3-1.65-7.48,2.54-9-4.49,1.2-5.84-6.88-.6-12-6,.3-5.53-1.65-8.83-11.22-7.48-2.7,0-2.4.75-2.25-5.24,1.05-12.72-9.88-5.53-13.47-12.72-3.74,1.8-4.19-4.19-15,1.5,1.2,7.48-4.34,1.35-9,7.48-11.67,8.68-5.24-10.17-15-12-4.19-2.54-7.49,5.69-10.48,10.48-2.09,5.08-4.79-1.35-9,4.49-1.05,5.23-7.48-5.09-10.47-1.5-3-.3-9.88.3-15-1.5.6-1.34-2.84-8.23-3.74-.75-2.69,5.39-6-4.19-9.73,3.75,3.3,2.09-14.66,16.16-18.7,8.23-5.24-.75,13.92-9.58-20.2-12.72,4.19-4.94,6.88.3,4.49-9,5.38-6.59,9.72-12,1.49-20.95-2.54-4.79,4.34-11.82-1.49-21-3.15-1.35-7.79-5.84-13.47,1.49-.15,2.25-.75-.3-4.49-2.24-2.4-2.84-19.31,2.39-18-3.74-3.44-4,3.89-4.94-1.49-9-6.74-.75-1.5-1.65-7.49-7.48-1.64,2.84-14.36,2.09-9-6-11.07-5.09.3-7.33,2.25-9.73-3-5.38.45-3.59,3.74-6.73.6-3.74,4-5.39-1.5-7.48,3.15-6.29-5.38-.3-3-16.46.45-7.19-11.82-8.83,0-13.47.15-5.39,7.33,3.14,15,4.49,15.71,13.62-1.95-20.8,35.16.75,3.29,4.94-.45.9,5.24-2.25-.15,2.55.9,4.79,0,7.48,3.44,2,1.05,1.8,9,1.5,1.34-7.63,3,3.89,6.73-6.73-1.05-.75-6.73-6.44-2.24-8.23,11.52,3.14,3.29-19,16.46,1.49,1.79,4.49,9.72-3.59,12-1.49-3.44-.6,16.61,5.23,13.47-3-3-9-20.65-16.31-6-29.92-3.29-3-12.27-7.64-4.49-13.47-4.34-3.59-7.48-21.25-1.49-29.93-32.18-32,25.44-2.4,36.66.75,19.15-6,15.86-14.52,26.19,11.22,2.84,4.34-1.95,12.72,7.48,12,28.13-16.91,20.35-2.69,30.53,15.26-14.07,6.14-4.64,4.64-.6,10.18,15.86-2.54,7.63-39.8,38.9-10.47,10.48,1.94,3-14.67,12-15,4.64.3,7.48,4.19,13.46,4.49,1.2-.6,3.3-5.39,6-1.5,5.69,3.75,13.92,13.32,21,21,6.14,6.74,8.38,9.73-4.49,13.47,1.65,5.09,2.84,4.49-2.24,9.73,1.94,3.14,3,3.89-2.25,6.73-9,9-.9,8.23-16.46,6,.45,9.88-6.73,5.69-12.72,9.73.9,8.68-9-1.2-5.24,11.22-4,.3-1.49-6.14-7.48,0,.15,3.74,2.55,6.88,4.49,13.47,1.2-1.35,4-5.39,6.73-.75,3.6,1.2-2.84,5.69.75,5.24,4.64-1.8,3.59,6.73,7.48,9,7-8.68,1.95-3.6,18-4.49.3,7.33.3,15.26,9,22.44-.15-3.59,4.79-3.74,7.48-1.49,7.49,12.87,14.22,23.49,25.44,32.92C404.19,235,395.36,245.34,407.63,251.92ZM72.43,174.11h0C71.83,174,76,172.31,72.43,174.11Zm56.86,71.83h0C128.55,245.64,130.34,250.13,129.29,245.94Z"/>
</svg>
