<svg id="Layer_1" data-name="Layer 1" xmlns="http://www.w3.org/2000/svg" width="1021.09" height="587.03" viewBox="0 0 1021.09 587.03">
  <g>
    <path d="M941.5,267.5h0C941.5,267.3,941.8,269.3,941.5,267.5Zm78,87c-2.3-.1-2.7-10.1-6-20-.2-5.4.4-12.8-10-8-3.8-.3-2.9-4-7-7-7.1,3.2-11.5-5.3-12-12-2.4-6.1-4.9-10.2-6.5-17.5,2.9-1.2,1.4-4,2.5-4.5-.9-.7,4.7-1.7,1-3-9.5,2.3,2.1-14.5-6-12-7.5-7.2,6.9,15.8-21-5-.9,4.8-11.6-5-13-1,6.3,3-8,12.7-8-5-19.4-1.5-1.9-3.8-15-8-1.4-2.2-2.1,6.7-4,3-2-4.7-6.1.9-8-5-.1-4.5-9.6-21.4-14-9-3.7,8.1,5.5-2.1,6,4-1.3,1.9.7,3.5-1,5-3-1.3-6.8-3.3-9,0-9.1-2.5-4,14.7-22.5,3.5-.9-4.5,2.4-2.8-4.5-5.5-5.7-1.2-2.7-3-7-12-1.2-.5-6.3-17.8-13-9.5-4.5-.4-2.3-2.8-5-6-3.3-1.5-3.7-1-5-5.5-4.5-4.4,9.6-3.9,14-7,2.7,1.1.5-3.1,4-5,2,1.7,4.2.9,6-2,.2-12.2-12-6-1-20-4.8,1.5-3.6-5.1-9-6-5.5.2,5.6,1.1-8,12-7.6,5-3.4-.2-9.5-.5-4.7,5.6-20.1-9.8-24.5,16.5-7.5-1.2-3.2-8-10.5,3-1,4.2-3.9-.8-6,2.5-3.3,3.2-4.8,6.2-10,9,1.6,16.1-4.9-.3-1.5,18.5.1,6-6,2.7-11.5,20,.6,2.7,6.4,2.1,5.5,6,5.6,1.5-7.1,8.3-4,9-2.9,1.1,4.2,1.5,0,4-3.2,5.1-3.8,2.8,2,12,12.1-1.7,3.2-2.9,6,7,3.1-3.7,9,2.3,15,3-.7,4.1,4.9-4,7,0,7.2,3.4,4.6,9.6,10,12,4.5-8,11.9,11.1,16-1,17.5,13.5,5.3-1.3,18,4,9.7,2.6,1.7,4.4,5,15,12.2,9.5,1.3-7.3,12.5,5.5,0,2.3.2,1.5.5,5.5,2.5-3.2,9.7,7.1,14,13-2.7,2.1-5.1-.2-2,6,2.6,2.3,1.2-6.1,7-3,.1-2.9.7,3.6,2,5,7.7.6,7.8-1.5,14,8,6.4-.7,11.2-5.3,24.5-1,4.6,7.7,10.7,4.3,19,4.5,3.5,16.6,10.2,3.1,11,20,18.4,5.2,11.6-.6,25.5-13.5,3.8-2.6-4.2-4.3,2.5-9.5,4.8-4.2,6.4,1.5,10.5,2,7.2-3.1,9-3.8,18,1.5,3.9-1.6,6.2-5.9,14.5-6.5C1016.3,360.3,1023,359.8,1019.5,354.5Z"/>
    <path d="M857.5,377.5h0C857.3,377.5,859.3,377.2,857.5,377.5Zm95,17c.8-6.4-6.7.1-5.5-9.5-1.5-4.3-5-4.4-9.5-8.5-.4-1.8,1.3-6.8-3-7-5.7,1.8-13.8,2.9-18.5-5.5-5.9,4.3-1.3-4.6-20.5,2-3.7,6.3-10.7-19.5-19-1.5-2.6,4.9-8.5-7.4-10,3-.2-1.2-8,3.1-6.5,4.5,2.7,2.6-1.3,2.9-2.5,9.5-1.1.7-5,2.4-8.5.5-1.4-1.9-7.3-11.1-7.5-.5-.4,1.7-4.1-4.7-7-1,.9,3.9,10.4,9.5-4,11-1.4-2.8-8.7-2.3-12,0,.1,3.4-2.3,5.4-6,10-3.3-2.3,2.6-2.9-6-6-.4,2.1-5.9-3.2-7-1-3.7,5.2-1-4-2-5,.5-2.1-4-.6-5.5,3.5-4.2,2,2.5,7.5,1.5,11.5-1.9.9-5.7,1.7-6,4-1.7,9-8.9,5.1-14.5,7.5-3.4.5-5.5-1.6-5.5,5.5-3-1.6-4.6,1-7,5,.5,1.9,3.5,3.7,1,8,7.7,6.7-5.1,8.6,10,8-2.6,4.1.2,10.1-9,10-.3,1.9.6,6.4-1,7-4.5,1.1-3.2-3.1-4,6,2.1,1.4,2.5-.7,5,1,4.1-4.1,17.2-7.3,11,10,1.5-.9.7-2.3,4-2,2.3.9,4.6,2.2,5.5,5.5-.9-.5,8.9-1.3,11.5,2.5-.1,4.6-3.7,8.9,6,5-.6,3,2.9,5.1,6,7,2.5-4.3,6.7,1.2,9.5-3.5,3.5,6.6-.7.2,6,3.5,5.6,1.8-4.2,6.2,1.5,8,11.3-3.8,10.1,22.2,24.5,11.5,6.1-4.9,9.2-18.5,23.5-12.5,4.7-2.1,4.6-10.5,7-20,4.6-9.2,15.1,1.9,23-7,9.3-9.4,5.6-19.2,9.6-33.2,8.6-18.8-5-2.1,9.4-24.8C928.4,414.9,958.5,408.7,952.5,394.5Zm-190,49h0C762.3,444,765.3,442.8,762.5,443.5Z"/>
    <path d="M878.5,357.5c-1.1,4.3.5,11.6-10.5,5.5-1.6-2.1.9,2.1-1.5,4.5-3.1-.5-4.2,2.2-7,4,3.9,5-1,.7-2,11-4.1-2.8-4.2,5.9-13-6-5.5-.9,1.2,8.1-8,3-7.2.8,7.5,6.3-1,11,1,3.8-9.4-4-17,1-.2,2.9-.9,4.2-4.5,8-5.1,7.5,3.7-7.4-17.5-4,2.3-3.3,1.7-12.1-3-4-6.1,2.5.5,8.3,0,13-8-.2-5.1,14.3-18,10-1,2-5.3.9-6,1-2.2,1.1-1.1,10.2-5,4-4.9-10.2.9-10.1-18-19,.7.2,3.7-5.7,2.5-9.5-3.4-6.4.2,1.4-2.5,2.5-1.8-1.3-4.7-2-4-7,.1-.7-2.1,1-3.5-.5-2.3-2,2.3-.1-.5-4.5-.1-2.7.9-2.7-5-7,3.7.3-3.6-10.4-11-4-5.8,3.9,3.9,5.9,4.5,14.5-3.6-1-3.6,20.3-17.5,1.5,0-4.3,7.4.8,3-7-.5,2.9-4.3-6.9-4-11,.4-2.4-1.3-3.2,3-4-2-4.6.3-3.2,3.5-4.5-4.3.3-7.8-1.6-14-3,2.3-1.4,1.8-1.4,1.5-5.5-4.3-7.9,10.3,4,7-4-.4-1.7,4.1-9.3,1-16,6.6-2.8,11.4-13.5,2-18-1.2,1.5-6.5,5.2,0-4-5,.6,0-4.1-3.5-5.5-7.3-4.2-2.1-8.6-8-13-5.2-17.9,13.5,9-4.2-38.7-.9-5.5,6.5,2.1,6.7-.8,2-5.2,5.5-5.5,10-11-2-2.9-4.6-5.7-.5-9.5-.3-1.8-3.4-5.2.5-6.5,3.7-4.5,4.4-16.9,8-20,3.2,1-3-8,12-6,3.4-.8-1.3-4.6,3-5,3,8.3,11.4,8,4.5-1.5-2.5-1.8,2.9-.3,2.5-7.5-6-10-11.7.1-16.5-23.5-13.1-8.4-5.6-22.5,10.5-8.5,7.6-4.3,8.2,5.4,20,3-.5,3.9,6.6,8,11,4,4.3,4.5,8.3,22.3,24.4,14.2,3-3.1-3.2,12.1.6,14.8,3.2,1.6.5-3.7,3-4,5.2.4,9.7.6,9,9-2.2,1.3,1.8,15.5-8,5-.1.4-.1.2-.7,2.2-2.6,4.7-4.3,5.4-9.8,7.3-1.4.9-6.1,8.1-9.5,8.5.6,17.1-5.2-.1-2,19,.7,5.7-9.9,7.2-9.5,16-5.1,10.1,12.5,5.4,0,17.5-4.9,3.1,4-1.8-3,11,2.8,1.6,3.2,6.3,6,7,1,.1,8-5.7,4.5.5-4.4,10.2,2.3-.4,16,11,4.1-8,12.2,3.2,14,8-3.6,1.5,3.4,1,9,1,2.6,1.8,4.8,8.9,9,0,18.2,14.1,3.7-2.9,21,5,7.5,3.8-6.3,7.4,6.5,17.5,2.8,1.6,1.9-8.6,5.5.5,3.9-.1,1.5,7.3,4,6,5.5,3.5,11.6,9.9,12,14-.8,2.7-5.4-.1-1,5C871.3,361.7,872.1,344.6,878.5,357.5Zm-2-5h0C876.5,352.3,876.2,354.3,876.5,352.5Zm-154,19h0C722.5,371.7,722.8,369.7,722.5,371.5Z"/>
    <path d="M587.5,475.5h0C587.5,476.3,585.3,474.2,587.5,475.5Zm-61,19h0C526.1,494.4,528.9,493.3,526.5,494.5Zm195-124h0C721.5,370.3,721.2,372.3,721.5,370.5Zm115,144c-.7-3.7-4.2-9.8-10-12-.6-2.6-6.4,2.5-4.3-3.2,3.2-4.9-1.2-6.1-5-5.6-.1-.9-1.8-4.8-1.7-2.2.5,2.7-6.8,1.5-7,1-1.5.8-2.2,4-4,0-8.9-3,2.6-4.6-11-4-.7-2.5,3.7-4.9-1-8-.9-.4-5.3-.5-10-1,.5-.5-1.3-5.1-3.5-3.5.1-3.7-7.9,2.9-4.5-2.5,1.8-11.3-2.1-12.8-14-7-1.7.3-6.6-8.3,1-7,.7-14.1,6.4,1,9.5-17.5,1.5-1.5-11.8,2.9-7.5.5-1.6-4.4,5.8,1.7-1.5-7-1.4-4.8,2.8-3.1-1.5-9,.5-3,5.5-4.4,4-8-3.5-2-.2-12.3-13-15-2.8-2.7-5.6.2-3.5-6.5,3,.4-.1-12.5-.5-6.5.1,5.8-3.3,2.7-6-4-2.9,0-2.5.6-3-8-1.1-.7-4.8-1.3-1.5-2.5-.5-1.8-3.3,1.2-3.5-1.5,4.5.1-6.5-11.7-11-3-5.4,2.2,2.1,3.9,4.5,12.5,1.9,2.5-3.1-.1-2.5,3.5,1.1,2.7-3.9,5.5-5.5,7.5-4-4.3-11-4.9-9-10,10.2-3.3-1.8-1.1-1.5-18.5-.9-2,4.5.5,2-7-.9.5-6.8-2.1-9.5-2.5,4.5-1.8-1.2-6.6,2-9,6,2.7,6.9,5.1,6.5-1.5,2.5-1.6-6.4-1.3-13-7-2.6-.2-6.6-.6-9.5,0-1.7-3.6-3.5-2.2-5.5,0-11-1.1-7-5.3-11,7-4.3,1-6.9-3.2-13,1-2.8,1,3.4-4.6-5-1-.3,1.3-1.3,7.2-2,4-3.6-3.8-.2,3.4-3,4,0,1-3.7,1.8,0,3,5.6,1.5,8.1,6.5-1,12-2.6-1.4-4.7-4.2-2,1-1.7,2.3,7.8-.5.5,9.5-1.2-1.5.1,10.9,2.5,7.5-.9,4.9-2.8,7.2,0,13-4.4,5.7-9.9,1.9-17,15-8,2.9,6.2,6.3,2,9-2.6-1.1-10.3,3.9-6,10,4,2.5,3.3.1,4.5,7.5,0,2.3-13.2-2.5-3.5,9.5,4.1-4.1-.9,1.2,1,1,.1,0,2.7.2,1.3,3.2-.7,5.8-7.3,2.2-7.3,9.8-2.2,3.1-18.4-1.2-11,7-2.9.8-2.6.6-4.5,2.5-1.8-2.6-3.3,2.9-12-2-.5,3.9-10.3,6.9-10.5-2.5-6.8.6-1.9,7.8-13,4,2.7,11.3-6.5,0-15,14-6.5-1.4-.4,1.7-7,3,2.5,0-.3,6.4-1,3-3.6-1.6,1.4-5.6-10-2,2-.3-2.4,7.7-3,4-4.2,2.2-2.9-9.5-9,0-.6.8-4.3-2.6-3.5.5,6.8,2.6-9.2,4.5,2,10,11.5-1.4,17.3,14.1,29,9,2.7-4.9,8.1-3.8,11.5-3.5.4.1,2.8.7,1,2-2.6,5.3,6.8-1.6,5,4,0,3,2.8-2.3,4,2-.8-.9-4-.1-1,1,9.9-2.5-1.5,4.7,8.5,2.5,2.1,2-4.3,2.5,3,7,14.5,14.2,29.1,10.7,47.7,12.3,5.8,1.8,3.3,2.4,8.8-.7.9,5.3,4,3.1,9.3-.8,13-25.6,2.3-5.8,19.7-15.2,6.5,7.2,6.8,6.1,18,7,2.8.3.9,15.7,6,10,4.3-.5,7.1,2.4,11,6,4.4-.1,13.8.9,16-2,3.6,1.3,4.6,4,6,7-.9,1.6-3.8,3.4.5,4.5-1.2,2.1-1.2,16.1,4,11,4.1-2.7,1.2-5.5,3.5-11.5-.1-5.6,3-1.4,4-7-.1-5,1.4-5.6,7-13-3.1-2.1,6.5-3.3,7-8,2.4-1.9-.5-12.8,9-10,1.2-3.5.6-5.2,4-4-1.6-8.6,16.1-1.3,22.5,4.5,2.4,4.3,7.5,5.2,10.5,4.5,1.9-.3,5.6-6.8,7-5,10.6-6.8,1.9,11.4,22.5,2.5C829.9,519,838.3,518.7,836.5,514.5Zm-211-62h0C625.5,452.7,625.8,450.7,625.5,452.5Zm65-114h0C690.6,338.6,688.3,338.2,690.5,338.5Zm22,21h0C711.7,359.5,713.8,361.7,712.5,359.5Zm0,19h0C711.7,378.5,713.8,380.7,712.5,378.5Zm-1-19h0C710.7,359.5,712.8,361.7,711.5,359.5Zm4,1h0C715.7,359.2,711.9,360.3,715.5,360.5Z"/>
    <path d="M647.5,371.5h0C647.4,371.1,646.3,373.9,647.5,371.5Zm4-12c-13-4.9,2.8-.3-5.5-14.5-3.9-4.5-11.2-3.4-13.5-6.5-7.2-5.2-.6-7-15.5-11.5-4.3-2.2-6.1-3.9-12-2-5-1.7,4.7-5.9-13-8-3.7-1.3,1.5-5.2-2.5-4.5.2,3.6-5.1,1-4,8-1,2.7-2.4-2.2-3,1,1.7,1.2,1.1,3.5-3,3-3-2-17.6-4.1-10-12-.4-1.5.6-.3-2,0-4.7-.7-5.8-7.1-11-4-2.3.2,1.4-8.6-1-5-2.8-2.3-4.1,1.8-10-6-2.9,2.1-2.7-1.2-4-2-2.5-1.4-5.7,3.5-7-1-7.9,3.2-7.2-1.9-15-7-2.2,4.1.7-8.7-10.5.5-16.5.9,3.1,12-8.5,11.5-2.1.6-5.2-4.5-6,4-1.5-.9-9.9,1.6-15,5-1.1,2.7-1.8-1.2-3-2-.5-1.3-2.1,3.8-2,1-3.1,7.3-12.8,13.8-7,22,.5-1.8,1-3,3,1-.4-1.3,5.6-2.6,4,2,4.2,2.5.9,12-8,8,.7,4.2-1.5-.8-2,2-1-.1.2,4.7-3,4,.5-3.8-2.2-.6-6-4-2.2,1.1-4.6,4.4-11,2-.7,1.2-14-5.3-8,3,.3.4.5,2.5-2,2-1.7.5-7.1-.9-5,3,2.2,1.6-.1,1.1-2,5,.8.4,4.8,7.3,1,5-8.4.6.4-2.3-1,17-3.8,1.3-1.6,7.8-5.5,17.5,1.9,1.2,8.6,3.2,5.5,5.5-7.6,1.7,6.4,16.7,10,17,9.7-9.8,3.3,1.2,14.2,1,7.7,1.1-.5,5-.2,6,9.2-.2,4-.2,11,7,2.3,1,4.6-4,5.5-4.5,2.2,2,.8,3,5.5,2.5,3,.4,3.4,4.1,4.5,3.5,2.9-2.7,5.4,1.2,9-2,10.8-.6-3.5,11.9,9.5,17.5,1.9,3.1,6,5.5,9,2,2.2,3.4,4.4,3.3,10,3-.4-3.7,1.3-1,5-1-2.3-2.2.8-3.1,4,0,2.2,1.9-1.5,1.8-1.5,2.5,1.2.3,1.9,4.5,2.5,1.5,1.1-.1,6,7.2,1.5,8.5-1.1,0-5.4-3.3-4.5.5.5,3-2.8,1.7-1,5,.3,3.4-4-1.3-3,6-.4,1.1-4.8,1.5-5.5,4.5-.2,8.1.8-2.4,5.5,2.5-6.4,5.2,11.5,3.2,7,8,.8,2.8,7.1-4.7,7,3,7.8,3.6,2.9-7.2,10-4,3.2-6.7,5.3,5.3,7,2,2.8.7-2.4-3.7,4-4-2.6-3.2-.4-1.3,4-2.5,4.3-5.1,1.1-7,13-7.5,3.4-14.2,4.1,1.8,9-7,8-7.7,1,1.5,12,4,6-2.8-1.9-6,11-2,.2-2.1,1.4.3,8.5-2.5,3.3-2.4-6.2-1.9.5-5.5,4.3-2.2,12.7,2.2,11.5-6.5,1.9.1,9.6-4.6,6.5-7.5-3.9-3,1.3-.7-1-4,.9,1.3-4.6,3.7-3.5,2.5,5-6.4-9.2-4.6,6-11,.2-7-10.7-4-2.5-16.5.2.3,4.4,1.6,5-2-9.6-4.7-3.3-3.3,1-14,2.6-2.7,16.6-4.7,11.5-11.5.5-3.3.2-4.2,1.5-9.5-1.1,2.8-3.8-2.4-1-3-7.7-3.8,8.7-7.5-4-16,2.1-3.4,2.6,2.8,5.5.5C649.7,367,655.2,362.1,651.5,359.5Zm-124,136c-.3.7.7-2.6-.5-1.5C526.4,494.6,526.4,494.5,527.5,495.5Z"/>
    <path d="M627.5,239.5c.3-.2-3.2.6-1-1C626.2,238.9,627.9,237.4,627.5,239.5Zm93-33c-6.8-14.3-9.1,13.6-19,13-.3,1.1-2.6,11.5-8,8-6.9-1.1-10.8-9.2-22.5-11.5-.4,3.6-5.7-9.2-9.5-1.5-.6.8,1.5,5.2-2,5-5.7,2.6-9.8,5.6-18,9-2.2,6.6,6.5,1.8-4,8,4.1,8.1,4.5,4.1-7,3-1.3,2.8-3.4.7-6,1-3.8,1.4-6.5.5-9.5-3.5-.3-.1-.3.6-6-2-1.9-4.7.2-2.3-6.5-4.5-2.6,1.7-.5-8.4-10-6-2.4-6.4-.1-9.1-9-10.5-1.1.2-6.9-5.6-6-1.5-5-1.1-3.2,2.8-10,5-.2,3.7-8.1,3.5-7.5-2,2.5-3-4-8.1-7.5-3-5.9.8,5.7,3.3-10,8-1.9,2.9-1.5-1.2-6-2,.4,1-.3,1.9-10,0-.8-5.6-1.8,2.2-8,0-1.2.8,0,5.9-3.8,6-4.3-.8-5.4,7.5-10.2,1,.1,0,.8,2.1-1,2-2.1.8-1.7-4.7-4,0-1.5,1.9,5.5,2.2,2,3-5-.9,3.1,4.4-1,6-12.9,3.3,6.1-.6-6.5,5.5,3.5,2.8.1,3.3,8,5,7,1.1-6.8,3.4,6.5,1.5-4,6.9,6.1-3.1,0,6,.2.1.1.2,1.5,1.5,3.9,4.5,13.8,1,6.5,9.5,5.9,4.6.4,1.1-3,18,6.5,4.8,12.6,7.8,15,13-1.2-1,3.9-1.1,7-2-.9.8-1.6,2.4,2,2,1.2-3.5,2.5-.1,9,2,.4,2.6,4.8,5.6,9,4,2.8-1.1-2.2,6.6,1.5,5.5,3.1-1.7,3.4.1,7.5,3.5,1.5.8,5.6-.6,5,2-7.3,6.2,3.1,6.1,7,10,7.4,6.5,7.9-10.3,14.5-10.5-4,8.4,12.5.5,12.5,10.5.9,4.2,6.6-2.8,9,2,5.3,1.2,14.7,3.7,20.5,14.5,5,.1,9.7,1.1,17,10,5.3.7-1.6-4.4,6.5-4.5.6,4.7,1.1-1.7,12,1,8.9,2.9-4.8-12.9,13-7,2.9-4.8,2.9,1.1,12.5-.5,5.8-.6,16.8,15.2,18-1-5-9.4,4.1-6.7,4.5-12.5,1.9-7.8,2.1-11.5-8-11,5.6-3.2,2.8-7.3-3-14-2.7-3.6.7-5.6-4.5-9.5-1.5-4.9-1-6.1,4.5-10.5-3.6-1.8-1.2-16.3-8-26-3.1-8.7,5.5-.1,6-3,1.3-6.1,14-8,7-16-1.1-1.6,2.7-3.3,2.5-4.5C709.3,229,717.7,216.6,720.5,206.5Zm-69,145h0C652,351.7,650.8,348.7,651.5,351.5Zm-148-126h0C503.5,226.3,505.7,224.2,503.5,225.5Z"/>
    <path d="M678.5,215.5c-4.3,8.6-10-7.2-17-2,1.5,9.8-7.1,5.3-16,14-5.6,1.2-5.4.8-3,6-11.1,2.1,3.2,10.8-5,7-1.8-3-13.9,4.2-10-2-1.6,1.2-3,1.9-7,3-1.8,0-5.1-4.2-6-5-.2-1.1-5,1.7-6-3,.8-3.9-4.6-.4-8-4,.2-3.7-1.1-5.9-7.5-5-1.8,0-1.6.5-1.5-3.5.7-8.5-6.6-3.7-9-8.5-2.5,1.2-2.8-2.8-10,1,.8,5-2.9.9-6,5-7.8,5.8-3.5-6.8-10-8-2.8-1.7-5,3.8-7,7-1.4,3.4-3.2-.9-6,3-.7,3.5-5-3.4-7-1-2-.2-6.6.2-10-1,.4-.9-1.9-5.5-2.5-.5-1.8,3.6-4-2.8-6.5,2.5,2.2,1.4-9.8,10.8-12.5,5.5-3.5-.5,9.3-6.4-13.5-8.5,2.8-3.3,4.6.2,3-6,3.6-4.4,6.5-8,1-14-1.7-3.2,2.9-7.9-1-14-2.1-.9-5.2-3.9-9,1-.1,1.5-.5-.2-3-1.5-1.6-1.9-12.9,1.6-12-2.5-2.3-2.7,2.6-3.3-1-6-4.5-.5-1-1.1-5-5-1.1,1.9-9.6,1.4-6-4-7.4-3.4.2-4.9,1.5-6.5-2-3.6.3-2.4,2.5-4.5.4-2.5,2.7-3.6-1-5,2.1-4.2-3.6-.2-2-11,.3-4.8-7.9-5.9,0-9,.1-3.6,4.9,2.1,10,3,10.5,9.1-1.3-13.9,23.5.5,2.2,3.3-.3.6,3.5-1.5-.1,1.7.6,3.2,0,5,2.3,1.3.7,1.2,6,1,.9-5.1,2,2.6,4.5-4.5-.7-.5-4.5-4.3-1.5-5.5,7.7,2.1,2.2-12.7,11,1,1.2,3,6.5-2.4,8-1-2.3-.4,11.1,3.5,9-2-2-6-13.8-10.9-4-20-2.2-2-8.2-5.1-3-9-2.9-2.4-5-14.2-1-20-21.5-21.4,17-1.6,24.5.5,12.8-4,10.6-9.7,17.5,7.5,1.9,2.9-1.3,8.5,5,8,18.8-11.3,13.6-1.8,20.4,10.2-9.4,4.1-3.1,3.1-.4,6.8,10.6-1.7,5.1-26.6,26-7,7,1.3,2-9.8,8-10,3.1.2,5,2.8,9,3,.8-.4,2.2-3.6,4-1,3.8,2.5,9.3,8.9,14,14,4.1,4.5,5.6,6.5-3,9,1.1,3.4,1.9,3-1.5,6.5,1.3,2.1,2,2.6-1.5,4.5-6,6-.6,5.5-11,4,.3,6.6-4.5,3.8-8.5,6.5.6,5.8-6-.8-3.5,7.5-2.7.2-1-4.1-5,0,.1,2.5,1.7,4.6,3,9,.8-.9,2.7-3.6,4.5-.5,2.4.8-1.9,3.8.5,3.5,3.1-1.2,2.4,4.5,5,6,4.7-5.8,1.3-2.4,12-3,.2,4.9.2,10.2,6,15-.1-2.4,3.2-2.5,5-1,5,8.6,9.5,15.7,17,22C676.2,204.2,670.3,211.1,678.5,215.5Zm-224-52h0C454.1,163.4,456.9,162.3,454.5,163.5Zm38,48h0C492,211.3,493.2,214.3,492.5,211.5Z"/>
    <path d="M452.5,120.5h0C452.3,120.5,454.3,120.2,452.5,120.5Zm75,9h0C527.4,129.9,526.3,127.1,527.5,129.5Zm6-4c-2.7-2.3-3.8-9.6-9-11,2.1-4.9,7.3-11.1-1-14,5.9-4.5-4.7-14.8,2-24-5.2-3.8-4.5-3.5-7-9.5-3.2.9-11.4-9-15-6.5-11.8,16.3-6,1.7-10.7-10.2,1-2.9-9.6.8-12.3-12.8-4.7-7,8.6-16.2-5.5-19.5-1.9-.1,1.6-3.8-.5-3.5-3.8-1.2-5.2,4.6-9,3.5-3.2.3,5.3-11.3-5-7.5.5,3.3-4.9,9-7,3,2-2.9-.1-2.1-5-5-7,8.5,1.7-3.3-12,3-8.2,11.5,7.4,2.6,5,11-1.3-1.9.2,3.1-1,5,.6,2.3-4.6,3.5-2.5,6.5,4,16.6-3.4,12.5-17,10-2.8-2.6-1.2,2.1-4.5,1.5-1.8,1.2-3.9-4.6-5.5,3.5-4.2,3.6,1.6,11.2-9.5,6.5-.9-2.3-7.3,2.9-5,0C398.2,54,386,48.3,381,49c-3.5,7.6-8.2-1.7-8,9-1.7,8.7-6,3.6-13.5.5-5.6.4-2.2,1.2-4,4,4,2.1-1.8.9,1,4-1.1,3-8.4,5.8-4,11-1.9-.1-12.7,3.9-7.5,10.5-3.3,1.9-9.7,7.7-2.5,8.5-.1,9.7,7.4,16.4,12,29,7,2.3,3,1.6,9,9,2.8-11,2.1,5.1,11-4,4.7-.1-7.4,12,11,7-.9-3.4,8,1.7,6.5-1-2.7-3.9,3.2-.2,3.5-3,3.9-1.9-1.5-4.9,6.5-5,2.7-2.7-4.2-10,1.5-10,8.4,4.8,12.9,8.8,13-2,4.7-4.1,7.9.7,8-8,3.7.3-1.5-4.1,1.5-3.5,3.4,2,2.4,2,6,3.5,1.4,1.8-3.6,1.7,1.5,2,.4-6,14,5.7,20,11-.6,4.9,1.4,2.2,12,9.5,18.7,12,.2-12.8,27.5,2,2.1,3.2-.1.4,3.5-1.5-1.1.8,1.9,4.4,0,4-1.1,4,15.6,1.8,8-6-.8-4.2,4.3,1.3,7-7,2.4-2.5,3.6,13.5,12,4C521.7,126.6,536.6,131.3,533.5,125.5Zm-99-14h0C434.4,111.9,433.3,109.1,434.5,111.5Z"/>
    <path d="M341.5,168.5h0C341.5,167.7,343.7,169.8,341.5,168.5Zm10-19h0C352.3,149.5,350.2,147.3,351.5,149.5Zm34-119c-29.7,14.9,8.2-18.3-16.2-17.3-3.6,1.8,4.1-2.9-5.3-4.2-.1-1.7-.3-11.3-1.5-2.7s-2.3-7.2-10,2.7c-6.4,2.8-5.2-3.8-10-5.5-3.6-.7-1.6,3.6-6.5-2.5-3.1-2.9-4.3,3.1-6.5,4.5.4.8,4.1.7.5,3.5-1.1,2.2-7.3,11.3,3.5,10,.8-.3,2.7-3.9,4,.5-9,6.6,3.8,7.6,10,9.5,2.3-1.8-.1,11.2-4,9.5-21.5,7.4-4.7-2.8-20,3,.3,9.2-10.2,8.3-22.5,14.5-3,7.8-10.4,1.5-15.5,2.5-4,.3-3.9,1.8-7,6-14.9-4.2,1.8,12.4-12,12,1.8,6.6-6.9-.1-15,1-3.4,5.4-2.5-1.9-5.5,1-2.7,5.1-2.5,2.8-9.5,0-3.9-1.5-3.8,3.8-7,4-2.2,2.4-7.1-3.6-13,3,7.9,8-7.4,11.3,0,12-.1.9,1,3.5-2,3-10.1,6-2.7,15-20.5-2.5-3.7-2.3,4.8,4-6.5,9.5-3.7,2.3-1.2,13.1-8.8,4-9.1-3.4-6,14.6-14.2,21-12.4-.6-1.3-8.7-14,1-3.4.9-9.6-6.8-9,0,0,25.4-24.4,18-6,25,4.9.8,11.8-.6,18,5-2.4,2.5-3.2,2.2,1,6,2.7-6.1,4.2-1.1,9-1.5,3.9-.1,4-4.7,9,4.5-2.5,6.1,1,6.2-3,14,4.3-.5,2.1,4.8,1.5,9.5,3.8,1,6.4,2.2,2.5,5.5,1.8,1.8,4,2.4,6,9-1.2-1.3,3.1,5.4-1,3-3.2,2.9,2.1.2,1,5-5.7-2.4-3.2-2.2-8,1,4.3,4.4,3.8-2.3,10,5-1.1,5,3.5,1.4,5,3-.6,3.2-.4,5.1,4-1,.3,1.2,4.6,12.4,8,2,3.2-5.7,10.3,2.2,9-8,0-1.1,3.3,3.4,4,0-1.4-1.2.5-7.2-.5-8.5,3.7,3.2,3.7-4.6,4.5-2.5,4.4-8.2,5.8,5.4,22.5-13.5.9,3.3,13.1,4.4,14-1,1.4,6.2,5.2-7.4,6.5-4.5,5.6-5.2,2.5,13.4,12-3,5.3-1.2,12.5-1.8,10.5-8.5,2.6,2.2,9.5,1.6,3.5-4.5,2.3-12.2,26.6,6.2,31-5,.3,0,2.5,0,2,2,3.4-.8,8.5,5.6,12-4,1.8,0,3.5,3.1,5,0,2.3,1.8,1.1-.7,4-1,1.1,1.8,3.1,3.4,5,1,1.1-2.2-1.7-1.3,2-7,.6-2-5.3-4.5-1.5-6.5,1-1-2.4-3.5-.5-4.5,1.5-1.6,2.1,1.7,6,2,2.1,1,3.7-2.5,0-2,2.9-1.5,2.3-2.2,3-5,1.1.8,5.2,1.8,7,0-.1-3.6-.2-5.6-3-11,3.6,1.6,1.1-4.3,5-1-1.5-8.2-5.4-1.9-10-13-.7-6.8-7.9-9.7-8.5-20-.3-5.1-1.7-1.3-3.5-5-1.8-2.4,7.1-6.5,5-7-3.2-3.1,3.7-11.4,7.5-9.5,1.4-1.3-3.6-10.4,4.5-9.5-1.2-3.8.5-3.6-.5-7.5-1.6-6.5,9.7,2.3,14.5,1.5,4.4.8.3-6.9,4-10C379.2,56.2,388.9,33.8,385.5,30.5Z"/>
    <path d="M180.5,227.5c3.3,3,.2-4.2-2-6-3.4-2.5-5.5,2.7-6-3-.8-4.1,7.6,2.3,7-2,.9-.4-4.5-2.6-.5-2.5,3.4,2.5-.1-7-3.5-10.5,4.1-1.6-4.4,1.7,0-5,.6-2.4-3.8-.4-5-4,4.8-3.1-.6-6.2,0-11,.6-2.8,2.9-1.6,0-7,3.3-.1,1.7-5.5-1-9-2.4-1.8-3.3,2.1-13-1-2.3,1.4-.1,4.8-4,1-4.9-1.2,8.4-4.7-7-8-1.8.8-4.3-.1-5.6-1.7-3.4,1.2-5.8,2.7-7.4-.3-7.9-2.1-19.8-20-25-11-6.3-3.7-13.4,7.8-15.5,10.5-5-6.6-9.7-2.6-21.5-.5-3.4,1.1-13.3,2.2-10,12-.5.3-.9,2-2.5.5-2.1-3.1-6.2,1.9-6,5.5-.4,2.5-3-1.5-5.5,1,.6,6.2.2,4.9-5,10-3.1,1.1-.8,7.5-2,10-5.4-4.1-3.3,4.8-3,12-1.5,4.2-4.7,4.4-9-3,2.5.5,3.7-5.8,0-8-13.6-7.1,5.8-1.8-4-9-9.9,1-5.3-2.4-9-12,.1.5-14.1-.7-12.5,1.5,4.5,1.6,1.3,3.8,4.5,8.5,4.7,1.3-7.1,2.1-5.5,7.5,3.8,4.5,4.6,2.2,9.5,4.5-2.7,4,13,10,5,20-.4,3.1.8,6.4,2,10,.7-1,13.2,3.6,8,9-.1,2.1,1.2-1.3,2.5,1,.8,2.9,3.6-4.4,7.5,5,4.6-.1,3.9,4.7,11,6,.5,4.3,5-1.8,5,6,2.1.3,3.6-4.4,6,0,12.3,3.9-11.9,8.9,8,14,4.4-.8,2.5,6.4,6.5,5.5,2.4-2.7,3.1,2.2,4,2,.5-3.2,2.4.8,2.5-1.5,1.2-6.9,7.7-.4,14-3,2.4,2.9-1.7-5.3,2.5-2.5-1.3,3.1,13.9-8.1,14.5-1.5-.8.6,4.7-3.3,5,2,3.5-.6,6.4-4.7,10.5-.5,4,.3,7.8-5.5,6-12,4.1-3,6.8,2.4,6.5-3.5,4.1,1.7,2.2-2.2,7-3,.2-3.5,1,1.7,7-8,1.5,3.8,4.9,2.5,10,3,7.1,3.4,9,14.7,12-2-.7-2-1.3-1.2-2-4,2.1.6,9.1.8,11-6C178.1,235,179,228.8,180.5,227.5Zm-73-80c.4-1.1,2.1,2.5.5,1.5C107.6,148.4,107.3,148.9,107.5,147.5Zm-20,127c-.6-3.1,5.4,2.6,0,2Z"/>
    <path d="M243.5,324.5h0C243.4,324.1,242.3,326.9,243.5,324.5Zm20-42c-4.4-6.3,2.1-17.9-14-17,1.8-1.9,2.1-9.7-6.5-5.5-2.7-1.9-5.8-12.9-11.5-7.5-.9-.3-11.5,1.7-9-2-1.8-1.8-17.2-5.8-5-7-6.7-4.6-1.5,1.4-11-2-2.7-1.5-1.6,5.7-9,1,.2-6.7,8.7-4.1,1-12,0,.4-4.8,3.9-5.7,1.2,1-3.4-1.5-1.4-2.3-5.2-2.1.9-1.1,4.6-5,4,2.9-4.6.1-3-4.5-2.5-2.8-1.5.1.1-1,2-3.2,5,.1,1.7,2.5,4.5-2.2,5-.9,1.5-4,3,1.7.4-2.1,3.7-6,2-1.9,2.2,0,.5,1,5-1.2,2.4-2.5,2.3-1.5,7.5-2.5,3-2.9-5.7-21.5-8.5.7-.4-7.1,11-14,10,2.6,2.3.8,3-5,3-2.9-.5,4.9,11-7,12-3.5-2.7-5-.5-10,1,.9-1.1-4.4-5.5-10-3-4.9,0-5.5,3.2-12,2,.9.6,1.9,2.1,0,4,1.1-1.3-4.2-1.3-5,1,.6-.8,4.1,2.7,1,3-2.7-5.5-5.2-9.4-12.5-.5-.7-.4-5.2-5.1-7.5-.5-3.4,2.6-6.3,7.2-7,14-3.6-4.6-5.8,6.8-4,12-4.5.9-17.7,6.2-7,13,.3,9.4,12.5,6.5,14.5,13,2.9,2.4-2.3,3.9,1.5,13,.8.5,4.7-3.5,4,1C75.1,347.3,69.3,363,83,361c3,6.4-3.6,11.5,1.5,15.5,2.9,1.8-1.7,7.7,4,9,3.2-1.1,8.1,2.7,12,7-1.5,3.4,2.3,6.6,3.5,8.5-4.5,3.9,10.8,3.3,16,6,.6-4.4-5.4-6.2,5.5-3,6.4-1.2,9.1,5.5,14,9,5.3.9-1,4.9,2.7,9,2.7,2.6,7.6,2.2,8.3,9.5,2.5.7,4.8.9,3,5,16.8,10.1,3.8,14.2,15,19,6.6,7.4,7.4-9,22,10,6.1,9.4,6.3-1.5,8,21.5,2.7-.2,17.1,16.5,15,5.7-1.2-5.8,6-.7,7-3.2-1.3-5.7-4.3,2.2,0-13,.1-6.4,14.1-.5,4.5-15.5-1.1-.7-.9-1.5,1.5-2.5,1.9-3.4-3.3-11.4,4-8,1.7-.9.1,3.8,2.5.5,2.2-2.8,4.6-3.2,7.5-6.5,2,1.1-.1-6.9,3.5-5.5,5.2.9-3.1-4.8-2.5-9.5,2.6-.2,1.4-1.9,3-3,.5,1.6,1.6,1.9,2-2-3.9-1.1-1.3-.3-4-5,7-1.7,3.7,2.8,4.5-7.5,3.4-2.9,6.7-1.9,9-14-2.2,0-8.8-13.7.5-14.5-.1-.5.4-1.4-2-1-2.2-4.7-3.6-7.3-1-11,.1-.9-3.7,1.6-4-1,1.1-.8,8.7-15.3-1-14,2.5-1.6-1.9-4.7.5-8.5,5.1-9.8-2.8-8.6-9.5-13.5,8.9,1.6,4.2-2.4,2-5-3.8-2.4,8.9-1.1,3-4-12.6,4.7-.5-15.7,6-10,2.5,3.2.3-1.7,10-7-1.6-4.5-6.7,1.8-5-3,3.7-.2,1-3.5,1-8,.5.5,4.7-2.9,2-3C258.6,292.3,256.5,279.2,263.5,282.5Zm-22,164h0C243.6,445.9,241.2,444,241.5,446.5Zm6-23h0C247.9,423.6,245.1,424.7,247.5,423.5Z"/>
    <path d="M391.5,358.5h0C391.5,358.3,391.8,360.3,391.5,358.5Zm36-2h0C427.5,356.3,427.2,358.3,427.5,356.5Zm-176,17h0C251.1,373.4,253.9,372.3,251.5,373.5Zm-9,46h0C242.3,419.5,244.3,419.8,242.5,419.5Zm-20,52h0C222.6,471.1,223.7,473.9,222.5,471.5Zm81-112h0C303.5,359.3,303.2,361.3,303.5,359.5Zm189,88h0C492.5,447.3,492.2,449.3,492.5,447.5Zm36,15c-3.1-5.5.1-1.2-5.5-5.5,1.2-.6,3.7-3.5-2.5-4.5-2-.1,2.5,3.7-4,1-.9,1.6-7.3,4.5-10.5-.5-2.6-3.1-1.8,5-4.5,1-6.2-3.6-9.5-5-11.5-10,2.5-2.4,2.2-15.1-4-10-1.4,1.5-1.2-1.2-9,1,3.2-3.2-7.1-2-9.5-6.5-.1,2.3-3.1,6.6-7,4-3.2-7,.8-4.2-10-7,2.4,1.1,6.8-2.6,2-5-5,0-4.7,1-8-4-3.3-3.6-5.7,4.9-9,3,.8-1.2-4.8-4.4-11-13,.5-3.3,4.7-3.2,3-6,1.8-2.9-8-1.9-5-5-1.9,1,5.9-9.5,1-10,5.1-7.3,6-14.3,1-23,2-.6,7.7,2.8,5-2-1.9-4.4-3-.5-8-7,1.5,2.5-.8-9.7-5.5-5-.8.9.5,3.7-.5,1-3.2-4.2-7.5-4.5-11.5-8.5-3,1.9-1.4,1.5-6.5,5.5,4.1,4.6-4.7-.9,1.5,9.5-.8,2.7-9.8,1.1-12.5,8.5.2,4-1.6,1.1-4-1-1.2-2.6-6.2,1.9-7-1-2,.5,4.7-7.1,0-4-3.1,5.9-13.6-5.7-17,2-2.3-1.2-6.1-4.8-9.5-5.5-3.2-.5,3.7,4.6.5,4.5-4.5-4.2-1.6,1.2-12,2-1.1.4,1.8-6-5-4-.9-.4.3-6-6.5-4.5-5.6.3-3.3,3.3-7.5,7.5,1-2.1-3.9.8-12-1,2.2,1-12.9,6.9-7.5-4.5,1.5-2.7-8,.8-9.5,1.5,1.7,4.3-1.3,1.9-1.5,6.5-5.6-3.2,1,5.2-8.5.5-1.9,7.1-5.5,3.1-11-1-1.7-4-3,8.8-7,0-1.1-2.2-.7,2.9-5,1,.5,4.7-4.7-.9-5,2,2,.9-6.6,7.4,2,6-3.7,4.1,1.2,9.2,2,12-7.9,1.9-.4,14,0,15,1.6,10.3-13.2,11.5-8,19,2.4.8-11.1,3.1,0,7-.4,2.7-11.2,3.1-2,13,1.2,2.7-7-.7-3.5,8.5-6.8-.8-6.4,8.5-14.5,3.5-2-.3,1.2,7.3-3,11,3.2,2.3,1.8,4.1,4,8-.6,7.3-7.5-1.1-10,15-.3,4.5,2,7.3,8,8-1.1,5,4,4.1,5.5,4.5-3.7,3.5,2.6,1.7,3,11,.1.9,4.9.7,2.5,2.5,9.5,7.3,8.3-9,15,11,.6,4.7,2.7-3.4,5,6,5.7,20.8,1.8-2.4,23,21,3,5.5,8-1.8,10,7,13.7,8.9,1,4.7,0,12,.5,3.3,5.9.1,4,4,2.6,10.3,15.5,2.8,28.5,8.5,10.9,1.1,16.3,12.4,19.5,1.5,5.9,4.1,3.1-.3,5-4,13.7,5.7,3.2-19.5,13.5-9.5,3.3.6-.2,6.2,5.5,3.5.5-.1,5.7,4.3,7,3,1.5-.3,6.1-7.5,7.5-3,3.2,9.5,4.1-3.8,7,8.5,12.9,3.7,5.9-17.9,10.5-26.5,3.8-2.8,13.3-5.8,10-11,3.5-17.6,15.1,0,26-4.5,4.7-2.6-4.5-4.2-2-10.5,3.1-5.6,3.2-5.9,2-13,1-2,5.5-7.4,2-11,.5-3.7-3.9-13.1,2-18-1.5-2.9-.2-5.1,4.5-5.5.8,3.6,3.1-.6,5.5,1.5-.9,4,5.8,4.1,10,3,5.8,1.6,2.4.2,4,5,1.3.4,2.7,3.2.5,6.5-2,6.3,7.7-5,11.5-1.5,2.3-5.2,2.8,9.8,7-8,3.7,3.7,1.5,1.7,13.5,2.5,4.9,6.3,11.8,6.7,17,9,2.6-1,4.8,13.9,10.5,3.5,2.2,1.3,1.2-1.3,1-5-.6,1.3,7.3.6,2-1,2.4-5-3.4-3.7-8-6,0-2.2,3-6.6-4-3-.3,2.6-3.3-4.1,4-6,1-4.7,4-6.7,5-12-1-3.4,3.3-.1,5.5-.5C528.2,465.8,530.6,462.5,528.5,462.5Z"/>
    <path d="M271.5,366.5h0C271.6,366.9,272.7,364.1,271.5,366.5Zm-32-32c-1.7.8,4.8,1.9,2,.5C241.3,335.1,241.3,334.3,239.5,334.5Zm104,27h0C343.5,361.7,343.8,359.7,343.5,361.5Zm-7,0h0C336.3,361.5,338.3,361.8,336.5,361.5Zm-12-136h0C324.5,224.7,322.3,226.8,324.5,225.5Zm27-78h0C351.9,147.6,349.1,148.7,351.5,147.5Zm-10,20h0C340.7,167.5,342.8,169.7,341.5,167.5Zm8-18c-.7-.3,2.6.7,1.5-.5C350.4,148.4,350.5,148.4,349.5,149.5Zm167,115c4.2,7.2,2.9-2.1-4,22,1.4-1.4-15,3.7-10,7,2.5,4.2,3.8,8.6-6,5-2.9,1.9,1,3.9-6,5.5-5.1-1.1-9.2,5.7-12,4.5-2.9.5.8-4.8-4.5-.5-2.6,6.7-11.1,12.8-7.5,19.5.4,3.2.8.2,2.5.5,1.7,3.3.7,1.1,5.5,1.5-1.1,3.1,5.2,7.8,0,9,2.4,1.2-1.7,2.1-5,4,.9,0-2.9-4.1-3-1,.3,2.6-1.8-1.8-2,1-1.4-.4.5,4.9-3,4,.2-4.1-1.4-.4-6-4-1.1-1.3-1.1,4.4-2,1-5.1,4.2-10.5-.3-16,0-4.8.7-1.8,1-1,6-3.1-.9-3.3,1.6-6,0-3.4-1.5,2.9,8.2-6,8-3.5-3.9-2.2-7.3-6-10-2.6-.9-1.4,3.9-7-1,.4-3-4.6-1-7.5-5.5-2-.9,2.1,1.5-3,2,.8.5-5.5,3.9-2.5,4.5,1.5,1.5-6,2.2,1,8-2.5,4.3-10.5.3-13,10-.9,4.2-3-5-8-2.5-8.5,4.2,2.6-7.8-3-4.5-3.6,5-11.7-3.9-17,1,.8,3.1-7.1-5.5-9-4-3.9-2.8,3,4.6,0,4-3.2-5.1-5.5,3.5-9,1-6.1,3.6,1.4-4.2-8-3-2.1-2.2,1.9-2.8-5-5-9.4-1-.9,10.3-18,7-3.3-2.1-2.9,5.7-6,0,1.4,1.8-4.4,3.7-5,1-3.4,1,3.5-7-1-6,1.1-1.7-7.9.2-8,5-1.6,1.5-1,.7-2,4,0-.9-2.2-3.7-2.5.5-.6,4.5-4.6-2.6-5.5.5-2.8,5.1-5.2,2.5-11.5-2.5-.4-3.6-3.7,10.4-6.5-.5-2.9,2.5-1.7,2.2-8,4-2.4.4,3.6-10.4-5-9,.9-1.4.6.6,1-2-4.8-4.7,7.1-13.4-3.5-16.5-.3.7-3.2,1.2-1.5-1.5-5,.5,2.1-2.7,0-3,1.4-3.9-5.6-1.7-3-4-4.6-2.2,7.4-1,4-3-.1-3.3-12,2.7-4.5-6.5,15.2-17.6.9,7.5,19-12-.8-3.8-6.4,1.5-4.5-1.5,2.8-3.1,2-1.1,1-9,.7.5,3.8-1.5,2-5-1.1-4.9.1-10.9,4.7-10.8-4.3-5.9,2.5-17-13.7-16.2,4.9-11.4-4.6.7-13.5-14.5-2.8-3.1-3.9,8.1-18-3-4.1-.2-8.8-4.2.5-4.5-2.2,1-1.8-2.5-5-2-4.1,3.5-1.5,0-9,0,1.2,4-14.8,3.8-2-6-1.1-3-6.5-2.9-3-8,1.7-3.2,9.6,1.5,8-6-.8-2.7,2.9,2.4,4-1-1.6-1.4.6-7-.5-8.5,3.4,3.3,2.6-4.2,8.5-5.5,8.1,1.3,9.8-2.1,18.5-10.5,3.8,5.6,15.2,3,20.5-6.5,8,0,.8,12.6,12.8-2.3,10.3,1.3,7.7-10.1,15.2-6.7,1.6-4.1-4.8-5.4,1-10,5.8-3.1,20.2,7.5,29.5-.5,1.4,3.3,2.7.5,9.5,3.5-.6-.8,2-6.6,4.5-5.5,1.4,1.6,4.8.5,6-1,8,2,4.4,5.1,7.5-4.5,3.8-2.1-3.9-5.8-.5-9.5-2.8-6.1-1.2-2.8,7.5-1.5,1.2-12.9-1-1.7,8-8-.2-3.5-.5-4.9-3-10,4.3,1.6-.4-6.1,7,1,.9-1-.1-4.7,3-4,1.1,2.4,3.2,6.6,7,0,6.5-1.5-6.3,12.4,11,7,.5-2.5,8,.9,7.5-1-3.2-4.3,5.4,1.8,5.5-8,7.6,2.2,3.9-2.5,4-10,5-1.5,9.9,9.5,14,3,7-4.2-8-3.5,7.5-7.5,4.6-2.7-3.1-4.3,3.5-6.5-2.1-2.1-2-2.9,2-2-1.1,4.3,2.4-.2,4,4-2.1.1-2.4.5,2,2-2.2-.7.1-5,3-2,2.7-.8,3.7,4.6,16,11-1.7-.6,1,6.5,5,6,4.4,1.8-.3,2.6-2.5,5.5.3-.1,6.1,8.1,3.5,7.5.6,4.5-3.4,4.9,2,7-1.9,1.2,6.5,8.2-2,9-.9,1.6,2.8,6.1-2.5,4.5-1.4-.5-4,4.1,1.5,5.5-2.7,2.1-.1,3.5,2.5,5.5,0,2.5,4.6-5.3,5.5,2.5-1.1,1.2,4.5-.4,4.5,3.5-6.1,9.6,9.3,1.7,14.5,8.5.1-1.9,5.2-6,7-3,2.6.9,5.1,4.4,2.5,11.5.2,5,1.9,3.9,3.5,8.5-.1,3.4-2,8.3-6,10,8.1,1.7-3.5,4.3,0,5,6.3,0,9.9,1.4,13.5,5-3.2,2.5.8,8.3-5.5,3-1.5,3.5-1.4,2.3,2,5-5.5,0-.9.2-1,6-3.8,1.2-8.9-1-2,4-2.6-1.2-8.3.4-3,4,.6,3.8,7.6-.4,7,5,2-.1,4.6-2.5,5,2,.2-1,1.6-2.9,2,0C502.8,259.2,527,257.3,516.5,264.5Zm-123-31c4.1-4.3-3.2-3.6-8-12-.5.6-8.6.4-9-5,3.9-2.5.7-.9-4-1,1.3-.4-.9-5.3-4-2-.4-.3,1.2-5.7-1.5-3.5-3.6,3.2-7.4-2.1-9.5,4.5-3.2.8-2.8-2.4-7,2-2.8,2.5-10.8-5-8.5,7-11.7,1.9-2.1-4.7-9.5-2,3.5.7-19.5,7.9-7,5,2,1,1.3.5,2,3,10.5,11.1-9-3.2,2.5,13.5,1.2,3.9,7.3.4,5,5.5-7.4,4.6,4.5,3.3,3.5,6,2.9.1-2.6,2.3,0,3,1.6.1,2.6-.6,1,2-3.9-3.4-2.4,8,4,3-.7,2.7,3-1.9,3,1-.5.6.9,2.5,1,0,0-10.6,2.1-.1,7-6,5.9,1.9,6-9.6,11-4,2.3-2.3,1-2.5,3-5,1.1,1.5,4.4-.7,10.5.5,1.9,3.7,5.7,5.6,6.5.5.8,1.8,4.1-.9,2-4C389.5,239.8,382.4,237.3,393.5,233.5Zm-113-54h0C280.3,179.5,282.3,179.8,280.5,179.5Zm-23,108h0C257.5,288.3,259.7,286.2,257.5,287.5Zm159,63h0C416.4,350.9,415.3,348.1,416.5,350.5Z"/>
    <path d="M348.5,216.5c-.4-.3,1.1,1.4-1,1h0c-1,.5-.1-.8-2-1h-1c-.9.1-2.1-.8-3,2h0c-.1,2.3.4,1.7,1,5-10.7.8-3-.1-9-3-.4,2.4-2.6,3.6-7,4h0c-1.3,1.6-4.9.5-4,3,5.2-1.1,2.9-1,6,3,1.6-.8-.2,2.1,2,2-.3.4,1.4-1.1,1,1,.8.7-5.1-.8-6,4,1-.5.1.8,2,1-.4-.5,3.8,1.2,1,1h0v2l4,4h0c4.3-1,3.7,3.3,0,5,.4-.3-1.1,1.4,1,1,0,.1,1.9.1,2,2h0c1.1.2,5.3-1.6,3,1,0,.2,1.5.8,0,2h0c.3.4-1.4-1.1-1,1h2c3.7,1.5-5.4-.1-1,6h2c0-.1,2,.6,3-1,.4-.3-1.1,1.4,1,1,.7-.2-.1-1.1,2-1v2h1c.1-1.3-.3-9.8,3-5,1.8.5,3.1-1.4,5-2h2c.7,0,1.3.2,1-2h0c-.3-.4,1.4,1.1,1-1v1c0-.5-.3-1.4,2-1-1.2-1.1-.3-.1,0-2a2.11,2.11,0,0,0,2-1c1.2-1.3,1.1,4.4,2,1h1v-1c-.4.5,3.8-1.2,1-1l-1-1a2.11,2.11,0,0,0,2-1c-.3.4,1.4-1.1,1,1,.9.4,1.3-.4,3-1h0c1.6.8.6.8,3-1-.3,2.1,2.1.4,2,2h0c.7.2,2.3-2.3,2,2h2c1.1.5,1.9,1.8,4,0,.5-1-.8-.1-1-2h0c.5-1.5,3.3,3.5,3-1,.4.3-1.1-1.4,1-1v-1c-.9-1.2-1.1,0-1-4h0c.7,1,1.1-3,0-3,.2-2-1.2,1.4-1-1h0v-1h0c-.3-.4,1.4,1.1,1-1,.8-1.7,12.1-2.9,5-8,.2.5-2.8-.7,0-1-.6-.3-2.9.9-4-1h-1c1.4-7.7-4.9-2.7-10-7-2.2-1.9,3.9-6.3-2-4h-2c-1.9.8,1.2-2.6-3-3h-1c-2.4,3.5.7-6-3-2h-2c.2,1.9-1.6.2-4,0,0,.5.3,1.4-2,1-.4-.3,1.1,1.4-1,1,1.7,1.8.4,2.2-4,2-.4.3,1.1-1.4-1-1-.7-.4,1.4,2-1,2,.1.8,0,1.3-3,1Z"/>
  </g>
  <path d="M1019.5,354.5c-2.5-.6-2.9-11.2-6-20-.5-6.8,1-12-11-8-3.5-.7-1.8-7.5-8.5-6.5-2.1-.1-2.4-.6-4.5-1.5-4.1,0-3.6-9.6-7-15-1.2-5.4-1.6-5.7-4.5-11.5-3.7-2.2,10.8-10.5,1.5-9.5-6.6-.4,3.2-11.9-3-12.5-10.1-3.5,2.4,3.2-7,4.5-7.5-1.2-9.9-10.2-20-8,1-.4-12.2-6.1-7-1,3.9.2-1.7,1.4,1,2-7.2,6.5-8.9-1.2-11-8.5-5.1-2.5-8.6,3.9-10-7.5-2.2,1.4-1.4-.1-6,0,.7,0-.2,6.5-2,3-3.3-3.4-.9-2-6.5-2.5-5.8-4,3.5-5.2-10.5-16.5-2.9.8-10.2,7.5-3,9-1.9-2.9,6.8-3.6,3.5,1.5-1.7-.1,2.6,4.6-1,3-5.5-2.7-12-.6-17.5,6.5-3.1,2.9-14.7.1-13.5-4.5,4-2.4-6.8-2.3-9.5-6.5,2.8-1.4-2.9-8-2-11-4.4-.6-3.1-9.3-10-10-4.8,6.4-4.2.2-14-9,.9-7.7,15.8-1.6,18-11,.6-2,8.3,1.4,6-4,3.6-5.7-7.4-7.8-4-13,.6-.8,4.5-6.1,3-6-.2,2.3-11.9-12.9-9-3,3.8-1.3-11.9,18-15,8-7.6,4.7-12-4-23,6-.2-1.5-8.5-12.4-11-4.8-6,9.6.3-10.1-4-9.2.3-1.1,5.1-5.4-1.4-3.2-10.4,6.1-18.5-7.7-20.6-14.8-8.2,4.2-8.1-.1-13.8-4-10.6,2.4-8.5-6.8-19.2-3-6.8-6.2-13.3-12.1-17,2,7.9,6.3,7.3,3.6,11.5,20.5,4,4.7,18.7,5.8,9.5,16.5,2.1.9,1.5,2.7,4,5-5.9,11.6-5.4-9.1-10-1,3.3,5.7-10.1,0-10,5-5.8,10.4-3.7-2.9-9,4-4.8,1.4-5.4,6.1-8,13-3.9,1.7-7.1,1.9-8,8-5.5,8.5-21.7-7.6-26-15,4.7-10.5-10.9-22.6-19-35-2.7-4.1-4.3,3.2-5,0-5.7-4.3-3.1-9.6-6-14-2.4,1.4-4.7-1.5-9,0-1,2.6-2.1,4.8-4,0,.5-1.2-1.9-2.9-3.5-3.5,1.4-1.2.4-3-1.5-4.5-3.2,1-4.3,4.4-4-3-1.1-.7-3.7-2.4-1-5,1.2-2.4,5.9,4.8,3-3,3.8,0,4.3-5.8,11-5,1.8-.8,1.5-9.9,7-3,.3-.8,1.4-.7,2.5-1.5,1.2-4.5,8.7-4.8,4.5-9.5,3.2-.7,3.2-3.3,2-7,1.4-.3,5.9,1.6,6-3C657.9,111.3,644,98.4,639,94c-7.7,1.8-1.3,1.2-14.5-1.5-4.2,16.7-4.7,8.9-15,3-10.5-5.4-10,21.7-21.5,10.5.9-2.9,7.1-3,4.5-4.5-1,1.4-4.1-3.2-2-3-1.8-26.5-22.3,5.4-22-11-11.6-33.8-2.1,4-38-19.5-21.2.1-24.7-15.7-30.5-2.5.4,2.7-7.2,3-4.5,0-1.9-2.1,1.2-7.8-3-16-6.5-.1-18.6-12.3-10-25-2.2-1.3-.6-3.7-4-6-6.3,2.8.1-10.9-11,0,.1-.3-3.6.1-2.5-1.5.6-1.6,2.3-9-2.5-7-2.9,1.2-3.1,3.9-4,6-2.6.3-7.2,0-4-4.5-1,.7-7.5-6.4-7-1-5,5.8.1-10.4-13.7,5.5.3,5.4,6.9-1.1,8.2,5.5-.9,4.8-5.2,12.7-3.5,21.2,2.8,6.1-10,3.5-15,.8.1,4.1-1.2-.4-5,0,1.5,5.6-5.6-1.2-6,2-3.9,3.9-1.7,17.5-12,9-1.7-.3-2.2,2.7-5,2-1-.3,3.2-2.4,0-3-5.4-4.2-19.6-.9-11-15,8.1-17.4-8.9,2.2-12-7,5.6-3.4,8.9-22.4-3.2-18.3-2.9,1.3,1.3-1.5-1.3-3.2-9.1-.3.2-7.5-5.5-6.5.2,13.6-3.6-4.7-9,5-7.2,5.3-7.2-8.7-15-4-5.8-12.3-9.1,6.4-11,11-1.9,1.5,1.7,3.8,5,4,.9-.5,5.2-4.8,5,1-7.2.2-2.5,6.6,7,8,5-3,4.3,8.4,0,10-4.1-.9-4.5,2-11,3-3.5,1-1.7-5.3-9,0-3.3,11.1-19.9,9.9-27,18C291.6,62,283.6,52.9,279,64c-3.4,3.3-5.6-5-7.5,3.5,3.6,15.7-4.9,2.8-5,12-5.3.7-8-3.2-15-2-2.4,2.8-1.4,2.2-5,0-1.2,1.5-2.6,7.1-7,2-4.9-3.4-7.2,2-12,4-1.1-1.8-16-2.8-8.3,7.2,2,1.1-9.3,7.5-2.7,6.8.8,3.9-5.5,3.4-8,9-4,6.8-10.2-8.3-16-9,4.3,6.9-3,7-6,11-2.8,2.6,2.2,4.1-5,7-9.1-15.2-9.9,11.6-16.5,16.5-12.1,2.3-1.1-8.3-15,1.4-13.8-4.3-5.7-5.3-11,13.6-14.3,17.3-16.6-2.3-29.5-3.5,2.2,4.3-13-.5-17,14-5.2-6.5-8.9-3.6-18-2-6.6,2.5-14.4.2-14.5,11,3.5,7-6.8-4.2-8.5,9-2.7-2-6.5-.4-5,6-7.5,2-5.4,10.3-8,14-5.1-6-.8,11.8-3,15-13.4-1.2.8-11.4-12-16.5-4.8-6.4,7.8,3.1,1-6.5C6.1,190.1,28.7,172.3,2,176c-2.2,1.7,4,1.7,3,3-3.1,3.2,3.5,5.3,2,8-7.4.8-8.4,11.5,2.5,8.5-2,2.3,2.1,2,1,5,17.5,11.7-6.6,19.4,13,29,7.5,3.9-1.5,9.6,4,7,1.3,4.5,4.4-3.6,7.5,5.5,4.3,1.3,6.5,5.8,11.5,6.5,11.7,5.5-3.7,5.4,11,5-3.1,1.3,4.9,1.2,3.5,4.5-1.8,1.7-6.7,7.4-.5,8.5,1.9,3,8.6.5,9,6,1.5.9-8.1,8.2-8,17-2.1-2.6-5,.5-3.5,4-3.2,4.6,3.4,6-11,13.5-3.7,2.5,9.2,19.2,17.5,17.5,2.9,2.7-.8,7,1,11,1.3,1.1-1.7,5.1,2,5,7.5-6.7.8,22.1,14,21,5.4-3.4-2.4,13.5,4,16-1.6,12.6,5.3,1.8,15,16-1.5,4.8,5,5.3,3,10,4.8.8,11.6,1.5,16.5,3.5,2.9-1.6-5.1-4.8.5-4.5,5,1.6,11.6.8,16,8,3.7,5.5,4.9-1.8,5,10.5,4.8,4,8.9,6.6,12.5,13.5-3.1,2.7,5.6,5.5,9,10,.5,5.9-.3,8.8,6.5,12,3.4,3,7.1-2,11.5-.5,6.7,4.7,9.7,12.3,16.5,15.5.4,6.7-3.9,17.5,16,25-1.3-9.1,3.9-7.2,12-5,2-1-.2,5.3,4,5-.2-.7,5.1-2.4,1.5.5-2.1,2.3,3.6,1.7,2.5,5.5,2.1,4,5.1,12.5,13.5,7.5,2.4-4.6,3.4,12.9,7,12,4.8-4,2.6,12.7,7.5,14,13.7-.8,11.3,8.5,23,14.5,3.8-2.1,3.9.6,6,3,15.5,12.9-4.1,5.5,1,14,1.6,3.1,2.4-2.9,4,6,5.3.3-.6.7,3,3,1.6-3.2,5.4,2.9,10-.5,7.1,1.4,13.4,2,21.5,4.8,6.8,2.1,8.7,9.7,12.5-.3.4.2,6.6,5,4-3-1-5.3,7.4,7.1,10-9-4-5.2,2.8-5.2,6,0-.3,3.6,3.1,1.4,4,3,5.5-1.9,2.9,6.9,11.5-1.5,3.6-5.2,2.4,5.6,6.5,4,2.7-2.6,1.8.9,3.5,5,12.8,3.8,6-18,10.5-26.5,2.8-2.2,8.4-3.1,10-8,5.4-10.7-6.9-15.1,22.5-6.5,9.3-.4,1.6-4,1.5-8.5,1-8.6,4.1-6.5,2-17,8.8-5.5-5.1-19.4,4-28-2.1-3.3,2.3-7.4,6-4,.6.7,4.3-2.7,4,1,5.1,8.5,10.7-6.9,16,11-6.4,9.6,5.1-2,15,1,1.7-2.2-.6-11.2,3.5-7.5-1.4,4.5,6.7.1,12,2,4.3,4.2,10,8.6,15.5,7.5,3.7,3.3,10.9,15,21,11,1.7,1.1.9,3.3,5.2,3.7,4.1,3,11.2,10.2,17.3,5.8,1.7-5.3,17.4-5,11.5-.5,1.7,3.1,5.7-.7,6,1-2.2,4.4,5.8,1.2,3,4-.7-2.2-2.4.6,0,1,4.7-1.2,3.4-.9,5,4,4.4-7-2,5.4,20.5,14.3,10.9,4.3,21.8,1.7,34.5,3.7,3.3.5,5.2,3,7-1,5.7,8.7,13.1-4.5,17.5-14.5,2-1,5.6,3.7,13-1,5,6.5,8.2,5.6,16.5,6.5,3.9.1,2.7,9.7,4.5,11.7,11-6.5,5.5,6.7,23.5,4.3,3.7,1.5,5.4-4.4,7-1,2.1.4,4.9,2.3,4,6,3.1,1-4.7,2.4,1.5,4.5,0,2.6-2.2,9.7,1.5,11.5,4.7,2.3,5.2-6.4,6-14,1.4-.1,7-6,3-10,3.5.1,2.5-1,4-3,3-3.5,3.5-6.4,7-9,.6-2.2,4.4,1,4.5-5.5,3.8-19,3.6,1,12.5-15.5,3.3-3.8,13.9,3.3,21.5,5.5,2.1,4.6,5.3,7,9.5,6.5,2.4,1,2.4-.4,7-4,7.6-10.2,9.3,7.9,17,4,9.6-3.2,9.5-9.4,24-10,5.3-3.7,7.7-12.1,14.2-15,18-.9,11.4,6.5,17.8-19,3.3-7.7,12.5-.8,20-4.5,13.8-9.1,7.1-21.5,12.5-31.5-1.6-5.3,2.6-8.7,3.5-13-.8-2.9-2.3-7,3-10.5,6.4-1.8-5.9-5.9,14-7.5,11.5-6.4,22.2-4.4,22-23,11.2,3.1,8.1-6.9,20-16,.4-2.8-4.8-4.4,3-9.5,3.9-.6,5.2-.6,8,3.5,6.4-2.9,9.8-4.9,18,.5,5.1,1.3,3.5-3.2,10-5,4-1.9,5.8,1.4,6-4.5C1019.5,359.7,1022.2,357.7,1019.5,354.5Zm-912-207c.4-1.1,2.1,2.5.5,1.5C107.6,148.4,107.3,148.9,107.5,147.5Zm834,120h0C941.5,267.3,941.8,269.3,941.5,267.5Z"/>
</svg>
