<svg id="Layer_1" data-name="Layer 1" xmlns="http://www.w3.org/2000/svg" width="480" height="320" viewBox="0 0 480 320">
  <path d="M418,194.53c6.61,6,.4-8.41-4-12-6.81-5-11,5.41-12-6-1.6-8.22,15.23,4.61,14-4,1.8-.8-9-5.21-1-5,6.81,5-.2-14-7-21,8.22-3.2-8.81,3.41,0-10,1.21-4.81-7.61-.8-10-8,9.62-6.21-1.2-12.42,0-22,1.21-5.61,5.82-3.2,0-14,6.62-.2,3.41-11-2-18-4.81-3.6-6.61,4.21-26.05-2-4.6,2.81-.2,9.62-8,2-9.82-2.4,16.83-9.41-14-16-3.6,1.6-8.61-.2-11.22-3.41-6.81,2.4-11.62,5.41-14.82-.6-15.83-4.21-39.67-40.07-50.09-22-12.63-7.41-26.85,15.63-31.06,21-10-13.23-19.43-5.21-43.08-1-6.81,2.21-26.64,4.41-20,24-1,.6-1.81,4-5,1-4.21-6.21-12.42,3.81-12,11-.8,5-6-3-11,2,1.2,12.43.4,9.82-10,20-6.21,2.2-1.6,15-4,20-10.82-8.22-6.61,9.61-6,24-3,8.41-9.42,8.81-18-6,5,1,7.41-11.62,0-16-27.25-14.23,11.62-3.61-8-18-19.83,2-10.61-4.81-18-24,.2,1-28.25-1.4-25,3,9,3.2,2.6,7.61,9,17,9.42,2.6-14.22,4.21-11,15,7.62,9,9.22,4.4,19,9-5.41,8,26,20,10,40.08-.81,6.21,1.6,12.82,4,20,1.41-2,26.45,7.21,16,18-.2,4.21,2.41-2.6,5,2,1.6,5.81,7.21-8.82,15,10,9.21-.2,7.81,9.41,22,12,1,8.61,10-3.61,10,12,4.2.6,7.21-8.82,12,0,24.64,7.81-23.85,17.83,16,28.05,8.81-1.6,5,12.82,13,11,4.81-5.41,6.21,4.41,8,4,1-6.42,4.81,1.6,5-3,2.41-13.82,15.43-.8,28.05-6,4.81,5.81-3.4-10.62,5-5-2.6,6.21,27.85-16.23,29-3-1.6,1.2,9.42-6.62,10,4,7-1.2,12.83-9.41,21-1,8,.6,15.63-11,12-24,8.22-6,13.63,4.81,13-7,8.21,3.4,4.4-4.41,14-6,.4-7,2,3.41,14-16,3,7.61,9.81,5,20,6,14.23,6.81,18,29.45,24.05-4-1.41-4-2.61-2.41-4-8,4.21,1.21,18.23,1.61,22-12C413.16,209.56,415,197.14,418,194.53ZM271.71,34.24c.8-2.2,4.21,5,1,3C271.91,36.05,271.31,37.05,271.71,34.24ZM231.64,288.7c-1.21-6.21,10.81,5.21,0,4Z"/>
</svg>
