<svg id="Layer_1" data-name="Layer 1" xmlns="http://www.w3.org/2000/svg" width="480" height="320" viewBox="0 0 480 320">
  <path d="M271.21,251.86h0C270.81,251.86,274.73,251.28,271.21,251.86Zm146.92,17.63h0C417.93,270.28,415.78,264.79,418.13,269.49Zm11.75-7.83c-5.29-4.51-7.44-18.81-17.63-21.55,4.11-9.6,14.3-21.74-2-27.43,11.56-8.81-9.21-29,3.92-47-10.19-7.44-8.82-6.86-13.71-18.61-6.27,1.76-22.34-17.63-29.39-12.73-23.11,31.93-11.75,3.33-21-20,2-5.69-18.8,1.56-24.09-25.08-9.21-13.71,16.84-31.73-10.78-38.2-3.72-.19,3.14-7.44-1-6.86-7.44-2.35-10.18,9-17.63,6.86-6.27.59,10.38-22.13-9.79-14.69,1,6.46-9.6,17.63-13.72,5.88,3.92-5.69-.19-4.12-9.79-9.8-13.71,16.65,3.33-6.46-23.51,5.88-16.06,22.53,14.5,5.09,9.8,21.55-2.55-3.73.39,6.07-2,9.79,1.17,4.51-9,6.86-4.9,12.73,7.84,32.52-6.66,24.49-33.3,19.59-5.49-5.09-2.35,4.12-8.82,2.94-3.52,2.35-7.64-9-10.77,6.86-8.23,7,3.13,21.94-18.61,12.73-1.76-4.5-14.3,5.68-9.8,0,3.33-2.94-20.56-14.1-30.36-12.73-6.86,14.89-16.06-3.33-15.67,17.63-3.33,17-11.75,7-26.45,1-11,.78-4.31,2.35-7.83,7.83,7.83,4.12-3.53,1.77,2,7.84C81,152,66.69,157.44,75.31,167.63c-3.72-.2-24.88,7.64-14.69,20.57-6.47,3.72-19,15.08-4.9,16.65-.2,19,14.5,32.13,23.51,56.81,13.71,4.5,5.88,3.13,17.63,17.63,5.48-21.55,4.11,10,21.55-7.84,9.2-.19-14.5,23.51,21.55,13.72-1.77-6.66,15.67,3.33,12.73-2-5.29-7.64,6.27-.4,6.86-5.88,7.64-3.72-2.94-9.6,12.73-9.79,5.29-5.29-8.23-19.59,2.94-19.59,16.45,9.4,25.27,17.23,25.46-3.92,9.21-8,15.48,1.37,15.67-15.67,7.25.58-2.93-8,2.94-6.86,6.66,3.92,4.7,3.92,11.76,6.86,2.74,3.52-7.06,3.33,2.94,3.91.78-11.75,27.42,11.17,39.17,21.55-1.17,9.6,2.75,4.31,23.51,18.61,36.63,23.51.39-25.07,53.87,3.92,4.12,6.27-.19.78,6.86-2.94-2.16,1.57,3.72,8.62,0,7.84-2.16,7.83,30.56,3.52,15.67-11.76-1.57-8.22,8.42,2.55,13.71-13.71,4.7-4.9,7.06,26.45,23.51,7.84C406.76,263.81,436,273,429.88,261.66ZM235.94,234.23h0C235.75,235,233.59,229.53,235.94,234.23Z"/>
</svg>
