<svg id="Layer_1" data-name="Layer 1" xmlns="http://www.w3.org/2000/svg" width="480" height="320" viewBox="0 0 480 320">
  <path d="M300.51,140.88h0C300.51,140.64,300.87,143.07,300.51,140.88Zm95,106c-2.8-.12-3.29-12.3-7.31-24.35-.24-6.58.49-15.59-12.18-9.75-4.63-.36-3.53-4.87-8.52-8.52-8.65,3.9-14-6.46-14.62-14.62-2.92-7.42-6-12.42-7.91-21.31,3.53-1.46,1.7-4.87,3-5.48-1.09-.85,5.73-2.07,1.22-3.65-11.57,2.8,2.56-17.66-7.31-14.62-9.13-8.76,8.41,19.25-25.57-6.08-1.1,5.84-14.13-6.09-15.83-1.22,7.67,3.65-9.75,15.46-9.75-6.09-23.62-1.83-2.31-4.63-18.26-9.74-1.71-2.68-2.56,8.16-4.87,3.65-2.44-5.72-7.43,1.1-9.75-6.09-.12-5.48-11.69-26.06-17-11-4.5,9.86,6.7-2.56,7.31,4.87-1.58,2.31.85,4.26-1.22,6.09-3.65-1.58-8.28-4-11,0-11.08-3-4.87,17.9-27.4,4.26-1.1-5.48,2.92-3.41-5.48-6.7-6.94-1.46-3.29-3.65-8.52-14.61-1.47-.61-7.68-21.68-15.84-11.57-5.48-.49-2.8-3.41-6.09-7.31-4-1.82-4.5-1.21-6.08-6.69-5.49-5.36,11.69-4.75,17-8.53,3.29,1.34.61-3.77,4.88-6.09,2.43,2.07,5.11,1.1,7.3-2.43.25-14.86-14.61-7.31-1.21-24.36-5.85,1.83-4.39-6.21-11-7.31-6.69.25,6.82,1.34-9.74,14.62-9.25,6.09-4.14-.25-11.57-.61-5.72,6.82-24.48-11.94-29.83,20.09-9.14-1.46-3.9-9.74-12.79,3.66-1.22,5.11-4.75-1-7.31,3-4,3.9-5.84,7.55-12.18,11,2,19.61-6-.37-1.82,22.53.12,7.31-7.31,3.29-14,24.36.73,3.29,7.8,2.55,6.7,7.3,6.82,1.83-8.65,10.11-4.87,11-3.53,1.34,5.11,1.83,0,4.88-3.9,6.21-4.63,3.41,2.43,14.61,14.74-2.07,3.9-3.53,7.31,8.52,3.78-4.5,11,2.81,18.27,3.66-.85,5,6-4.87,8.52,0,8.77,4.14,5.61,11.69,12.18,14.61,5.48-9.74,14.49,13.52,19.49-1.22,21.31,16.44,6.45-1.58,21.92,4.88,11.81,3.16,2.07,5.35,6.09,18.26,14.85,11.57,1.58-8.89,15.22,6.7,0,2.8.24,1.83.61,6.7,3-3.9,11.81,8.65,17,15.83-3.29,2.56-6.21-.24-2.44,7.31,3.17,2.8,1.46-7.43,8.53-3.66.12-3.53.85,4.39,2.43,6.09,9.38.73,9.5-1.82,17.05,9.75,7.8-.86,13.64-6.46,29.84-1.22,5.6,9.38,13,5.24,23.14,5.48,4.26,20.21,12.42,3.77,13.39,24.36,22.41,6.33,14.13-.74,31.06-16.45,4.63-3.16-5.12-5.23,3-11.56,5.85-5.12,7.8,1.82,12.79,2.43,8.77-3.77,11-4.63,21.92,1.83,4.75-1.95,7.55-7.19,17.66-7.92C391.6,253.9,399.76,253.29,395.5,246.83Z"/>
</svg>
