<svg id="Layer_1" data-name="Layer 1" xmlns="http://www.w3.org/2000/svg" width="480" height="320" viewBox="0 0 480 320">
  <path d="M330.89,233.39c-1.1,4.3.5,11.6-10.5,5.5-1.6-2.1.9,2.1-1.5,4.5-3.1-.5-4.2,2.2-7,4,3.9,5-1,.7-2,11-4.1-2.8-4.2,5.9-13-6-5.5-.9,1.2,8.1-8,3-7.2.8,7.5,6.3-1,11,1,3.8-9.4-4-17,1-.2,2.9-.9,4.2-4.5,8-5.1,7.5,3.7-7.4-17.5-4,2.3-3.3,1.7-12.1-3-4-6.1,2.5.5,8.3,0,13-8-.2-5.1,14.3-18,10-1,2-5.3.9-6,1-2.2,1.1-1.1,10.2-5,4-4.9-10.2.9-10.1-18-19,.7.2,3.7-5.7,2.5-9.5-3.4-6.4.2,1.4-2.5,2.5-1.8-1.3-4.7-2-4-7,.1-.7-2.1,1-3.5-.5-2.3-2,2.3-.1-.5-4.5-.1-2.7.9-2.7-5-7,3.7.3-3.6-10.4-11-4-5.8,3.9,3.9,5.9,4.5,14.5-3.6-1-3.6,20.3-17.5,1.5,0-4.3,7.4.8,3-7-.5,2.9-4.3-6.9-4-11,.4-2.4-1.3-3.2,3-4-2-4.6.3-3.2,3.5-4.5-4.3.3-7.8-1.6-14-3,2.3-1.4,1.8-1.4,1.5-5.5-4.3-7.9,10.3,4,7-4-.4-1.7,4.1-9.3,1-16,6.6-2.8,11.4-13.5,2-18-1.2,1.5-6.5,5.2,0-4-5,.6,0-4.1-3.5-5.5-7.3-4.2-2.1-8.6-8-13-5.2-17.9,13.5,9-4.2-38.7-.9-5.5,6.5,2.1,6.7-.8,2-5.2,5.5-5.5,10-11-2-2.9-4.6-5.7-.5-9.5-.3-1.8-3.4-5.2.5-6.5,3.7-4.5,4.4-16.9,8-20,3.2,1-3-8,12-6,3.4-.8-1.3-4.6,3-5,3,8.3,11.4,8,4.5-1.5-2.5-1.8,2.9-.3,2.5-7.5-6-10-11.7.1-16.5-23.5-13.1-8.4-5.6-22.5,10.5-8.5,7.6-4.3,8.2,5.4,20,3-.5,3.9,6.6,8,11,4,4.3,4.5,8.3,22.3,24.4,14.2,3-3.1-3.2,12.1.6,14.8,3.2,1.6.5-3.7,3-4,5.2.4,9.7.6,9,9-2.2,1.3,1.8,15.5-8,5-.1.4-.1.2-.7,2.2-2.6,4.7-4.3,5.4-9.8,7.3-1.4.9-6.1,8.1-9.5,8.5.6,17.1-5.2-.1-2,19,.7,5.7-9.9,7.2-9.5,16-5.1,10.1,12.5,5.4,0,17.5-4.9,3.1,4-1.8-3,11,2.8,1.6,3.2,6.3,6,7,1,.1,8-5.7,4.5.5-4.4,10.2,2.3-.4,16,11,4.1-8,12.2,3.2,14,8-3.6,1.5,3.4,1,9,1,2.6,1.8,4.8,8.9,9,0,18.2,14.1,3.7-2.9,21,5,7.5,3.8-6.3,7.4,6.5,17.5,2.8,1.6,1.9-8.6,5.5.5,3.9-.1,1.5,7.3,4,6,5.5,3.5,11.6,9.9,12,14-.8,2.7-5.4-.1-1,5C323.69,237.59,324.49,220.49,330.89,233.39Zm-2-5h0C328.89,228.19,328.59,230.19,328.89,228.39Zm-154,19h0C174.89,247.59,175.19,245.59,174.89,247.39Z"/>
</svg>
