<svg id="Layer_1" data-name="Layer 1" xmlns="http://www.w3.org/2000/svg" width="480" height="320" viewBox="0 0 480 320">
  <path d="M277.36,90.88c.55-.37-5.9,1.11-1.84-1.84C275,89.77,278.1,87,277.36,90.88ZM448.94,30C436.4,3.61,432.15,55.09,413.89,54c-.55,2-4.8,21.22-14.76,14.76-12.73-2-19.93-17-41.51-21.22-.74,6.65-10.52-17-17.53-2.76-1.11,1.47,2.77,9.59-3.69,9.22-10.52,4.8-18.08,10.33-33.21,16.61-4.06,12.17,12,3.32-7.38,14.76,7.56,14.94,8.3,7.56-12.91,5.53-2.4,5.17-6.28,1.29-11.07,1.85-7,2.58-12,.92-17.53-6.46-.55-.19-.55,1.11-11.07-3.69-3.51-8.67.37-4.24-12-8.3-4.8,3.13-.93-15.5-18.45-11.07-4.43-11.81-.19-16.79-16.61-19.38-2,.37-12.73-10.33-11.07-2.76-9.22-2-5.9,5.16-18.45,9.22-.37,6.83-14.94,6.46-13.83-3.69,4.61-5.53-7.38-14.94-13.84-5.53-10.89,1.47,10.51,6.09-18.45,14.76-3.51,5.35-2.77-2.22-11.07-3.69.74,1.84-.56,3.5-18.45,0-1.48-10.33-3.32,4.06-14.76,0-2.22,1.47,0,10.88-7,11.07-7.94-1.48-10,13.83-18.82,1.84.18,0,1.48,3.88-1.85,3.69-3.87,1.48-3.13-8.67-7.38,0-2.76,3.51,10.15,4.06,3.69,5.54-9.22-1.66,5.72,8.11-1.84,11.07-23.8,6.08,11.25-1.11-12,10.14,6.45,5.17.18,6.09,14.76,9.23,12.91,2-12.55,6.27,12,2.77-7.38,12.73,11.25-5.72,0,11.07.37.18.18.36,2.77,2.76,7.19,8.31,25.46,1.85,12,17.53,10.88,8.49.74,2-5.54,33.21,12,8.86,23.25,14.39,27.68,24-2.22-1.84,7.19-2,12.91-3.69-1.66,1.48-3,4.43,3.69,3.69,2.22-6.45,4.62-.18,16.61,3.69.74,4.8,8.85,10.34,16.6,7.38,5.17-2-4.06,12.18,2.77,10.15,5.72-3.13,6.27.19,13.84,6.46,2.76,1.48,10.33-1.11,9.22,3.69-13.47,11.44,5.72,11.25,12.92,18.45,13.65,12,14.57-19,26.75-19.37-7.38,15.49,23.06.92,23.06,19.37,1.66,7.75,12.18-5.17,16.61,3.69,9.77,2.21,27.12,6.83,37.82,26.75,9.22.19,17.89,2,31.36,18.45,9.78,1.29-2.95-8.12,12-8.3,1.11,8.67,2-3.14,22.14,1.84,16.42,5.35-8.85-23.8,24-12.91,5.35-8.86,5.35,2,23.06-.92,10.7-1.11,31,28,33.21-1.85-9.22-17.34,7.57-12.36,8.3-23.06,3.51-14.39,3.88-21.22-14.76-20.3,10.34-5.9,5.17-13.46-5.53-25.83-5-6.64,1.29-10.33-8.3-17.52-2.77-9-1.85-11.26,8.3-19.37-6.64-3.33-2.22-30.08-14.76-48-5.72-16.06,10.15-.19,11.07-5.54,2.4-11.25,25.83-14.76,12.91-29.52-2-3,5-6.09,4.62-8.3C428.28,71.51,443.78,48.63,448.94,30ZM321.64,297.52h0C322.56,297.89,320.35,292.35,321.64,297.52ZM48.58,65.05h0C48.58,66.53,52.64,62.65,48.58,65.05Z"/>
</svg>
