<svg id="Layer_1" data-name="Layer 1" xmlns="http://www.w3.org/2000/svg" width="480" height="320" viewBox="0 0 480 320">
  <path d="M187.92,54.25c-2.06-1.55,5.68,7.22-5.16,5.16h0c-5.15,2.58-.51-4.13-10.31-5.16h-5.16c-4.65.52-10.84-4.13-15.48,10.32h0c-.51,11.86,2.06,8.77,5.16,25.79-55.2,4.13-15.48-.51-46.43-15.47-2.06,12.38-13.41,18.57-36.11,20.63h0C67.72,103.77,49.15,98.1,53.79,111c26.83-5.68,15-5.16,31,15.47,8.25-4.12-1,10.84,10.31,10.32-1.54,2.06,7.23-5.67,5.16,5.16,4.13,3.61-26.31-4.13-30.95,20.64,5.16-2.58.52,4.12,10.32,5.15-2.07-2.58,19.6,6.19,5.16,5.16h0v10.32l20.63,20.64h0c22.18-5.16,19.09,17,0,25.79,2.06-1.55-5.67,7.22,5.16,5.16,0,.51,9.8.51,10.32,10.32h0c5.67,1,27.34-8.26,15.47,5.16,0,1,7.74,4.12,0,10.31h0c1.55,2.07-7.22-5.67-5.15,5.16h10.31c19.09,7.74-27.85-.51-5.16,30.95h10.32c0-.51,10.32,3.1,15.48-5.15,2.06-1.55-5.68,7.22,5.16,5.15,3.61-1-.52-5.67,10.32-5.15v10.31h5.15c.52-6.7-1.54-50.55,15.48-25.79,9.29,2.58,16-7.22,25.79-10.32h10.32c3.61,0,6.71,1,5.16-10.32h0c-1.55-2.06,7.22,5.68,5.16-5.15v5.15c0-2.58-1.55-7.22,10.32-5.15-6.19-5.68-1.55-.52,0-10.32-.52,0,6.7,1,10.32-5.16,6.19-6.71,5.67,22.7,10.31,5.16h5.16v-5.16c-2.06,2.58,19.61-6.19,5.16-5.16l-5.16-5.16c-.51,0,6.71,1,10.32-5.16-1.55,2.07,7.22-5.67,5.16,5.16,4.64,2.06,6.7-2.06,15.47-5.16h0c8.26,4.13,3.1,4.13,15.48-5.16-1.55,10.84,10.83,2.07,10.32,10.32h0c3.61,1,11.86-11.86,10.32,10.32h10.31c5.68,2.58,9.81,9.28,20.64,0,2.58-5.16-4.13-.52-5.16-10.32h0c2.58-7.74,17,18.06,15.48-5.16,2.06,1.55-5.68-7.22,5.16-5.16V209c-4.65-6.19-5.68,0-5.16-20.63h0c3.61,5.16,5.67-15.48,0-15.48,1-10.31-6.19,7.23-5.16-5.16h0v-5.15h0c-1.55-2.07,7.22,5.67,5.16-5.16,4.12-8.77,62.42-15,25.79-41.27,1,2.58-14.44-3.62,0-5.16-3.09-1.55-15,4.64-20.63-5.16h-5.16c7.22-39.72-25.28-13.93-51.59-36.11-11.35-9.81,20.12-32.5-10.32-20.64H316.89c-9.8,4.13,6.19-13.41-15.47-15.48h-5.16c-12.38,18.06,3.61-30.95-15.48-10.31H270.46c1,9.8-8.25,1-20.63,0,0,2.58,1.55,7.22-10.32,5.16-2.06-1.55,5.68,7.22-5.16,5.15,8.77,9.29,2.07,11.35-20.63,10.32-2.07,1.55,5.67-7.22-5.16-5.16-3.61-2.06,7.22,10.32-5.16,10.32.52,4.13,0,6.71-15.48,5.16Z"/>
</svg>
