<svg id="Layer_1" data-name="Layer 1" xmlns="http://www.w3.org/2000/svg" width="480" height="320" viewBox="0 0 480 320">
  <path d="M153.15,290.3h0C153.25,290.7,154.35,287.9,153.15,290.3Zm-32-32c-1.7.8,4.8,1.9,2,.5C123,258.9,123,258.1,121.15,258.3Zm104,27h0C225.15,285.5,225.45,283.5,225.15,285.3Zm-7,0h0C218,285.3,220,285.6,218.15,285.3Zm-12-136h0C206.15,148.5,204,150.6,206.15,149.3Zm27-78h0C233.55,71.4,230.75,72.5,233.15,71.3Zm-10,20h0C222.35,91.3,224.45,93.5,223.15,91.3Zm8-18c-.7-.3,2.6.7,1.5-.5C232.05,72.2,232.15,72.2,231.15,73.3Zm167,115c4.2,7.2,2.9-2.1-4,22,1.4-1.4-15,3.7-10,7,2.5,4.2,3.8,8.6-6,5-2.9,1.9,1,3.9-6,5.5-5.1-1.1-9.2,5.7-12,4.5-2.9.5.8-4.8-4.5-.5-2.6,6.7-11.1,12.8-7.5,19.5.4,3.2.8.2,2.5.5,1.7,3.3.7,1.1,5.5,1.5-1.1,3.1,5.2,7.8,0,9,2.4,1.2-1.7,2.1-5,4,.9,0-2.9-4.1-3-1,.3,2.6-1.8-1.8-2,1-1.4-.4.5,4.9-3,4,.2-4.1-1.4-.4-6-4-1.1-1.3-1.1,4.4-2,1-5.1,4.2-10.5-.3-16,0-4.8.7-1.8,1-1,6-3.1-.9-3.3,1.6-6,0-3.4-1.5,2.9,8.2-6,8-3.5-3.9-2.2-7.3-6-10-2.6-.9-1.4,3.9-7-1,.4-3-4.6-1-7.5-5.5-2-.9,2.1,1.5-3,2,.8.5-5.5,3.9-2.5,4.5,1.5,1.5-6,2.2,1,8-2.5,4.3-10.5.3-13,10-.9,4.2-3-5-8-2.5-8.5,4.2,2.6-7.8-3-4.5-3.6,5-11.7-3.9-17,1,.8,3.1-7.1-5.5-9-4-3.9-2.8,3,4.6,0,4-3.2-5.1-5.5,3.5-9,1-6.1,3.6,1.4-4.2-8-3-2.1-2.2,1.9-2.8-5-5-9.4-1-.9,10.3-18,7-3.3-2.1-2.9,5.7-6,0,1.4,1.8-4.4,3.7-5,1-3.4,1,3.5-7-1-6,1.1-1.7-7.9.2-8,5-1.6,1.5-1,.7-2,4,0-.9-2.2-3.7-2.5.5-.6,4.5-4.6-2.6-5.5.5-2.8,5.1-5.2,2.5-11.5-2.5-.4-3.6-3.7,10.4-6.5-.5-2.9,2.5-1.7,2.2-8,4-2.4.4,3.6-10.4-5-9,.9-1.4.6.6,1-2-4.8-4.7,7.1-13.4-3.5-16.5-.3.7-3.2,1.2-1.5-1.5-5,.5,2.1-2.7,0-3,1.4-3.9-5.6-1.7-3-4-4.6-2.2,7.4-1,4-3-.1-3.3-12,2.7-4.5-6.5,15.2-17.6.9,7.5,19-12-.8-3.8-6.4,1.5-4.5-1.5,2.8-3.1,2-1.1,1-9,.7.5,3.8-1.5,2-5-1.1-4.9.1-10.9,4.7-10.8-4.3-5.9,2.5-17-13.7-16.2,4.9-11.4-4.6.7-13.5-14.5-2.8-3.1-3.9,8.1-18-3-4.1-.2-8.8-4.2.5-4.5-2.2,1-1.8-2.5-5-2-4.1,3.5-1.5,0-9,0,1.2,4-14.8,3.8-2-6-1.1-3-6.5-2.9-3-8,1.7-3.2,9.6,1.5,8-6-.8-2.7,2.9,2.4,4-1-1.6-1.4.6-7-.5-8.5,3.4,3.3,2.6-4.2,8.5-5.5,8.1,1.3,9.8-2.1,18.5-10.5,3.8,5.6,15.2,3,20.5-6.5,8,0,.8,12.6,12.8-2.3,10.3,1.3,7.7-10.1,15.2-6.7,1.6-4.1-4.8-5.4,1-10,5.8-3.1,20.2,7.5,29.5-.5,1.4,3.3,2.7.5,9.5,3.5-.6-.8,2-6.6,4.5-5.5,1.4,1.6,4.8.5,6-1,8,2,4.4,5.1,7.5-4.5,3.8-2.1-3.9-5.8-.5-9.5-2.8-6.1-1.2-2.8,7.5-1.5,1.2-12.9-1-1.7,8-8-.2-3.5-.5-4.9-3-10,4.3,1.6-.4-6.1,7,1,.9-1-.1-4.7,3-4,1.1,2.4,3.2,6.6,7,0,6.5-1.5-6.3,12.4,11,7,.5-2.5,8,.9,7.5-1-3.2-4.3,5.4,1.8,5.5-8,7.6,2.2,3.9-2.5,4-10,5-1.5,9.9,9.5,14,3,7-4.2-8-3.5,7.5-7.5,4.6-2.7-3.1-4.3,3.5-6.5-2.1-2.1-2-2.9,2-2-1.1,4.3,2.4-.2,4,4-2.1.1-2.4.5,2,2-2.2-.7.1-5,3-2,2.7-.8,3.7,4.6,16,11-1.7-.6,1,6.5,5,6,4.4,1.8-.3,2.6-2.5,5.5.3-.1,6.1,8.1,3.5,7.5.6,4.5-3.4,4.9,2,7-1.9,1.2,6.5,8.2-2,9-.9,1.6,2.8,6.1-2.5,4.5-1.4-.5-4,4.1,1.5,5.5-2.7,2.1-.1,3.5,2.5,5.5,0,2.5,4.6-5.3,5.5,2.5-1.1,1.2,4.5-.4,4.5,3.5-6.1,9.6,9.3,1.7,14.5,8.5.1-1.9,5.2-6,7-3,2.6.9,5.1,4.4,2.5,11.5.2,5,1.9,3.9,3.5,8.5-.1,3.4-2,8.3-6,10,8.1,1.7-3.5,4.3,0,5,6.3,0,9.9,1.4,13.5,5-3.2,2.5.8,8.3-5.5,3-1.5,3.5-1.4,2.3,2,5-5.5,0-.9.2-1,6-3.8,1.2-8.9-1-2,4-2.6-1.2-8.3.4-3,4,.6,3.8,7.6-.4,7,5,2-.1,4.6-2.5,5,2,.2-1,1.6-2.9,2,0C384.45,183,408.65,181.1,398.15,188.3Zm-123-31c4.1-4.3-3.2-3.6-8-12-.5.6-8.6.4-9-5,3.9-2.5.7-.9-4-1,1.3-.4-.9-5.3-4-2-.4-.3,1.2-5.7-1.5-3.5-3.6,3.2-7.4-2.1-9.5,4.5-3.2.8-2.8-2.4-7,2-2.8,2.5-10.8-5-8.5,7-11.7,1.9-2.1-4.7-9.5-2,3.5.7-19.5,7.9-7,5,2,1,1.3.5,2,3,10.5,11.1-9-3.2,2.5,13.5,1.2,3.9,7.3.4,5,5.5-7.4,4.6,4.5,3.3,3.5,6,2.9.1-2.6,2.3,0,3,1.6.1,2.6-.6,1,2-3.9-3.4-2.4,8,4,3-.7,2.7,3-1.9,3,1-.5.6.9,2.5,1,0,0-10.6,2.1-.1,7-6,5.9,1.9,6-9.6,11-4,2.3-2.3,1-2.5,3-5,1.1,1.5,4.4-.7,10.5.5,1.9,3.7,5.7,5.6,6.5.5.8,1.8,4.1-.9,2-4C271.15,163.6,264.05,161.1,275.15,157.3Zm-113-54h0C162,103.3,164,103.6,162.15,103.3Zm-23,108h0C139.15,212.1,141.35,210,139.15,211.3Zm159,63h0C298.05,274.7,297,271.9,298.15,274.3Z"/>
</svg>
