<svg id="Layer_1" data-name="Layer 1" xmlns="http://www.w3.org/2000/svg" width="480" height="320" viewBox="0 0 480 320">
  <path d="M336,219.3h0C336,218.39,338.49,220.78,336,219.3Zm11.41-21.69c-.68-.68-.45-.46,0,0C348.31,197.61,345.91,195.1,347.39,197.61ZM386.21,61.77c-33.91,17,9.36-20.89-18.5-19.75-4.11,2.06,4.68-3.31-6-4.79-.11-1.94-.34-12.9-1.71-3.09s-2.62-8.21-11.41,3.09c-7.31,3.19-5.94-4.34-11.42-6.28-4.11-.8-1.83,4.11-7.42-2.86-3.54-3.31-4.91,3.54-7.42,5.14.46.91,4.68.8.57,4-1.25,2.51-8.33,12.9,4,11.41.91-.34,3.08-4.45,4.56.57-10.27,7.54,4.34,8.68,11.42,10.85,2.62-2.06-.12,12.78-4.57,10.84-24.54,8.45-5.36-3.19-22.83,3.43.34,10.5-11.64,9.47-25.68,16.55-3.43,8.9-11.87,1.71-17.7,2.85-4.56.34-4.45,2.06-8,6.85-17-4.79,2.06,14.16-13.7,13.7,2.06,7.53-7.87-.11-17.12,1.14-3.88,6.17-2.85-2.17-6.28,1.14-3.08,5.82-2.85,3.2-10.84,0-4.45-1.71-4.34,4.34-8,4.57-2.51,2.74-8.11-4.11-14.84,3.42,9,9.14-8.45,12.9,0,13.7-.12,1,1.14,4-2.28,3.43-11.53,6.85-3.09,17.12-23.41-2.86-4.22-2.62,5.48,4.57-7.42,10.85-4.22,2.62-1.37,15-10,4.56-10.39-3.88-6.85,16.67-16.21,24-14.16-.68-1.48-9.93-16,1.15-3.88,1-11-7.77-10.28,0,0,29-27.85,20.54-6.84,28.53,5.59.92,13.47-.68,20.54,5.71-2.74,2.86-3.65,2.51,1.14,6.85,3.09-7,4.8-1.25,10.28-1.71,4.45-.12,4.56-5.37,10.27,5.14-2.85,7,1.14,7.07-3.42,16,4.91-.57,2.39,5.48,1.71,10.84,4.34,1.14,7.31,2.51,2.85,6.28,2.06,2,4.57,2.74,6.85,10.27-1.37-1.48,3.54,6.17-1.14,3.43-3.65,3.31,2.4.23,1.14,5.71-6.5-2.74-3.65-2.52-9.13,1.14,4.91,5,4.34-2.63,11.42,5.7-1.26,5.71,4,1.6,5.7,3.43-.68,3.65-.45,5.82,4.57-1.14.34,1.37,5.25,14.15,9.13,2.28,3.65-6.51,11.76,2.51,10.28-9.13,0-1.26,3.76,3.88,4.56,0-1.6-1.37.57-8.22-.57-9.7,4.22,3.65,4.22-5.26,5.14-2.86,5-9.36,6.62,6.17,25.68-15.41,1,3.77,15,5,16-1.14,1.6,7.08,5.94-8.45,7.42-5.14,6.4-5.93,2.86,15.3,13.7-3.42,6.05-1.37,14.27-2.06,12-9.7,3,2.51,10.84,1.82,4-5.14,2.63-13.93,30.37,7.08,35.39-5.71.34,0,2.85,0,2.28,2.28,3.88-.91,9.71,6.4,13.7-4.56,2.06,0,4,3.54,5.71,0,2.62,2.05,1.25-.8,4.56-1.14,1.26,2,3.54,3.88,5.71,1.14,1.26-2.51-1.94-1.49,2.28-8,.69-2.29-6.05-5.14-1.71-7.42,1.14-1.14-2.74-4-.57-5.14,1.71-1.83,2.4,1.94,6.85,2.28,2.4,1.15,4.22-2.85,0-2.28,3.31-1.71,2.63-2.51,3.43-5.71,1.25.92,5.93,2.06,8,0-.12-4.11-.23-6.39-3.43-12.55,4.11,1.82,1.26-4.91,5.71-1.15-1.71-9.36-6.17-2.16-11.42-14.84-.8-7.76-9-11.07-9.7-22.83-.34-5.82-1.94-1.48-4-5.7-2.06-2.74,8.1-7.42,5.7-8-3.65-3.54,4.23-13,8.56-10.85,1.6-1.48-4.1-11.87,5.14-10.84-1.37-4.34.57-4.11-.57-8.56-1.83-7.42,11.07,2.62,16.55,1.71,5,.91.35-7.88,4.57-11.42C379,91.11,390.09,65.54,386.21,61.77Z"/>
</svg>
