<svg id="Layer_1" data-name="Layer 1" xmlns="http://www.w3.org/2000/svg" width="480" height="320" viewBox="0 0 480 320">
  <path d="M379.69,135.37h0C379.56,134.86,378.17,138.41,379.69,135.37Zm5.07-15.22c-16.49-6.22,3.55-.38-7-18.4-5-5.7-14.21-4.31-17.13-8.24-9.13-6.6-.76-8.88-19.66-14.59-5.45-2.79-7.74-5-15.22-2.54-6.34-2.15,6-7.48-16.49-10.14-4.7-1.65,1.9-6.6-3.17-5.71.25,4.56-6.47,1.27-5.08,10.15-1.27,3.42-3-2.79-3.8,1.26,2.15,1.53,1.39,4.44-3.81,3.81-3.8-2.54-22.32-5.2-12.68-15.22-.51-1.9.76-.38-2.54,0-6-.89-7.36-9-13.95-5.08-2.92.26,1.77-10.9-1.27-6.34-3.55-2.92-5.2,2.28-12.69-7.61-3.67,2.66-3.42-1.52-5.07-2.54-3.17-1.77-7.23,4.44-8.88-1.26-10,4-9.13-2.41-19-8.88-2.79,5.2.89-11-13.32.63-20.93,1.14,3.94,15.22-10.78,14.59-2.66.76-6.59-5.71-7.61,5.07-1.9-1.14-12.56,2-19,6.34-1.39,3.43-2.28-1.52-3.8-2.53-.64-1.65-2.67,4.82-2.54,1.27-3.93,9.26-16.23,17.5-8.88,27.9.64-2.28,1.27-3.8,3.81,1.27-.51-1.65,7.1-3.3,5.07,2.54,5.33,3.17,1.14,15.22-10.15,10.15.89,5.32-1.9-1-2.53,2.53-1.27-.12.25,6-3.81,5.08.64-4.82-2.79-.76-7.61-5.08-2.79,1.4-5.83,5.58-13.95,2.54-.89,1.52-17.76-6.72-10.15,3.8.38.51.63,3.18-2.54,2.54-2.15.64-9-1.14-6.34,3.81,2.79,2-.13,1.39-2.54,6.34,1,.51,6.09,9.26,1.27,6.34-10.65.76.51-2.92-1.27,21.57-4.82,1.65-2,9.89-7,22.19,2.41,1.53,10.91,4.06,7,7-9.64,2.16,8.12,21.18,12.69,21.57,12.3-12.44,4.18,1.52,18,1.26,9.77,1.4-.63,6.35-.25,7.61,11.67-.25,5.07-.25,14,8.88,2.92,1.27,5.83-5.07,7-5.7,2.79,2.53,1,3.8,7,3.17,3.81.5,4.32,5.2,5.71,4.44,3.68-3.43,6.85,1.52,11.42-2.54,13.7-.76-4.44,15.09,12.05,22.2,2.41,3.93,7.61,7,11.41,2.54,2.8,4.31,5.59,4.18,12.69,3.8-.51-4.69,1.65-1.27,6.34-1.27-2.92-2.79,1-3.93,5.08,0,2.79,2.41-1.91,2.29-1.91,3.17,1.53.38,2.41,5.71,3.17,1.91,1.4-.13,7.62,9.13,1.91,10.78-1.4,0-6.85-4.19-5.71.63.63,3.81-3.55,2.16-1.27,6.34.38,4.32-5.07-1.64-3.81,7.62-.5,1.39-6.08,1.9-7,5.7-.26,10.28,1-3,7,3.18-8.11,6.59,14.59,4,8.88,10.14,1,3.55,9-6,8.88,3.81,9.9,4.56,3.68-9.13,12.69-5.08,4.06-8.49,6.72,6.73,8.88,2.54,3.55.89-3-4.69,5.07-5.07-3.3-4.06-.51-1.65,5.08-3.17,5.45-6.47,1.39-8.88,16.49-9.52,4.31-18,5.2,2.29,11.41-8.88,10.15-9.76,1.27,1.91,15.22,5.08,7.61-3.55-2.41-7.61,14-2.54.25-2.66,1.77.38,10.78-3.17,4.19-3.05-7.87-2.41.63-7,5.46-2.79,16.11,2.79,14.59-8.24,2.41.12,12.18-5.84,8.25-9.52-4.95-3.8,1.65-.88-1.27-5.07,1.14,1.65-5.84,4.69-4.44,3.17,6.34-8.12-11.67-5.83,7.61-13.95.25-8.88-13.57-5.08-3.17-20.93.25.38,5.58,2,6.34-2.54-12.18-6-4.19-4.19,1.27-17.76,3.3-3.42,21.06-6,14.59-14.59.63-4.18.25-5.32,1.9-12.05-1.4,3.56-4.82-3-1.27-3.8-9.77-4.82,11-9.52-5.07-20.3,2.66-4.31,3.29,3.55,7,.64C382.48,129.66,389.46,123.44,384.76,120.15ZM227.47,292.66c-.38.89.89-3.3-.63-1.9C226.08,291.52,226.08,291.39,227.47,292.66Z"/>
</svg>
