<svg id="Layer_1" data-name="Layer 1" xmlns="http://www.w3.org/2000/svg" width="480" height="320" viewBox="0 0 480 320">
  <path d="M243.52,60.17h0C243.18,60.17,246.52,59.67,243.52,60.17ZM402.11,88.55c1.33-10.69-11.19.16-9.19-15.86-2.5-7.18-8.34-7.35-15.85-14.19-.67-3,2.17-11.35-5-11.69-9.52,3-23,4.84-30.89-9.18C331.33,44.81,339,30,307,41c-6.17,10.52-17.86-32.55-31.71-2.5-4.34,8.18-14.19-12.36-16.7,5-.33-2-13.35,5.18-10.85,7.52,4.51,4.34-2.17,4.84-4.17,15.85-1.84,1.17-8.35,4-14.19.84-2.34-3.17-12.19-18.53-12.52-.84-.67,2.84-6.85-7.84-11.69-1.66,1.51,6.51,17.36,15.85-6.67,18.36-2.34-4.68-14.53-3.84-20,0,.17,5.67-3.84,9-10,16.69-5.51-3.84,4.34-4.84-10-10-.67,3.5-9.85-5.35-11.68-1.67-6.18,8.68-1.67-6.68-3.34-8.35.83-3.51-6.68-1-9.18,5.84-7,3.34,4.17,12.52,2.5,19.2-3.17,1.5-9.52,2.84-10,6.68-2.83,15-14.85,8.51-24.2,12.52-5.68.83-9.18-2.67-9.18,9.18-5-2.67-7.68,1.67-11.69,8.35.84,3.17,5.84,6.17,1.67,13.35,12.85,11.18-8.51,14.36,16.69,13.35-4.34,6.85.34,16.87-15,16.7-.5,3.17,1,10.68-1.67,11.68-7.51,1.84-5.34-5.17-6.68,10,3.51,2.34,4.18-1.17,8.35,1.67,6.84-6.85,28.71-12.19,18.36,16.69,2.51-1.5,1.17-3.84,6.68-3.34,3.84,1.51,7.68,3.68,9.18,9.19-1.5-.84,14.86-2.17,19.2,4.17-.17,7.68-6.18,14.86,10,8.35-1,5,4.84,8.51,10,11.68,4.17-7.18,11.19,2,15.86-5.84,5.84,11-1.17.33,10,5.84,9.34,3-7,10.35,2.5,13.36,18.86-6.35,16.86,37.06,40.9,19.19,10.18-8.18,15.36-30.88,39.23-20.86,7.84-3.51,7.68-17.53,11.68-33.39,7.68-15.36,25.21,3.17,38.4-11.69,15.52-15.69,9.35-32.05,16-55.42,14.36-31.38-8.34-3.5,15.7-41.4C361.87,122.6,412.12,112.25,402.11,88.55ZM84.93,170.34h0C84.6,171.18,89.6,169.18,84.93,170.34Z"/>
</svg>
